<?xml version="1.0" encoding="utf-8" standalone="no"?>
<!DOCTYPE svg PUBLIC "-//W3C//DTD SVG 1.1//EN"
  "http://www.w3.org/Graphics/SVG/1.1/DTD/svg11.dtd">
<svg xmlns:xlink="http://www.w3.org/1999/xlink" width="784.8pt" height="352.597969pt" viewBox="0 0 784.8 352.597969" xmlns="http://www.w3.org/2000/svg" version="1.1">
 <metadata>
  <rdf:RDF xmlns:dc="http://purl.org/dc/elements/1.1/" xmlns:cc="http://creativecommons.org/ns#" xmlns:rdf="http://www.w3.org/1999/02/22-rdf-syntax-ns#">
   <cc:Work>
    <dc:type rdf:resource="http://purl.org/dc/dcmitype/StillImage"/>
    <dc:date>2026-07-04T15:48:57.165986</dc:date>
    <dc:format>image/svg+xml</dc:format>
    <dc:creator>
     <cc:Agent>
      <dc:title>Matplotlib v3.10.8, https://matplotlib.org/</dc:title>
     </cc:Agent>
    </dc:creator>
   </cc:Work>
  </rdf:RDF>
 </metadata>
 <defs>
  <style type="text/css">*{stroke-linejoin: round; stroke-linecap: butt}</style>
 </defs>
 <g id="figure_1">
  <g id="patch_1">
   <path d="M 0 352.597969 
L 784.8 352.597969 
L 784.8 0 
L 0 0 
z
" style="fill: #fafaf9"/>
  </g>
  <g id="axes_1">
   <g id="patch_2">
    <path d="M 29.858824 258.213273 
L 84.24 258.213273 
Q 85.750588 258.213273 85.750588 256.851012 
L 85.750588 256.851012 
Q 85.750588 255.488751 84.24 255.488751 
L 29.858824 255.488751 
Q 28.348235 255.488751 28.348235 256.851012 
L 28.348235 256.851012 
Q 28.348235 258.213273 29.858824 258.213273 
z
" clip-path="url(#pd8c6d95e29)" style="fill: #95a5a6; stroke: #555555; stroke-width: 1.2; stroke-linejoin: miter"/>
   </g>
   <g id="patch_3">
    <path d="M 90.282353 258.213273 
L 144.663529 258.213273 
Q 146.174118 258.213273 146.174118 256.851012 
L 146.174118 215.983186 
Q 146.174118 214.620925 144.663529 214.620925 
L 90.282353 214.620925 
Q 88.771765 214.620925 88.771765 215.983186 
L 88.771765 256.851012 
Q 88.771765 258.213273 90.282353 258.213273 
z
" clip-path="url(#pd8c6d95e29)" style="fill: #95a5a6; stroke: #555555; stroke-width: 1.2; stroke-linejoin: miter"/>
   </g>
   <g id="patch_4">
    <path d="M 150.705882 258.213273 
L 205.087059 258.213273 
Q 206.597647 258.213273 206.597647 256.851012 
L 206.597647 256.851012 
Q 206.597647 255.488751 205.087059 255.488751 
L 150.705882 255.488751 
Q 149.195294 255.488751 149.195294 256.851012 
L 149.195294 256.851012 
Q 149.195294 258.213273 150.705882 258.213273 
z
" clip-path="url(#pd8c6d95e29)" style="fill: #95a5a6; stroke: #555555; stroke-width: 1.2; stroke-linejoin: miter"/>
   </g>
   <g id="patch_5">
    <path d="M 150.705882 258.213273 
L 205.087059 258.213273 
Q 206.597647 258.213273 206.597647 256.851012 
L 206.597647 215.983186 
Q 206.597647 214.620925 205.087059 214.620925 
L 150.705882 214.620925 
Q 149.195294 214.620925 149.195294 215.983186 
L 149.195294 256.851012 
Q 149.195294 258.213273 150.705882 258.213273 
z
" clip-path="url(#pd8c6d95e29)" style="fill: #85c1e9; opacity: 0.85; stroke: #2471a3; stroke-width: 1.2; stroke-linejoin: miter"/>
   </g>
   <g id="patch_6">
    <path d="M 211.129412 258.213273 
L 265.510588 258.213273 
Q 267.021176 258.213273 267.021176 256.851012 
L 267.021176 175.11536 
Q 267.021176 173.753099 265.510588 173.753099 
L 211.129412 173.753099 
Q 209.618824 173.753099 209.618824 175.11536 
L 209.618824 256.851012 
Q 209.618824 258.213273 211.129412 258.213273 
z
" clip-path="url(#pd8c6d95e29)" style="fill: #95a5a6; stroke: #555555; stroke-width: 1.2; stroke-linejoin: miter"/>
   </g>
   <g id="patch_7">
    <path d="M 271.552941 258.213273 
L 325.934118 258.213273 
Q 327.444706 258.213273 327.444706 256.851012 
L 327.444706 215.983186 
Q 327.444706 214.620925 325.934118 214.620925 
L 271.552941 214.620925 
Q 270.042353 214.620925 270.042353 215.983186 
L 270.042353 256.851012 
Q 270.042353 258.213273 271.552941 258.213273 
z
" clip-path="url(#pd8c6d95e29)" style="fill: #95a5a6; stroke: #555555; stroke-width: 1.2; stroke-linejoin: miter"/>
   </g>
   <g id="patch_8">
    <path d="M 271.552941 217.345447 
L 325.934118 217.345447 
Q 327.444706 217.345447 327.444706 215.983186 
L 327.444706 175.11536 
Q 327.444706 173.753099 325.934118 173.753099 
L 271.552941 173.753099 
Q 270.042353 173.753099 270.042353 175.11536 
L 270.042353 215.983186 
Q 270.042353 217.345447 271.552941 217.345447 
z
" clip-path="url(#pd8c6d95e29)" style="fill: #85c1e9; opacity: 0.85; stroke: #2471a3; stroke-width: 1.2; stroke-linejoin: miter"/>
   </g>
   <g id="patch_9">
    <path d="M 331.976471 258.213273 
L 386.357647 258.213273 
Q 387.868235 258.213273 387.868235 256.851012 
L 387.868235 256.851012 
Q 387.868235 255.488751 386.357647 255.488751 
L 331.976471 255.488751 
Q 330.465882 255.488751 330.465882 256.851012 
L 330.465882 256.851012 
Q 330.465882 258.213273 331.976471 258.213273 
z
" clip-path="url(#pd8c6d95e29)" style="fill: #95a5a6; stroke: #555555; stroke-width: 1.2; stroke-linejoin: miter"/>
   </g>
   <g id="patch_10">
    <path d="M 331.976471 258.213273 
L 386.357647 258.213273 
Q 387.868235 258.213273 387.868235 256.851012 
L 387.868235 175.11536 
Q 387.868235 173.753099 386.357647 173.753099 
L 331.976471 173.753099 
Q 330.465882 173.753099 330.465882 175.11536 
L 330.465882 256.851012 
Q 330.465882 258.213273 331.976471 258.213273 
z
" clip-path="url(#pd8c6d95e29)" style="fill: #85c1e9; opacity: 0.85; stroke: #2471a3; stroke-width: 1.2; stroke-linejoin: miter"/>
   </g>
   <g id="patch_11">
    <path d="M 392.4 258.213273 
L 446.781176 258.213273 
Q 448.291765 258.213273 448.291765 256.851012 
L 448.291765 215.983186 
Q 448.291765 214.620925 446.781176 214.620925 
L 392.4 214.620925 
Q 390.889412 214.620925 390.889412 215.983186 
L 390.889412 256.851012 
Q 390.889412 258.213273 392.4 258.213273 
z
" clip-path="url(#pd8c6d95e29)" style="fill: #95a5a6; stroke: #555555; stroke-width: 1.2; stroke-linejoin: miter"/>
   </g>
   <g id="patch_12">
    <path d="M 392.4 217.345447 
L 446.781176 217.345447 
Q 448.291765 217.345447 448.291765 215.983186 
L 448.291765 175.11536 
Q 448.291765 173.753099 446.781176 173.753099 
L 392.4 173.753099 
Q 390.889412 173.753099 390.889412 175.11536 
L 390.889412 215.983186 
Q 390.889412 217.345447 392.4 217.345447 
z
" clip-path="url(#pd8c6d95e29)" style="fill: #85c1e9; opacity: 0.85; stroke: #2471a3; stroke-width: 1.2; stroke-linejoin: miter"/>
   </g>
   <g id="patch_13">
    <path d="M 452.823529 258.213273 
L 507.204706 258.213273 
Q 508.715294 258.213273 508.715294 256.851012 
L 508.715294 134.247534 
Q 508.715294 132.885273 507.204706 132.885273 
L 452.823529 132.885273 
Q 451.312941 132.885273 451.312941 134.247534 
L 451.312941 256.851012 
Q 451.312941 258.213273 452.823529 258.213273 
z
" clip-path="url(#pd8c6d95e29)" style="fill: #95a5a6; stroke: #555555; stroke-width: 1.2; stroke-linejoin: miter"/>
   </g>
   <g id="patch_14">
    <path d="M 513.247059 258.213273 
L 567.628235 258.213273 
Q 569.138824 258.213273 569.138824 256.851012 
L 569.138824 175.11536 
Q 569.138824 173.753099 567.628235 173.753099 
L 513.247059 173.753099 
Q 511.736471 173.753099 511.736471 175.11536 
L 511.736471 256.851012 
Q 511.736471 258.213273 513.247059 258.213273 
z
" clip-path="url(#pd8c6d95e29)" style="fill: #95a5a6; stroke: #555555; stroke-width: 1.2; stroke-linejoin: miter"/>
   </g>
   <g id="patch_15">
    <path d="M 573.670588 258.213273 
L 628.051765 258.213273 
Q 629.562353 258.213273 629.562353 256.851012 
L 629.562353 215.983186 
Q 629.562353 214.620925 628.051765 214.620925 
L 573.670588 214.620925 
Q 572.16 214.620925 572.16 215.983186 
L 572.16 256.851012 
Q 572.16 258.213273 573.670588 258.213273 
z
" clip-path="url(#pd8c6d95e29)" style="fill: #95a5a6; stroke: #555555; stroke-width: 1.2; stroke-linejoin: miter"/>
   </g>
   <g id="patch_16">
    <path d="M 573.670588 217.345447 
L 628.051765 217.345447 
Q 629.562353 217.345447 629.562353 215.983186 
L 629.562353 175.11536 
Q 629.562353 173.753099 628.051765 173.753099 
L 573.670588 173.753099 
Q 572.16 173.753099 572.16 175.11536 
L 572.16 215.983186 
Q 572.16 217.345447 573.670588 217.345447 
z
" clip-path="url(#pd8c6d95e29)" style="fill: #85c1e9; opacity: 0.85; stroke: #2471a3; stroke-width: 1.2; stroke-linejoin: miter"/>
   </g>
   <g id="patch_17">
    <path d="M 634.094118 258.213273 
L 688.475294 258.213273 
Q 689.985882 258.213273 689.985882 256.851012 
L 689.985882 175.11536 
Q 689.985882 173.753099 688.475294 173.753099 
L 634.094118 173.753099 
Q 632.583529 173.753099 632.583529 175.11536 
L 632.583529 256.851012 
Q 632.583529 258.213273 634.094118 258.213273 
z
" clip-path="url(#pd8c6d95e29)" style="fill: #95a5a6; stroke: #555555; stroke-width: 1.2; stroke-linejoin: miter"/>
   </g>
   <g id="patch_18">
    <path d="M 694.517647 258.213273 
L 748.898824 258.213273 
Q 750.409412 258.213273 750.409412 256.851012 
L 750.409412 215.983186 
Q 750.409412 214.620925 748.898824 214.620925 
L 694.517647 214.620925 
Q 693.007059 214.620925 693.007059 215.983186 
L 693.007059 256.851012 
Q 693.007059 258.213273 694.517647 258.213273 
z
" clip-path="url(#pd8c6d95e29)" style="fill: #95a5a6; stroke: #555555; stroke-width: 1.2; stroke-linejoin: miter"/>
   </g>
   <g id="text_1">
    <!-- 0 -->
    <g style="fill: #333333" transform="translate(53.868162 280.690577) scale(0.1 -0.1)">
     <defs>
      <path id="DejaVuSans-30" d="M 2034 4250 
Q 1547 4250 1301 3770 
Q 1056 3291 1056 2328 
Q 1056 1369 1301 889 
Q 1547 409 2034 409 
Q 2525 409 2770 889 
Q 3016 1369 3016 2328 
Q 3016 3291 2770 3770 
Q 2525 4250 2034 4250 
z
M 2034 4750 
Q 2819 4750 3233 4129 
Q 3647 3509 3647 2328 
Q 3647 1150 3233 529 
Q 2819 -91 2034 -91 
Q 1250 -91 836 529 
Q 422 1150 422 2328 
Q 422 3509 836 4129 
Q 1250 4750 2034 4750 
z
" transform="scale(0.015625)"/>
     </defs>
     <use xlink:href="#DejaVuSans-30"/>
    </g>
   </g>
   <g id="text_2">
    <!-- i=0 -->
    <g style="fill: #999999" transform="translate(50.041287 301.12449) scale(0.08 -0.08)">
     <defs>
      <path id="DejaVuSans-69" d="M 603 3500 
L 1178 3500 
L 1178 0 
L 603 0 
L 603 3500 
z
M 603 4863 
L 1178 4863 
L 1178 4134 
L 603 4134 
L 603 4863 
z
" transform="scale(0.015625)"/>
      <path id="DejaVuSans-3d" d="M 678 2906 
L 4684 2906 
L 4684 2381 
L 678 2381 
L 678 2906 
z
M 678 1631 
L 4684 1631 
L 4684 1100 
L 678 1100 
L 678 1631 
z
" transform="scale(0.015625)"/>
     </defs>
     <use xlink:href="#DejaVuSans-69"/>
     <use xlink:href="#DejaVuSans-3d" transform="translate(27.783203 0)"/>
     <use xlink:href="#DejaVuSans-30" transform="translate(111.572266 0)"/>
    </g>
   </g>
   <g id="text_3">
    <!-- 1 -->
    <g style="fill: #333333" transform="translate(114.291691 280.690577) scale(0.1 -0.1)">
     <defs>
      <path id="DejaVuSans-31" d="M 794 531 
L 1825 531 
L 1825 4091 
L 703 3866 
L 703 4441 
L 1819 4666 
L 2450 4666 
L 2450 531 
L 3481 531 
L 3481 0 
L 794 0 
L 794 531 
z
" transform="scale(0.015625)"/>
     </defs>
     <use xlink:href="#DejaVuSans-31"/>
    </g>
   </g>
   <g id="text_4">
    <!-- i=1 -->
    <g style="fill: #999999" transform="translate(110.464816 301.12449) scale(0.08 -0.08)">
     <use xlink:href="#DejaVuSans-69"/>
     <use xlink:href="#DejaVuSans-3d" transform="translate(27.783203 0)"/>
     <use xlink:href="#DejaVuSans-31" transform="translate(111.572266 0)"/>
    </g>
   </g>
   <g id="text_5">
    <!-- +1 -->
    <g style="fill: #1b4f72" transform="translate(170.994596 238.900537) scale(0.09 -0.09)">
     <defs>
      <path id="DejaVuSans-Bold-2b" d="M 3053 4013 
L 3053 2375 
L 4684 2375 
L 4684 1638 
L 3053 1638 
L 3053 0 
L 2309 0 
L 2309 1638 
L 678 1638 
L 678 2375 
L 2309 2375 
L 2309 4013 
L 3053 4013 
z
" transform="scale(0.015625)"/>
      <path id="DejaVuSans-Bold-31" d="M 750 831 
L 1813 831 
L 1813 3847 
L 722 3622 
L 722 4441 
L 1806 4666 
L 2950 4666 
L 2950 831 
L 4013 831 
L 4013 0 
L 750 0 
L 750 831 
z
" transform="scale(0.015625)"/>
     </defs>
     <use xlink:href="#DejaVuSans-Bold-2b"/>
     <use xlink:href="#DejaVuSans-Bold-31" transform="translate(83.789062 0)"/>
    </g>
   </g>
   <g id="text_6">
    <!-- 0 -->
    <g style="fill: #333333" transform="translate(174.715221 280.690577) scale(0.1 -0.1)">
     <use xlink:href="#DejaVuSans-30"/>
    </g>
   </g>
   <g id="text_7">
    <!-- i=2 -->
    <g style="fill: #999999" transform="translate(170.888346 301.12449) scale(0.08 -0.08)">
     <defs>
      <path id="DejaVuSans-32" d="M 1228 531 
L 3431 531 
L 3431 0 
L 469 0 
L 469 531 
Q 828 903 1448 1529 
Q 2069 2156 2228 2338 
Q 2531 2678 2651 2914 
Q 2772 3150 2772 3378 
Q 2772 3750 2511 3984 
Q 2250 4219 1831 4219 
Q 1534 4219 1204 4116 
Q 875 4013 500 3803 
L 500 4441 
Q 881 4594 1212 4672 
Q 1544 4750 1819 4750 
Q 2544 4750 2975 4387 
Q 3406 4025 3406 3419 
Q 3406 3131 3298 2873 
Q 3191 2616 2906 2266 
Q 2828 2175 2409 1742 
Q 1991 1309 1228 531 
z
" transform="scale(0.015625)"/>
     </defs>
     <use xlink:href="#DejaVuSans-69"/>
     <use xlink:href="#DejaVuSans-3d" transform="translate(27.783203 0)"/>
     <use xlink:href="#DejaVuSans-32" transform="translate(111.572266 0)"/>
    </g>
   </g>
   <g id="text_8">
    <!-- 2 -->
    <g style="fill: #333333" transform="translate(235.13875 280.690577) scale(0.1 -0.1)">
     <use xlink:href="#DejaVuSans-32"/>
    </g>
   </g>
   <g id="text_9">
    <!-- i=3 -->
    <g style="fill: #999999" transform="translate(231.311875 301.12449) scale(0.08 -0.08)">
     <defs>
      <path id="DejaVuSans-33" d="M 2597 2516 
Q 3050 2419 3304 2112 
Q 3559 1806 3559 1356 
Q 3559 666 3084 287 
Q 2609 -91 1734 -91 
Q 1441 -91 1130 -33 
Q 819 25 488 141 
L 488 750 
Q 750 597 1062 519 
Q 1375 441 1716 441 
Q 2309 441 2620 675 
Q 2931 909 2931 1356 
Q 2931 1769 2642 2001 
Q 2353 2234 1838 2234 
L 1294 2234 
L 1294 2753 
L 1863 2753 
Q 2328 2753 2575 2939 
Q 2822 3125 2822 3475 
Q 2822 3834 2567 4026 
Q 2313 4219 1838 4219 
Q 1578 4219 1281 4162 
Q 984 4106 628 3988 
L 628 4550 
Q 988 4650 1302 4700 
Q 1616 4750 1894 4750 
Q 2613 4750 3031 4423 
Q 3450 4097 3450 3541 
Q 3450 3153 3228 2886 
Q 3006 2619 2597 2516 
z
" transform="scale(0.015625)"/>
     </defs>
     <use xlink:href="#DejaVuSans-69"/>
     <use xlink:href="#DejaVuSans-3d" transform="translate(27.783203 0)"/>
     <use xlink:href="#DejaVuSans-33" transform="translate(111.572266 0)"/>
    </g>
   </g>
   <g id="text_10">
    <!-- +1 -->
    <g style="fill: #1b4f72" transform="translate(291.841654 198.032711) scale(0.09 -0.09)">
     <use xlink:href="#DejaVuSans-Bold-2b"/>
     <use xlink:href="#DejaVuSans-Bold-31" transform="translate(83.789062 0)"/>
    </g>
   </g>
   <g id="text_11">
    <!-- 1 -->
    <g style="fill: #333333" transform="translate(295.562279 280.690577) scale(0.1 -0.1)">
     <use xlink:href="#DejaVuSans-31"/>
    </g>
   </g>
   <g id="text_12">
    <!-- i=4 -->
    <g style="fill: #999999" transform="translate(291.735404 301.12449) scale(0.08 -0.08)">
     <defs>
      <path id="DejaVuSans-34" d="M 2419 4116 
L 825 1625 
L 2419 1625 
L 2419 4116 
z
M 2253 4666 
L 3047 4666 
L 3047 1625 
L 3713 1625 
L 3713 1100 
L 3047 1100 
L 3047 0 
L 2419 0 
L 2419 1100 
L 313 1100 
L 313 1709 
L 2253 4666 
z
" transform="scale(0.015625)"/>
     </defs>
     <use xlink:href="#DejaVuSans-69"/>
     <use xlink:href="#DejaVuSans-3d" transform="translate(27.783203 0)"/>
     <use xlink:href="#DejaVuSans-34" transform="translate(111.572266 0)"/>
    </g>
   </g>
   <g id="text_13">
    <!-- +2 -->
    <g style="fill: #1b4f72" transform="translate(352.265184 218.466624) scale(0.09 -0.09)">
     <defs>
      <path id="DejaVuSans-Bold-32" d="M 1844 884 
L 3897 884 
L 3897 0 
L 506 0 
L 506 884 
L 2209 2388 
Q 2438 2594 2547 2791 
Q 2656 2988 2656 3200 
Q 2656 3528 2436 3728 
Q 2216 3928 1850 3928 
Q 1569 3928 1234 3808 
Q 900 3688 519 3450 
L 519 4475 
Q 925 4609 1322 4679 
Q 1719 4750 2100 4750 
Q 2938 4750 3402 4381 
Q 3866 4013 3866 3353 
Q 3866 2972 3669 2642 
Q 3472 2313 2841 1759 
L 1844 884 
z
" transform="scale(0.015625)"/>
     </defs>
     <use xlink:href="#DejaVuSans-Bold-2b"/>
     <use xlink:href="#DejaVuSans-Bold-32" transform="translate(83.789062 0)"/>
    </g>
   </g>
   <g id="text_14">
    <!-- 0 -->
    <g style="fill: #333333" transform="translate(355.985809 280.690577) scale(0.1 -0.1)">
     <use xlink:href="#DejaVuSans-30"/>
    </g>
   </g>
   <g id="text_15">
    <!-- i=5 -->
    <g style="fill: #999999" transform="translate(352.158934 301.12449) scale(0.08 -0.08)">
     <defs>
      <path id="DejaVuSans-35" d="M 691 4666 
L 3169 4666 
L 3169 4134 
L 1269 4134 
L 1269 2991 
Q 1406 3038 1543 3061 
Q 1681 3084 1819 3084 
Q 2600 3084 3056 2656 
Q 3513 2228 3513 1497 
Q 3513 744 3044 326 
Q 2575 -91 1722 -91 
Q 1428 -91 1123 -41 
Q 819 9 494 109 
L 494 744 
Q 775 591 1075 516 
Q 1375 441 1709 441 
Q 2250 441 2565 725 
Q 2881 1009 2881 1497 
Q 2881 1984 2565 2268 
Q 2250 2553 1709 2553 
Q 1456 2553 1204 2497 
Q 953 2441 691 2322 
L 691 4666 
z
" transform="scale(0.015625)"/>
     </defs>
     <use xlink:href="#DejaVuSans-69"/>
     <use xlink:href="#DejaVuSans-3d" transform="translate(27.783203 0)"/>
     <use xlink:href="#DejaVuSans-35" transform="translate(111.572266 0)"/>
    </g>
   </g>
   <g id="text_16">
    <!-- +1 -->
    <g style="fill: #1b4f72" transform="translate(412.688713 198.032711) scale(0.09 -0.09)">
     <use xlink:href="#DejaVuSans-Bold-2b"/>
     <use xlink:href="#DejaVuSans-Bold-31" transform="translate(83.789062 0)"/>
    </g>
   </g>
   <g id="text_17">
    <!-- 1 -->
    <g style="fill: #333333" transform="translate(416.409338 280.690577) scale(0.1 -0.1)">
     <use xlink:href="#DejaVuSans-31"/>
    </g>
   </g>
   <g id="text_18">
    <!-- i=6 -->
    <g style="fill: #999999" transform="translate(412.582463 301.12449) scale(0.08 -0.08)">
     <defs>
      <path id="DejaVuSans-36" d="M 2113 2584 
Q 1688 2584 1439 2293 
Q 1191 2003 1191 1497 
Q 1191 994 1439 701 
Q 1688 409 2113 409 
Q 2538 409 2786 701 
Q 3034 994 3034 1497 
Q 3034 2003 2786 2293 
Q 2538 2584 2113 2584 
z
M 3366 4563 
L 3366 3988 
Q 3128 4100 2886 4159 
Q 2644 4219 2406 4219 
Q 1781 4219 1451 3797 
Q 1122 3375 1075 2522 
Q 1259 2794 1537 2939 
Q 1816 3084 2150 3084 
Q 2853 3084 3261 2657 
Q 3669 2231 3669 1497 
Q 3669 778 3244 343 
Q 2819 -91 2113 -91 
Q 1303 -91 875 529 
Q 447 1150 447 2328 
Q 447 3434 972 4092 
Q 1497 4750 2381 4750 
Q 2619 4750 2861 4703 
Q 3103 4656 3366 4563 
z
" transform="scale(0.015625)"/>
     </defs>
     <use xlink:href="#DejaVuSans-69"/>
     <use xlink:href="#DejaVuSans-3d" transform="translate(27.783203 0)"/>
     <use xlink:href="#DejaVuSans-36" transform="translate(111.572266 0)"/>
    </g>
   </g>
   <g id="text_19">
    <!-- 3 -->
    <g style="fill: #333333" transform="translate(476.832868 280.690577) scale(0.1 -0.1)">
     <use xlink:href="#DejaVuSans-33"/>
    </g>
   </g>
   <g id="text_20">
    <!-- i=7 -->
    <g style="fill: #999999" transform="translate(473.005993 301.12449) scale(0.08 -0.08)">
     <defs>
      <path id="DejaVuSans-37" d="M 525 4666 
L 3525 4666 
L 3525 4397 
L 1831 0 
L 1172 0 
L 2766 4134 
L 525 4134 
L 525 4666 
z
" transform="scale(0.015625)"/>
     </defs>
     <use xlink:href="#DejaVuSans-69"/>
     <use xlink:href="#DejaVuSans-3d" transform="translate(27.783203 0)"/>
     <use xlink:href="#DejaVuSans-37" transform="translate(111.572266 0)"/>
    </g>
   </g>
   <g id="text_21">
    <!-- 2 -->
    <g style="fill: #333333" transform="translate(537.256397 280.690577) scale(0.1 -0.1)">
     <use xlink:href="#DejaVuSans-32"/>
    </g>
   </g>
   <g id="text_22">
    <!-- i=8 -->
    <g style="fill: #999999" transform="translate(533.429522 301.12449) scale(0.08 -0.08)">
     <defs>
      <path id="DejaVuSans-38" d="M 2034 2216 
Q 1584 2216 1326 1975 
Q 1069 1734 1069 1313 
Q 1069 891 1326 650 
Q 1584 409 2034 409 
Q 2484 409 2743 651 
Q 3003 894 3003 1313 
Q 3003 1734 2745 1975 
Q 2488 2216 2034 2216 
z
M 1403 2484 
Q 997 2584 770 2862 
Q 544 3141 544 3541 
Q 544 4100 942 4425 
Q 1341 4750 2034 4750 
Q 2731 4750 3128 4425 
Q 3525 4100 3525 3541 
Q 3525 3141 3298 2862 
Q 3072 2584 2669 2484 
Q 3125 2378 3379 2068 
Q 3634 1759 3634 1313 
Q 3634 634 3220 271 
Q 2806 -91 2034 -91 
Q 1263 -91 848 271 
Q 434 634 434 1313 
Q 434 1759 690 2068 
Q 947 2378 1403 2484 
z
M 1172 3481 
Q 1172 3119 1398 2916 
Q 1625 2713 2034 2713 
Q 2441 2713 2670 2916 
Q 2900 3119 2900 3481 
Q 2900 3844 2670 4047 
Q 2441 4250 2034 4250 
Q 1625 4250 1398 4047 
Q 1172 3844 1172 3481 
z
" transform="scale(0.015625)"/>
     </defs>
     <use xlink:href="#DejaVuSans-69"/>
     <use xlink:href="#DejaVuSans-3d" transform="translate(27.783203 0)"/>
     <use xlink:href="#DejaVuSans-38" transform="translate(111.572266 0)"/>
    </g>
   </g>
   <g id="text_23">
    <!-- +1 -->
    <g style="fill: #1b4f72" transform="translate(593.959301 198.032711) scale(0.09 -0.09)">
     <use xlink:href="#DejaVuSans-Bold-2b"/>
     <use xlink:href="#DejaVuSans-Bold-31" transform="translate(83.789062 0)"/>
    </g>
   </g>
   <g id="text_24">
    <!-- 1 -->
    <g style="fill: #333333" transform="translate(597.679926 280.690577) scale(0.1 -0.1)">
     <use xlink:href="#DejaVuSans-31"/>
    </g>
   </g>
   <g id="text_25">
    <!-- i=9 -->
    <g style="fill: #999999" transform="translate(593.853051 301.12449) scale(0.08 -0.08)">
     <defs>
      <path id="DejaVuSans-39" d="M 703 97 
L 703 672 
Q 941 559 1184 500 
Q 1428 441 1663 441 
Q 2288 441 2617 861 
Q 2947 1281 2994 2138 
Q 2813 1869 2534 1725 
Q 2256 1581 1919 1581 
Q 1219 1581 811 2004 
Q 403 2428 403 3163 
Q 403 3881 828 4315 
Q 1253 4750 1959 4750 
Q 2769 4750 3195 4129 
Q 3622 3509 3622 2328 
Q 3622 1225 3098 567 
Q 2575 -91 1691 -91 
Q 1453 -91 1209 -44 
Q 966 3 703 97 
z
M 1959 2075 
Q 2384 2075 2632 2365 
Q 2881 2656 2881 3163 
Q 2881 3666 2632 3958 
Q 2384 4250 1959 4250 
Q 1534 4250 1286 3958 
Q 1038 3666 1038 3163 
Q 1038 2656 1286 2365 
Q 1534 2075 1959 2075 
z
" transform="scale(0.015625)"/>
     </defs>
     <use xlink:href="#DejaVuSans-69"/>
     <use xlink:href="#DejaVuSans-3d" transform="translate(27.783203 0)"/>
     <use xlink:href="#DejaVuSans-39" transform="translate(111.572266 0)"/>
    </g>
   </g>
   <g id="text_26">
    <!-- 2 -->
    <g style="fill: #333333" transform="translate(658.103456 280.690577) scale(0.1 -0.1)">
     <use xlink:href="#DejaVuSans-32"/>
    </g>
   </g>
   <g id="text_27">
    <!-- i=10 -->
    <g style="fill: #999999" transform="translate(651.731581 301.12449) scale(0.08 -0.08)">
     <use xlink:href="#DejaVuSans-69"/>
     <use xlink:href="#DejaVuSans-3d" transform="translate(27.783203 0)"/>
     <use xlink:href="#DejaVuSans-31" transform="translate(111.572266 0)"/>
     <use xlink:href="#DejaVuSans-30" transform="translate(175.195312 0)"/>
    </g>
   </g>
   <g id="text_28">
    <!-- 1 -->
    <g style="fill: #333333" transform="translate(718.526985 280.690577) scale(0.1 -0.1)">
     <use xlink:href="#DejaVuSans-31"/>
    </g>
   </g>
   <g id="text_29">
    <!-- i=11 -->
    <g style="fill: #999999" transform="translate(712.15511 301.12449) scale(0.08 -0.08)">
     <use xlink:href="#DejaVuSans-69"/>
     <use xlink:href="#DejaVuSans-3d" transform="translate(27.783203 0)"/>
     <use xlink:href="#DejaVuSans-31" transform="translate(111.572266 0)"/>
     <use xlink:href="#DejaVuSans-31" transform="translate(175.195312 0)"/>
    </g>
   </g>
   <g id="text_30">
    <g id="patch_19">
     <path d="M 305.441172 82.149389 
L 479.358828 82.149389 
Q 485.858828 82.149389 485.858828 75.649389 
L 485.858828 63.067826 
Q 485.858828 56.567826 479.358828 56.567826 
L 305.441172 56.567826 
Q 298.941172 56.567826 298.941172 63.067826 
L 298.941172 75.649389 
Q 298.941172 82.149389 305.441172 82.149389 
z
" style="fill: #d5f5e3; stroke: #27ae60; stroke-linejoin: miter"/>
    </g>
    <!-- Total trapped water = 6 -->
    <g style="fill: #1a1a1a" transform="translate(305.441172 72.945795) scale(0.13 -0.13)">
     <defs>
      <path id="DejaVuSans-Bold-54" d="M 31 4666 
L 4331 4666 
L 4331 3756 
L 2784 3756 
L 2784 0 
L 1581 0 
L 1581 3756 
L 31 3756 
L 31 4666 
z
" transform="scale(0.015625)"/>
      <path id="DejaVuSans-Bold-6f" d="M 2203 2784 
Q 1831 2784 1636 2517 
Q 1441 2250 1441 1747 
Q 1441 1244 1636 976 
Q 1831 709 2203 709 
Q 2569 709 2762 976 
Q 2956 1244 2956 1747 
Q 2956 2250 2762 2517 
Q 2569 2784 2203 2784 
z
M 2203 3584 
Q 3106 3584 3614 3096 
Q 4122 2609 4122 1747 
Q 4122 884 3614 396 
Q 3106 -91 2203 -91 
Q 1297 -91 786 396 
Q 275 884 275 1747 
Q 275 2609 786 3096 
Q 1297 3584 2203 3584 
z
" transform="scale(0.015625)"/>
      <path id="DejaVuSans-Bold-74" d="M 1759 4494 
L 1759 3500 
L 2913 3500 
L 2913 2700 
L 1759 2700 
L 1759 1216 
Q 1759 972 1856 886 
Q 1953 800 2241 800 
L 2816 800 
L 2816 0 
L 1856 0 
Q 1194 0 917 276 
Q 641 553 641 1216 
L 641 2700 
L 84 2700 
L 84 3500 
L 641 3500 
L 641 4494 
L 1759 4494 
z
" transform="scale(0.015625)"/>
      <path id="DejaVuSans-Bold-61" d="M 2106 1575 
Q 1756 1575 1579 1456 
Q 1403 1338 1403 1106 
Q 1403 894 1545 773 
Q 1688 653 1941 653 
Q 2256 653 2472 879 
Q 2688 1106 2688 1447 
L 2688 1575 
L 2106 1575 
z
M 3816 1997 
L 3816 0 
L 2688 0 
L 2688 519 
Q 2463 200 2181 54 
Q 1900 -91 1497 -91 
Q 953 -91 614 226 
Q 275 544 275 1050 
Q 275 1666 698 1953 
Q 1122 2241 2028 2241 
L 2688 2241 
L 2688 2328 
Q 2688 2594 2478 2717 
Q 2269 2841 1825 2841 
Q 1466 2841 1156 2769 
Q 847 2697 581 2553 
L 581 3406 
Q 941 3494 1303 3539 
Q 1666 3584 2028 3584 
Q 2975 3584 3395 3211 
Q 3816 2838 3816 1997 
z
" transform="scale(0.015625)"/>
      <path id="DejaVuSans-Bold-6c" d="M 538 4863 
L 1656 4863 
L 1656 0 
L 538 0 
L 538 4863 
z
" transform="scale(0.015625)"/>
      <path id="DejaVuSans-Bold-20" transform="scale(0.015625)"/>
      <path id="DejaVuSans-Bold-72" d="M 3138 2547 
Q 2991 2616 2845 2648 
Q 2700 2681 2553 2681 
Q 2122 2681 1889 2404 
Q 1656 2128 1656 1613 
L 1656 0 
L 538 0 
L 538 3500 
L 1656 3500 
L 1656 2925 
Q 1872 3269 2151 3426 
Q 2431 3584 2822 3584 
Q 2878 3584 2943 3579 
Q 3009 3575 3134 3559 
L 3138 2547 
z
" transform="scale(0.015625)"/>
      <path id="DejaVuSans-Bold-70" d="M 1656 506 
L 1656 -1331 
L 538 -1331 
L 538 3500 
L 1656 3500 
L 1656 2988 
Q 1888 3294 2169 3439 
Q 2450 3584 2816 3584 
Q 3463 3584 3878 3070 
Q 4294 2556 4294 1747 
Q 4294 938 3878 423 
Q 3463 -91 2816 -91 
Q 2450 -91 2169 54 
Q 1888 200 1656 506 
z
M 2400 2772 
Q 2041 2772 1848 2508 
Q 1656 2244 1656 1747 
Q 1656 1250 1848 986 
Q 2041 722 2400 722 
Q 2759 722 2948 984 
Q 3138 1247 3138 1747 
Q 3138 2247 2948 2509 
Q 2759 2772 2400 2772 
z
" transform="scale(0.015625)"/>
      <path id="DejaVuSans-Bold-65" d="M 4031 1759 
L 4031 1441 
L 1416 1441 
Q 1456 1047 1700 850 
Q 1944 653 2381 653 
Q 2734 653 3104 758 
Q 3475 863 3866 1075 
L 3866 213 
Q 3469 63 3072 -14 
Q 2675 -91 2278 -91 
Q 1328 -91 801 392 
Q 275 875 275 1747 
Q 275 2603 792 3093 
Q 1309 3584 2216 3584 
Q 3041 3584 3536 3087 
Q 4031 2591 4031 1759 
z
M 2881 2131 
Q 2881 2450 2695 2645 
Q 2509 2841 2209 2841 
Q 1884 2841 1681 2658 
Q 1478 2475 1428 2131 
L 2881 2131 
z
" transform="scale(0.015625)"/>
      <path id="DejaVuSans-Bold-64" d="M 2919 2988 
L 2919 4863 
L 4044 4863 
L 4044 0 
L 2919 0 
L 2919 506 
Q 2688 197 2409 53 
Q 2131 -91 1766 -91 
Q 1119 -91 703 423 
Q 288 938 288 1747 
Q 288 2556 703 3070 
Q 1119 3584 1766 3584 
Q 2128 3584 2408 3439 
Q 2688 3294 2919 2988 
z
M 2181 722 
Q 2541 722 2730 984 
Q 2919 1247 2919 1747 
Q 2919 2247 2730 2509 
Q 2541 2772 2181 2772 
Q 1825 2772 1636 2509 
Q 1447 2247 1447 1747 
Q 1447 1247 1636 984 
Q 1825 722 2181 722 
z
" transform="scale(0.015625)"/>
      <path id="DejaVuSans-Bold-77" d="M 225 3500 
L 1313 3500 
L 1900 1088 
L 2491 3500 
L 3425 3500 
L 4013 1113 
L 4603 3500 
L 5691 3500 
L 4769 0 
L 3547 0 
L 2956 2406 
L 2369 0 
L 1147 0 
L 225 3500 
z
" transform="scale(0.015625)"/>
      <path id="DejaVuSans-Bold-3d" d="M 678 3084 
L 4684 3084 
L 4684 2350 
L 678 2350 
L 678 3084 
z
M 678 1663 
L 4684 1663 
L 4684 922 
L 678 922 
L 678 1663 
z
" transform="scale(0.015625)"/>
      <path id="DejaVuSans-Bold-36" d="M 2316 2303 
Q 2000 2303 1842 2098 
Q 1684 1894 1684 1484 
Q 1684 1075 1842 870 
Q 2000 666 2316 666 
Q 2634 666 2792 870 
Q 2950 1075 2950 1484 
Q 2950 1894 2792 2098 
Q 2634 2303 2316 2303 
z
M 3803 4544 
L 3803 3681 
Q 3506 3822 3243 3889 
Q 2981 3956 2731 3956 
Q 2194 3956 1894 3657 
Q 1594 3359 1544 2772 
Q 1750 2925 1990 3001 
Q 2231 3078 2516 3078 
Q 3231 3078 3670 2659 
Q 4109 2241 4109 1563 
Q 4109 813 3618 361 
Q 3128 -91 2303 -91 
Q 1394 -91 895 523 
Q 397 1138 397 2266 
Q 397 3422 980 4083 
Q 1563 4744 2578 4744 
Q 2900 4744 3203 4694 
Q 3506 4644 3803 4544 
z
" transform="scale(0.015625)"/>
     </defs>
     <use xlink:href="#DejaVuSans-Bold-54"/>
     <use xlink:href="#DejaVuSans-Bold-6f" transform="translate(54.962891 0)"/>
     <use xlink:href="#DejaVuSans-Bold-74" transform="translate(123.664062 0)"/>
     <use xlink:href="#DejaVuSans-Bold-61" transform="translate(171.466797 0)"/>
     <use xlink:href="#DejaVuSans-Bold-6c" transform="translate(238.947266 0)"/>
     <use xlink:href="#DejaVuSans-Bold-20" transform="translate(273.224609 0)"/>
     <use xlink:href="#DejaVuSans-Bold-74" transform="translate(308.039062 0)"/>
     <use xlink:href="#DejaVuSans-Bold-72" transform="translate(355.841797 0)"/>
     <use xlink:href="#DejaVuSans-Bold-61" transform="translate(405.158203 0)"/>
     <use xlink:href="#DejaVuSans-Bold-70" transform="translate(472.638672 0)"/>
     <use xlink:href="#DejaVuSans-Bold-70" transform="translate(544.220703 0)"/>
     <use xlink:href="#DejaVuSans-Bold-65" transform="translate(615.802734 0)"/>
     <use xlink:href="#DejaVuSans-Bold-64" transform="translate(683.625 0)"/>
     <use xlink:href="#DejaVuSans-Bold-20" transform="translate(755.207031 0)"/>
     <use xlink:href="#DejaVuSans-Bold-77" transform="translate(790.021484 0)"/>
     <use xlink:href="#DejaVuSans-Bold-61" transform="translate(882.404297 0)"/>
     <use xlink:href="#DejaVuSans-Bold-74" transform="translate(949.884766 0)"/>
     <use xlink:href="#DejaVuSans-Bold-65" transform="translate(997.6875 0)"/>
     <use xlink:href="#DejaVuSans-Bold-72" transform="translate(1065.509766 0)"/>
     <use xlink:href="#DejaVuSans-Bold-20" transform="translate(1114.826172 0)"/>
     <use xlink:href="#DejaVuSans-Bold-3d" transform="translate(1149.640625 0)"/>
     <use xlink:href="#DejaVuSans-Bold-20" transform="translate(1233.429688 0)"/>
     <use xlink:href="#DejaVuSans-Bold-36" transform="translate(1268.244141 0)"/>
    </g>
   </g>
   <g id="text_31">
    <!-- water[i] = min(left_max[i], right_max[i]) − height[i] -->
    <g style="fill: #555555" transform="translate(29.858824 331.77536) scale(0.1 -0.1)">
     <defs>
      <path id="DejaVuSansMono-77" d="M 0 3500 
L 569 3500 
L 1178 672 
L 1678 2478 
L 2169 2478 
L 2675 672 
L 3284 3500 
L 3853 3500 
L 3034 0 
L 2484 0 
L 1925 1919 
L 1369 0 
L 819 0 
L 0 3500 
z
" transform="scale(0.015625)"/>
      <path id="DejaVuSansMono-61" d="M 2194 1759 
L 2003 1759 
Q 1500 1759 1245 1582 
Q 991 1406 991 1056 
Q 991 741 1181 566 
Q 1372 391 1709 391 
Q 2184 391 2456 720 
Q 2728 1050 2731 1631 
L 2731 1759 
L 2194 1759 
z
M 3309 1997 
L 3309 0 
L 2731 0 
L 2731 519 
Q 2547 206 2267 57 
Q 1988 -91 1588 -91 
Q 1053 -91 734 211 
Q 416 513 416 1019 
Q 416 1603 808 1906 
Q 1200 2209 1959 2209 
L 2731 2209 
L 2731 2300 
Q 2728 2719 2518 2908 
Q 2309 3097 1850 3097 
Q 1556 3097 1256 3012 
Q 956 2928 672 2766 
L 672 3341 
Q 991 3463 1283 3523 
Q 1575 3584 1850 3584 
Q 2284 3584 2592 3456 
Q 2900 3328 3091 3072 
Q 3209 2916 3259 2686 
Q 3309 2456 3309 1997 
z
" transform="scale(0.015625)"/>
      <path id="DejaVuSansMono-74" d="M 1919 4494 
L 1919 3500 
L 3225 3500 
L 3225 3053 
L 1919 3053 
L 1919 1153 
Q 1919 766 2066 612 
Q 2213 459 2578 459 
L 3225 459 
L 3225 0 
L 2522 0 
Q 1875 0 1609 259 
Q 1344 519 1344 1153 
L 1344 3053 
L 409 3053 
L 409 3500 
L 1344 3500 
L 1344 4494 
L 1919 4494 
z
" transform="scale(0.015625)"/>
      <path id="DejaVuSansMono-65" d="M 3475 1894 
L 3475 1613 
L 984 1613 
L 984 1594 
Q 984 1022 1282 709 
Q 1581 397 2125 397 
Q 2400 397 2700 484 
Q 3000 572 3341 750 
L 3341 178 
Q 3013 44 2708 -23 
Q 2403 -91 2119 -91 
Q 1303 -91 843 398 
Q 384 888 384 1747 
Q 384 2584 834 3084 
Q 1284 3584 2034 3584 
Q 2703 3584 3089 3131 
Q 3475 2678 3475 1894 
z
M 2900 2063 
Q 2888 2569 2661 2833 
Q 2434 3097 2009 3097 
Q 1594 3097 1325 2822 
Q 1056 2547 1006 2059 
L 2900 2063 
z
" transform="scale(0.015625)"/>
      <path id="DejaVuSansMono-72" d="M 3609 2778 
Q 3425 2922 3234 2987 
Q 3044 3053 2816 3053 
Q 2278 3053 1993 2715 
Q 1709 2378 1709 1741 
L 1709 0 
L 1131 0 
L 1131 3500 
L 1709 3500 
L 1709 2816 
Q 1853 3188 2151 3386 
Q 2450 3584 2859 3584 
Q 3072 3584 3256 3531 
Q 3441 3478 3609 3366 
L 3609 2778 
z
" transform="scale(0.015625)"/>
      <path id="DejaVuSansMono-5b" d="M 1447 4863 
L 2772 4863 
L 2772 4416 
L 2022 4416 
L 2022 -397 
L 2772 -397 
L 2772 -844 
L 1447 -844 
L 1447 4863 
z
" transform="scale(0.015625)"/>
      <path id="DejaVuSansMono-69" d="M 800 3500 
L 2272 3500 
L 2272 447 
L 3413 447 
L 3413 0 
L 556 0 
L 556 447 
L 1697 447 
L 1697 3053 
L 800 3053 
L 800 3500 
z
M 1697 4863 
L 2272 4863 
L 2272 4134 
L 1697 4134 
L 1697 4863 
z
" transform="scale(0.015625)"/>
      <path id="DejaVuSansMono-5d" d="M 2406 4863 
L 2406 -844 
L 1081 -844 
L 1081 -397 
L 1831 -397 
L 1831 4416 
L 1081 4416 
L 1081 4863 
L 2406 4863 
z
" transform="scale(0.015625)"/>
      <path id="DejaVuSansMono-20" transform="scale(0.015625)"/>
      <path id="DejaVuSansMono-3d" d="M 275 1638 
L 3578 1638 
L 3578 1100 
L 275 1100 
L 275 1638 
z
M 275 2906 
L 3578 2906 
L 3578 2375 
L 275 2375 
L 275 2906 
z
" transform="scale(0.015625)"/>
      <path id="DejaVuSansMono-6d" d="M 2113 3144 
Q 2219 3369 2383 3476 
Q 2547 3584 2778 3584 
Q 3200 3584 3373 3257 
Q 3547 2931 3547 2028 
L 3547 0 
L 3022 0 
L 3022 2003 
Q 3022 2744 2939 2923 
Q 2856 3103 2638 3103 
Q 2388 3103 2295 2911 
Q 2203 2719 2203 2003 
L 2203 0 
L 1678 0 
L 1678 2003 
Q 1678 2753 1589 2928 
Q 1500 3103 1269 3103 
Q 1041 3103 952 2911 
Q 863 2719 863 2003 
L 863 0 
L 341 0 
L 341 3500 
L 863 3500 
L 863 3200 
Q 966 3388 1120 3486 
Q 1275 3584 1472 3584 
Q 1709 3584 1867 3475 
Q 2025 3366 2113 3144 
z
" transform="scale(0.015625)"/>
      <path id="DejaVuSansMono-6e" d="M 3284 2169 
L 3284 0 
L 2706 0 
L 2706 2169 
Q 2706 2641 2540 2862 
Q 2375 3084 2022 3084 
Q 1619 3084 1401 2798 
Q 1184 2513 1184 1978 
L 1184 0 
L 609 0 
L 609 3500 
L 1184 3500 
L 1184 2975 
Q 1338 3275 1600 3429 
Q 1863 3584 2222 3584 
Q 2756 3584 3020 3232 
Q 3284 2881 3284 2169 
z
" transform="scale(0.015625)"/>
      <path id="DejaVuSansMono-28" d="M 2766 4856 
Q 2350 4144 2145 3436 
Q 1941 2728 1941 2009 
Q 1941 1294 2145 584 
Q 2350 -125 2766 -844 
L 2266 -844 
Q 1794 -100 1562 604 
Q 1331 1309 1331 2009 
Q 1331 2706 1562 3412 
Q 1794 4119 2266 4856 
L 2766 4856 
z
" transform="scale(0.015625)"/>
      <path id="DejaVuSansMono-6c" d="M 1997 1269 
Q 1997 881 2139 684 
Q 2281 488 2559 488 
L 3231 488 
L 3231 0 
L 2503 0 
Q 1988 0 1705 331 
Q 1422 663 1422 1269 
L 1422 4447 
L 500 4447 
L 500 4897 
L 1997 4897 
L 1997 1269 
z
" transform="scale(0.015625)"/>
      <path id="DejaVuSansMono-66" d="M 3322 4863 
L 3322 4384 
L 2669 4384 
Q 2359 4384 2239 4257 
Q 2119 4131 2119 3809 
L 2119 3500 
L 3322 3500 
L 3322 3053 
L 2119 3053 
L 2119 0 
L 1544 0 
L 1544 3053 
L 609 3053 
L 609 3500 
L 1544 3500 
L 1544 3744 
Q 1544 4319 1808 4591 
Q 2072 4863 2631 4863 
L 3322 4863 
z
" transform="scale(0.015625)"/>
      <path id="DejaVuSansMono-5f" d="M 3853 -1259 
L 3853 -1509 
L 0 -1509 
L 0 -1259 
L 3853 -1259 
z
" transform="scale(0.015625)"/>
      <path id="DejaVuSansMono-78" d="M 3494 3500 
L 2241 1825 
L 3616 0 
L 2950 0 
L 1925 1403 
L 903 0 
L 238 0 
L 1613 1825 
L 359 3500 
L 997 3500 
L 1925 2234 
L 2847 3500 
L 3494 3500 
z
" transform="scale(0.015625)"/>
      <path id="DejaVuSansMono-2c" d="M 1569 947 
L 2356 947 
L 2356 300 
L 1741 -897 
L 1259 -897 
L 1569 300 
L 1569 947 
z
" transform="scale(0.015625)"/>
      <path id="DejaVuSansMono-67" d="M 2681 1778 
Q 2681 2425 2470 2761 
Q 2259 3097 1856 3097 
Q 1434 3097 1212 2761 
Q 991 2425 991 1778 
Q 991 1131 1214 792 
Q 1438 453 1863 453 
Q 2259 453 2470 793 
Q 2681 1134 2681 1778 
z
M 3256 225 
Q 3256 -563 2884 -969 
Q 2513 -1375 1791 -1375 
Q 1553 -1375 1293 -1331 
Q 1034 -1288 775 -1203 
L 775 -634 
Q 1081 -778 1331 -847 
Q 1581 -916 1791 -916 
Q 2256 -916 2468 -662 
Q 2681 -409 2681 141 
L 2681 166 
L 2681 556 
Q 2544 263 2306 119 
Q 2069 -25 1728 -25 
Q 1116 -25 750 465 
Q 384 956 384 1778 
Q 384 2603 750 3093 
Q 1116 3584 1728 3584 
Q 2066 3584 2300 3450 
Q 2534 3316 2681 3034 
L 2681 3488 
L 3256 3488 
L 3256 225 
z
" transform="scale(0.015625)"/>
      <path id="DejaVuSansMono-68" d="M 3284 2169 
L 3284 0 
L 2706 0 
L 2706 2169 
Q 2706 2641 2540 2862 
Q 2375 3084 2022 3084 
Q 1619 3084 1401 2798 
Q 1184 2513 1184 1978 
L 1184 0 
L 609 0 
L 609 4863 
L 1184 4863 
L 1184 2975 
Q 1338 3275 1600 3429 
Q 1863 3584 2222 3584 
Q 2756 3584 3020 3232 
Q 3284 2881 3284 2169 
z
" transform="scale(0.015625)"/>
      <path id="DejaVuSansMono-29" d="M 1088 4856 
L 1588 4856 
Q 2059 4119 2290 3412 
Q 2522 2706 2522 2009 
Q 2522 1306 2290 600 
Q 2059 -106 1588 -844 
L 1088 -844 
Q 1503 -119 1708 590 
Q 1913 1300 1913 2009 
Q 1913 2722 1708 3431 
Q 1503 4141 1088 4856 
z
" transform="scale(0.015625)"/>
      <path id="DejaVuSansMono-2212" d="M 275 2272 
L 3578 2272 
L 3578 1741 
L 275 1741 
L 275 2272 
z
" transform="scale(0.015625)"/>
     </defs>
     <use xlink:href="#DejaVuSansMono-77"/>
     <use xlink:href="#DejaVuSansMono-61" transform="translate(60.205078 0)"/>
     <use xlink:href="#DejaVuSansMono-74" transform="translate(120.410156 0)"/>
     <use xlink:href="#DejaVuSansMono-65" transform="translate(180.615234 0)"/>
     <use xlink:href="#DejaVuSansMono-72" transform="translate(240.820312 0)"/>
     <use xlink:href="#DejaVuSansMono-5b" transform="translate(301.025391 0)"/>
     <use xlink:href="#DejaVuSansMono-69" transform="translate(361.230469 0)"/>
     <use xlink:href="#DejaVuSansMono-5d" transform="translate(421.435547 0)"/>
     <use xlink:href="#DejaVuSansMono-20" transform="translate(481.640625 0)"/>
     <use xlink:href="#DejaVuSansMono-3d" transform="translate(541.845703 0)"/>
     <use xlink:href="#DejaVuSansMono-20" transform="translate(602.050781 0)"/>
     <use xlink:href="#DejaVuSansMono-6d" transform="translate(662.255859 0)"/>
     <use xlink:href="#DejaVuSansMono-69" transform="translate(722.460938 0)"/>
     <use xlink:href="#DejaVuSansMono-6e" transform="translate(782.666016 0)"/>
     <use xlink:href="#DejaVuSansMono-28" transform="translate(842.871094 0)"/>
     <use xlink:href="#DejaVuSansMono-6c" transform="translate(903.076172 0)"/>
     <use xlink:href="#DejaVuSansMono-65" transform="translate(963.28125 0)"/>
     <use xlink:href="#DejaVuSansMono-66" transform="translate(1023.486328 0)"/>
     <use xlink:href="#DejaVuSansMono-74" transform="translate(1083.691406 0)"/>
     <use xlink:href="#DejaVuSansMono-5f" transform="translate(1143.896484 0)"/>
     <use xlink:href="#DejaVuSansMono-6d" transform="translate(1204.101562 0)"/>
     <use xlink:href="#DejaVuSansMono-61" transform="translate(1264.306641 0)"/>
     <use xlink:href="#DejaVuSansMono-78" transform="translate(1324.511719 0)"/>
     <use xlink:href="#DejaVuSansMono-5b" transform="translate(1384.716797 0)"/>
     <use xlink:href="#DejaVuSansMono-69" transform="translate(1444.921875 0)"/>
     <use xlink:href="#DejaVuSansMono-5d" transform="translate(1505.126953 0)"/>
     <use xlink:href="#DejaVuSansMono-2c" transform="translate(1565.332031 0)"/>
     <use xlink:href="#DejaVuSansMono-20" transform="translate(1625.537109 0)"/>
     <use xlink:href="#DejaVuSansMono-72" transform="translate(1685.742188 0)"/>
     <use xlink:href="#DejaVuSansMono-69" transform="translate(1745.947266 0)"/>
     <use xlink:href="#DejaVuSansMono-67" transform="translate(1806.152344 0)"/>
     <use xlink:href="#DejaVuSansMono-68" transform="translate(1866.357422 0)"/>
     <use xlink:href="#DejaVuSansMono-74" transform="translate(1926.5625 0)"/>
     <use xlink:href="#DejaVuSansMono-5f" transform="translate(1986.767578 0)"/>
     <use xlink:href="#DejaVuSansMono-6d" transform="translate(2046.972656 0)"/>
     <use xlink:href="#DejaVuSansMono-61" transform="translate(2107.177734 0)"/>
     <use xlink:href="#DejaVuSansMono-78" transform="translate(2167.382812 0)"/>
     <use xlink:href="#DejaVuSansMono-5b" transform="translate(2227.587891 0)"/>
     <use xlink:href="#DejaVuSansMono-69" transform="translate(2287.792969 0)"/>
     <use xlink:href="#DejaVuSansMono-5d" transform="translate(2347.998047 0)"/>
     <use xlink:href="#DejaVuSansMono-29" transform="translate(2408.203125 0)"/>
     <use xlink:href="#DejaVuSansMono-20" transform="translate(2468.408203 0)"/>
     <use xlink:href="#DejaVuSansMono-2212" transform="translate(2528.613281 0)"/>
     <use xlink:href="#DejaVuSansMono-20" transform="translate(2588.818359 0)"/>
     <use xlink:href="#DejaVuSansMono-68" transform="translate(2649.023438 0)"/>
     <use xlink:href="#DejaVuSansMono-65" transform="translate(2709.228516 0)"/>
     <use xlink:href="#DejaVuSansMono-69" transform="translate(2769.433594 0)"/>
     <use xlink:href="#DejaVuSansMono-67" transform="translate(2829.638672 0)"/>
     <use xlink:href="#DejaVuSansMono-68" transform="translate(2889.84375 0)"/>
     <use xlink:href="#DejaVuSansMono-74" transform="translate(2950.048828 0)"/>
     <use xlink:href="#DejaVuSansMono-5b" transform="translate(3010.253906 0)"/>
     <use xlink:href="#DejaVuSansMono-69" transform="translate(3070.458984 0)"/>
     <use xlink:href="#DejaVuSansMono-5d" transform="translate(3130.664062 0)"/>
    </g>
   </g>
   <g id="text_32">
    <!-- Trapping Rain Water — height = [0,1,0,2,1,0,1,3,2,1,2,1] -->
    <g style="fill: #1a1a1a" transform="translate(208.451016 17.077969) scale(0.13 -0.13)">
     <defs>
      <path id="DejaVuSans-54" d="M -19 4666 
L 3928 4666 
L 3928 4134 
L 2272 4134 
L 2272 0 
L 1638 0 
L 1638 4134 
L -19 4134 
L -19 4666 
z
" transform="scale(0.015625)"/>
      <path id="DejaVuSans-72" d="M 2631 2963 
Q 2534 3019 2420 3045 
Q 2306 3072 2169 3072 
Q 1681 3072 1420 2755 
Q 1159 2438 1159 1844 
L 1159 0 
L 581 0 
L 581 3500 
L 1159 3500 
L 1159 2956 
Q 1341 3275 1631 3429 
Q 1922 3584 2338 3584 
Q 2397 3584 2469 3576 
Q 2541 3569 2628 3553 
L 2631 2963 
z
" transform="scale(0.015625)"/>
      <path id="DejaVuSans-61" d="M 2194 1759 
Q 1497 1759 1228 1600 
Q 959 1441 959 1056 
Q 959 750 1161 570 
Q 1363 391 1709 391 
Q 2188 391 2477 730 
Q 2766 1069 2766 1631 
L 2766 1759 
L 2194 1759 
z
M 3341 1997 
L 3341 0 
L 2766 0 
L 2766 531 
Q 2569 213 2275 61 
Q 1981 -91 1556 -91 
Q 1019 -91 701 211 
Q 384 513 384 1019 
Q 384 1609 779 1909 
Q 1175 2209 1959 2209 
L 2766 2209 
L 2766 2266 
Q 2766 2663 2505 2880 
Q 2244 3097 1772 3097 
Q 1472 3097 1187 3025 
Q 903 2953 641 2809 
L 641 3341 
Q 956 3463 1253 3523 
Q 1550 3584 1831 3584 
Q 2591 3584 2966 3190 
Q 3341 2797 3341 1997 
z
" transform="scale(0.015625)"/>
      <path id="DejaVuSans-70" d="M 1159 525 
L 1159 -1331 
L 581 -1331 
L 581 3500 
L 1159 3500 
L 1159 2969 
Q 1341 3281 1617 3432 
Q 1894 3584 2278 3584 
Q 2916 3584 3314 3078 
Q 3713 2572 3713 1747 
Q 3713 922 3314 415 
Q 2916 -91 2278 -91 
Q 1894 -91 1617 61 
Q 1341 213 1159 525 
z
M 3116 1747 
Q 3116 2381 2855 2742 
Q 2594 3103 2138 3103 
Q 1681 3103 1420 2742 
Q 1159 2381 1159 1747 
Q 1159 1113 1420 752 
Q 1681 391 2138 391 
Q 2594 391 2855 752 
Q 3116 1113 3116 1747 
z
" transform="scale(0.015625)"/>
      <path id="DejaVuSans-6e" d="M 3513 2113 
L 3513 0 
L 2938 0 
L 2938 2094 
Q 2938 2591 2744 2837 
Q 2550 3084 2163 3084 
Q 1697 3084 1428 2787 
Q 1159 2491 1159 1978 
L 1159 0 
L 581 0 
L 581 3500 
L 1159 3500 
L 1159 2956 
Q 1366 3272 1645 3428 
Q 1925 3584 2291 3584 
Q 2894 3584 3203 3211 
Q 3513 2838 3513 2113 
z
" transform="scale(0.015625)"/>
      <path id="DejaVuSans-67" d="M 2906 1791 
Q 2906 2416 2648 2759 
Q 2391 3103 1925 3103 
Q 1463 3103 1205 2759 
Q 947 2416 947 1791 
Q 947 1169 1205 825 
Q 1463 481 1925 481 
Q 2391 481 2648 825 
Q 2906 1169 2906 1791 
z
M 3481 434 
Q 3481 -459 3084 -895 
Q 2688 -1331 1869 -1331 
Q 1566 -1331 1297 -1286 
Q 1028 -1241 775 -1147 
L 775 -588 
Q 1028 -725 1275 -790 
Q 1522 -856 1778 -856 
Q 2344 -856 2625 -561 
Q 2906 -266 2906 331 
L 2906 616 
Q 2728 306 2450 153 
Q 2172 0 1784 0 
Q 1141 0 747 490 
Q 353 981 353 1791 
Q 353 2603 747 3093 
Q 1141 3584 1784 3584 
Q 2172 3584 2450 3431 
Q 2728 3278 2906 2969 
L 2906 3500 
L 3481 3500 
L 3481 434 
z
" transform="scale(0.015625)"/>
      <path id="DejaVuSans-20" transform="scale(0.015625)"/>
      <path id="DejaVuSans-52" d="M 2841 2188 
Q 3044 2119 3236 1894 
Q 3428 1669 3622 1275 
L 4263 0 
L 3584 0 
L 2988 1197 
Q 2756 1666 2539 1819 
Q 2322 1972 1947 1972 
L 1259 1972 
L 1259 0 
L 628 0 
L 628 4666 
L 2053 4666 
Q 2853 4666 3247 4331 
Q 3641 3997 3641 3322 
Q 3641 2881 3436 2590 
Q 3231 2300 2841 2188 
z
M 1259 4147 
L 1259 2491 
L 2053 2491 
Q 2509 2491 2742 2702 
Q 2975 2913 2975 3322 
Q 2975 3731 2742 3939 
Q 2509 4147 2053 4147 
L 1259 4147 
z
" transform="scale(0.015625)"/>
      <path id="DejaVuSans-57" d="M 213 4666 
L 850 4666 
L 1831 722 
L 2809 4666 
L 3519 4666 
L 4500 722 
L 5478 4666 
L 6119 4666 
L 4947 0 
L 4153 0 
L 3169 4050 
L 2175 0 
L 1381 0 
L 213 4666 
z
" transform="scale(0.015625)"/>
      <path id="DejaVuSans-74" d="M 1172 4494 
L 1172 3500 
L 2356 3500 
L 2356 3053 
L 1172 3053 
L 1172 1153 
Q 1172 725 1289 603 
Q 1406 481 1766 481 
L 2356 481 
L 2356 0 
L 1766 0 
Q 1100 0 847 248 
Q 594 497 594 1153 
L 594 3053 
L 172 3053 
L 172 3500 
L 594 3500 
L 594 4494 
L 1172 4494 
z
" transform="scale(0.015625)"/>
      <path id="DejaVuSans-65" d="M 3597 1894 
L 3597 1613 
L 953 1613 
Q 991 1019 1311 708 
Q 1631 397 2203 397 
Q 2534 397 2845 478 
Q 3156 559 3463 722 
L 3463 178 
Q 3153 47 2828 -22 
Q 2503 -91 2169 -91 
Q 1331 -91 842 396 
Q 353 884 353 1716 
Q 353 2575 817 3079 
Q 1281 3584 2069 3584 
Q 2775 3584 3186 3129 
Q 3597 2675 3597 1894 
z
M 3022 2063 
Q 3016 2534 2758 2815 
Q 2500 3097 2075 3097 
Q 1594 3097 1305 2825 
Q 1016 2553 972 2059 
L 3022 2063 
z
" transform="scale(0.015625)"/>
      <path id="DejaVuSans-2014" d="M 313 1978 
L 6088 1978 
L 6088 1528 
L 313 1528 
L 313 1978 
z
" transform="scale(0.015625)"/>
      <path id="DejaVuSans-68" d="M 3513 2113 
L 3513 0 
L 2938 0 
L 2938 2094 
Q 2938 2591 2744 2837 
Q 2550 3084 2163 3084 
Q 1697 3084 1428 2787 
Q 1159 2491 1159 1978 
L 1159 0 
L 581 0 
L 581 4863 
L 1159 4863 
L 1159 2956 
Q 1366 3272 1645 3428 
Q 1925 3584 2291 3584 
Q 2894 3584 3203 3211 
Q 3513 2838 3513 2113 
z
" transform="scale(0.015625)"/>
      <path id="DejaVuSans-5b" d="M 550 4863 
L 1875 4863 
L 1875 4416 
L 1125 4416 
L 1125 -397 
L 1875 -397 
L 1875 -844 
L 550 -844 
L 550 4863 
z
" transform="scale(0.015625)"/>
      <path id="DejaVuSans-2c" d="M 750 794 
L 1409 794 
L 1409 256 
L 897 -744 
L 494 -744 
L 750 256 
L 750 794 
z
" transform="scale(0.015625)"/>
      <path id="DejaVuSans-5d" d="M 1947 4863 
L 1947 -844 
L 622 -844 
L 622 -397 
L 1369 -397 
L 1369 4416 
L 622 4416 
L 622 4863 
L 1947 4863 
z
" transform="scale(0.015625)"/>
     </defs>
     <use xlink:href="#DejaVuSans-54"/>
     <use xlink:href="#DejaVuSans-72" transform="translate(46.333984 0)"/>
     <use xlink:href="#DejaVuSans-61" transform="translate(87.447266 0)"/>
     <use xlink:href="#DejaVuSans-70" transform="translate(148.726562 0)"/>
     <use xlink:href="#DejaVuSans-70" transform="translate(212.203125 0)"/>
     <use xlink:href="#DejaVuSans-69" transform="translate(275.679688 0)"/>
     <use xlink:href="#DejaVuSans-6e" transform="translate(303.462891 0)"/>
     <use xlink:href="#DejaVuSans-67" transform="translate(366.841797 0)"/>
     <use xlink:href="#DejaVuSans-20" transform="translate(430.318359 0)"/>
     <use xlink:href="#DejaVuSans-52" transform="translate(462.105469 0)"/>
     <use xlink:href="#DejaVuSans-61" transform="translate(529.337891 0)"/>
     <use xlink:href="#DejaVuSans-69" transform="translate(590.617188 0)"/>
     <use xlink:href="#DejaVuSans-6e" transform="translate(618.400391 0)"/>
     <use xlink:href="#DejaVuSans-20" transform="translate(681.779297 0)"/>
     <use xlink:href="#DejaVuSans-57" transform="translate(713.566406 0)"/>
     <use xlink:href="#DejaVuSans-61" transform="translate(806.068359 0)"/>
     <use xlink:href="#DejaVuSans-74" transform="translate(867.347656 0)"/>
     <use xlink:href="#DejaVuSans-65" transform="translate(906.556641 0)"/>
     <use xlink:href="#DejaVuSans-72" transform="translate(968.080078 0)"/>
     <use xlink:href="#DejaVuSans-20" transform="translate(1009.193359 0)"/>
     <use xlink:href="#DejaVuSans-2014" transform="translate(1040.980469 0)"/>
     <use xlink:href="#DejaVuSans-20" transform="translate(1140.980469 0)"/>
     <use xlink:href="#DejaVuSans-68" transform="translate(1172.767578 0)"/>
     <use xlink:href="#DejaVuSans-65" transform="translate(1236.146484 0)"/>
     <use xlink:href="#DejaVuSans-69" transform="translate(1297.669922 0)"/>
     <use xlink:href="#DejaVuSans-67" transform="translate(1325.453125 0)"/>
     <use xlink:href="#DejaVuSans-68" transform="translate(1388.929688 0)"/>
     <use xlink:href="#DejaVuSans-74" transform="translate(1452.308594 0)"/>
     <use xlink:href="#DejaVuSans-20" transform="translate(1491.517578 0)"/>
     <use xlink:href="#DejaVuSans-3d" transform="translate(1523.304688 0)"/>
     <use xlink:href="#DejaVuSans-20" transform="translate(1607.09375 0)"/>
     <use xlink:href="#DejaVuSans-5b" transform="translate(1638.880859 0)"/>
     <use xlink:href="#DejaVuSans-30" transform="translate(1677.894531 0)"/>
     <use xlink:href="#DejaVuSans-2c" transform="translate(1741.517578 0)"/>
     <use xlink:href="#DejaVuSans-31" transform="translate(1773.304688 0)"/>
     <use xlink:href="#DejaVuSans-2c" transform="translate(1836.927734 0)"/>
     <use xlink:href="#DejaVuSans-30" transform="translate(1868.714844 0)"/>
     <use xlink:href="#DejaVuSans-2c" transform="translate(1932.337891 0)"/>
     <use xlink:href="#DejaVuSans-32" transform="translate(1964.125 0)"/>
     <use xlink:href="#DejaVuSans-2c" transform="translate(2027.748047 0)"/>
     <use xlink:href="#DejaVuSans-31" transform="translate(2059.535156 0)"/>
     <use xlink:href="#DejaVuSans-2c" transform="translate(2123.158203 0)"/>
     <use xlink:href="#DejaVuSans-30" transform="translate(2154.945312 0)"/>
     <use xlink:href="#DejaVuSans-2c" transform="translate(2218.568359 0)"/>
     <use xlink:href="#DejaVuSans-31" transform="translate(2250.355469 0)"/>
     <use xlink:href="#DejaVuSans-2c" transform="translate(2313.978516 0)"/>
     <use xlink:href="#DejaVuSans-33" transform="translate(2345.765625 0)"/>
     <use xlink:href="#DejaVuSans-2c" transform="translate(2409.388672 0)"/>
     <use xlink:href="#DejaVuSans-32" transform="translate(2441.175781 0)"/>
     <use xlink:href="#DejaVuSans-2c" transform="translate(2504.798828 0)"/>
     <use xlink:href="#DejaVuSans-31" transform="translate(2536.585938 0)"/>
     <use xlink:href="#DejaVuSans-2c" transform="translate(2600.208984 0)"/>
     <use xlink:href="#DejaVuSans-32" transform="translate(2631.996094 0)"/>
     <use xlink:href="#DejaVuSans-2c" transform="translate(2695.619141 0)"/>
     <use xlink:href="#DejaVuSans-31" transform="translate(2727.40625 0)"/>
     <use xlink:href="#DejaVuSans-5d" transform="translate(2791.029297 0)"/>
    </g>
   </g>
   <g id="legend_1">
    <g id="patch_20">
     <path d="M 13.5 65.698594 
L 111.337031 65.698594 
Q 113.137031 65.698594 113.137031 63.898594 
L 113.137031 38.377969 
Q 113.137031 36.577969 111.337031 36.577969 
L 13.5 36.577969 
Q 11.7 36.577969 11.7 38.377969 
L 11.7 63.898594 
Q 11.7 65.698594 13.5 65.698594 
z
" style="fill: #fafaf9; opacity: 0.9; stroke: #dddddd; stroke-linejoin: miter"/>
    </g>
    <g id="patch_21">
     <path d="M 15.3 47.016562 
L 33.3 47.016562 
L 33.3 40.716562 
L 15.3 40.716562 
z
" style="fill: #95a5a6; stroke: #555555; stroke-linejoin: miter"/>
    </g>
    <g id="text_33">
     <!-- Terrain (height) -->
     <g transform="translate(40.5 47.016562) scale(0.09 -0.09)">
      <defs>
       <path id="DejaVuSans-28" d="M 1984 4856 
Q 1566 4138 1362 3434 
Q 1159 2731 1159 2009 
Q 1159 1288 1364 580 
Q 1569 -128 1984 -844 
L 1484 -844 
Q 1016 -109 783 600 
Q 550 1309 550 2009 
Q 550 2706 781 3412 
Q 1013 4119 1484 4856 
L 1984 4856 
z
" transform="scale(0.015625)"/>
       <path id="DejaVuSans-29" d="M 513 4856 
L 1013 4856 
Q 1481 4119 1714 3412 
Q 1947 2706 1947 2009 
Q 1947 1309 1714 600 
Q 1481 -109 1013 -844 
L 513 -844 
Q 928 -128 1133 580 
Q 1338 1288 1338 2009 
Q 1338 2731 1133 3434 
Q 928 4138 513 4856 
z
" transform="scale(0.015625)"/>
      </defs>
      <use xlink:href="#DejaVuSans-54"/>
      <use xlink:href="#DejaVuSans-65" transform="translate(44.083984 0)"/>
      <use xlink:href="#DejaVuSans-72" transform="translate(105.607422 0)"/>
      <use xlink:href="#DejaVuSans-72" transform="translate(144.970703 0)"/>
      <use xlink:href="#DejaVuSans-61" transform="translate(186.083984 0)"/>
      <use xlink:href="#DejaVuSans-69" transform="translate(247.363281 0)"/>
      <use xlink:href="#DejaVuSans-6e" transform="translate(275.146484 0)"/>
      <use xlink:href="#DejaVuSans-20" transform="translate(338.525391 0)"/>
      <use xlink:href="#DejaVuSans-28" transform="translate(370.3125 0)"/>
      <use xlink:href="#DejaVuSans-68" transform="translate(409.326172 0)"/>
      <use xlink:href="#DejaVuSans-65" transform="translate(472.705078 0)"/>
      <use xlink:href="#DejaVuSans-69" transform="translate(534.228516 0)"/>
      <use xlink:href="#DejaVuSans-67" transform="translate(562.011719 0)"/>
      <use xlink:href="#DejaVuSans-68" transform="translate(625.488281 0)"/>
      <use xlink:href="#DejaVuSans-74" transform="translate(688.867188 0)"/>
      <use xlink:href="#DejaVuSans-29" transform="translate(728.076172 0)"/>
     </g>
    </g>
    <g id="patch_22">
     <path d="M 15.3 60.226875 
L 33.3 60.226875 
L 33.3 53.926875 
L 15.3 53.926875 
z
" style="fill: #85c1e9; stroke: #2471a3; stroke-linejoin: miter"/>
    </g>
    <g id="text_34">
     <!-- Trapped water -->
     <g transform="translate(40.5 60.226875) scale(0.09 -0.09)">
      <defs>
       <path id="DejaVuSans-64" d="M 2906 2969 
L 2906 4863 
L 3481 4863 
L 3481 0 
L 2906 0 
L 2906 525 
Q 2725 213 2448 61 
Q 2172 -91 1784 -91 
Q 1150 -91 751 415 
Q 353 922 353 1747 
Q 353 2572 751 3078 
Q 1150 3584 1784 3584 
Q 2172 3584 2448 3432 
Q 2725 3281 2906 2969 
z
M 947 1747 
Q 947 1113 1208 752 
Q 1469 391 1925 391 
Q 2381 391 2643 752 
Q 2906 1113 2906 1747 
Q 2906 2381 2643 2742 
Q 2381 3103 1925 3103 
Q 1469 3103 1208 2742 
Q 947 2381 947 1747 
z
" transform="scale(0.015625)"/>
       <path id="DejaVuSans-77" d="M 269 3500 
L 844 3500 
L 1563 769 
L 2278 3500 
L 2956 3500 
L 3675 769 
L 4391 3500 
L 4966 3500 
L 4050 0 
L 3372 0 
L 2619 2869 
L 1863 0 
L 1184 0 
L 269 3500 
z
" transform="scale(0.015625)"/>
      </defs>
      <use xlink:href="#DejaVuSans-54"/>
      <use xlink:href="#DejaVuSans-72" transform="translate(46.333984 0)"/>
      <use xlink:href="#DejaVuSans-61" transform="translate(87.447266 0)"/>
      <use xlink:href="#DejaVuSans-70" transform="translate(148.726562 0)"/>
      <use xlink:href="#DejaVuSans-70" transform="translate(212.203125 0)"/>
      <use xlink:href="#DejaVuSans-65" transform="translate(275.679688 0)"/>
      <use xlink:href="#DejaVuSans-64" transform="translate(337.203125 0)"/>
      <use xlink:href="#DejaVuSans-20" transform="translate(400.679688 0)"/>
      <use xlink:href="#DejaVuSans-77" transform="translate(432.466797 0)"/>
      <use xlink:href="#DejaVuSans-61" transform="translate(514.253906 0)"/>
      <use xlink:href="#DejaVuSans-74" transform="translate(575.533203 0)"/>
      <use xlink:href="#DejaVuSans-65" transform="translate(614.742188 0)"/>
      <use xlink:href="#DejaVuSans-72" transform="translate(676.265625 0)"/>
     </g>
    </g>
   </g>
  </g>
 </g>
 <defs>
  <clipPath id="pd8c6d95e29">
   <rect x="7.2" y="32.077969" width="770.4" height="313.32"/>
  </clipPath>
 </defs>
</svg>
