<?xml version="1.0" encoding="utf-8" standalone="no"?>
<!DOCTYPE svg PUBLIC "-//W3C//DTD SVG 1.1//EN"
  "http://www.w3.org/Graphics/SVG/1.1/DTD/svg11.dtd">
<svg xmlns:xlink="http://www.w3.org/1999/xlink" width="516.6pt" height="258.898203pt" viewBox="0 0 516.6 258.898203" xmlns="http://www.w3.org/2000/svg" version="1.1">
 <metadata>
  <rdf:RDF xmlns:dc="http://purl.org/dc/elements/1.1/" xmlns:cc="http://creativecommons.org/ns#" xmlns:rdf="http://www.w3.org/1999/02/22-rdf-syntax-ns#">
   <cc:Work>
    <dc:type rdf:resource="http://purl.org/dc/dcmitype/StillImage"/>
    <dc:date>2026-07-04T14:35:36.684381</dc:date>
    <dc:format>image/svg+xml</dc:format>
    <dc:creator>
     <cc:Agent>
      <dc:title>Matplotlib v3.10.8, https://matplotlib.org/</dc:title>
     </cc:Agent>
    </dc:creator>
   </cc:Work>
  </rdf:RDF>
 </metadata>
 <defs>
  <style type="text/css">*{stroke-linejoin: round; stroke-linecap: butt}</style>
 </defs>
 <g id="figure_1">
  <g id="patch_1">
   <path d="M 0 258.898203 
L 516.6 258.898203 
L 516.6 0 
L 0 0 
z
" style="fill: #fafaf9"/>
  </g>
  <g id="axes_1">
   <g id="patch_2">
    <path d="M 31.114286 89.463256 
L 108.835714 89.463256 
Q 111.227143 89.463256 111.227143 88.296098 
L 111.227143 56.199256 
Q 111.227143 55.032098 108.835714 55.032098 
L 31.114286 55.032098 
Q 28.722857 55.032098 28.722857 56.199256 
L 28.722857 88.296098 
Q 28.722857 89.463256 31.114286 89.463256 
z
" clip-path="url(#pe720533bdf)" style="fill: #d6eaf8; stroke: #999999; stroke-width: 1.1; stroke-linejoin: miter"/>
   </g>
   <g id="patch_3">
    <path d="M 114.814286 89.463256 
L 192.535714 89.463256 
Q 194.927143 89.463256 194.927143 88.296098 
L 194.927143 56.199256 
Q 194.927143 55.032098 192.535714 55.032098 
L 114.814286 55.032098 
Q 112.422857 55.032098 112.422857 56.199256 
L 112.422857 88.296098 
Q 112.422857 89.463256 114.814286 89.463256 
z
" clip-path="url(#pe720533bdf)" style="fill: #fadbd8; stroke: #999999; stroke-width: 1.1; stroke-linejoin: miter"/>
   </g>
   <g id="patch_4">
    <path d="M 198.514286 89.463256 
L 276.235714 89.463256 
Q 278.627143 89.463256 278.627143 88.296098 
L 278.627143 56.199256 
Q 278.627143 55.032098 276.235714 55.032098 
L 198.514286 55.032098 
Q 196.122857 55.032098 196.122857 56.199256 
L 196.122857 88.296098 
Q 196.122857 89.463256 198.514286 89.463256 
z
" clip-path="url(#pe720533bdf)" style="fill: #d6eaf8; stroke: #999999; stroke-width: 1.1; stroke-linejoin: miter"/>
   </g>
   <g id="patch_5">
    <path d="M 282.214286 89.463256 
L 359.935714 89.463256 
Q 362.327143 89.463256 362.327143 88.296098 
L 362.327143 56.199256 
Q 362.327143 55.032098 359.935714 55.032098 
L 282.214286 55.032098 
Q 279.822857 55.032098 279.822857 56.199256 
L 279.822857 88.296098 
Q 279.822857 89.463256 282.214286 89.463256 
z
" clip-path="url(#pe720533bdf)" style="fill: #fadbd8; stroke: #999999; stroke-width: 1.1; stroke-linejoin: miter"/>
   </g>
   <g id="patch_6">
    <path d="M 365.914286 89.463256 
L 443.635714 89.463256 
Q 446.027143 89.463256 446.027143 88.296098 
L 446.027143 56.199256 
Q 446.027143 55.032098 443.635714 55.032098 
L 365.914286 55.032098 
Q 363.522857 55.032098 363.522857 56.199256 
L 363.522857 88.296098 
Q 363.522857 89.463256 365.914286 89.463256 
z
" clip-path="url(#pe720533bdf)" style="fill: #d6eaf8; stroke: #999999; stroke-width: 1.1; stroke-linejoin: miter"/>
   </g>
   <g id="patch_7">
    <path d="M 31.114286 171.747887 
L 186.557143 171.747887 
Q 190.144286 171.747887 190.144286 169.99715 
L 190.144286 140.818203 
Q 190.144286 139.067466 186.557143 139.067466 
L 31.114286 139.067466 
Q 27.527143 139.067466 27.527143 140.818203 
L 27.527143 169.99715 
Q 27.527143 171.747887 31.114286 171.747887 
z
" clip-path="url(#pe720533bdf)" style="fill: #a9dfbf; stroke: #666666; stroke-width: 1.2; stroke-linejoin: miter"/>
   </g>
   <g id="patch_8">
    <path d="M 210.471429 171.747887 
L 365.914286 171.747887 
Q 369.501429 171.747887 369.501429 169.99715 
L 369.501429 140.818203 
Q 369.501429 139.067466 365.914286 139.067466 
L 210.471429 139.067466 
Q 206.884286 139.067466 206.884286 140.818203 
L 206.884286 169.99715 
Q 206.884286 171.747887 210.471429 171.747887 
z
" clip-path="url(#pe720533bdf)" style="fill: #a9dfbf; stroke: #666666; stroke-width: 1.2; stroke-linejoin: miter"/>
   </g>
   <g id="text_1">
    <!-- 3 -->
    <g transform="translate(66.39817 75.850716) scale(0.12 -0.12)">
     <defs>
      <path id="DejaVuSans-Bold-33" d="M 2981 2516 
Q 3453 2394 3698 2092 
Q 3944 1791 3944 1325 
Q 3944 631 3412 270 
Q 2881 -91 1863 -91 
Q 1503 -91 1142 -33 
Q 781 25 428 141 
L 428 1069 
Q 766 900 1098 814 
Q 1431 728 1753 728 
Q 2231 728 2486 893 
Q 2741 1059 2741 1369 
Q 2741 1688 2480 1852 
Q 2219 2016 1709 2016 
L 1228 2016 
L 1228 2791 
L 1734 2791 
Q 2188 2791 2409 2933 
Q 2631 3075 2631 3366 
Q 2631 3634 2415 3781 
Q 2200 3928 1806 3928 
Q 1516 3928 1219 3862 
Q 922 3797 628 3669 
L 628 4550 
Q 984 4650 1334 4700 
Q 1684 4750 2022 4750 
Q 2931 4750 3382 4451 
Q 3834 4153 3834 3553 
Q 3834 3144 3618 2883 
Q 3403 2622 2981 2516 
z
" transform="scale(0.015625)"/>
     </defs>
     <use xlink:href="#DejaVuSans-Bold-33"/>
    </g>
   </g>
   <g id="text_2">
    <!-- + -->
    <g transform="translate(149.245045 75.850716) scale(0.12 -0.12)">
     <defs>
      <path id="DejaVuSans-Bold-2b" d="M 3053 4013 
L 3053 2375 
L 4684 2375 
L 4684 1638 
L 3053 1638 
L 3053 0 
L 2309 0 
L 2309 1638 
L 678 1638 
L 678 2375 
L 2309 2375 
L 2309 4013 
L 3053 4013 
z
" transform="scale(0.015625)"/>
     </defs>
     <use xlink:href="#DejaVuSans-Bold-2b"/>
    </g>
   </g>
   <g id="text_3">
    <!-- 2 -->
    <g transform="translate(233.79817 75.850716) scale(0.12 -0.12)">
     <defs>
      <path id="DejaVuSans-Bold-32" d="M 1844 884 
L 3897 884 
L 3897 0 
L 506 0 
L 506 884 
L 2209 2388 
Q 2438 2594 2547 2791 
Q 2656 2988 2656 3200 
Q 2656 3528 2436 3728 
Q 2216 3928 1850 3928 
Q 1569 3928 1234 3808 
Q 900 3688 519 3450 
L 519 4475 
Q 925 4609 1322 4679 
Q 1719 4750 2100 4750 
Q 2938 4750 3402 4381 
Q 3866 4013 3866 3353 
Q 3866 2972 3669 2642 
Q 3472 2313 2841 1759 
L 1844 884 
z
" transform="scale(0.015625)"/>
     </defs>
     <use xlink:href="#DejaVuSans-Bold-32"/>
    </g>
   </g>
   <g id="text_4">
    <!-- * -->
    <g transform="translate(318.535045 75.850716) scale(0.12 -0.12)">
     <defs>
      <path id="DejaVuSans-Bold-2a" d="M 3219 3803 
L 2188 3263 
L 3219 2719 
L 2981 2278 
L 1941 2853 
L 1941 1778 
L 1409 1778 
L 1409 2853 
L 366 2278 
L 128 2719 
L 1172 3263 
L 128 3803 
L 366 4244 
L 1409 3675 
L 1409 4750 
L 1941 4750 
L 1941 3675 
L 2981 4244 
L 3219 3803 
z
" transform="scale(0.015625)"/>
     </defs>
     <use xlink:href="#DejaVuSans-Bold-2a"/>
    </g>
   </g>
   <g id="text_5">
    <!-- 2 -->
    <g transform="translate(401.19817 75.850716) scale(0.12 -0.12)">
     <use xlink:href="#DejaVuSans-Bold-32"/>
    </g>
   </g>
   <g id="text_6">
    <!-- 3 -->
    <g transform="translate(105.704699 157.891114) scale(0.09 -0.09)">
     <use xlink:href="#DejaVuSans-Bold-33"/>
    </g>
   </g>
   <g id="text_7">
    <!-- 2*2=4 -->
    <g transform="translate(272.675592 157.891114) scale(0.09 -0.09)">
     <defs>
      <path id="DejaVuSans-Bold-3d" d="M 678 3084 
L 4684 3084 
L 4684 2350 
L 678 2350 
L 678 3084 
z
M 678 1663 
L 4684 1663 
L 4684 922 
L 678 922 
L 678 1663 
z
" transform="scale(0.015625)"/>
      <path id="DejaVuSans-Bold-34" d="M 2356 3675 
L 1038 1722 
L 2356 1722 
L 2356 3675 
z
M 2156 4666 
L 3494 4666 
L 3494 1722 
L 4159 1722 
L 4159 850 
L 3494 850 
L 3494 0 
L 2356 0 
L 2356 850 
L 288 850 
L 288 1881 
L 2156 4666 
z
" transform="scale(0.015625)"/>
     </defs>
     <use xlink:href="#DejaVuSans-Bold-32"/>
     <use xlink:href="#DejaVuSans-Bold-2a" transform="translate(69.580078 0)"/>
     <use xlink:href="#DejaVuSans-Bold-32" transform="translate(121.875 0)"/>
     <use xlink:href="#DejaVuSans-Bold-3d" transform="translate(191.455078 0)"/>
     <use xlink:href="#DejaVuSans-Bold-34" transform="translate(275.244141 0)"/>
    </g>
   </g>
   <g id="text_8">
    <!-- Use a stack: push numbers; for * and /, pop and compute immediately (precedence) -->
    <g style="fill: #555555" transform="translate(31.114286 35.773993) scale(0.09 -0.09)">
     <defs>
      <path id="DejaVuSans-Oblique-55" d="M 991 4666 
L 1625 4666 
L 1075 1831 
Q 1041 1641 1027 1517 
Q 1013 1394 1013 1300 
Q 1013 869 1253 645 
Q 1494 422 1959 422 
Q 2563 422 2898 753 
Q 3234 1084 3378 1831 
L 3928 4666 
L 4563 4666 
L 4000 1753 
Q 3816 809 3300 359 
Q 2784 -91 1888 -91 
Q 1188 -91 780 261 
Q 372 613 372 1216 
Q 372 1325 387 1461 
Q 403 1597 434 1753 
L 991 4666 
z
" transform="scale(0.015625)"/>
      <path id="DejaVuSans-Oblique-73" d="M 3200 3397 
L 3091 2853 
Q 2863 2978 2609 3040 
Q 2356 3103 2088 3103 
Q 1634 3103 1373 2948 
Q 1113 2794 1113 2528 
Q 1113 2219 1719 2053 
Q 1766 2041 1788 2034 
L 1972 1978 
Q 2547 1819 2739 1644 
Q 2931 1469 2931 1166 
Q 2931 609 2489 259 
Q 2047 -91 1331 -91 
Q 1053 -91 747 -37 
Q 441 16 72 128 
L 184 722 
Q 500 559 806 475 
Q 1113 391 1394 391 
Q 1816 391 2080 572 
Q 2344 753 2344 1031 
Q 2344 1331 1650 1516 
L 1591 1531 
L 1394 1581 
Q 956 1697 753 1886 
Q 550 2075 550 2369 
Q 550 2928 970 3256 
Q 1391 3584 2113 3584 
Q 2397 3584 2667 3537 
Q 2938 3491 3200 3397 
z
" transform="scale(0.015625)"/>
      <path id="DejaVuSans-Oblique-65" d="M 3078 2063 
Q 3088 2113 3092 2166 
Q 3097 2219 3097 2272 
Q 3097 2653 2873 2875 
Q 2650 3097 2266 3097 
Q 1838 3097 1509 2826 
Q 1181 2556 1013 2059 
L 3078 2063 
z
M 3578 1613 
L 903 1613 
Q 884 1494 878 1425 
Q 872 1356 872 1306 
Q 872 872 1139 634 
Q 1406 397 1894 397 
Q 2269 397 2603 481 
Q 2938 566 3225 728 
L 3116 159 
Q 2806 34 2476 -28 
Q 2147 -91 1806 -91 
Q 1078 -91 686 257 
Q 294 606 294 1247 
Q 294 1794 489 2264 
Q 684 2734 1063 3103 
Q 1306 3334 1642 3459 
Q 1978 3584 2356 3584 
Q 2950 3584 3301 3228 
Q 3653 2872 3653 2272 
Q 3653 2128 3634 1964 
Q 3616 1800 3578 1613 
z
" transform="scale(0.015625)"/>
      <path id="DejaVuSans-Oblique-20" transform="scale(0.015625)"/>
      <path id="DejaVuSans-Oblique-61" d="M 3438 1997 
L 3047 0 
L 2472 0 
L 2578 531 
Q 2325 219 2001 64 
Q 1678 -91 1281 -91 
Q 834 -91 548 182 
Q 263 456 263 884 
Q 263 1497 752 1853 
Q 1241 2209 2100 2209 
L 2900 2209 
L 2931 2363 
Q 2938 2388 2941 2417 
Q 2944 2447 2944 2509 
Q 2944 2788 2717 2942 
Q 2491 3097 2081 3097 
Q 1800 3097 1504 3025 
Q 1209 2953 897 2809 
L 997 3341 
Q 1322 3463 1633 3523 
Q 1944 3584 2234 3584 
Q 2853 3584 3176 3315 
Q 3500 3047 3500 2534 
Q 3500 2431 3484 2292 
Q 3469 2153 3438 1997 
z
M 2816 1759 
L 2241 1759 
Q 1534 1759 1195 1570 
Q 856 1381 856 984 
Q 856 709 1029 553 
Q 1203 397 1509 397 
Q 1978 397 2328 733 
Q 2678 1069 2791 1631 
L 2816 1759 
z
" transform="scale(0.015625)"/>
      <path id="DejaVuSans-Oblique-74" d="M 2706 3500 
L 2619 3053 
L 1472 3053 
L 1100 1153 
Q 1081 1047 1072 975 
Q 1063 903 1063 863 
Q 1063 663 1183 572 
Q 1303 481 1569 481 
L 2150 481 
L 2053 0 
L 1503 0 
Q 991 0 739 200 
Q 488 400 488 806 
Q 488 878 497 964 
Q 506 1050 525 1153 
L 897 3053 
L 409 3053 
L 500 3500 
L 978 3500 
L 1172 4494 
L 1747 4494 
L 1556 3500 
L 2706 3500 
z
" transform="scale(0.015625)"/>
      <path id="DejaVuSans-Oblique-63" d="M 3431 3366 
L 3316 2797 
Q 3109 2947 2876 3022 
Q 2644 3097 2394 3097 
Q 2119 3097 1870 3000 
Q 1622 2903 1453 2725 
Q 1184 2453 1037 2087 
Q 891 1722 891 1331 
Q 891 859 1127 628 
Q 1363 397 1844 397 
Q 2081 397 2348 469 
Q 2616 541 2906 684 
L 2797 116 
Q 2547 13 2283 -39 
Q 2019 -91 1741 -91 
Q 1044 -91 669 257 
Q 294 606 294 1253 
Q 294 1797 489 2255 
Q 684 2713 1069 3078 
Q 1331 3328 1684 3456 
Q 2038 3584 2456 3584 
Q 2700 3584 2940 3529 
Q 3181 3475 3431 3366 
z
" transform="scale(0.015625)"/>
      <path id="DejaVuSans-Oblique-6b" d="M 1172 4863 
L 1747 4863 
L 1197 2028 
L 3169 3500 
L 3916 3500 
L 1716 1825 
L 3322 0 
L 2625 0 
L 1131 1709 
L 800 0 
L 225 0 
L 1172 4863 
z
" transform="scale(0.015625)"/>
      <path id="DejaVuSans-Oblique-3a" d="M 978 3309 
L 1638 3309 
L 1484 2516 
L 825 2516 
L 978 3309 
z
M 488 794 
L 1147 794 
L 991 0 
L 331 0 
L 488 794 
z
" transform="scale(0.015625)"/>
      <path id="DejaVuSans-Oblique-70" d="M 3175 2156 
Q 3175 2616 2975 2859 
Q 2775 3103 2400 3103 
Q 2144 3103 1911 2972 
Q 1678 2841 1497 2591 
Q 1319 2344 1212 1994 
Q 1106 1644 1106 1300 
Q 1106 863 1306 627 
Q 1506 391 1875 391 
Q 2147 391 2380 519 
Q 2613 647 2778 891 
Q 2956 1147 3065 1494 
Q 3175 1841 3175 2156 
z
M 1394 2969 
Q 1625 3272 1939 3428 
Q 2253 3584 2638 3584 
Q 3175 3584 3472 3232 
Q 3769 2881 3769 2247 
Q 3769 1728 3584 1258 
Q 3400 788 3053 416 
Q 2822 169 2531 39 
Q 2241 -91 1919 -91 
Q 1547 -91 1294 64 
Q 1041 219 916 525 
L 556 -1331 
L -19 -1331 
L 922 3500 
L 1497 3500 
L 1394 2969 
z
" transform="scale(0.015625)"/>
      <path id="DejaVuSans-Oblique-75" d="M 428 1388 
L 838 3500 
L 1416 3500 
L 1006 1409 
Q 975 1256 961 1147 
Q 947 1038 947 966 
Q 947 700 1109 554 
Q 1272 409 1569 409 
Q 2031 409 2368 721 
Q 2706 1034 2809 1563 
L 3194 3500 
L 3769 3500 
L 3091 0 
L 2516 0 
L 2631 550 
Q 2388 244 2052 76 
Q 1716 -91 1338 -91 
Q 878 -91 622 161 
Q 366 413 366 863 
Q 366 956 381 1097 
Q 397 1238 428 1388 
z
" transform="scale(0.015625)"/>
      <path id="DejaVuSans-Oblique-68" d="M 3566 2113 
L 3156 0 
L 2578 0 
L 2988 2091 
Q 3016 2238 3031 2350 
Q 3047 2463 3047 2528 
Q 3047 2791 2881 2937 
Q 2716 3084 2419 3084 
Q 1956 3084 1617 2771 
Q 1278 2459 1178 1941 
L 800 0 
L 225 0 
L 1172 4863 
L 1747 4863 
L 1375 2950 
Q 1594 3244 1934 3414 
Q 2275 3584 2650 3584 
Q 3113 3584 3367 3334 
Q 3622 3084 3622 2631 
Q 3622 2519 3608 2391 
Q 3594 2263 3566 2113 
z
" transform="scale(0.015625)"/>
      <path id="DejaVuSans-Oblique-6e" d="M 3566 2113 
L 3156 0 
L 2578 0 
L 2988 2091 
Q 3016 2238 3031 2350 
Q 3047 2463 3047 2528 
Q 3047 2791 2881 2937 
Q 2716 3084 2419 3084 
Q 1956 3084 1622 2776 
Q 1288 2469 1184 1941 
L 800 0 
L 225 0 
L 903 3500 
L 1478 3500 
L 1363 2950 
Q 1603 3253 1940 3418 
Q 2278 3584 2650 3584 
Q 3113 3584 3367 3334 
Q 3622 3084 3622 2631 
Q 3622 2519 3608 2391 
Q 3594 2263 3566 2113 
z
" transform="scale(0.015625)"/>
      <path id="DejaVuSans-Oblique-6d" d="M 5747 2113 
L 5338 0 
L 4763 0 
L 5166 2094 
Q 5191 2228 5203 2325 
Q 5216 2422 5216 2491 
Q 5216 2772 5059 2928 
Q 4903 3084 4622 3084 
Q 4203 3084 3875 2770 
Q 3547 2456 3450 1953 
L 3066 0 
L 2491 0 
L 2900 2094 
Q 2925 2209 2937 2307 
Q 2950 2406 2950 2484 
Q 2950 2769 2794 2926 
Q 2638 3084 2363 3084 
Q 1938 3084 1609 2770 
Q 1281 2456 1184 1953 
L 800 0 
L 225 0 
L 909 3500 
L 1484 3500 
L 1375 2956 
Q 1609 3263 1923 3423 
Q 2238 3584 2597 3584 
Q 2978 3584 3223 3384 
Q 3469 3184 3519 2828 
Q 3781 3197 4126 3390 
Q 4472 3584 4856 3584 
Q 5306 3584 5551 3325 
Q 5797 3066 5797 2591 
Q 5797 2488 5784 2364 
Q 5772 2241 5747 2113 
z
" transform="scale(0.015625)"/>
      <path id="DejaVuSans-Oblique-62" d="M 3169 2138 
Q 3169 2591 2961 2847 
Q 2753 3103 2388 3103 
Q 2122 3103 1889 2973 
Q 1656 2844 1484 2597 
Q 1303 2338 1198 1995 
Q 1094 1653 1094 1313 
Q 1094 881 1298 636 
Q 1503 391 1863 391 
Q 2134 391 2365 517 
Q 2597 644 2772 891 
Q 2950 1147 3059 1487 
Q 3169 1828 3169 2138 
z
M 1381 2969 
Q 1594 3256 1914 3420 
Q 2234 3584 2584 3584 
Q 3122 3584 3439 3221 
Q 3756 2859 3756 2241 
Q 3756 1734 3570 1259 
Q 3384 784 3041 416 
Q 2816 172 2522 40 
Q 2228 -91 1906 -91 
Q 1566 -91 1316 65 
Q 1066 222 909 531 
L 806 0 
L 231 0 
L 1178 4863 
L 1753 4863 
L 1381 2969 
z
" transform="scale(0.015625)"/>
      <path id="DejaVuSans-Oblique-72" d="M 2853 2969 
Q 2766 3016 2653 3041 
Q 2541 3066 2413 3066 
Q 1953 3066 1609 2717 
Q 1266 2369 1153 1784 
L 800 0 
L 225 0 
L 909 3500 
L 1484 3500 
L 1375 2956 
Q 1603 3259 1920 3421 
Q 2238 3584 2597 3584 
Q 2691 3584 2781 3573 
Q 2872 3563 2963 3538 
L 2853 2969 
z
" transform="scale(0.015625)"/>
      <path id="DejaVuSans-Oblique-3b" d="M 563 794 
L 1222 794 
L 1113 256 
L 409 -744 
L 6 -744 
L 453 256 
L 563 794 
z
M 1050 3309 
L 1709 3309 
L 1556 2516 
L 897 2516 
L 1050 3309 
z
" transform="scale(0.015625)"/>
      <path id="DejaVuSans-Oblique-66" d="M 3059 4863 
L 2969 4384 
L 2419 4384 
Q 2106 4384 1964 4261 
Q 1822 4138 1753 3809 
L 1691 3500 
L 2638 3500 
L 2553 3053 
L 1606 3053 
L 1013 0 
L 434 0 
L 1031 3053 
L 481 3053 
L 563 3500 
L 1113 3500 
L 1159 3744 
Q 1278 4363 1576 4613 
Q 1875 4863 2516 4863 
L 3059 4863 
z
" transform="scale(0.015625)"/>
      <path id="DejaVuSans-Oblique-6f" d="M 1625 -91 
Q 1009 -91 651 289 
Q 294 669 294 1325 
Q 294 1706 417 2101 
Q 541 2497 738 2766 
Q 1047 3184 1428 3384 
Q 1809 3584 2291 3584 
Q 2888 3584 3255 3212 
Q 3622 2841 3622 2241 
Q 3622 1825 3500 1412 
Q 3378 1000 3181 728 
Q 2875 309 2494 109 
Q 2113 -91 1625 -91 
z
M 891 1344 
Q 891 869 1089 633 
Q 1288 397 1691 397 
Q 2269 397 2648 901 
Q 3028 1406 3028 2181 
Q 3028 2634 2825 2865 
Q 2622 3097 2228 3097 
Q 1903 3097 1650 2945 
Q 1397 2794 1197 2484 
Q 1050 2253 970 1956 
Q 891 1659 891 1344 
z
" transform="scale(0.015625)"/>
      <path id="DejaVuSans-Oblique-2a" d="M 3009 3897 
L 1888 3291 
L 3009 2681 
L 2828 2375 
L 1778 3009 
L 1778 1831 
L 1422 1831 
L 1422 3009 
L 372 2375 
L 191 2681 
L 1313 3291 
L 191 3897 
L 372 4206 
L 1422 3572 
L 1422 4750 
L 1778 4750 
L 1778 3572 
L 2828 4206 
L 3009 3897 
z
" transform="scale(0.015625)"/>
      <path id="DejaVuSans-Oblique-64" d="M 2675 525 
Q 2444 222 2128 65 
Q 1813 -91 1428 -91 
Q 903 -91 598 267 
Q 294 625 294 1247 
Q 294 1766 478 2236 
Q 663 2706 1013 3078 
Q 1244 3325 1534 3454 
Q 1825 3584 2144 3584 
Q 2481 3584 2739 3421 
Q 2997 3259 3138 2956 
L 3513 4863 
L 4091 4863 
L 3144 0 
L 2566 0 
L 2675 525 
z
M 891 1350 
Q 891 897 1095 644 
Q 1300 391 1663 391 
Q 1931 391 2161 520 
Q 2391 650 2566 903 
Q 2750 1166 2856 1509 
Q 2963 1853 2963 2188 
Q 2963 2622 2758 2865 
Q 2553 3109 2194 3109 
Q 1922 3109 1687 2981 
Q 1453 2853 1288 2613 
Q 1106 2353 998 2009 
Q 891 1666 891 1350 
z
" transform="scale(0.015625)"/>
      <path id="DejaVuSans-Oblique-2f" d="M 2175 4666 
L 2731 4666 
L 84 -594 
L -469 -594 
L 2175 4666 
z
" transform="scale(0.015625)"/>
      <path id="DejaVuSans-Oblique-2c" d="M 575 794 
L 1234 794 
L 1131 256 
L 422 -744 
L 19 -744 
L 469 256 
L 575 794 
z
" transform="scale(0.015625)"/>
      <path id="DejaVuSans-Oblique-69" d="M 1172 4863 
L 1747 4863 
L 1606 4134 
L 1031 4134 
L 1172 4863 
z
M 909 3500 
L 1484 3500 
L 800 0 
L 225 0 
L 909 3500 
z
" transform="scale(0.015625)"/>
      <path id="DejaVuSans-Oblique-6c" d="M 1172 4863 
L 1747 4863 
L 800 0 
L 225 0 
L 1172 4863 
z
" transform="scale(0.015625)"/>
      <path id="DejaVuSans-Oblique-79" d="M 1588 -325 
Q 1188 -997 936 -1164 
Q 684 -1331 294 -1331 
L -159 -1331 
L -63 -850 
L 269 -850 
Q 509 -850 678 -719 
Q 847 -588 1056 -206 
L 1234 128 
L 459 3500 
L 1069 3500 
L 1650 819 
L 3256 3500 
L 3859 3500 
L 1588 -325 
z
" transform="scale(0.015625)"/>
      <path id="DejaVuSans-Oblique-28" d="M 2731 4856 
Q 1903 3822 1495 2892 
Q 1088 1963 1088 1100 
Q 1088 606 1206 120 
Q 1325 -366 1563 -844 
L 1063 -844 
Q 775 -306 634 201 
Q 494 709 494 1197 
Q 494 2125 923 3036 
Q 1353 3947 2222 4856 
L 2731 4856 
z
" transform="scale(0.015625)"/>
      <path id="DejaVuSans-Oblique-29" d="M -397 -844 
Q 434 191 840 1120 
Q 1247 2050 1247 2913 
Q 1247 3406 1130 3892 
Q 1013 4378 775 4856 
L 1275 4856 
Q 1563 4316 1703 3812 
Q 1844 3309 1844 2822 
Q 1844 1891 1411 973 
Q 978 56 116 -844 
L -397 -844 
z
" transform="scale(0.015625)"/>
     </defs>
     <use xlink:href="#DejaVuSans-Oblique-55"/>
     <use xlink:href="#DejaVuSans-Oblique-73" transform="translate(73.193359 0)"/>
     <use xlink:href="#DejaVuSans-Oblique-65" transform="translate(125.292969 0)"/>
     <use xlink:href="#DejaVuSans-Oblique-20" transform="translate(186.816406 0)"/>
     <use xlink:href="#DejaVuSans-Oblique-61" transform="translate(218.603516 0)"/>
     <use xlink:href="#DejaVuSans-Oblique-20" transform="translate(279.882812 0)"/>
     <use xlink:href="#DejaVuSans-Oblique-73" transform="translate(311.669922 0)"/>
     <use xlink:href="#DejaVuSans-Oblique-74" transform="translate(363.769531 0)"/>
     <use xlink:href="#DejaVuSans-Oblique-61" transform="translate(402.978516 0)"/>
     <use xlink:href="#DejaVuSans-Oblique-63" transform="translate(464.257812 0)"/>
     <use xlink:href="#DejaVuSans-Oblique-6b" transform="translate(519.238281 0)"/>
     <use xlink:href="#DejaVuSans-Oblique-3a" transform="translate(577.148438 0)"/>
     <use xlink:href="#DejaVuSans-Oblique-20" transform="translate(610.839844 0)"/>
     <use xlink:href="#DejaVuSans-Oblique-70" transform="translate(642.626953 0)"/>
     <use xlink:href="#DejaVuSans-Oblique-75" transform="translate(706.103516 0)"/>
     <use xlink:href="#DejaVuSans-Oblique-73" transform="translate(769.482422 0)"/>
     <use xlink:href="#DejaVuSans-Oblique-68" transform="translate(821.582031 0)"/>
     <use xlink:href="#DejaVuSans-Oblique-20" transform="translate(884.960938 0)"/>
     <use xlink:href="#DejaVuSans-Oblique-6e" transform="translate(916.748047 0)"/>
     <use xlink:href="#DejaVuSans-Oblique-75" transform="translate(980.126953 0)"/>
     <use xlink:href="#DejaVuSans-Oblique-6d" transform="translate(1043.505859 0)"/>
     <use xlink:href="#DejaVuSans-Oblique-62" transform="translate(1140.917969 0)"/>
     <use xlink:href="#DejaVuSans-Oblique-65" transform="translate(1204.394531 0)"/>
     <use xlink:href="#DejaVuSans-Oblique-72" transform="translate(1265.917969 0)"/>
     <use xlink:href="#DejaVuSans-Oblique-73" transform="translate(1307.03125 0)"/>
     <use xlink:href="#DejaVuSans-Oblique-3b" transform="translate(1359.130859 0)"/>
     <use xlink:href="#DejaVuSans-Oblique-20" transform="translate(1392.822266 0)"/>
     <use xlink:href="#DejaVuSans-Oblique-66" transform="translate(1424.609375 0)"/>
     <use xlink:href="#DejaVuSans-Oblique-6f" transform="translate(1459.814453 0)"/>
     <use xlink:href="#DejaVuSans-Oblique-72" transform="translate(1520.996094 0)"/>
     <use xlink:href="#DejaVuSans-Oblique-20" transform="translate(1562.109375 0)"/>
     <use xlink:href="#DejaVuSans-Oblique-2a" transform="translate(1593.896484 0)"/>
     <use xlink:href="#DejaVuSans-Oblique-20" transform="translate(1643.896484 0)"/>
     <use xlink:href="#DejaVuSans-Oblique-61" transform="translate(1675.683594 0)"/>
     <use xlink:href="#DejaVuSans-Oblique-6e" transform="translate(1736.962891 0)"/>
     <use xlink:href="#DejaVuSans-Oblique-64" transform="translate(1800.341797 0)"/>
     <use xlink:href="#DejaVuSans-Oblique-20" transform="translate(1863.818359 0)"/>
     <use xlink:href="#DejaVuSans-Oblique-2f" transform="translate(1895.605469 0)"/>
     <use xlink:href="#DejaVuSans-Oblique-2c" transform="translate(1929.296875 0)"/>
     <use xlink:href="#DejaVuSans-Oblique-20" transform="translate(1961.083984 0)"/>
     <use xlink:href="#DejaVuSans-Oblique-70" transform="translate(1992.871094 0)"/>
     <use xlink:href="#DejaVuSans-Oblique-6f" transform="translate(2056.347656 0)"/>
     <use xlink:href="#DejaVuSans-Oblique-70" transform="translate(2117.529297 0)"/>
     <use xlink:href="#DejaVuSans-Oblique-20" transform="translate(2181.005859 0)"/>
     <use xlink:href="#DejaVuSans-Oblique-61" transform="translate(2212.792969 0)"/>
     <use xlink:href="#DejaVuSans-Oblique-6e" transform="translate(2274.072266 0)"/>
     <use xlink:href="#DejaVuSans-Oblique-64" transform="translate(2337.451172 0)"/>
     <use xlink:href="#DejaVuSans-Oblique-20" transform="translate(2400.927734 0)"/>
     <use xlink:href="#DejaVuSans-Oblique-63" transform="translate(2432.714844 0)"/>
     <use xlink:href="#DejaVuSans-Oblique-6f" transform="translate(2487.695312 0)"/>
     <use xlink:href="#DejaVuSans-Oblique-6d" transform="translate(2548.876953 0)"/>
     <use xlink:href="#DejaVuSans-Oblique-70" transform="translate(2646.289062 0)"/>
     <use xlink:href="#DejaVuSans-Oblique-75" transform="translate(2709.765625 0)"/>
     <use xlink:href="#DejaVuSans-Oblique-74" transform="translate(2773.144531 0)"/>
     <use xlink:href="#DejaVuSans-Oblique-65" transform="translate(2812.353516 0)"/>
     <use xlink:href="#DejaVuSans-Oblique-20" transform="translate(2873.876953 0)"/>
     <use xlink:href="#DejaVuSans-Oblique-69" transform="translate(2905.664062 0)"/>
     <use xlink:href="#DejaVuSans-Oblique-6d" transform="translate(2933.447266 0)"/>
     <use xlink:href="#DejaVuSans-Oblique-6d" transform="translate(3030.859375 0)"/>
     <use xlink:href="#DejaVuSans-Oblique-65" transform="translate(3128.271484 0)"/>
     <use xlink:href="#DejaVuSans-Oblique-64" transform="translate(3189.794922 0)"/>
     <use xlink:href="#DejaVuSans-Oblique-69" transform="translate(3253.271484 0)"/>
     <use xlink:href="#DejaVuSans-Oblique-61" transform="translate(3281.054688 0)"/>
     <use xlink:href="#DejaVuSans-Oblique-74" transform="translate(3342.333984 0)"/>
     <use xlink:href="#DejaVuSans-Oblique-65" transform="translate(3381.542969 0)"/>
     <use xlink:href="#DejaVuSans-Oblique-6c" transform="translate(3443.066406 0)"/>
     <use xlink:href="#DejaVuSans-Oblique-79" transform="translate(3470.849609 0)"/>
     <use xlink:href="#DejaVuSans-Oblique-20" transform="translate(3530.029297 0)"/>
     <use xlink:href="#DejaVuSans-Oblique-28" transform="translate(3561.816406 0)"/>
     <use xlink:href="#DejaVuSans-Oblique-70" transform="translate(3600.830078 0)"/>
     <use xlink:href="#DejaVuSans-Oblique-72" transform="translate(3664.306641 0)"/>
     <use xlink:href="#DejaVuSans-Oblique-65" transform="translate(3705.419922 0)"/>
     <use xlink:href="#DejaVuSans-Oblique-63" transform="translate(3766.943359 0)"/>
     <use xlink:href="#DejaVuSans-Oblique-65" transform="translate(3821.923828 0)"/>
     <use xlink:href="#DejaVuSans-Oblique-64" transform="translate(3883.447266 0)"/>
     <use xlink:href="#DejaVuSans-Oblique-65" transform="translate(3946.923828 0)"/>
     <use xlink:href="#DejaVuSans-Oblique-6e" transform="translate(4008.447266 0)"/>
     <use xlink:href="#DejaVuSans-Oblique-63" transform="translate(4071.826172 0)"/>
     <use xlink:href="#DejaVuSans-Oblique-65" transform="translate(4126.806641 0)"/>
     <use xlink:href="#DejaVuSans-Oblique-29" transform="translate(4188.330078 0)"/>
    </g>
   </g>
   <g id="text_9">
    <!-- for + and -, just push the (signed) value onto the stack -->
    <g style="fill: #555555" transform="translate(31.114286 193.340308) scale(0.09 -0.09)">
     <defs>
      <path id="DejaVuSans-66" d="M 2375 4863 
L 2375 4384 
L 1825 4384 
Q 1516 4384 1395 4259 
Q 1275 4134 1275 3809 
L 1275 3500 
L 2222 3500 
L 2222 3053 
L 1275 3053 
L 1275 0 
L 697 0 
L 697 3053 
L 147 3053 
L 147 3500 
L 697 3500 
L 697 3744 
Q 697 4328 969 4595 
Q 1241 4863 1831 4863 
L 2375 4863 
z
" transform="scale(0.015625)"/>
      <path id="DejaVuSans-6f" d="M 1959 3097 
Q 1497 3097 1228 2736 
Q 959 2375 959 1747 
Q 959 1119 1226 758 
Q 1494 397 1959 397 
Q 2419 397 2687 759 
Q 2956 1122 2956 1747 
Q 2956 2369 2687 2733 
Q 2419 3097 1959 3097 
z
M 1959 3584 
Q 2709 3584 3137 3096 
Q 3566 2609 3566 1747 
Q 3566 888 3137 398 
Q 2709 -91 1959 -91 
Q 1206 -91 779 398 
Q 353 888 353 1747 
Q 353 2609 779 3096 
Q 1206 3584 1959 3584 
z
" transform="scale(0.015625)"/>
      <path id="DejaVuSans-72" d="M 2631 2963 
Q 2534 3019 2420 3045 
Q 2306 3072 2169 3072 
Q 1681 3072 1420 2755 
Q 1159 2438 1159 1844 
L 1159 0 
L 581 0 
L 581 3500 
L 1159 3500 
L 1159 2956 
Q 1341 3275 1631 3429 
Q 1922 3584 2338 3584 
Q 2397 3584 2469 3576 
Q 2541 3569 2628 3553 
L 2631 2963 
z
" transform="scale(0.015625)"/>
      <path id="DejaVuSans-20" transform="scale(0.015625)"/>
      <path id="DejaVuSans-2b" d="M 2944 4013 
L 2944 2272 
L 4684 2272 
L 4684 1741 
L 2944 1741 
L 2944 0 
L 2419 0 
L 2419 1741 
L 678 1741 
L 678 2272 
L 2419 2272 
L 2419 4013 
L 2944 4013 
z
" transform="scale(0.015625)"/>
      <path id="DejaVuSans-61" d="M 2194 1759 
Q 1497 1759 1228 1600 
Q 959 1441 959 1056 
Q 959 750 1161 570 
Q 1363 391 1709 391 
Q 2188 391 2477 730 
Q 2766 1069 2766 1631 
L 2766 1759 
L 2194 1759 
z
M 3341 1997 
L 3341 0 
L 2766 0 
L 2766 531 
Q 2569 213 2275 61 
Q 1981 -91 1556 -91 
Q 1019 -91 701 211 
Q 384 513 384 1019 
Q 384 1609 779 1909 
Q 1175 2209 1959 2209 
L 2766 2209 
L 2766 2266 
Q 2766 2663 2505 2880 
Q 2244 3097 1772 3097 
Q 1472 3097 1187 3025 
Q 903 2953 641 2809 
L 641 3341 
Q 956 3463 1253 3523 
Q 1550 3584 1831 3584 
Q 2591 3584 2966 3190 
Q 3341 2797 3341 1997 
z
" transform="scale(0.015625)"/>
      <path id="DejaVuSans-6e" d="M 3513 2113 
L 3513 0 
L 2938 0 
L 2938 2094 
Q 2938 2591 2744 2837 
Q 2550 3084 2163 3084 
Q 1697 3084 1428 2787 
Q 1159 2491 1159 1978 
L 1159 0 
L 581 0 
L 581 3500 
L 1159 3500 
L 1159 2956 
Q 1366 3272 1645 3428 
Q 1925 3584 2291 3584 
Q 2894 3584 3203 3211 
Q 3513 2838 3513 2113 
z
" transform="scale(0.015625)"/>
      <path id="DejaVuSans-64" d="M 2906 2969 
L 2906 4863 
L 3481 4863 
L 3481 0 
L 2906 0 
L 2906 525 
Q 2725 213 2448 61 
Q 2172 -91 1784 -91 
Q 1150 -91 751 415 
Q 353 922 353 1747 
Q 353 2572 751 3078 
Q 1150 3584 1784 3584 
Q 2172 3584 2448 3432 
Q 2725 3281 2906 2969 
z
M 947 1747 
Q 947 1113 1208 752 
Q 1469 391 1925 391 
Q 2381 391 2643 752 
Q 2906 1113 2906 1747 
Q 2906 2381 2643 2742 
Q 2381 3103 1925 3103 
Q 1469 3103 1208 2742 
Q 947 2381 947 1747 
z
" transform="scale(0.015625)"/>
      <path id="DejaVuSans-2d" d="M 313 2009 
L 1997 2009 
L 1997 1497 
L 313 1497 
L 313 2009 
z
" transform="scale(0.015625)"/>
      <path id="DejaVuSans-2c" d="M 750 794 
L 1409 794 
L 1409 256 
L 897 -744 
L 494 -744 
L 750 256 
L 750 794 
z
" transform="scale(0.015625)"/>
      <path id="DejaVuSans-6a" d="M 603 3500 
L 1178 3500 
L 1178 -63 
Q 1178 -731 923 -1031 
Q 669 -1331 103 -1331 
L -116 -1331 
L -116 -844 
L 38 -844 
Q 366 -844 484 -692 
Q 603 -541 603 -63 
L 603 3500 
z
M 603 4863 
L 1178 4863 
L 1178 4134 
L 603 4134 
L 603 4863 
z
" transform="scale(0.015625)"/>
      <path id="DejaVuSans-75" d="M 544 1381 
L 544 3500 
L 1119 3500 
L 1119 1403 
Q 1119 906 1312 657 
Q 1506 409 1894 409 
Q 2359 409 2629 706 
Q 2900 1003 2900 1516 
L 2900 3500 
L 3475 3500 
L 3475 0 
L 2900 0 
L 2900 538 
Q 2691 219 2414 64 
Q 2138 -91 1772 -91 
Q 1169 -91 856 284 
Q 544 659 544 1381 
z
M 1991 3584 
L 1991 3584 
z
" transform="scale(0.015625)"/>
      <path id="DejaVuSans-73" d="M 2834 3397 
L 2834 2853 
Q 2591 2978 2328 3040 
Q 2066 3103 1784 3103 
Q 1356 3103 1142 2972 
Q 928 2841 928 2578 
Q 928 2378 1081 2264 
Q 1234 2150 1697 2047 
L 1894 2003 
Q 2506 1872 2764 1633 
Q 3022 1394 3022 966 
Q 3022 478 2636 193 
Q 2250 -91 1575 -91 
Q 1294 -91 989 -36 
Q 684 19 347 128 
L 347 722 
Q 666 556 975 473 
Q 1284 391 1588 391 
Q 1994 391 2212 530 
Q 2431 669 2431 922 
Q 2431 1156 2273 1281 
Q 2116 1406 1581 1522 
L 1381 1569 
Q 847 1681 609 1914 
Q 372 2147 372 2553 
Q 372 3047 722 3315 
Q 1072 3584 1716 3584 
Q 2034 3584 2315 3537 
Q 2597 3491 2834 3397 
z
" transform="scale(0.015625)"/>
      <path id="DejaVuSans-74" d="M 1172 4494 
L 1172 3500 
L 2356 3500 
L 2356 3053 
L 1172 3053 
L 1172 1153 
Q 1172 725 1289 603 
Q 1406 481 1766 481 
L 2356 481 
L 2356 0 
L 1766 0 
Q 1100 0 847 248 
Q 594 497 594 1153 
L 594 3053 
L 172 3053 
L 172 3500 
L 594 3500 
L 594 4494 
L 1172 4494 
z
" transform="scale(0.015625)"/>
      <path id="DejaVuSans-70" d="M 1159 525 
L 1159 -1331 
L 581 -1331 
L 581 3500 
L 1159 3500 
L 1159 2969 
Q 1341 3281 1617 3432 
Q 1894 3584 2278 3584 
Q 2916 3584 3314 3078 
Q 3713 2572 3713 1747 
Q 3713 922 3314 415 
Q 2916 -91 2278 -91 
Q 1894 -91 1617 61 
Q 1341 213 1159 525 
z
M 3116 1747 
Q 3116 2381 2855 2742 
Q 2594 3103 2138 3103 
Q 1681 3103 1420 2742 
Q 1159 2381 1159 1747 
Q 1159 1113 1420 752 
Q 1681 391 2138 391 
Q 2594 391 2855 752 
Q 3116 1113 3116 1747 
z
" transform="scale(0.015625)"/>
      <path id="DejaVuSans-68" d="M 3513 2113 
L 3513 0 
L 2938 0 
L 2938 2094 
Q 2938 2591 2744 2837 
Q 2550 3084 2163 3084 
Q 1697 3084 1428 2787 
Q 1159 2491 1159 1978 
L 1159 0 
L 581 0 
L 581 4863 
L 1159 4863 
L 1159 2956 
Q 1366 3272 1645 3428 
Q 1925 3584 2291 3584 
Q 2894 3584 3203 3211 
Q 3513 2838 3513 2113 
z
" transform="scale(0.015625)"/>
      <path id="DejaVuSans-65" d="M 3597 1894 
L 3597 1613 
L 953 1613 
Q 991 1019 1311 708 
Q 1631 397 2203 397 
Q 2534 397 2845 478 
Q 3156 559 3463 722 
L 3463 178 
Q 3153 47 2828 -22 
Q 2503 -91 2169 -91 
Q 1331 -91 842 396 
Q 353 884 353 1716 
Q 353 2575 817 3079 
Q 1281 3584 2069 3584 
Q 2775 3584 3186 3129 
Q 3597 2675 3597 1894 
z
M 3022 2063 
Q 3016 2534 2758 2815 
Q 2500 3097 2075 3097 
Q 1594 3097 1305 2825 
Q 1016 2553 972 2059 
L 3022 2063 
z
" transform="scale(0.015625)"/>
      <path id="DejaVuSans-28" d="M 1984 4856 
Q 1566 4138 1362 3434 
Q 1159 2731 1159 2009 
Q 1159 1288 1364 580 
Q 1569 -128 1984 -844 
L 1484 -844 
Q 1016 -109 783 600 
Q 550 1309 550 2009 
Q 550 2706 781 3412 
Q 1013 4119 1484 4856 
L 1984 4856 
z
" transform="scale(0.015625)"/>
      <path id="DejaVuSans-69" d="M 603 3500 
L 1178 3500 
L 1178 0 
L 603 0 
L 603 3500 
z
M 603 4863 
L 1178 4863 
L 1178 4134 
L 603 4134 
L 603 4863 
z
" transform="scale(0.015625)"/>
      <path id="DejaVuSans-67" d="M 2906 1791 
Q 2906 2416 2648 2759 
Q 2391 3103 1925 3103 
Q 1463 3103 1205 2759 
Q 947 2416 947 1791 
Q 947 1169 1205 825 
Q 1463 481 1925 481 
Q 2391 481 2648 825 
Q 2906 1169 2906 1791 
z
M 3481 434 
Q 3481 -459 3084 -895 
Q 2688 -1331 1869 -1331 
Q 1566 -1331 1297 -1286 
Q 1028 -1241 775 -1147 
L 775 -588 
Q 1028 -725 1275 -790 
Q 1522 -856 1778 -856 
Q 2344 -856 2625 -561 
Q 2906 -266 2906 331 
L 2906 616 
Q 2728 306 2450 153 
Q 2172 0 1784 0 
Q 1141 0 747 490 
Q 353 981 353 1791 
Q 353 2603 747 3093 
Q 1141 3584 1784 3584 
Q 2172 3584 2450 3431 
Q 2728 3278 2906 2969 
L 2906 3500 
L 3481 3500 
L 3481 434 
z
" transform="scale(0.015625)"/>
      <path id="DejaVuSans-29" d="M 513 4856 
L 1013 4856 
Q 1481 4119 1714 3412 
Q 1947 2706 1947 2009 
Q 1947 1309 1714 600 
Q 1481 -109 1013 -844 
L 513 -844 
Q 928 -128 1133 580 
Q 1338 1288 1338 2009 
Q 1338 2731 1133 3434 
Q 928 4138 513 4856 
z
" transform="scale(0.015625)"/>
      <path id="DejaVuSans-76" d="M 191 3500 
L 800 3500 
L 1894 563 
L 2988 3500 
L 3597 3500 
L 2284 0 
L 1503 0 
L 191 3500 
z
" transform="scale(0.015625)"/>
      <path id="DejaVuSans-6c" d="M 603 4863 
L 1178 4863 
L 1178 0 
L 603 0 
L 603 4863 
z
" transform="scale(0.015625)"/>
      <path id="DejaVuSans-63" d="M 3122 3366 
L 3122 2828 
Q 2878 2963 2633 3030 
Q 2388 3097 2138 3097 
Q 1578 3097 1268 2742 
Q 959 2388 959 1747 
Q 959 1106 1268 751 
Q 1578 397 2138 397 
Q 2388 397 2633 464 
Q 2878 531 3122 666 
L 3122 134 
Q 2881 22 2623 -34 
Q 2366 -91 2075 -91 
Q 1284 -91 818 406 
Q 353 903 353 1747 
Q 353 2603 823 3093 
Q 1294 3584 2113 3584 
Q 2378 3584 2631 3529 
Q 2884 3475 3122 3366 
z
" transform="scale(0.015625)"/>
      <path id="DejaVuSans-6b" d="M 581 4863 
L 1159 4863 
L 1159 1991 
L 2875 3500 
L 3609 3500 
L 1753 1863 
L 3688 0 
L 2938 0 
L 1159 1709 
L 1159 0 
L 581 0 
L 581 4863 
z
" transform="scale(0.015625)"/>
     </defs>
     <use xlink:href="#DejaVuSans-66"/>
     <use xlink:href="#DejaVuSans-6f" transform="translate(35.205078 0)"/>
     <use xlink:href="#DejaVuSans-72" transform="translate(96.386719 0)"/>
     <use xlink:href="#DejaVuSans-20" transform="translate(137.5 0)"/>
     <use xlink:href="#DejaVuSans-2b" transform="translate(169.287109 0)"/>
     <use xlink:href="#DejaVuSans-20" transform="translate(253.076172 0)"/>
     <use xlink:href="#DejaVuSans-61" transform="translate(284.863281 0)"/>
     <use xlink:href="#DejaVuSans-6e" transform="translate(346.142578 0)"/>
     <use xlink:href="#DejaVuSans-64" transform="translate(409.521484 0)"/>
     <use xlink:href="#DejaVuSans-20" transform="translate(472.998047 0)"/>
     <use xlink:href="#DejaVuSans-2d" transform="translate(504.785156 0)"/>
     <use xlink:href="#DejaVuSans-2c" transform="translate(540.869141 0)"/>
     <use xlink:href="#DejaVuSans-20" transform="translate(572.65625 0)"/>
     <use xlink:href="#DejaVuSans-6a" transform="translate(604.443359 0)"/>
     <use xlink:href="#DejaVuSans-75" transform="translate(632.226562 0)"/>
     <use xlink:href="#DejaVuSans-73" transform="translate(695.605469 0)"/>
     <use xlink:href="#DejaVuSans-74" transform="translate(747.705078 0)"/>
     <use xlink:href="#DejaVuSans-20" transform="translate(786.914062 0)"/>
     <use xlink:href="#DejaVuSans-70" transform="translate(818.701172 0)"/>
     <use xlink:href="#DejaVuSans-75" transform="translate(882.177734 0)"/>
     <use xlink:href="#DejaVuSans-73" transform="translate(945.556641 0)"/>
     <use xlink:href="#DejaVuSans-68" transform="translate(997.65625 0)"/>
     <use xlink:href="#DejaVuSans-20" transform="translate(1061.035156 0)"/>
     <use xlink:href="#DejaVuSans-74" transform="translate(1092.822266 0)"/>
     <use xlink:href="#DejaVuSans-68" transform="translate(1132.03125 0)"/>
     <use xlink:href="#DejaVuSans-65" transform="translate(1195.410156 0)"/>
     <use xlink:href="#DejaVuSans-20" transform="translate(1256.933594 0)"/>
     <use xlink:href="#DejaVuSans-28" transform="translate(1288.720703 0)"/>
     <use xlink:href="#DejaVuSans-73" transform="translate(1327.734375 0)"/>
     <use xlink:href="#DejaVuSans-69" transform="translate(1379.833984 0)"/>
     <use xlink:href="#DejaVuSans-67" transform="translate(1407.617188 0)"/>
     <use xlink:href="#DejaVuSans-6e" transform="translate(1471.09375 0)"/>
     <use xlink:href="#DejaVuSans-65" transform="translate(1534.472656 0)"/>
     <use xlink:href="#DejaVuSans-64" transform="translate(1595.996094 0)"/>
     <use xlink:href="#DejaVuSans-29" transform="translate(1659.472656 0)"/>
     <use xlink:href="#DejaVuSans-20" transform="translate(1698.486328 0)"/>
     <use xlink:href="#DejaVuSans-76" transform="translate(1730.273438 0)"/>
     <use xlink:href="#DejaVuSans-61" transform="translate(1789.453125 0)"/>
     <use xlink:href="#DejaVuSans-6c" transform="translate(1850.732422 0)"/>
     <use xlink:href="#DejaVuSans-75" transform="translate(1878.515625 0)"/>
     <use xlink:href="#DejaVuSans-65" transform="translate(1941.894531 0)"/>
     <use xlink:href="#DejaVuSans-20" transform="translate(2003.417969 0)"/>
     <use xlink:href="#DejaVuSans-6f" transform="translate(2035.205078 0)"/>
     <use xlink:href="#DejaVuSans-6e" transform="translate(2096.386719 0)"/>
     <use xlink:href="#DejaVuSans-74" transform="translate(2159.765625 0)"/>
     <use xlink:href="#DejaVuSans-6f" transform="translate(2198.974609 0)"/>
     <use xlink:href="#DejaVuSans-20" transform="translate(2260.15625 0)"/>
     <use xlink:href="#DejaVuSans-74" transform="translate(2291.943359 0)"/>
     <use xlink:href="#DejaVuSans-68" transform="translate(2331.152344 0)"/>
     <use xlink:href="#DejaVuSans-65" transform="translate(2394.53125 0)"/>
     <use xlink:href="#DejaVuSans-20" transform="translate(2456.054688 0)"/>
     <use xlink:href="#DejaVuSans-73" transform="translate(2487.841797 0)"/>
     <use xlink:href="#DejaVuSans-74" transform="translate(2539.941406 0)"/>
     <use xlink:href="#DejaVuSans-61" transform="translate(2579.150391 0)"/>
     <use xlink:href="#DejaVuSans-63" transform="translate(2640.429688 0)"/>
     <use xlink:href="#DejaVuSans-6b" transform="translate(2695.410156 0)"/>
    </g>
   </g>
   <g id="text_10">
    <g id="patch_9">
     <path d="M 108.835714 227.598943 
L 310.027902 227.598943 
Q 313.027902 227.598943 313.027902 224.598943 
L 313.027902 214.920818 
Q 313.027902 211.920818 310.027902 211.920818 
L 108.835714 211.920818 
Q 105.835714 211.920818 105.835714 214.920818 
L 105.835714 224.598943 
Q 105.835714 227.598943 108.835714 227.598943 
z
" style="fill: #d5f5e3; stroke: #27ae60; stroke-linejoin: miter"/>
    </g>
    <!-- Sum the stack at the end: 3 + 4 = 7 -->
    <g transform="translate(108.835714 222.519256) scale(0.1 -0.1)">
     <defs>
      <path id="DejaVuSans-Bold-53" d="M 3834 4519 
L 3834 3531 
Q 3450 3703 3084 3790 
Q 2719 3878 2394 3878 
Q 1963 3878 1756 3759 
Q 1550 3641 1550 3391 
Q 1550 3203 1689 3098 
Q 1828 2994 2194 2919 
L 2706 2816 
Q 3484 2659 3812 2340 
Q 4141 2022 4141 1434 
Q 4141 663 3683 286 
Q 3225 -91 2284 -91 
Q 1841 -91 1394 -6 
Q 947 78 500 244 
L 500 1259 
Q 947 1022 1364 901 
Q 1781 781 2169 781 
Q 2563 781 2772 912 
Q 2981 1044 2981 1288 
Q 2981 1506 2839 1625 
Q 2697 1744 2272 1838 
L 1806 1941 
Q 1106 2091 782 2419 
Q 459 2747 459 3303 
Q 459 4000 909 4375 
Q 1359 4750 2203 4750 
Q 2588 4750 2994 4692 
Q 3400 4634 3834 4519 
z
" transform="scale(0.015625)"/>
      <path id="DejaVuSans-Bold-75" d="M 500 1363 
L 500 3500 
L 1625 3500 
L 1625 3150 
Q 1625 2866 1622 2436 
Q 1619 2006 1619 1863 
Q 1619 1441 1641 1255 
Q 1663 1069 1716 984 
Q 1784 875 1895 815 
Q 2006 756 2150 756 
Q 2500 756 2700 1025 
Q 2900 1294 2900 1772 
L 2900 3500 
L 4019 3500 
L 4019 0 
L 2900 0 
L 2900 506 
Q 2647 200 2364 54 
Q 2081 -91 1741 -91 
Q 1134 -91 817 281 
Q 500 653 500 1363 
z
" transform="scale(0.015625)"/>
      <path id="DejaVuSans-Bold-6d" d="M 3781 2919 
Q 3994 3244 4286 3414 
Q 4578 3584 4928 3584 
Q 5531 3584 5847 3212 
Q 6163 2841 6163 2131 
L 6163 0 
L 5038 0 
L 5038 1825 
Q 5041 1866 5042 1909 
Q 5044 1953 5044 2034 
Q 5044 2406 4934 2573 
Q 4825 2741 4581 2741 
Q 4263 2741 4089 2478 
Q 3916 2216 3909 1719 
L 3909 0 
L 2784 0 
L 2784 1825 
Q 2784 2406 2684 2573 
Q 2584 2741 2328 2741 
Q 2006 2741 1831 2477 
Q 1656 2213 1656 1722 
L 1656 0 
L 531 0 
L 531 3500 
L 1656 3500 
L 1656 2988 
Q 1863 3284 2130 3434 
Q 2397 3584 2719 3584 
Q 3081 3584 3359 3409 
Q 3638 3234 3781 2919 
z
" transform="scale(0.015625)"/>
      <path id="DejaVuSans-Bold-20" transform="scale(0.015625)"/>
      <path id="DejaVuSans-Bold-74" d="M 1759 4494 
L 1759 3500 
L 2913 3500 
L 2913 2700 
L 1759 2700 
L 1759 1216 
Q 1759 972 1856 886 
Q 1953 800 2241 800 
L 2816 800 
L 2816 0 
L 1856 0 
Q 1194 0 917 276 
Q 641 553 641 1216 
L 641 2700 
L 84 2700 
L 84 3500 
L 641 3500 
L 641 4494 
L 1759 4494 
z
" transform="scale(0.015625)"/>
      <path id="DejaVuSans-Bold-68" d="M 4056 2131 
L 4056 0 
L 2931 0 
L 2931 347 
L 2931 1625 
Q 2931 2084 2911 2256 
Q 2891 2428 2841 2509 
Q 2775 2619 2662 2680 
Q 2550 2741 2406 2741 
Q 2056 2741 1856 2470 
Q 1656 2200 1656 1722 
L 1656 0 
L 538 0 
L 538 4863 
L 1656 4863 
L 1656 2988 
Q 1909 3294 2193 3439 
Q 2478 3584 2822 3584 
Q 3428 3584 3742 3212 
Q 4056 2841 4056 2131 
z
" transform="scale(0.015625)"/>
      <path id="DejaVuSans-Bold-65" d="M 4031 1759 
L 4031 1441 
L 1416 1441 
Q 1456 1047 1700 850 
Q 1944 653 2381 653 
Q 2734 653 3104 758 
Q 3475 863 3866 1075 
L 3866 213 
Q 3469 63 3072 -14 
Q 2675 -91 2278 -91 
Q 1328 -91 801 392 
Q 275 875 275 1747 
Q 275 2603 792 3093 
Q 1309 3584 2216 3584 
Q 3041 3584 3536 3087 
Q 4031 2591 4031 1759 
z
M 2881 2131 
Q 2881 2450 2695 2645 
Q 2509 2841 2209 2841 
Q 1884 2841 1681 2658 
Q 1478 2475 1428 2131 
L 2881 2131 
z
" transform="scale(0.015625)"/>
      <path id="DejaVuSans-Bold-73" d="M 3272 3391 
L 3272 2541 
Q 2913 2691 2578 2766 
Q 2244 2841 1947 2841 
Q 1628 2841 1473 2761 
Q 1319 2681 1319 2516 
Q 1319 2381 1436 2309 
Q 1553 2238 1856 2203 
L 2053 2175 
Q 2913 2066 3209 1816 
Q 3506 1566 3506 1031 
Q 3506 472 3093 190 
Q 2681 -91 1863 -91 
Q 1516 -91 1145 -36 
Q 775 19 384 128 
L 384 978 
Q 719 816 1070 734 
Q 1422 653 1784 653 
Q 2113 653 2278 743 
Q 2444 834 2444 1013 
Q 2444 1163 2330 1236 
Q 2216 1309 1875 1350 
L 1678 1375 
Q 931 1469 631 1722 
Q 331 1975 331 2491 
Q 331 3047 712 3315 
Q 1094 3584 1881 3584 
Q 2191 3584 2531 3537 
Q 2872 3491 3272 3391 
z
" transform="scale(0.015625)"/>
      <path id="DejaVuSans-Bold-61" d="M 2106 1575 
Q 1756 1575 1579 1456 
Q 1403 1338 1403 1106 
Q 1403 894 1545 773 
Q 1688 653 1941 653 
Q 2256 653 2472 879 
Q 2688 1106 2688 1447 
L 2688 1575 
L 2106 1575 
z
M 3816 1997 
L 3816 0 
L 2688 0 
L 2688 519 
Q 2463 200 2181 54 
Q 1900 -91 1497 -91 
Q 953 -91 614 226 
Q 275 544 275 1050 
Q 275 1666 698 1953 
Q 1122 2241 2028 2241 
L 2688 2241 
L 2688 2328 
Q 2688 2594 2478 2717 
Q 2269 2841 1825 2841 
Q 1466 2841 1156 2769 
Q 847 2697 581 2553 
L 581 3406 
Q 941 3494 1303 3539 
Q 1666 3584 2028 3584 
Q 2975 3584 3395 3211 
Q 3816 2838 3816 1997 
z
" transform="scale(0.015625)"/>
      <path id="DejaVuSans-Bold-63" d="M 3366 3391 
L 3366 2478 
Q 3138 2634 2908 2709 
Q 2678 2784 2431 2784 
Q 1963 2784 1702 2511 
Q 1441 2238 1441 1747 
Q 1441 1256 1702 982 
Q 1963 709 2431 709 
Q 2694 709 2930 787 
Q 3166 866 3366 1019 
L 3366 103 
Q 3103 6 2833 -42 
Q 2563 -91 2291 -91 
Q 1344 -91 809 395 
Q 275 881 275 1747 
Q 275 2613 809 3098 
Q 1344 3584 2291 3584 
Q 2566 3584 2833 3536 
Q 3100 3488 3366 3391 
z
" transform="scale(0.015625)"/>
      <path id="DejaVuSans-Bold-6b" d="M 538 4863 
L 1656 4863 
L 1656 2216 
L 2944 3500 
L 4244 3500 
L 2534 1894 
L 4378 0 
L 3022 0 
L 1656 1459 
L 1656 0 
L 538 0 
L 538 4863 
z
" transform="scale(0.015625)"/>
      <path id="DejaVuSans-Bold-6e" d="M 4056 2131 
L 4056 0 
L 2931 0 
L 2931 347 
L 2931 1631 
Q 2931 2084 2911 2256 
Q 2891 2428 2841 2509 
Q 2775 2619 2662 2680 
Q 2550 2741 2406 2741 
Q 2056 2741 1856 2470 
Q 1656 2200 1656 1722 
L 1656 0 
L 538 0 
L 538 3500 
L 1656 3500 
L 1656 2988 
Q 1909 3294 2193 3439 
Q 2478 3584 2822 3584 
Q 3428 3584 3742 3212 
Q 4056 2841 4056 2131 
z
" transform="scale(0.015625)"/>
      <path id="DejaVuSans-Bold-64" d="M 2919 2988 
L 2919 4863 
L 4044 4863 
L 4044 0 
L 2919 0 
L 2919 506 
Q 2688 197 2409 53 
Q 2131 -91 1766 -91 
Q 1119 -91 703 423 
Q 288 938 288 1747 
Q 288 2556 703 3070 
Q 1119 3584 1766 3584 
Q 2128 3584 2408 3439 
Q 2688 3294 2919 2988 
z
M 2181 722 
Q 2541 722 2730 984 
Q 2919 1247 2919 1747 
Q 2919 2247 2730 2509 
Q 2541 2772 2181 2772 
Q 1825 2772 1636 2509 
Q 1447 2247 1447 1747 
Q 1447 1247 1636 984 
Q 1825 722 2181 722 
z
" transform="scale(0.015625)"/>
      <path id="DejaVuSans-Bold-3a" d="M 716 3500 
L 1844 3500 
L 1844 2291 
L 716 2291 
L 716 3500 
z
M 716 1209 
L 1844 1209 
L 1844 0 
L 716 0 
L 716 1209 
z
" transform="scale(0.015625)"/>
      <path id="DejaVuSans-Bold-37" d="M 428 4666 
L 3944 4666 
L 3944 3988 
L 2125 0 
L 953 0 
L 2675 3781 
L 428 3781 
L 428 4666 
z
" transform="scale(0.015625)"/>
     </defs>
     <use xlink:href="#DejaVuSans-Bold-53"/>
     <use xlink:href="#DejaVuSans-Bold-75" transform="translate(72.021484 0)"/>
     <use xlink:href="#DejaVuSans-Bold-6d" transform="translate(143.212891 0)"/>
     <use xlink:href="#DejaVuSans-Bold-20" transform="translate(247.412109 0)"/>
     <use xlink:href="#DejaVuSans-Bold-74" transform="translate(282.226562 0)"/>
     <use xlink:href="#DejaVuSans-Bold-68" transform="translate(330.029297 0)"/>
     <use xlink:href="#DejaVuSans-Bold-65" transform="translate(401.220703 0)"/>
     <use xlink:href="#DejaVuSans-Bold-20" transform="translate(469.042969 0)"/>
     <use xlink:href="#DejaVuSans-Bold-73" transform="translate(503.857422 0)"/>
     <use xlink:href="#DejaVuSans-Bold-74" transform="translate(563.378906 0)"/>
     <use xlink:href="#DejaVuSans-Bold-61" transform="translate(611.181641 0)"/>
     <use xlink:href="#DejaVuSans-Bold-63" transform="translate(678.662109 0)"/>
     <use xlink:href="#DejaVuSans-Bold-6b" transform="translate(737.939453 0)"/>
     <use xlink:href="#DejaVuSans-Bold-20" transform="translate(804.443359 0)"/>
     <use xlink:href="#DejaVuSans-Bold-61" transform="translate(839.257812 0)"/>
     <use xlink:href="#DejaVuSans-Bold-74" transform="translate(906.738281 0)"/>
     <use xlink:href="#DejaVuSans-Bold-20" transform="translate(954.541016 0)"/>
     <use xlink:href="#DejaVuSans-Bold-74" transform="translate(989.355469 0)"/>
     <use xlink:href="#DejaVuSans-Bold-68" transform="translate(1037.158203 0)"/>
     <use xlink:href="#DejaVuSans-Bold-65" transform="translate(1108.349609 0)"/>
     <use xlink:href="#DejaVuSans-Bold-20" transform="translate(1176.171875 0)"/>
     <use xlink:href="#DejaVuSans-Bold-65" transform="translate(1210.986328 0)"/>
     <use xlink:href="#DejaVuSans-Bold-6e" transform="translate(1278.808594 0)"/>
     <use xlink:href="#DejaVuSans-Bold-64" transform="translate(1350 0)"/>
     <use xlink:href="#DejaVuSans-Bold-3a" transform="translate(1421.582031 0)"/>
     <use xlink:href="#DejaVuSans-Bold-20" transform="translate(1461.572266 0)"/>
     <use xlink:href="#DejaVuSans-Bold-33" transform="translate(1496.386719 0)"/>
     <use xlink:href="#DejaVuSans-Bold-20" transform="translate(1565.966797 0)"/>
     <use xlink:href="#DejaVuSans-Bold-2b" transform="translate(1600.78125 0)"/>
     <use xlink:href="#DejaVuSans-Bold-20" transform="translate(1684.570312 0)"/>
     <use xlink:href="#DejaVuSans-Bold-34" transform="translate(1719.384766 0)"/>
     <use xlink:href="#DejaVuSans-Bold-20" transform="translate(1788.964844 0)"/>
     <use xlink:href="#DejaVuSans-Bold-3d" transform="translate(1823.779297 0)"/>
     <use xlink:href="#DejaVuSans-Bold-20" transform="translate(1907.568359 0)"/>
     <use xlink:href="#DejaVuSans-Bold-37" transform="translate(1942.382812 0)"/>
    </g>
   </g>
   <g id="text_11">
    <!-- Design a Calculator — "3+2*2" (respect operator precedence) -->
    <g transform="translate(78.979961 15.938203) scale(0.115 -0.115)">
     <defs>
      <path id="DejaVuSans-44" d="M 1259 4147 
L 1259 519 
L 2022 519 
Q 2988 519 3436 956 
Q 3884 1394 3884 2338 
Q 3884 3275 3436 3711 
Q 2988 4147 2022 4147 
L 1259 4147 
z
M 628 4666 
L 1925 4666 
Q 3281 4666 3915 4102 
Q 4550 3538 4550 2338 
Q 4550 1131 3912 565 
Q 3275 0 1925 0 
L 628 0 
L 628 4666 
z
" transform="scale(0.015625)"/>
      <path id="DejaVuSans-43" d="M 4122 4306 
L 4122 3641 
Q 3803 3938 3442 4084 
Q 3081 4231 2675 4231 
Q 1875 4231 1450 3742 
Q 1025 3253 1025 2328 
Q 1025 1406 1450 917 
Q 1875 428 2675 428 
Q 3081 428 3442 575 
Q 3803 722 4122 1019 
L 4122 359 
Q 3791 134 3420 21 
Q 3050 -91 2638 -91 
Q 1578 -91 968 557 
Q 359 1206 359 2328 
Q 359 3453 968 4101 
Q 1578 4750 2638 4750 
Q 3056 4750 3426 4639 
Q 3797 4528 4122 4306 
z
" transform="scale(0.015625)"/>
      <path id="DejaVuSans-2014" d="M 313 1978 
L 6088 1978 
L 6088 1528 
L 313 1528 
L 313 1978 
z
" transform="scale(0.015625)"/>
      <path id="DejaVuSans-22" d="M 1147 4666 
L 1147 2931 
L 616 2931 
L 616 4666 
L 1147 4666 
z
M 2328 4666 
L 2328 2931 
L 1797 2931 
L 1797 4666 
L 2328 4666 
z
" transform="scale(0.015625)"/>
      <path id="DejaVuSans-33" d="M 2597 2516 
Q 3050 2419 3304 2112 
Q 3559 1806 3559 1356 
Q 3559 666 3084 287 
Q 2609 -91 1734 -91 
Q 1441 -91 1130 -33 
Q 819 25 488 141 
L 488 750 
Q 750 597 1062 519 
Q 1375 441 1716 441 
Q 2309 441 2620 675 
Q 2931 909 2931 1356 
Q 2931 1769 2642 2001 
Q 2353 2234 1838 2234 
L 1294 2234 
L 1294 2753 
L 1863 2753 
Q 2328 2753 2575 2939 
Q 2822 3125 2822 3475 
Q 2822 3834 2567 4026 
Q 2313 4219 1838 4219 
Q 1578 4219 1281 4162 
Q 984 4106 628 3988 
L 628 4550 
Q 988 4650 1302 4700 
Q 1616 4750 1894 4750 
Q 2613 4750 3031 4423 
Q 3450 4097 3450 3541 
Q 3450 3153 3228 2886 
Q 3006 2619 2597 2516 
z
" transform="scale(0.015625)"/>
      <path id="DejaVuSans-32" d="M 1228 531 
L 3431 531 
L 3431 0 
L 469 0 
L 469 531 
Q 828 903 1448 1529 
Q 2069 2156 2228 2338 
Q 2531 2678 2651 2914 
Q 2772 3150 2772 3378 
Q 2772 3750 2511 3984 
Q 2250 4219 1831 4219 
Q 1534 4219 1204 4116 
Q 875 4013 500 3803 
L 500 4441 
Q 881 4594 1212 4672 
Q 1544 4750 1819 4750 
Q 2544 4750 2975 4387 
Q 3406 4025 3406 3419 
Q 3406 3131 3298 2873 
Q 3191 2616 2906 2266 
Q 2828 2175 2409 1742 
Q 1991 1309 1228 531 
z
" transform="scale(0.015625)"/>
      <path id="DejaVuSans-2a" d="M 3009 3897 
L 1888 3291 
L 3009 2681 
L 2828 2375 
L 1778 3009 
L 1778 1831 
L 1422 1831 
L 1422 3009 
L 372 2375 
L 191 2681 
L 1313 3291 
L 191 3897 
L 372 4206 
L 1422 3572 
L 1422 4750 
L 1778 4750 
L 1778 3572 
L 2828 4206 
L 3009 3897 
z
" transform="scale(0.015625)"/>
     </defs>
     <use xlink:href="#DejaVuSans-44"/>
     <use xlink:href="#DejaVuSans-65" transform="translate(77.001953 0)"/>
     <use xlink:href="#DejaVuSans-73" transform="translate(138.525391 0)"/>
     <use xlink:href="#DejaVuSans-69" transform="translate(190.625 0)"/>
     <use xlink:href="#DejaVuSans-67" transform="translate(218.408203 0)"/>
     <use xlink:href="#DejaVuSans-6e" transform="translate(281.884766 0)"/>
     <use xlink:href="#DejaVuSans-20" transform="translate(345.263672 0)"/>
     <use xlink:href="#DejaVuSans-61" transform="translate(377.050781 0)"/>
     <use xlink:href="#DejaVuSans-20" transform="translate(438.330078 0)"/>
     <use xlink:href="#DejaVuSans-43" transform="translate(470.117188 0)"/>
     <use xlink:href="#DejaVuSans-61" transform="translate(539.941406 0)"/>
     <use xlink:href="#DejaVuSans-6c" transform="translate(601.220703 0)"/>
     <use xlink:href="#DejaVuSans-63" transform="translate(629.003906 0)"/>
     <use xlink:href="#DejaVuSans-75" transform="translate(683.984375 0)"/>
     <use xlink:href="#DejaVuSans-6c" transform="translate(747.363281 0)"/>
     <use xlink:href="#DejaVuSans-61" transform="translate(775.146484 0)"/>
     <use xlink:href="#DejaVuSans-74" transform="translate(836.425781 0)"/>
     <use xlink:href="#DejaVuSans-6f" transform="translate(875.634766 0)"/>
     <use xlink:href="#DejaVuSans-72" transform="translate(936.816406 0)"/>
     <use xlink:href="#DejaVuSans-20" transform="translate(977.929688 0)"/>
     <use xlink:href="#DejaVuSans-2014" transform="translate(1009.716797 0)"/>
     <use xlink:href="#DejaVuSans-20" transform="translate(1109.716797 0)"/>
     <use xlink:href="#DejaVuSans-22" transform="translate(1141.503906 0)"/>
     <use xlink:href="#DejaVuSans-33" transform="translate(1187.5 0)"/>
     <use xlink:href="#DejaVuSans-2b" transform="translate(1251.123047 0)"/>
     <use xlink:href="#DejaVuSans-32" transform="translate(1334.912109 0)"/>
     <use xlink:href="#DejaVuSans-2a" transform="translate(1398.535156 0)"/>
     <use xlink:href="#DejaVuSans-32" transform="translate(1448.535156 0)"/>
     <use xlink:href="#DejaVuSans-22" transform="translate(1512.158203 0)"/>
     <use xlink:href="#DejaVuSans-20" transform="translate(1558.154297 0)"/>
     <use xlink:href="#DejaVuSans-28" transform="translate(1589.941406 0)"/>
     <use xlink:href="#DejaVuSans-72" transform="translate(1628.955078 0)"/>
     <use xlink:href="#DejaVuSans-65" transform="translate(1667.818359 0)"/>
     <use xlink:href="#DejaVuSans-73" transform="translate(1729.341797 0)"/>
     <use xlink:href="#DejaVuSans-70" transform="translate(1781.441406 0)"/>
     <use xlink:href="#DejaVuSans-65" transform="translate(1844.917969 0)"/>
     <use xlink:href="#DejaVuSans-63" transform="translate(1906.441406 0)"/>
     <use xlink:href="#DejaVuSans-74" transform="translate(1961.421875 0)"/>
     <use xlink:href="#DejaVuSans-20" transform="translate(2000.630859 0)"/>
     <use xlink:href="#DejaVuSans-6f" transform="translate(2032.417969 0)"/>
     <use xlink:href="#DejaVuSans-70" transform="translate(2093.599609 0)"/>
     <use xlink:href="#DejaVuSans-65" transform="translate(2157.076172 0)"/>
     <use xlink:href="#DejaVuSans-72" transform="translate(2218.599609 0)"/>
     <use xlink:href="#DejaVuSans-61" transform="translate(2259.712891 0)"/>
     <use xlink:href="#DejaVuSans-74" transform="translate(2320.992188 0)"/>
     <use xlink:href="#DejaVuSans-6f" transform="translate(2360.201172 0)"/>
     <use xlink:href="#DejaVuSans-72" transform="translate(2421.382812 0)"/>
     <use xlink:href="#DejaVuSans-20" transform="translate(2462.496094 0)"/>
     <use xlink:href="#DejaVuSans-70" transform="translate(2494.283203 0)"/>
     <use xlink:href="#DejaVuSans-72" transform="translate(2557.759766 0)"/>
     <use xlink:href="#DejaVuSans-65" transform="translate(2596.623047 0)"/>
     <use xlink:href="#DejaVuSans-63" transform="translate(2658.146484 0)"/>
     <use xlink:href="#DejaVuSans-65" transform="translate(2713.126953 0)"/>
     <use xlink:href="#DejaVuSans-64" transform="translate(2774.650391 0)"/>
     <use xlink:href="#DejaVuSans-65" transform="translate(2838.126953 0)"/>
     <use xlink:href="#DejaVuSans-6e" transform="translate(2899.650391 0)"/>
     <use xlink:href="#DejaVuSans-63" transform="translate(2963.029297 0)"/>
     <use xlink:href="#DejaVuSans-65" transform="translate(3018.009766 0)"/>
     <use xlink:href="#DejaVuSans-29" transform="translate(3079.533203 0)"/>
    </g>
   </g>
  </g>
 </g>
 <defs>
  <clipPath id="pe720533bdf">
   <rect x="7.2" y="29.938203" width="502.2" height="221.76"/>
  </clipPath>
 </defs>
</svg>
