<?xml version="1.0" encoding="utf-8" standalone="no"?>
<!DOCTYPE svg PUBLIC "-//W3C//DTD SVG 1.1//EN"
  "http://www.w3.org/Graphics/SVG/1.1/DTD/svg11.dtd">
<svg xmlns:xlink="http://www.w3.org/1999/xlink" width="544.5pt" height="270.366125pt" viewBox="0 0 544.5 270.366125" xmlns="http://www.w3.org/2000/svg" version="1.1">
 <metadata>
  <rdf:RDF xmlns:dc="http://purl.org/dc/elements/1.1/" xmlns:cc="http://creativecommons.org/ns#" xmlns:rdf="http://www.w3.org/1999/02/22-rdf-syntax-ns#">
   <cc:Work>
    <dc:type rdf:resource="http://purl.org/dc/dcmitype/StillImage"/>
    <dc:date>2026-07-04T14:20:19.003237</dc:date>
    <dc:format>image/svg+xml</dc:format>
    <dc:creator>
     <cc:Agent>
      <dc:title>Matplotlib v3.10.8, https://matplotlib.org/</dc:title>
     </cc:Agent>
    </dc:creator>
   </cc:Work>
  </rdf:RDF>
 </metadata>
 <defs>
  <style type="text/css">*{stroke-linejoin: round; stroke-linecap: butt}</style>
 </defs>
 <g id="figure_1">
  <g id="patch_1">
   <path d="M 0 270.366125 
L 544.5 270.366125 
L 544.5 0 
L 0 0 
z
" style="fill: #fafaf9"/>
  </g>
  <g id="axes_1">
   <g id="patch_2">
    <path d="M 21.925 110.296351 
L 78.61625 110.296351 
Q 80.825 110.296351 80.825 108.777777 
L 80.825 73.344386 
Q 80.825 71.825812 78.61625 71.825812 
L 21.925 71.825812 
Q 19.71625 71.825812 19.71625 73.344386 
L 19.71625 108.777777 
Q 19.71625 110.296351 21.925 110.296351 
z
" clip-path="url(#p1c2549b64f)" style="fill: #a9dfbf; stroke: #999999; stroke-width: 1.2; stroke-linejoin: miter"/>
   </g>
   <g id="patch_3">
    <path d="M 84.50625 110.296351 
L 141.1975 110.296351 
Q 143.40625 110.296351 143.40625 108.777777 
L 143.40625 73.344386 
Q 143.40625 71.825812 141.1975 71.825812 
L 84.50625 71.825812 
Q 82.2975 71.825812 82.2975 73.344386 
L 82.2975 108.777777 
Q 82.2975 110.296351 84.50625 110.296351 
z
" clip-path="url(#p1c2549b64f)" style="fill: #a9dfbf; stroke: #999999; stroke-width: 1.2; stroke-linejoin: miter"/>
   </g>
   <g id="patch_4">
    <path d="M 147.0875 110.296351 
L 203.77875 110.296351 
Q 205.9875 110.296351 205.9875 108.777777 
L 205.9875 73.344386 
Q 205.9875 71.825812 203.77875 71.825812 
L 147.0875 71.825812 
Q 144.87875 71.825812 144.87875 73.344386 
L 144.87875 108.777777 
Q 144.87875 110.296351 147.0875 110.296351 
z
" clip-path="url(#p1c2549b64f)" style="fill: #a9dfbf; stroke: #999999; stroke-width: 1.2; stroke-linejoin: miter"/>
   </g>
   <g id="patch_5">
    <path d="M 209.66875 110.296351 
L 266.36 110.296351 
Q 268.56875 110.296351 268.56875 108.777777 
L 268.56875 73.344386 
Q 268.56875 71.825812 266.36 71.825812 
L 209.66875 71.825812 
Q 207.46 71.825812 207.46 73.344386 
L 207.46 108.777777 
Q 207.46 110.296351 209.66875 110.296351 
z
" clip-path="url(#p1c2549b64f)" style="fill: #f4f4f4; stroke: #999999; stroke-width: 1.2; stroke-linejoin: miter"/>
   </g>
   <g id="patch_6">
    <path d="M 272.25 110.296351 
L 328.94125 110.296351 
Q 331.15 110.296351 331.15 108.777777 
L 331.15 73.344386 
Q 331.15 71.825812 328.94125 71.825812 
L 272.25 71.825812 
Q 270.04125 71.825812 270.04125 73.344386 
L 270.04125 108.777777 
Q 270.04125 110.296351 272.25 110.296351 
z
" clip-path="url(#p1c2549b64f)" style="fill: #f4f4f4; stroke: #999999; stroke-width: 1.2; stroke-linejoin: miter"/>
   </g>
   <g id="patch_7">
    <path d="M 334.83125 110.296351 
L 391.5225 110.296351 
Q 393.73125 110.296351 393.73125 108.777777 
L 393.73125 73.344386 
Q 393.73125 71.825812 391.5225 71.825812 
L 334.83125 71.825812 
Q 332.6225 71.825812 332.6225 73.344386 
L 332.6225 108.777777 
Q 332.6225 110.296351 334.83125 110.296351 
z
" clip-path="url(#p1c2549b64f)" style="fill: #f4f4f4; stroke: #999999; stroke-width: 1.2; stroke-linejoin: miter"/>
   </g>
   <g id="patch_8">
    <path d="M 397.4125 110.296351 
L 454.10375 110.296351 
Q 456.3125 110.296351 456.3125 108.777777 
L 456.3125 73.344386 
Q 456.3125 71.825812 454.10375 71.825812 
L 397.4125 71.825812 
Q 395.20375 71.825812 395.20375 73.344386 
L 395.20375 108.777777 
Q 395.20375 110.296351 397.4125 110.296351 
z
" clip-path="url(#p1c2549b64f)" style="fill: #f4f4f4; stroke: #999999; stroke-width: 1.2; stroke-linejoin: miter"/>
   </g>
   <g id="patch_9">
    <path d="M 459.99375 110.296351 
L 516.685 110.296351 
Q 518.89375 110.296351 518.89375 108.777777 
L 518.89375 73.344386 
Q 518.89375 71.825812 516.685 71.825812 
L 459.99375 71.825812 
Q 457.785 71.825812 457.785 73.344386 
L 457.785 108.777777 
Q 457.785 110.296351 459.99375 110.296351 
z
" clip-path="url(#p1c2549b64f)" style="fill: #f4f4f4; stroke: #999999; stroke-width: 1.2; stroke-linejoin: miter"/>
   </g>
   <g id="text_1">
    <!-- a -->
    <g transform="translate(45.884141 94.648269) scale(0.13 -0.13)">
     <defs>
      <path id="DejaVuSans-Bold-61" d="M 2106 1575 
Q 1756 1575 1579 1456 
Q 1403 1338 1403 1106 
Q 1403 894 1545 773 
Q 1688 653 1941 653 
Q 2256 653 2472 879 
Q 2688 1106 2688 1447 
L 2688 1575 
L 2106 1575 
z
M 3816 1997 
L 3816 0 
L 2688 0 
L 2688 519 
Q 2463 200 2181 54 
Q 1900 -91 1497 -91 
Q 953 -91 614 226 
Q 275 544 275 1050 
Q 275 1666 698 1953 
Q 1122 2241 2028 2241 
L 2688 2241 
L 2688 2328 
Q 2688 2594 2478 2717 
Q 2269 2841 1825 2841 
Q 1466 2841 1156 2769 
Q 847 2697 581 2553 
L 581 3406 
Q 941 3494 1303 3539 
Q 1666 3584 2028 3584 
Q 2975 3584 3395 3211 
Q 3816 2838 3816 1997 
z
" transform="scale(0.015625)"/>
     </defs>
     <use xlink:href="#DejaVuSans-Bold-61"/>
    </g>
   </g>
   <g id="text_2">
    <!-- 0 -->
    <g style="fill: #999999" transform="translate(47.725625 126.171016) scale(0.08 -0.08)">
     <defs>
      <path id="DejaVuSans-30" d="M 2034 4250 
Q 1547 4250 1301 3770 
Q 1056 3291 1056 2328 
Q 1056 1369 1301 889 
Q 1547 409 2034 409 
Q 2525 409 2770 889 
Q 3016 1369 3016 2328 
Q 3016 3291 2770 3770 
Q 2525 4250 2034 4250 
z
M 2034 4750 
Q 2819 4750 3233 4129 
Q 3647 3509 3647 2328 
Q 3647 1150 3233 529 
Q 2819 -91 2034 -91 
Q 1250 -91 836 529 
Q 422 1150 422 2328 
Q 422 3509 836 4129 
Q 1250 4750 2034 4750 
z
" transform="scale(0.015625)"/>
     </defs>
     <use xlink:href="#DejaVuSans-30"/>
    </g>
   </g>
   <g id="text_3">
    <!-- b -->
    <g transform="translate(108.199297 94.648269) scale(0.13 -0.13)">
     <defs>
      <path id="DejaVuSans-Bold-62" d="M 2400 722 
Q 2759 722 2948 984 
Q 3138 1247 3138 1747 
Q 3138 2247 2948 2509 
Q 2759 2772 2400 2772 
Q 2041 2772 1848 2508 
Q 1656 2244 1656 1747 
Q 1656 1250 1848 986 
Q 2041 722 2400 722 
z
M 1656 2988 
Q 1888 3294 2169 3439 
Q 2450 3584 2816 3584 
Q 3463 3584 3878 3070 
Q 4294 2556 4294 1747 
Q 4294 938 3878 423 
Q 3463 -91 2816 -91 
Q 2450 -91 2169 54 
Q 1888 200 1656 506 
L 1656 0 
L 538 0 
L 538 4863 
L 1656 4863 
L 1656 2988 
z
" transform="scale(0.015625)"/>
     </defs>
     <use xlink:href="#DejaVuSans-Bold-62"/>
    </g>
   </g>
   <g id="text_4">
    <!-- 1 -->
    <g style="fill: #999999" transform="translate(110.306875 126.171016) scale(0.08 -0.08)">
     <defs>
      <path id="DejaVuSans-31" d="M 794 531 
L 1825 531 
L 1825 4091 
L 703 3866 
L 703 4441 
L 1819 4666 
L 2450 4666 
L 2450 531 
L 3481 531 
L 3481 0 
L 794 0 
L 794 531 
z
" transform="scale(0.015625)"/>
     </defs>
     <use xlink:href="#DejaVuSans-31"/>
    </g>
   </g>
   <g id="text_5">
    <!-- c -->
    <g transform="translate(171.579844 94.648269) scale(0.13 -0.13)">
     <defs>
      <path id="DejaVuSans-Bold-63" d="M 3366 3391 
L 3366 2478 
Q 3138 2634 2908 2709 
Q 2678 2784 2431 2784 
Q 1963 2784 1702 2511 
Q 1441 2238 1441 1747 
Q 1441 1256 1702 982 
Q 1963 709 2431 709 
Q 2694 709 2930 787 
Q 3166 866 3366 1019 
L 3366 103 
Q 3103 6 2833 -42 
Q 2563 -91 2291 -91 
Q 1344 -91 809 395 
Q 275 881 275 1747 
Q 275 2613 809 3098 
Q 1344 3584 2291 3584 
Q 2566 3584 2833 3536 
Q 3100 3488 3366 3391 
z
" transform="scale(0.015625)"/>
     </defs>
     <use xlink:href="#DejaVuSans-Bold-63"/>
    </g>
   </g>
   <g id="text_6">
    <!-- 2 -->
    <g style="fill: #999999" transform="translate(172.888125 126.171016) scale(0.08 -0.08)">
     <defs>
      <path id="DejaVuSans-32" d="M 1228 531 
L 3431 531 
L 3431 0 
L 469 0 
L 469 531 
Q 828 903 1448 1529 
Q 2069 2156 2228 2338 
Q 2531 2678 2651 2914 
Q 2772 3150 2772 3378 
Q 2772 3750 2511 3984 
Q 2250 4219 1831 4219 
Q 1534 4219 1204 4116 
Q 875 4013 500 3803 
L 500 4441 
Q 881 4594 1212 4672 
Q 1544 4750 1819 4750 
Q 2544 4750 2975 4387 
Q 3406 4025 3406 3419 
Q 3406 3131 3298 2873 
Q 3191 2616 2906 2266 
Q 2828 2175 2409 1742 
Q 1991 1309 1228 531 
z
" transform="scale(0.015625)"/>
     </defs>
     <use xlink:href="#DejaVuSans-32"/>
    </g>
   </g>
   <g id="text_7">
    <!-- a -->
    <g transform="translate(233.627891 94.648269) scale(0.13 -0.13)">
     <use xlink:href="#DejaVuSans-Bold-61"/>
    </g>
   </g>
   <g id="text_8">
    <!-- 3 -->
    <g style="fill: #999999" transform="translate(235.469375 126.171016) scale(0.08 -0.08)">
     <defs>
      <path id="DejaVuSans-33" d="M 2597 2516 
Q 3050 2419 3304 2112 
Q 3559 1806 3559 1356 
Q 3559 666 3084 287 
Q 2609 -91 1734 -91 
Q 1441 -91 1130 -33 
Q 819 25 488 141 
L 488 750 
Q 750 597 1062 519 
Q 1375 441 1716 441 
Q 2309 441 2620 675 
Q 2931 909 2931 1356 
Q 2931 1769 2642 2001 
Q 2353 2234 1838 2234 
L 1294 2234 
L 1294 2753 
L 1863 2753 
Q 2328 2753 2575 2939 
Q 2822 3125 2822 3475 
Q 2822 3834 2567 4026 
Q 2313 4219 1838 4219 
Q 1578 4219 1281 4162 
Q 984 4106 628 3988 
L 628 4550 
Q 988 4650 1302 4700 
Q 1616 4750 1894 4750 
Q 2613 4750 3031 4423 
Q 3450 4097 3450 3541 
Q 3450 3153 3228 2886 
Q 3006 2619 2597 2516 
z
" transform="scale(0.015625)"/>
     </defs>
     <use xlink:href="#DejaVuSans-33"/>
    </g>
   </g>
   <g id="text_9">
    <!-- b -->
    <g transform="translate(295.943047 94.648269) scale(0.13 -0.13)">
     <use xlink:href="#DejaVuSans-Bold-62"/>
    </g>
   </g>
   <g id="text_10">
    <!-- 4 -->
    <g style="fill: #999999" transform="translate(298.050625 126.171016) scale(0.08 -0.08)">
     <defs>
      <path id="DejaVuSans-34" d="M 2419 4116 
L 825 1625 
L 2419 1625 
L 2419 4116 
z
M 2253 4666 
L 3047 4666 
L 3047 1625 
L 3713 1625 
L 3713 1100 
L 3047 1100 
L 3047 0 
L 2419 0 
L 2419 1100 
L 313 1100 
L 313 1709 
L 2253 4666 
z
" transform="scale(0.015625)"/>
     </defs>
     <use xlink:href="#DejaVuSans-34"/>
    </g>
   </g>
   <g id="text_11">
    <!-- c -->
    <g transform="translate(359.323594 94.648269) scale(0.13 -0.13)">
     <use xlink:href="#DejaVuSans-Bold-63"/>
    </g>
   </g>
   <g id="text_12">
    <!-- 5 -->
    <g style="fill: #999999" transform="translate(360.631875 126.171016) scale(0.08 -0.08)">
     <defs>
      <path id="DejaVuSans-35" d="M 691 4666 
L 3169 4666 
L 3169 4134 
L 1269 4134 
L 1269 2991 
Q 1406 3038 1543 3061 
Q 1681 3084 1819 3084 
Q 2600 3084 3056 2656 
Q 3513 2228 3513 1497 
Q 3513 744 3044 326 
Q 2575 -91 1722 -91 
Q 1428 -91 1123 -41 
Q 819 9 494 109 
L 494 744 
Q 775 591 1075 516 
Q 1375 441 1709 441 
Q 2250 441 2565 725 
Q 2881 1009 2881 1497 
Q 2881 1984 2565 2268 
Q 2250 2553 1709 2553 
Q 1456 2553 1204 2497 
Q 953 2441 691 2322 
L 691 4666 
z
" transform="scale(0.015625)"/>
     </defs>
     <use xlink:href="#DejaVuSans-35"/>
    </g>
   </g>
   <g id="text_13">
    <!-- b -->
    <g transform="translate(421.105547 94.648269) scale(0.13 -0.13)">
     <use xlink:href="#DejaVuSans-Bold-62"/>
    </g>
   </g>
   <g id="text_14">
    <!-- 6 -->
    <g style="fill: #999999" transform="translate(423.213125 126.171016) scale(0.08 -0.08)">
     <defs>
      <path id="DejaVuSans-36" d="M 2113 2584 
Q 1688 2584 1439 2293 
Q 1191 2003 1191 1497 
Q 1191 994 1439 701 
Q 1688 409 2113 409 
Q 2538 409 2786 701 
Q 3034 994 3034 1497 
Q 3034 2003 2786 2293 
Q 2538 2584 2113 2584 
z
M 3366 4563 
L 3366 3988 
Q 3128 4100 2886 4159 
Q 2644 4219 2406 4219 
Q 1781 4219 1451 3797 
Q 1122 3375 1075 2522 
Q 1259 2794 1537 2939 
Q 1816 3084 2150 3084 
Q 2853 3084 3261 2657 
Q 3669 2231 3669 1497 
Q 3669 778 3244 343 
Q 2819 -91 2113 -91 
Q 1303 -91 875 529 
Q 447 1150 447 2328 
Q 447 3434 972 4092 
Q 1497 4750 2381 4750 
Q 2619 4750 2861 4703 
Q 3103 4656 3366 4563 
z
" transform="scale(0.015625)"/>
     </defs>
     <use xlink:href="#DejaVuSans-36"/>
    </g>
   </g>
   <g id="text_15">
    <!-- b -->
    <g transform="translate(483.686797 94.648269) scale(0.13 -0.13)">
     <use xlink:href="#DejaVuSans-Bold-62"/>
    </g>
   </g>
   <g id="text_16">
    <!-- 7 -->
    <g style="fill: #999999" transform="translate(485.794375 126.171016) scale(0.08 -0.08)">
     <defs>
      <path id="DejaVuSans-37" d="M 525 4666 
L 3525 4666 
L 3525 4397 
L 1831 0 
L 1172 0 
L 2766 4134 
L 525 4134 
L 525 4666 
z
" transform="scale(0.015625)"/>
     </defs>
     <use xlink:href="#DejaVuSans-37"/>
    </g>
   </g>
   <g id="patch_10">
    <path d="M 25.938141 63.22056 
Q 112.851903 63.22056 199.765665 63.22056 
" style="fill: none; stroke: #1e8449; stroke-width: 1.8; stroke-linecap: round"/>
    <path d="M 29.938141 65.22056 
L 25.938141 63.22056 
L 29.938141 61.22056 
" style="fill: none; stroke: #1e8449; stroke-width: 1.8; stroke-linecap: round"/>
    <path d="M 195.765665 61.22056 
L 199.765665 63.22056 
L 195.765665 65.22056 
" style="fill: none; stroke: #1e8449; stroke-width: 1.8; stroke-linecap: round"/>
   </g>
   <g id="text_17">
    <!-- window = "abc" (length 3) -->
    <g style="fill: #1e8449" transform="translate(38.804219 50.565777) scale(0.1 -0.1)">
     <defs>
      <path id="DejaVuSans-Bold-77" d="M 225 3500 
L 1313 3500 
L 1900 1088 
L 2491 3500 
L 3425 3500 
L 4013 1113 
L 4603 3500 
L 5691 3500 
L 4769 0 
L 3547 0 
L 2956 2406 
L 2369 0 
L 1147 0 
L 225 3500 
z
" transform="scale(0.015625)"/>
      <path id="DejaVuSans-Bold-69" d="M 538 3500 
L 1656 3500 
L 1656 0 
L 538 0 
L 538 3500 
z
M 538 4863 
L 1656 4863 
L 1656 3950 
L 538 3950 
L 538 4863 
z
" transform="scale(0.015625)"/>
      <path id="DejaVuSans-Bold-6e" d="M 4056 2131 
L 4056 0 
L 2931 0 
L 2931 347 
L 2931 1631 
Q 2931 2084 2911 2256 
Q 2891 2428 2841 2509 
Q 2775 2619 2662 2680 
Q 2550 2741 2406 2741 
Q 2056 2741 1856 2470 
Q 1656 2200 1656 1722 
L 1656 0 
L 538 0 
L 538 3500 
L 1656 3500 
L 1656 2988 
Q 1909 3294 2193 3439 
Q 2478 3584 2822 3584 
Q 3428 3584 3742 3212 
Q 4056 2841 4056 2131 
z
" transform="scale(0.015625)"/>
      <path id="DejaVuSans-Bold-64" d="M 2919 2988 
L 2919 4863 
L 4044 4863 
L 4044 0 
L 2919 0 
L 2919 506 
Q 2688 197 2409 53 
Q 2131 -91 1766 -91 
Q 1119 -91 703 423 
Q 288 938 288 1747 
Q 288 2556 703 3070 
Q 1119 3584 1766 3584 
Q 2128 3584 2408 3439 
Q 2688 3294 2919 2988 
z
M 2181 722 
Q 2541 722 2730 984 
Q 2919 1247 2919 1747 
Q 2919 2247 2730 2509 
Q 2541 2772 2181 2772 
Q 1825 2772 1636 2509 
Q 1447 2247 1447 1747 
Q 1447 1247 1636 984 
Q 1825 722 2181 722 
z
" transform="scale(0.015625)"/>
      <path id="DejaVuSans-Bold-6f" d="M 2203 2784 
Q 1831 2784 1636 2517 
Q 1441 2250 1441 1747 
Q 1441 1244 1636 976 
Q 1831 709 2203 709 
Q 2569 709 2762 976 
Q 2956 1244 2956 1747 
Q 2956 2250 2762 2517 
Q 2569 2784 2203 2784 
z
M 2203 3584 
Q 3106 3584 3614 3096 
Q 4122 2609 4122 1747 
Q 4122 884 3614 396 
Q 3106 -91 2203 -91 
Q 1297 -91 786 396 
Q 275 884 275 1747 
Q 275 2609 786 3096 
Q 1297 3584 2203 3584 
z
" transform="scale(0.015625)"/>
      <path id="DejaVuSans-Bold-20" transform="scale(0.015625)"/>
      <path id="DejaVuSans-Bold-3d" d="M 678 3084 
L 4684 3084 
L 4684 2350 
L 678 2350 
L 678 3084 
z
M 678 1663 
L 4684 1663 
L 4684 922 
L 678 922 
L 678 1663 
z
" transform="scale(0.015625)"/>
      <path id="DejaVuSans-Bold-22" d="M 2725 4666 
L 2725 2931 
L 1984 2931 
L 1984 4666 
L 2725 4666 
z
M 1350 4666 
L 1350 2931 
L 609 2931 
L 609 4666 
L 1350 4666 
z
" transform="scale(0.015625)"/>
      <path id="DejaVuSans-Bold-28" d="M 2413 -844 
L 1484 -844 
Q 1006 -72 778 623 
Q 550 1319 550 2003 
Q 550 2688 779 3389 
Q 1009 4091 1484 4856 
L 2413 4856 
Q 2013 4116 1813 3408 
Q 1613 2700 1613 2009 
Q 1613 1319 1811 609 
Q 2009 -100 2413 -844 
z
" transform="scale(0.015625)"/>
      <path id="DejaVuSans-Bold-6c" d="M 538 4863 
L 1656 4863 
L 1656 0 
L 538 0 
L 538 4863 
z
" transform="scale(0.015625)"/>
      <path id="DejaVuSans-Bold-65" d="M 4031 1759 
L 4031 1441 
L 1416 1441 
Q 1456 1047 1700 850 
Q 1944 653 2381 653 
Q 2734 653 3104 758 
Q 3475 863 3866 1075 
L 3866 213 
Q 3469 63 3072 -14 
Q 2675 -91 2278 -91 
Q 1328 -91 801 392 
Q 275 875 275 1747 
Q 275 2603 792 3093 
Q 1309 3584 2216 3584 
Q 3041 3584 3536 3087 
Q 4031 2591 4031 1759 
z
M 2881 2131 
Q 2881 2450 2695 2645 
Q 2509 2841 2209 2841 
Q 1884 2841 1681 2658 
Q 1478 2475 1428 2131 
L 2881 2131 
z
" transform="scale(0.015625)"/>
      <path id="DejaVuSans-Bold-67" d="M 2919 594 
Q 2688 288 2409 144 
Q 2131 0 1766 0 
Q 1125 0 706 504 
Q 288 1009 288 1791 
Q 288 2575 706 3076 
Q 1125 3578 1766 3578 
Q 2131 3578 2409 3434 
Q 2688 3291 2919 2981 
L 2919 3500 
L 4044 3500 
L 4044 353 
Q 4044 -491 3511 -936 
Q 2978 -1381 1966 -1381 
Q 1638 -1381 1331 -1331 
Q 1025 -1281 716 -1178 
L 716 -306 
Q 1009 -475 1290 -558 
Q 1572 -641 1856 -641 
Q 2406 -641 2662 -400 
Q 2919 -159 2919 353 
L 2919 594 
z
M 2181 2772 
Q 1834 2772 1640 2515 
Q 1447 2259 1447 1791 
Q 1447 1309 1634 1061 
Q 1822 813 2181 813 
Q 2531 813 2725 1069 
Q 2919 1325 2919 1791 
Q 2919 2259 2725 2515 
Q 2531 2772 2181 2772 
z
" transform="scale(0.015625)"/>
      <path id="DejaVuSans-Bold-74" d="M 1759 4494 
L 1759 3500 
L 2913 3500 
L 2913 2700 
L 1759 2700 
L 1759 1216 
Q 1759 972 1856 886 
Q 1953 800 2241 800 
L 2816 800 
L 2816 0 
L 1856 0 
Q 1194 0 917 276 
Q 641 553 641 1216 
L 641 2700 
L 84 2700 
L 84 3500 
L 641 3500 
L 641 4494 
L 1759 4494 
z
" transform="scale(0.015625)"/>
      <path id="DejaVuSans-Bold-68" d="M 4056 2131 
L 4056 0 
L 2931 0 
L 2931 347 
L 2931 1625 
Q 2931 2084 2911 2256 
Q 2891 2428 2841 2509 
Q 2775 2619 2662 2680 
Q 2550 2741 2406 2741 
Q 2056 2741 1856 2470 
Q 1656 2200 1656 1722 
L 1656 0 
L 538 0 
L 538 4863 
L 1656 4863 
L 1656 2988 
Q 1909 3294 2193 3439 
Q 2478 3584 2822 3584 
Q 3428 3584 3742 3212 
Q 4056 2841 4056 2131 
z
" transform="scale(0.015625)"/>
      <path id="DejaVuSans-Bold-33" d="M 2981 2516 
Q 3453 2394 3698 2092 
Q 3944 1791 3944 1325 
Q 3944 631 3412 270 
Q 2881 -91 1863 -91 
Q 1503 -91 1142 -33 
Q 781 25 428 141 
L 428 1069 
Q 766 900 1098 814 
Q 1431 728 1753 728 
Q 2231 728 2486 893 
Q 2741 1059 2741 1369 
Q 2741 1688 2480 1852 
Q 2219 2016 1709 2016 
L 1228 2016 
L 1228 2791 
L 1734 2791 
Q 2188 2791 2409 2933 
Q 2631 3075 2631 3366 
Q 2631 3634 2415 3781 
Q 2200 3928 1806 3928 
Q 1516 3928 1219 3862 
Q 922 3797 628 3669 
L 628 4550 
Q 984 4650 1334 4700 
Q 1684 4750 2022 4750 
Q 2931 4750 3382 4451 
Q 3834 4153 3834 3553 
Q 3834 3144 3618 2883 
Q 3403 2622 2981 2516 
z
" transform="scale(0.015625)"/>
      <path id="DejaVuSans-Bold-29" d="M 513 -844 
Q 913 -100 1113 609 
Q 1313 1319 1313 2009 
Q 1313 2700 1113 3408 
Q 913 4116 513 4856 
L 1441 4856 
Q 1916 4091 2145 3389 
Q 2375 2688 2375 2003 
Q 2375 1319 2147 623 
Q 1919 -72 1441 -844 
L 513 -844 
z
" transform="scale(0.015625)"/>
     </defs>
     <use xlink:href="#DejaVuSans-Bold-77"/>
     <use xlink:href="#DejaVuSans-Bold-69" transform="translate(92.382812 0)"/>
     <use xlink:href="#DejaVuSans-Bold-6e" transform="translate(126.660156 0)"/>
     <use xlink:href="#DejaVuSans-Bold-64" transform="translate(197.851562 0)"/>
     <use xlink:href="#DejaVuSans-Bold-6f" transform="translate(269.433594 0)"/>
     <use xlink:href="#DejaVuSans-Bold-77" transform="translate(338.134766 0)"/>
     <use xlink:href="#DejaVuSans-Bold-20" transform="translate(430.517578 0)"/>
     <use xlink:href="#DejaVuSans-Bold-3d" transform="translate(465.332031 0)"/>
     <use xlink:href="#DejaVuSans-Bold-20" transform="translate(549.121094 0)"/>
     <use xlink:href="#DejaVuSans-Bold-22" transform="translate(583.935547 0)"/>
     <use xlink:href="#DejaVuSans-Bold-61" transform="translate(636.035156 0)"/>
     <use xlink:href="#DejaVuSans-Bold-62" transform="translate(703.515625 0)"/>
     <use xlink:href="#DejaVuSans-Bold-63" transform="translate(775.097656 0)"/>
     <use xlink:href="#DejaVuSans-Bold-22" transform="translate(834.375 0)"/>
     <use xlink:href="#DejaVuSans-Bold-20" transform="translate(886.474609 0)"/>
     <use xlink:href="#DejaVuSans-Bold-28" transform="translate(921.289062 0)"/>
     <use xlink:href="#DejaVuSans-Bold-6c" transform="translate(966.992188 0)"/>
     <use xlink:href="#DejaVuSans-Bold-65" transform="translate(1001.269531 0)"/>
     <use xlink:href="#DejaVuSans-Bold-6e" transform="translate(1069.091797 0)"/>
     <use xlink:href="#DejaVuSans-Bold-67" transform="translate(1140.283203 0)"/>
     <use xlink:href="#DejaVuSans-Bold-74" transform="translate(1211.865234 0)"/>
     <use xlink:href="#DejaVuSans-Bold-68" transform="translate(1259.667969 0)"/>
     <use xlink:href="#DejaVuSans-Bold-20" transform="translate(1330.859375 0)"/>
     <use xlink:href="#DejaVuSans-Bold-33" transform="translate(1365.673828 0)"/>
     <use xlink:href="#DejaVuSans-Bold-29" transform="translate(1435.253906 0)"/>
    </g>
   </g>
   <g id="text_18">
    <!-- Sliding window: expand right pointer; when a repeat is found, shrink from left until valid again -->
    <g style="fill: #555555" transform="translate(21.925 220.139864) scale(0.09 -0.09)">
     <defs>
      <path id="DejaVuSans-Oblique-53" d="M 3859 4513 
L 3738 3897 
Q 3422 4066 3111 4152 
Q 2800 4238 2509 4238 
Q 1944 4238 1609 3991 
Q 1275 3744 1275 3334 
Q 1275 3109 1398 2989 
Q 1522 2869 2034 2731 
L 2413 2638 
Q 3053 2472 3303 2217 
Q 3553 1963 3553 1503 
Q 3553 797 2998 353 
Q 2444 -91 1538 -91 
Q 1166 -91 791 -17 
Q 416 56 38 206 
L 166 856 
Q 513 641 861 531 
Q 1209 422 1556 422 
Q 2147 422 2503 684 
Q 2859 947 2859 1369 
Q 2859 1650 2717 1795 
Q 2575 1941 2106 2059 
L 1728 2156 
Q 1081 2325 845 2545 
Q 609 2766 609 3163 
Q 609 3859 1145 4304 
Q 1681 4750 2541 4750 
Q 2875 4750 3203 4690 
Q 3531 4631 3859 4513 
z
" transform="scale(0.015625)"/>
      <path id="DejaVuSans-Oblique-6c" d="M 1172 4863 
L 1747 4863 
L 800 0 
L 225 0 
L 1172 4863 
z
" transform="scale(0.015625)"/>
      <path id="DejaVuSans-Oblique-69" d="M 1172 4863 
L 1747 4863 
L 1606 4134 
L 1031 4134 
L 1172 4863 
z
M 909 3500 
L 1484 3500 
L 800 0 
L 225 0 
L 909 3500 
z
" transform="scale(0.015625)"/>
      <path id="DejaVuSans-Oblique-64" d="M 2675 525 
Q 2444 222 2128 65 
Q 1813 -91 1428 -91 
Q 903 -91 598 267 
Q 294 625 294 1247 
Q 294 1766 478 2236 
Q 663 2706 1013 3078 
Q 1244 3325 1534 3454 
Q 1825 3584 2144 3584 
Q 2481 3584 2739 3421 
Q 2997 3259 3138 2956 
L 3513 4863 
L 4091 4863 
L 3144 0 
L 2566 0 
L 2675 525 
z
M 891 1350 
Q 891 897 1095 644 
Q 1300 391 1663 391 
Q 1931 391 2161 520 
Q 2391 650 2566 903 
Q 2750 1166 2856 1509 
Q 2963 1853 2963 2188 
Q 2963 2622 2758 2865 
Q 2553 3109 2194 3109 
Q 1922 3109 1687 2981 
Q 1453 2853 1288 2613 
Q 1106 2353 998 2009 
Q 891 1666 891 1350 
z
" transform="scale(0.015625)"/>
      <path id="DejaVuSans-Oblique-6e" d="M 3566 2113 
L 3156 0 
L 2578 0 
L 2988 2091 
Q 3016 2238 3031 2350 
Q 3047 2463 3047 2528 
Q 3047 2791 2881 2937 
Q 2716 3084 2419 3084 
Q 1956 3084 1622 2776 
Q 1288 2469 1184 1941 
L 800 0 
L 225 0 
L 903 3500 
L 1478 3500 
L 1363 2950 
Q 1603 3253 1940 3418 
Q 2278 3584 2650 3584 
Q 3113 3584 3367 3334 
Q 3622 3084 3622 2631 
Q 3622 2519 3608 2391 
Q 3594 2263 3566 2113 
z
" transform="scale(0.015625)"/>
      <path id="DejaVuSans-Oblique-67" d="M 3816 3500 
L 3219 434 
Q 3047 -456 2561 -893 
Q 2075 -1331 1253 -1331 
Q 950 -1331 690 -1286 
Q 431 -1241 206 -1147 
L 313 -588 
Q 525 -725 762 -790 
Q 1000 -856 1269 -856 
Q 1816 -856 2167 -557 
Q 2519 -259 2631 300 
L 2681 563 
Q 2441 288 2122 144 
Q 1803 0 1434 0 
Q 903 0 598 351 
Q 294 703 294 1319 
Q 294 1803 478 2267 
Q 663 2731 997 3091 
Q 1219 3328 1514 3456 
Q 1809 3584 2131 3584 
Q 2484 3584 2746 3420 
Q 3009 3256 3138 2956 
L 3238 3500 
L 3816 3500 
z
M 2950 2216 
Q 2950 2641 2750 2872 
Q 2550 3103 2181 3103 
Q 1953 3103 1747 3012 
Q 1541 2922 1394 2759 
Q 1156 2491 1023 2127 
Q 891 1763 891 1375 
Q 891 944 1092 712 
Q 1294 481 1672 481 
Q 2219 481 2584 976 
Q 2950 1472 2950 2216 
z
" transform="scale(0.015625)"/>
      <path id="DejaVuSans-Oblique-20" transform="scale(0.015625)"/>
      <path id="DejaVuSans-Oblique-77" d="M 544 3500 
L 1113 3500 
L 1259 684 
L 2566 3500 
L 3231 3500 
L 3425 684 
L 4666 3500 
L 5241 3500 
L 3641 0 
L 2969 0 
L 2797 2900 
L 1459 0 
L 781 0 
L 544 3500 
z
" transform="scale(0.015625)"/>
      <path id="DejaVuSans-Oblique-6f" d="M 1625 -91 
Q 1009 -91 651 289 
Q 294 669 294 1325 
Q 294 1706 417 2101 
Q 541 2497 738 2766 
Q 1047 3184 1428 3384 
Q 1809 3584 2291 3584 
Q 2888 3584 3255 3212 
Q 3622 2841 3622 2241 
Q 3622 1825 3500 1412 
Q 3378 1000 3181 728 
Q 2875 309 2494 109 
Q 2113 -91 1625 -91 
z
M 891 1344 
Q 891 869 1089 633 
Q 1288 397 1691 397 
Q 2269 397 2648 901 
Q 3028 1406 3028 2181 
Q 3028 2634 2825 2865 
Q 2622 3097 2228 3097 
Q 1903 3097 1650 2945 
Q 1397 2794 1197 2484 
Q 1050 2253 970 1956 
Q 891 1659 891 1344 
z
" transform="scale(0.015625)"/>
      <path id="DejaVuSans-Oblique-3a" d="M 978 3309 
L 1638 3309 
L 1484 2516 
L 825 2516 
L 978 3309 
z
M 488 794 
L 1147 794 
L 991 0 
L 331 0 
L 488 794 
z
" transform="scale(0.015625)"/>
      <path id="DejaVuSans-Oblique-65" d="M 3078 2063 
Q 3088 2113 3092 2166 
Q 3097 2219 3097 2272 
Q 3097 2653 2873 2875 
Q 2650 3097 2266 3097 
Q 1838 3097 1509 2826 
Q 1181 2556 1013 2059 
L 3078 2063 
z
M 3578 1613 
L 903 1613 
Q 884 1494 878 1425 
Q 872 1356 872 1306 
Q 872 872 1139 634 
Q 1406 397 1894 397 
Q 2269 397 2603 481 
Q 2938 566 3225 728 
L 3116 159 
Q 2806 34 2476 -28 
Q 2147 -91 1806 -91 
Q 1078 -91 686 257 
Q 294 606 294 1247 
Q 294 1794 489 2264 
Q 684 2734 1063 3103 
Q 1306 3334 1642 3459 
Q 1978 3584 2356 3584 
Q 2950 3584 3301 3228 
Q 3653 2872 3653 2272 
Q 3653 2128 3634 1964 
Q 3616 1800 3578 1613 
z
" transform="scale(0.015625)"/>
      <path id="DejaVuSans-Oblique-78" d="M 3841 3500 
L 2234 1784 
L 3219 0 
L 2559 0 
L 1819 1388 
L 531 0 
L -166 0 
L 1556 1844 
L 641 3500 
L 1300 3500 
L 1972 2234 
L 3144 3500 
L 3841 3500 
z
" transform="scale(0.015625)"/>
      <path id="DejaVuSans-Oblique-70" d="M 3175 2156 
Q 3175 2616 2975 2859 
Q 2775 3103 2400 3103 
Q 2144 3103 1911 2972 
Q 1678 2841 1497 2591 
Q 1319 2344 1212 1994 
Q 1106 1644 1106 1300 
Q 1106 863 1306 627 
Q 1506 391 1875 391 
Q 2147 391 2380 519 
Q 2613 647 2778 891 
Q 2956 1147 3065 1494 
Q 3175 1841 3175 2156 
z
M 1394 2969 
Q 1625 3272 1939 3428 
Q 2253 3584 2638 3584 
Q 3175 3584 3472 3232 
Q 3769 2881 3769 2247 
Q 3769 1728 3584 1258 
Q 3400 788 3053 416 
Q 2822 169 2531 39 
Q 2241 -91 1919 -91 
Q 1547 -91 1294 64 
Q 1041 219 916 525 
L 556 -1331 
L -19 -1331 
L 922 3500 
L 1497 3500 
L 1394 2969 
z
" transform="scale(0.015625)"/>
      <path id="DejaVuSans-Oblique-61" d="M 3438 1997 
L 3047 0 
L 2472 0 
L 2578 531 
Q 2325 219 2001 64 
Q 1678 -91 1281 -91 
Q 834 -91 548 182 
Q 263 456 263 884 
Q 263 1497 752 1853 
Q 1241 2209 2100 2209 
L 2900 2209 
L 2931 2363 
Q 2938 2388 2941 2417 
Q 2944 2447 2944 2509 
Q 2944 2788 2717 2942 
Q 2491 3097 2081 3097 
Q 1800 3097 1504 3025 
Q 1209 2953 897 2809 
L 997 3341 
Q 1322 3463 1633 3523 
Q 1944 3584 2234 3584 
Q 2853 3584 3176 3315 
Q 3500 3047 3500 2534 
Q 3500 2431 3484 2292 
Q 3469 2153 3438 1997 
z
M 2816 1759 
L 2241 1759 
Q 1534 1759 1195 1570 
Q 856 1381 856 984 
Q 856 709 1029 553 
Q 1203 397 1509 397 
Q 1978 397 2328 733 
Q 2678 1069 2791 1631 
L 2816 1759 
z
" transform="scale(0.015625)"/>
      <path id="DejaVuSans-Oblique-72" d="M 2853 2969 
Q 2766 3016 2653 3041 
Q 2541 3066 2413 3066 
Q 1953 3066 1609 2717 
Q 1266 2369 1153 1784 
L 800 0 
L 225 0 
L 909 3500 
L 1484 3500 
L 1375 2956 
Q 1603 3259 1920 3421 
Q 2238 3584 2597 3584 
Q 2691 3584 2781 3573 
Q 2872 3563 2963 3538 
L 2853 2969 
z
" transform="scale(0.015625)"/>
      <path id="DejaVuSans-Oblique-68" d="M 3566 2113 
L 3156 0 
L 2578 0 
L 2988 2091 
Q 3016 2238 3031 2350 
Q 3047 2463 3047 2528 
Q 3047 2791 2881 2937 
Q 2716 3084 2419 3084 
Q 1956 3084 1617 2771 
Q 1278 2459 1178 1941 
L 800 0 
L 225 0 
L 1172 4863 
L 1747 4863 
L 1375 2950 
Q 1594 3244 1934 3414 
Q 2275 3584 2650 3584 
Q 3113 3584 3367 3334 
Q 3622 3084 3622 2631 
Q 3622 2519 3608 2391 
Q 3594 2263 3566 2113 
z
" transform="scale(0.015625)"/>
      <path id="DejaVuSans-Oblique-74" d="M 2706 3500 
L 2619 3053 
L 1472 3053 
L 1100 1153 
Q 1081 1047 1072 975 
Q 1063 903 1063 863 
Q 1063 663 1183 572 
Q 1303 481 1569 481 
L 2150 481 
L 2053 0 
L 1503 0 
Q 991 0 739 200 
Q 488 400 488 806 
Q 488 878 497 964 
Q 506 1050 525 1153 
L 897 3053 
L 409 3053 
L 500 3500 
L 978 3500 
L 1172 4494 
L 1747 4494 
L 1556 3500 
L 2706 3500 
z
" transform="scale(0.015625)"/>
      <path id="DejaVuSans-Oblique-3b" d="M 563 794 
L 1222 794 
L 1113 256 
L 409 -744 
L 6 -744 
L 453 256 
L 563 794 
z
M 1050 3309 
L 1709 3309 
L 1556 2516 
L 897 2516 
L 1050 3309 
z
" transform="scale(0.015625)"/>
      <path id="DejaVuSans-Oblique-73" d="M 3200 3397 
L 3091 2853 
Q 2863 2978 2609 3040 
Q 2356 3103 2088 3103 
Q 1634 3103 1373 2948 
Q 1113 2794 1113 2528 
Q 1113 2219 1719 2053 
Q 1766 2041 1788 2034 
L 1972 1978 
Q 2547 1819 2739 1644 
Q 2931 1469 2931 1166 
Q 2931 609 2489 259 
Q 2047 -91 1331 -91 
Q 1053 -91 747 -37 
Q 441 16 72 128 
L 184 722 
Q 500 559 806 475 
Q 1113 391 1394 391 
Q 1816 391 2080 572 
Q 2344 753 2344 1031 
Q 2344 1331 1650 1516 
L 1591 1531 
L 1394 1581 
Q 956 1697 753 1886 
Q 550 2075 550 2369 
Q 550 2928 970 3256 
Q 1391 3584 2113 3584 
Q 2397 3584 2667 3537 
Q 2938 3491 3200 3397 
z
" transform="scale(0.015625)"/>
      <path id="DejaVuSans-Oblique-66" d="M 3059 4863 
L 2969 4384 
L 2419 4384 
Q 2106 4384 1964 4261 
Q 1822 4138 1753 3809 
L 1691 3500 
L 2638 3500 
L 2553 3053 
L 1606 3053 
L 1013 0 
L 434 0 
L 1031 3053 
L 481 3053 
L 563 3500 
L 1113 3500 
L 1159 3744 
Q 1278 4363 1576 4613 
Q 1875 4863 2516 4863 
L 3059 4863 
z
" transform="scale(0.015625)"/>
      <path id="DejaVuSans-Oblique-75" d="M 428 1388 
L 838 3500 
L 1416 3500 
L 1006 1409 
Q 975 1256 961 1147 
Q 947 1038 947 966 
Q 947 700 1109 554 
Q 1272 409 1569 409 
Q 2031 409 2368 721 
Q 2706 1034 2809 1563 
L 3194 3500 
L 3769 3500 
L 3091 0 
L 2516 0 
L 2631 550 
Q 2388 244 2052 76 
Q 1716 -91 1338 -91 
Q 878 -91 622 161 
Q 366 413 366 863 
Q 366 956 381 1097 
Q 397 1238 428 1388 
z
" transform="scale(0.015625)"/>
      <path id="DejaVuSans-Oblique-2c" d="M 575 794 
L 1234 794 
L 1131 256 
L 422 -744 
L 19 -744 
L 469 256 
L 575 794 
z
" transform="scale(0.015625)"/>
      <path id="DejaVuSans-Oblique-6b" d="M 1172 4863 
L 1747 4863 
L 1197 2028 
L 3169 3500 
L 3916 3500 
L 1716 1825 
L 3322 0 
L 2625 0 
L 1131 1709 
L 800 0 
L 225 0 
L 1172 4863 
z
" transform="scale(0.015625)"/>
      <path id="DejaVuSans-Oblique-6d" d="M 5747 2113 
L 5338 0 
L 4763 0 
L 5166 2094 
Q 5191 2228 5203 2325 
Q 5216 2422 5216 2491 
Q 5216 2772 5059 2928 
Q 4903 3084 4622 3084 
Q 4203 3084 3875 2770 
Q 3547 2456 3450 1953 
L 3066 0 
L 2491 0 
L 2900 2094 
Q 2925 2209 2937 2307 
Q 2950 2406 2950 2484 
Q 2950 2769 2794 2926 
Q 2638 3084 2363 3084 
Q 1938 3084 1609 2770 
Q 1281 2456 1184 1953 
L 800 0 
L 225 0 
L 909 3500 
L 1484 3500 
L 1375 2956 
Q 1609 3263 1923 3423 
Q 2238 3584 2597 3584 
Q 2978 3584 3223 3384 
Q 3469 3184 3519 2828 
Q 3781 3197 4126 3390 
Q 4472 3584 4856 3584 
Q 5306 3584 5551 3325 
Q 5797 3066 5797 2591 
Q 5797 2488 5784 2364 
Q 5772 2241 5747 2113 
z
" transform="scale(0.015625)"/>
      <path id="DejaVuSans-Oblique-76" d="M 459 3500 
L 1069 3500 
L 1581 525 
L 3256 3500 
L 3866 3500 
L 1875 0 
L 1100 0 
L 459 3500 
z
" transform="scale(0.015625)"/>
     </defs>
     <use xlink:href="#DejaVuSans-Oblique-53"/>
     <use xlink:href="#DejaVuSans-Oblique-6c" transform="translate(63.476562 0)"/>
     <use xlink:href="#DejaVuSans-Oblique-69" transform="translate(91.259766 0)"/>
     <use xlink:href="#DejaVuSans-Oblique-64" transform="translate(119.042969 0)"/>
     <use xlink:href="#DejaVuSans-Oblique-69" transform="translate(182.519531 0)"/>
     <use xlink:href="#DejaVuSans-Oblique-6e" transform="translate(210.302734 0)"/>
     <use xlink:href="#DejaVuSans-Oblique-67" transform="translate(273.681641 0)"/>
     <use xlink:href="#DejaVuSans-Oblique-20" transform="translate(337.158203 0)"/>
     <use xlink:href="#DejaVuSans-Oblique-77" transform="translate(368.945312 0)"/>
     <use xlink:href="#DejaVuSans-Oblique-69" transform="translate(450.732422 0)"/>
     <use xlink:href="#DejaVuSans-Oblique-6e" transform="translate(478.515625 0)"/>
     <use xlink:href="#DejaVuSans-Oblique-64" transform="translate(541.894531 0)"/>
     <use xlink:href="#DejaVuSans-Oblique-6f" transform="translate(605.371094 0)"/>
     <use xlink:href="#DejaVuSans-Oblique-77" transform="translate(666.552734 0)"/>
     <use xlink:href="#DejaVuSans-Oblique-3a" transform="translate(748.339844 0)"/>
     <use xlink:href="#DejaVuSans-Oblique-20" transform="translate(782.03125 0)"/>
     <use xlink:href="#DejaVuSans-Oblique-65" transform="translate(813.818359 0)"/>
     <use xlink:href="#DejaVuSans-Oblique-78" transform="translate(875.341797 0)"/>
     <use xlink:href="#DejaVuSans-Oblique-70" transform="translate(934.521484 0)"/>
     <use xlink:href="#DejaVuSans-Oblique-61" transform="translate(997.998047 0)"/>
     <use xlink:href="#DejaVuSans-Oblique-6e" transform="translate(1059.277344 0)"/>
     <use xlink:href="#DejaVuSans-Oblique-64" transform="translate(1122.65625 0)"/>
     <use xlink:href="#DejaVuSans-Oblique-20" transform="translate(1186.132812 0)"/>
     <use xlink:href="#DejaVuSans-Oblique-72" transform="translate(1217.919922 0)"/>
     <use xlink:href="#DejaVuSans-Oblique-69" transform="translate(1259.033203 0)"/>
     <use xlink:href="#DejaVuSans-Oblique-67" transform="translate(1286.816406 0)"/>
     <use xlink:href="#DejaVuSans-Oblique-68" transform="translate(1350.292969 0)"/>
     <use xlink:href="#DejaVuSans-Oblique-74" transform="translate(1413.671875 0)"/>
     <use xlink:href="#DejaVuSans-Oblique-20" transform="translate(1452.880859 0)"/>
     <use xlink:href="#DejaVuSans-Oblique-70" transform="translate(1484.667969 0)"/>
     <use xlink:href="#DejaVuSans-Oblique-6f" transform="translate(1548.144531 0)"/>
     <use xlink:href="#DejaVuSans-Oblique-69" transform="translate(1609.326172 0)"/>
     <use xlink:href="#DejaVuSans-Oblique-6e" transform="translate(1637.109375 0)"/>
     <use xlink:href="#DejaVuSans-Oblique-74" transform="translate(1700.488281 0)"/>
     <use xlink:href="#DejaVuSans-Oblique-65" transform="translate(1739.697266 0)"/>
     <use xlink:href="#DejaVuSans-Oblique-72" transform="translate(1801.220703 0)"/>
     <use xlink:href="#DejaVuSans-Oblique-3b" transform="translate(1842.333984 0)"/>
     <use xlink:href="#DejaVuSans-Oblique-20" transform="translate(1876.025391 0)"/>
     <use xlink:href="#DejaVuSans-Oblique-77" transform="translate(1907.8125 0)"/>
     <use xlink:href="#DejaVuSans-Oblique-68" transform="translate(1989.599609 0)"/>
     <use xlink:href="#DejaVuSans-Oblique-65" transform="translate(2052.978516 0)"/>
     <use xlink:href="#DejaVuSans-Oblique-6e" transform="translate(2114.501953 0)"/>
     <use xlink:href="#DejaVuSans-Oblique-20" transform="translate(2177.880859 0)"/>
     <use xlink:href="#DejaVuSans-Oblique-61" transform="translate(2209.667969 0)"/>
     <use xlink:href="#DejaVuSans-Oblique-20" transform="translate(2270.947266 0)"/>
     <use xlink:href="#DejaVuSans-Oblique-72" transform="translate(2302.734375 0)"/>
     <use xlink:href="#DejaVuSans-Oblique-65" transform="translate(2343.847656 0)"/>
     <use xlink:href="#DejaVuSans-Oblique-70" transform="translate(2405.371094 0)"/>
     <use xlink:href="#DejaVuSans-Oblique-65" transform="translate(2468.847656 0)"/>
     <use xlink:href="#DejaVuSans-Oblique-61" transform="translate(2530.371094 0)"/>
     <use xlink:href="#DejaVuSans-Oblique-74" transform="translate(2591.650391 0)"/>
     <use xlink:href="#DejaVuSans-Oblique-20" transform="translate(2630.859375 0)"/>
     <use xlink:href="#DejaVuSans-Oblique-69" transform="translate(2662.646484 0)"/>
     <use xlink:href="#DejaVuSans-Oblique-73" transform="translate(2690.429688 0)"/>
     <use xlink:href="#DejaVuSans-Oblique-20" transform="translate(2742.529297 0)"/>
     <use xlink:href="#DejaVuSans-Oblique-66" transform="translate(2774.316406 0)"/>
     <use xlink:href="#DejaVuSans-Oblique-6f" transform="translate(2809.521484 0)"/>
     <use xlink:href="#DejaVuSans-Oblique-75" transform="translate(2870.703125 0)"/>
     <use xlink:href="#DejaVuSans-Oblique-6e" transform="translate(2934.082031 0)"/>
     <use xlink:href="#DejaVuSans-Oblique-64" transform="translate(2997.460938 0)"/>
     <use xlink:href="#DejaVuSans-Oblique-2c" transform="translate(3060.9375 0)"/>
     <use xlink:href="#DejaVuSans-Oblique-20" transform="translate(3092.724609 0)"/>
     <use xlink:href="#DejaVuSans-Oblique-73" transform="translate(3124.511719 0)"/>
     <use xlink:href="#DejaVuSans-Oblique-68" transform="translate(3176.611328 0)"/>
     <use xlink:href="#DejaVuSans-Oblique-72" transform="translate(3239.990234 0)"/>
     <use xlink:href="#DejaVuSans-Oblique-69" transform="translate(3281.103516 0)"/>
     <use xlink:href="#DejaVuSans-Oblique-6e" transform="translate(3308.886719 0)"/>
     <use xlink:href="#DejaVuSans-Oblique-6b" transform="translate(3372.265625 0)"/>
     <use xlink:href="#DejaVuSans-Oblique-20" transform="translate(3430.175781 0)"/>
     <use xlink:href="#DejaVuSans-Oblique-66" transform="translate(3461.962891 0)"/>
     <use xlink:href="#DejaVuSans-Oblique-72" transform="translate(3497.167969 0)"/>
     <use xlink:href="#DejaVuSans-Oblique-6f" transform="translate(3538.28125 0)"/>
     <use xlink:href="#DejaVuSans-Oblique-6d" transform="translate(3599.462891 0)"/>
     <use xlink:href="#DejaVuSans-Oblique-20" transform="translate(3696.875 0)"/>
     <use xlink:href="#DejaVuSans-Oblique-6c" transform="translate(3728.662109 0)"/>
     <use xlink:href="#DejaVuSans-Oblique-65" transform="translate(3756.445312 0)"/>
     <use xlink:href="#DejaVuSans-Oblique-66" transform="translate(3817.96875 0)"/>
     <use xlink:href="#DejaVuSans-Oblique-74" transform="translate(3853.173828 0)"/>
     <use xlink:href="#DejaVuSans-Oblique-20" transform="translate(3892.382812 0)"/>
     <use xlink:href="#DejaVuSans-Oblique-75" transform="translate(3924.169922 0)"/>
     <use xlink:href="#DejaVuSans-Oblique-6e" transform="translate(3987.548828 0)"/>
     <use xlink:href="#DejaVuSans-Oblique-74" transform="translate(4050.927734 0)"/>
     <use xlink:href="#DejaVuSans-Oblique-69" transform="translate(4090.136719 0)"/>
     <use xlink:href="#DejaVuSans-Oblique-6c" transform="translate(4117.919922 0)"/>
     <use xlink:href="#DejaVuSans-Oblique-20" transform="translate(4145.703125 0)"/>
     <use xlink:href="#DejaVuSans-Oblique-76" transform="translate(4177.490234 0)"/>
     <use xlink:href="#DejaVuSans-Oblique-61" transform="translate(4236.669922 0)"/>
     <use xlink:href="#DejaVuSans-Oblique-6c" transform="translate(4297.949219 0)"/>
     <use xlink:href="#DejaVuSans-Oblique-69" transform="translate(4325.732422 0)"/>
     <use xlink:href="#DejaVuSans-Oblique-64" transform="translate(4353.515625 0)"/>
     <use xlink:href="#DejaVuSans-Oblique-20" transform="translate(4416.992188 0)"/>
     <use xlink:href="#DejaVuSans-Oblique-61" transform="translate(4448.779297 0)"/>
     <use xlink:href="#DejaVuSans-Oblique-67" transform="translate(4510.058594 0)"/>
     <use xlink:href="#DejaVuSans-Oblique-61" transform="translate(4573.535156 0)"/>
     <use xlink:href="#DejaVuSans-Oblique-69" transform="translate(4634.814453 0)"/>
     <use xlink:href="#DejaVuSans-Oblique-6e" transform="translate(4662.597656 0)"/>
    </g>
   </g>
   <g id="text_19">
    <g id="patch_11">
     <path d="M 201.285391 247.16111 
L 343.214609 247.16111 
Q 347.614609 247.16111 347.614609 242.76111 
L 347.614609 232.029235 
Q 347.614609 227.629235 343.214609 227.629235 
L 201.285391 227.629235 
Q 196.885391 227.629235 196.885391 232.029235 
L 196.885391 242.76111 
Q 196.885391 247.16111 201.285391 247.16111 
z
" style="fill: #d5f5e3; stroke: #27ae60; stroke-linejoin: miter"/>
    </g>
    <!-- Result: max length = 3 -->
    <g transform="translate(201.285391 240.387516) scale(0.11 -0.11)">
     <defs>
      <path id="DejaVuSans-Bold-52" d="M 2297 2597 
Q 2675 2597 2839 2737 
Q 3003 2878 3003 3200 
Q 3003 3519 2839 3656 
Q 2675 3794 2297 3794 
L 1791 3794 
L 1791 2597 
L 2297 2597 
z
M 1791 1766 
L 1791 0 
L 588 0 
L 588 4666 
L 2425 4666 
Q 3347 4666 3776 4356 
Q 4206 4047 4206 3378 
Q 4206 2916 3982 2619 
Q 3759 2322 3309 2181 
Q 3556 2125 3751 1926 
Q 3947 1728 4147 1325 
L 4800 0 
L 3519 0 
L 2950 1159 
Q 2778 1509 2601 1637 
Q 2425 1766 2131 1766 
L 1791 1766 
z
" transform="scale(0.015625)"/>
      <path id="DejaVuSans-Bold-73" d="M 3272 3391 
L 3272 2541 
Q 2913 2691 2578 2766 
Q 2244 2841 1947 2841 
Q 1628 2841 1473 2761 
Q 1319 2681 1319 2516 
Q 1319 2381 1436 2309 
Q 1553 2238 1856 2203 
L 2053 2175 
Q 2913 2066 3209 1816 
Q 3506 1566 3506 1031 
Q 3506 472 3093 190 
Q 2681 -91 1863 -91 
Q 1516 -91 1145 -36 
Q 775 19 384 128 
L 384 978 
Q 719 816 1070 734 
Q 1422 653 1784 653 
Q 2113 653 2278 743 
Q 2444 834 2444 1013 
Q 2444 1163 2330 1236 
Q 2216 1309 1875 1350 
L 1678 1375 
Q 931 1469 631 1722 
Q 331 1975 331 2491 
Q 331 3047 712 3315 
Q 1094 3584 1881 3584 
Q 2191 3584 2531 3537 
Q 2872 3491 3272 3391 
z
" transform="scale(0.015625)"/>
      <path id="DejaVuSans-Bold-75" d="M 500 1363 
L 500 3500 
L 1625 3500 
L 1625 3150 
Q 1625 2866 1622 2436 
Q 1619 2006 1619 1863 
Q 1619 1441 1641 1255 
Q 1663 1069 1716 984 
Q 1784 875 1895 815 
Q 2006 756 2150 756 
Q 2500 756 2700 1025 
Q 2900 1294 2900 1772 
L 2900 3500 
L 4019 3500 
L 4019 0 
L 2900 0 
L 2900 506 
Q 2647 200 2364 54 
Q 2081 -91 1741 -91 
Q 1134 -91 817 281 
Q 500 653 500 1363 
z
" transform="scale(0.015625)"/>
      <path id="DejaVuSans-Bold-3a" d="M 716 3500 
L 1844 3500 
L 1844 2291 
L 716 2291 
L 716 3500 
z
M 716 1209 
L 1844 1209 
L 1844 0 
L 716 0 
L 716 1209 
z
" transform="scale(0.015625)"/>
      <path id="DejaVuSans-Bold-6d" d="M 3781 2919 
Q 3994 3244 4286 3414 
Q 4578 3584 4928 3584 
Q 5531 3584 5847 3212 
Q 6163 2841 6163 2131 
L 6163 0 
L 5038 0 
L 5038 1825 
Q 5041 1866 5042 1909 
Q 5044 1953 5044 2034 
Q 5044 2406 4934 2573 
Q 4825 2741 4581 2741 
Q 4263 2741 4089 2478 
Q 3916 2216 3909 1719 
L 3909 0 
L 2784 0 
L 2784 1825 
Q 2784 2406 2684 2573 
Q 2584 2741 2328 2741 
Q 2006 2741 1831 2477 
Q 1656 2213 1656 1722 
L 1656 0 
L 531 0 
L 531 3500 
L 1656 3500 
L 1656 2988 
Q 1863 3284 2130 3434 
Q 2397 3584 2719 3584 
Q 3081 3584 3359 3409 
Q 3638 3234 3781 2919 
z
" transform="scale(0.015625)"/>
      <path id="DejaVuSans-Bold-78" d="M 1422 1791 
L 159 3500 
L 1344 3500 
L 2059 2463 
L 2784 3500 
L 3969 3500 
L 2706 1797 
L 4031 0 
L 2847 0 
L 2059 1106 
L 1281 0 
L 97 0 
L 1422 1791 
z
" transform="scale(0.015625)"/>
     </defs>
     <use xlink:href="#DejaVuSans-Bold-52"/>
     <use xlink:href="#DejaVuSans-Bold-65" transform="translate(77.001953 0)"/>
     <use xlink:href="#DejaVuSans-Bold-73" transform="translate(144.824219 0)"/>
     <use xlink:href="#DejaVuSans-Bold-75" transform="translate(204.345703 0)"/>
     <use xlink:href="#DejaVuSans-Bold-6c" transform="translate(275.537109 0)"/>
     <use xlink:href="#DejaVuSans-Bold-74" transform="translate(309.814453 0)"/>
     <use xlink:href="#DejaVuSans-Bold-3a" transform="translate(357.617188 0)"/>
     <use xlink:href="#DejaVuSans-Bold-20" transform="translate(397.607422 0)"/>
     <use xlink:href="#DejaVuSans-Bold-6d" transform="translate(432.421875 0)"/>
     <use xlink:href="#DejaVuSans-Bold-61" transform="translate(536.621094 0)"/>
     <use xlink:href="#DejaVuSans-Bold-78" transform="translate(604.101562 0)"/>
     <use xlink:href="#DejaVuSans-Bold-20" transform="translate(668.603516 0)"/>
     <use xlink:href="#DejaVuSans-Bold-6c" transform="translate(703.417969 0)"/>
     <use xlink:href="#DejaVuSans-Bold-65" transform="translate(737.695312 0)"/>
     <use xlink:href="#DejaVuSans-Bold-6e" transform="translate(805.517578 0)"/>
     <use xlink:href="#DejaVuSans-Bold-67" transform="translate(876.708984 0)"/>
     <use xlink:href="#DejaVuSans-Bold-74" transform="translate(948.291016 0)"/>
     <use xlink:href="#DejaVuSans-Bold-68" transform="translate(996.09375 0)"/>
     <use xlink:href="#DejaVuSans-Bold-20" transform="translate(1067.285156 0)"/>
     <use xlink:href="#DejaVuSans-Bold-3d" transform="translate(1102.099609 0)"/>
     <use xlink:href="#DejaVuSans-Bold-20" transform="translate(1185.888672 0)"/>
     <use xlink:href="#DejaVuSans-Bold-33" transform="translate(1220.703125 0)"/>
    </g>
   </g>
   <g id="text_20">
    <!-- Longest Substring Without Repeating Chars — s = "abcabcbb" -->
    <g transform="translate(84.69375 16.318125) scale(0.12 -0.12)">
     <defs>
      <path id="DejaVuSans-4c" d="M 628 4666 
L 1259 4666 
L 1259 531 
L 3531 531 
L 3531 0 
L 628 0 
L 628 4666 
z
" transform="scale(0.015625)"/>
      <path id="DejaVuSans-6f" d="M 1959 3097 
Q 1497 3097 1228 2736 
Q 959 2375 959 1747 
Q 959 1119 1226 758 
Q 1494 397 1959 397 
Q 2419 397 2687 759 
Q 2956 1122 2956 1747 
Q 2956 2369 2687 2733 
Q 2419 3097 1959 3097 
z
M 1959 3584 
Q 2709 3584 3137 3096 
Q 3566 2609 3566 1747 
Q 3566 888 3137 398 
Q 2709 -91 1959 -91 
Q 1206 -91 779 398 
Q 353 888 353 1747 
Q 353 2609 779 3096 
Q 1206 3584 1959 3584 
z
" transform="scale(0.015625)"/>
      <path id="DejaVuSans-6e" d="M 3513 2113 
L 3513 0 
L 2938 0 
L 2938 2094 
Q 2938 2591 2744 2837 
Q 2550 3084 2163 3084 
Q 1697 3084 1428 2787 
Q 1159 2491 1159 1978 
L 1159 0 
L 581 0 
L 581 3500 
L 1159 3500 
L 1159 2956 
Q 1366 3272 1645 3428 
Q 1925 3584 2291 3584 
Q 2894 3584 3203 3211 
Q 3513 2838 3513 2113 
z
" transform="scale(0.015625)"/>
      <path id="DejaVuSans-67" d="M 2906 1791 
Q 2906 2416 2648 2759 
Q 2391 3103 1925 3103 
Q 1463 3103 1205 2759 
Q 947 2416 947 1791 
Q 947 1169 1205 825 
Q 1463 481 1925 481 
Q 2391 481 2648 825 
Q 2906 1169 2906 1791 
z
M 3481 434 
Q 3481 -459 3084 -895 
Q 2688 -1331 1869 -1331 
Q 1566 -1331 1297 -1286 
Q 1028 -1241 775 -1147 
L 775 -588 
Q 1028 -725 1275 -790 
Q 1522 -856 1778 -856 
Q 2344 -856 2625 -561 
Q 2906 -266 2906 331 
L 2906 616 
Q 2728 306 2450 153 
Q 2172 0 1784 0 
Q 1141 0 747 490 
Q 353 981 353 1791 
Q 353 2603 747 3093 
Q 1141 3584 1784 3584 
Q 2172 3584 2450 3431 
Q 2728 3278 2906 2969 
L 2906 3500 
L 3481 3500 
L 3481 434 
z
" transform="scale(0.015625)"/>
      <path id="DejaVuSans-65" d="M 3597 1894 
L 3597 1613 
L 953 1613 
Q 991 1019 1311 708 
Q 1631 397 2203 397 
Q 2534 397 2845 478 
Q 3156 559 3463 722 
L 3463 178 
Q 3153 47 2828 -22 
Q 2503 -91 2169 -91 
Q 1331 -91 842 396 
Q 353 884 353 1716 
Q 353 2575 817 3079 
Q 1281 3584 2069 3584 
Q 2775 3584 3186 3129 
Q 3597 2675 3597 1894 
z
M 3022 2063 
Q 3016 2534 2758 2815 
Q 2500 3097 2075 3097 
Q 1594 3097 1305 2825 
Q 1016 2553 972 2059 
L 3022 2063 
z
" transform="scale(0.015625)"/>
      <path id="DejaVuSans-73" d="M 2834 3397 
L 2834 2853 
Q 2591 2978 2328 3040 
Q 2066 3103 1784 3103 
Q 1356 3103 1142 2972 
Q 928 2841 928 2578 
Q 928 2378 1081 2264 
Q 1234 2150 1697 2047 
L 1894 2003 
Q 2506 1872 2764 1633 
Q 3022 1394 3022 966 
Q 3022 478 2636 193 
Q 2250 -91 1575 -91 
Q 1294 -91 989 -36 
Q 684 19 347 128 
L 347 722 
Q 666 556 975 473 
Q 1284 391 1588 391 
Q 1994 391 2212 530 
Q 2431 669 2431 922 
Q 2431 1156 2273 1281 
Q 2116 1406 1581 1522 
L 1381 1569 
Q 847 1681 609 1914 
Q 372 2147 372 2553 
Q 372 3047 722 3315 
Q 1072 3584 1716 3584 
Q 2034 3584 2315 3537 
Q 2597 3491 2834 3397 
z
" transform="scale(0.015625)"/>
      <path id="DejaVuSans-74" d="M 1172 4494 
L 1172 3500 
L 2356 3500 
L 2356 3053 
L 1172 3053 
L 1172 1153 
Q 1172 725 1289 603 
Q 1406 481 1766 481 
L 2356 481 
L 2356 0 
L 1766 0 
Q 1100 0 847 248 
Q 594 497 594 1153 
L 594 3053 
L 172 3053 
L 172 3500 
L 594 3500 
L 594 4494 
L 1172 4494 
z
" transform="scale(0.015625)"/>
      <path id="DejaVuSans-20" transform="scale(0.015625)"/>
      <path id="DejaVuSans-53" d="M 3425 4513 
L 3425 3897 
Q 3066 4069 2747 4153 
Q 2428 4238 2131 4238 
Q 1616 4238 1336 4038 
Q 1056 3838 1056 3469 
Q 1056 3159 1242 3001 
Q 1428 2844 1947 2747 
L 2328 2669 
Q 3034 2534 3370 2195 
Q 3706 1856 3706 1288 
Q 3706 609 3251 259 
Q 2797 -91 1919 -91 
Q 1588 -91 1214 -16 
Q 841 59 441 206 
L 441 856 
Q 825 641 1194 531 
Q 1563 422 1919 422 
Q 2459 422 2753 634 
Q 3047 847 3047 1241 
Q 3047 1584 2836 1778 
Q 2625 1972 2144 2069 
L 1759 2144 
Q 1053 2284 737 2584 
Q 422 2884 422 3419 
Q 422 4038 858 4394 
Q 1294 4750 2059 4750 
Q 2388 4750 2728 4690 
Q 3069 4631 3425 4513 
z
" transform="scale(0.015625)"/>
      <path id="DejaVuSans-75" d="M 544 1381 
L 544 3500 
L 1119 3500 
L 1119 1403 
Q 1119 906 1312 657 
Q 1506 409 1894 409 
Q 2359 409 2629 706 
Q 2900 1003 2900 1516 
L 2900 3500 
L 3475 3500 
L 3475 0 
L 2900 0 
L 2900 538 
Q 2691 219 2414 64 
Q 2138 -91 1772 -91 
Q 1169 -91 856 284 
Q 544 659 544 1381 
z
M 1991 3584 
L 1991 3584 
z
" transform="scale(0.015625)"/>
      <path id="DejaVuSans-62" d="M 3116 1747 
Q 3116 2381 2855 2742 
Q 2594 3103 2138 3103 
Q 1681 3103 1420 2742 
Q 1159 2381 1159 1747 
Q 1159 1113 1420 752 
Q 1681 391 2138 391 
Q 2594 391 2855 752 
Q 3116 1113 3116 1747 
z
M 1159 2969 
Q 1341 3281 1617 3432 
Q 1894 3584 2278 3584 
Q 2916 3584 3314 3078 
Q 3713 2572 3713 1747 
Q 3713 922 3314 415 
Q 2916 -91 2278 -91 
Q 1894 -91 1617 61 
Q 1341 213 1159 525 
L 1159 0 
L 581 0 
L 581 4863 
L 1159 4863 
L 1159 2969 
z
" transform="scale(0.015625)"/>
      <path id="DejaVuSans-72" d="M 2631 2963 
Q 2534 3019 2420 3045 
Q 2306 3072 2169 3072 
Q 1681 3072 1420 2755 
Q 1159 2438 1159 1844 
L 1159 0 
L 581 0 
L 581 3500 
L 1159 3500 
L 1159 2956 
Q 1341 3275 1631 3429 
Q 1922 3584 2338 3584 
Q 2397 3584 2469 3576 
Q 2541 3569 2628 3553 
L 2631 2963 
z
" transform="scale(0.015625)"/>
      <path id="DejaVuSans-69" d="M 603 3500 
L 1178 3500 
L 1178 0 
L 603 0 
L 603 3500 
z
M 603 4863 
L 1178 4863 
L 1178 4134 
L 603 4134 
L 603 4863 
z
" transform="scale(0.015625)"/>
      <path id="DejaVuSans-57" d="M 213 4666 
L 850 4666 
L 1831 722 
L 2809 4666 
L 3519 4666 
L 4500 722 
L 5478 4666 
L 6119 4666 
L 4947 0 
L 4153 0 
L 3169 4050 
L 2175 0 
L 1381 0 
L 213 4666 
z
" transform="scale(0.015625)"/>
      <path id="DejaVuSans-68" d="M 3513 2113 
L 3513 0 
L 2938 0 
L 2938 2094 
Q 2938 2591 2744 2837 
Q 2550 3084 2163 3084 
Q 1697 3084 1428 2787 
Q 1159 2491 1159 1978 
L 1159 0 
L 581 0 
L 581 4863 
L 1159 4863 
L 1159 2956 
Q 1366 3272 1645 3428 
Q 1925 3584 2291 3584 
Q 2894 3584 3203 3211 
Q 3513 2838 3513 2113 
z
" transform="scale(0.015625)"/>
      <path id="DejaVuSans-52" d="M 2841 2188 
Q 3044 2119 3236 1894 
Q 3428 1669 3622 1275 
L 4263 0 
L 3584 0 
L 2988 1197 
Q 2756 1666 2539 1819 
Q 2322 1972 1947 1972 
L 1259 1972 
L 1259 0 
L 628 0 
L 628 4666 
L 2053 4666 
Q 2853 4666 3247 4331 
Q 3641 3997 3641 3322 
Q 3641 2881 3436 2590 
Q 3231 2300 2841 2188 
z
M 1259 4147 
L 1259 2491 
L 2053 2491 
Q 2509 2491 2742 2702 
Q 2975 2913 2975 3322 
Q 2975 3731 2742 3939 
Q 2509 4147 2053 4147 
L 1259 4147 
z
" transform="scale(0.015625)"/>
      <path id="DejaVuSans-70" d="M 1159 525 
L 1159 -1331 
L 581 -1331 
L 581 3500 
L 1159 3500 
L 1159 2969 
Q 1341 3281 1617 3432 
Q 1894 3584 2278 3584 
Q 2916 3584 3314 3078 
Q 3713 2572 3713 1747 
Q 3713 922 3314 415 
Q 2916 -91 2278 -91 
Q 1894 -91 1617 61 
Q 1341 213 1159 525 
z
M 3116 1747 
Q 3116 2381 2855 2742 
Q 2594 3103 2138 3103 
Q 1681 3103 1420 2742 
Q 1159 2381 1159 1747 
Q 1159 1113 1420 752 
Q 1681 391 2138 391 
Q 2594 391 2855 752 
Q 3116 1113 3116 1747 
z
" transform="scale(0.015625)"/>
      <path id="DejaVuSans-61" d="M 2194 1759 
Q 1497 1759 1228 1600 
Q 959 1441 959 1056 
Q 959 750 1161 570 
Q 1363 391 1709 391 
Q 2188 391 2477 730 
Q 2766 1069 2766 1631 
L 2766 1759 
L 2194 1759 
z
M 3341 1997 
L 3341 0 
L 2766 0 
L 2766 531 
Q 2569 213 2275 61 
Q 1981 -91 1556 -91 
Q 1019 -91 701 211 
Q 384 513 384 1019 
Q 384 1609 779 1909 
Q 1175 2209 1959 2209 
L 2766 2209 
L 2766 2266 
Q 2766 2663 2505 2880 
Q 2244 3097 1772 3097 
Q 1472 3097 1187 3025 
Q 903 2953 641 2809 
L 641 3341 
Q 956 3463 1253 3523 
Q 1550 3584 1831 3584 
Q 2591 3584 2966 3190 
Q 3341 2797 3341 1997 
z
" transform="scale(0.015625)"/>
      <path id="DejaVuSans-43" d="M 4122 4306 
L 4122 3641 
Q 3803 3938 3442 4084 
Q 3081 4231 2675 4231 
Q 1875 4231 1450 3742 
Q 1025 3253 1025 2328 
Q 1025 1406 1450 917 
Q 1875 428 2675 428 
Q 3081 428 3442 575 
Q 3803 722 4122 1019 
L 4122 359 
Q 3791 134 3420 21 
Q 3050 -91 2638 -91 
Q 1578 -91 968 557 
Q 359 1206 359 2328 
Q 359 3453 968 4101 
Q 1578 4750 2638 4750 
Q 3056 4750 3426 4639 
Q 3797 4528 4122 4306 
z
" transform="scale(0.015625)"/>
      <path id="DejaVuSans-2014" d="M 313 1978 
L 6088 1978 
L 6088 1528 
L 313 1528 
L 313 1978 
z
" transform="scale(0.015625)"/>
      <path id="DejaVuSans-3d" d="M 678 2906 
L 4684 2906 
L 4684 2381 
L 678 2381 
L 678 2906 
z
M 678 1631 
L 4684 1631 
L 4684 1100 
L 678 1100 
L 678 1631 
z
" transform="scale(0.015625)"/>
      <path id="DejaVuSans-22" d="M 1147 4666 
L 1147 2931 
L 616 2931 
L 616 4666 
L 1147 4666 
z
M 2328 4666 
L 2328 2931 
L 1797 2931 
L 1797 4666 
L 2328 4666 
z
" transform="scale(0.015625)"/>
      <path id="DejaVuSans-63" d="M 3122 3366 
L 3122 2828 
Q 2878 2963 2633 3030 
Q 2388 3097 2138 3097 
Q 1578 3097 1268 2742 
Q 959 2388 959 1747 
Q 959 1106 1268 751 
Q 1578 397 2138 397 
Q 2388 397 2633 464 
Q 2878 531 3122 666 
L 3122 134 
Q 2881 22 2623 -34 
Q 2366 -91 2075 -91 
Q 1284 -91 818 406 
Q 353 903 353 1747 
Q 353 2603 823 3093 
Q 1294 3584 2113 3584 
Q 2378 3584 2631 3529 
Q 2884 3475 3122 3366 
z
" transform="scale(0.015625)"/>
     </defs>
     <use xlink:href="#DejaVuSans-4c"/>
     <use xlink:href="#DejaVuSans-6f" transform="translate(53.962891 0)"/>
     <use xlink:href="#DejaVuSans-6e" transform="translate(115.144531 0)"/>
     <use xlink:href="#DejaVuSans-67" transform="translate(178.523438 0)"/>
     <use xlink:href="#DejaVuSans-65" transform="translate(242 0)"/>
     <use xlink:href="#DejaVuSans-73" transform="translate(303.523438 0)"/>
     <use xlink:href="#DejaVuSans-74" transform="translate(355.623047 0)"/>
     <use xlink:href="#DejaVuSans-20" transform="translate(394.832031 0)"/>
     <use xlink:href="#DejaVuSans-53" transform="translate(426.619141 0)"/>
     <use xlink:href="#DejaVuSans-75" transform="translate(490.095703 0)"/>
     <use xlink:href="#DejaVuSans-62" transform="translate(553.474609 0)"/>
     <use xlink:href="#DejaVuSans-73" transform="translate(616.951172 0)"/>
     <use xlink:href="#DejaVuSans-74" transform="translate(669.050781 0)"/>
     <use xlink:href="#DejaVuSans-72" transform="translate(708.259766 0)"/>
     <use xlink:href="#DejaVuSans-69" transform="translate(749.373047 0)"/>
     <use xlink:href="#DejaVuSans-6e" transform="translate(777.15625 0)"/>
     <use xlink:href="#DejaVuSans-67" transform="translate(840.535156 0)"/>
     <use xlink:href="#DejaVuSans-20" transform="translate(904.011719 0)"/>
     <use xlink:href="#DejaVuSans-57" transform="translate(935.798828 0)"/>
     <use xlink:href="#DejaVuSans-69" transform="translate(1032.425781 0)"/>
     <use xlink:href="#DejaVuSans-74" transform="translate(1060.208984 0)"/>
     <use xlink:href="#DejaVuSans-68" transform="translate(1099.417969 0)"/>
     <use xlink:href="#DejaVuSans-6f" transform="translate(1162.796875 0)"/>
     <use xlink:href="#DejaVuSans-75" transform="translate(1223.978516 0)"/>
     <use xlink:href="#DejaVuSans-74" transform="translate(1287.357422 0)"/>
     <use xlink:href="#DejaVuSans-20" transform="translate(1326.566406 0)"/>
     <use xlink:href="#DejaVuSans-52" transform="translate(1358.353516 0)"/>
     <use xlink:href="#DejaVuSans-65" transform="translate(1423.335938 0)"/>
     <use xlink:href="#DejaVuSans-70" transform="translate(1484.859375 0)"/>
     <use xlink:href="#DejaVuSans-65" transform="translate(1548.335938 0)"/>
     <use xlink:href="#DejaVuSans-61" transform="translate(1609.859375 0)"/>
     <use xlink:href="#DejaVuSans-74" transform="translate(1671.138672 0)"/>
     <use xlink:href="#DejaVuSans-69" transform="translate(1710.347656 0)"/>
     <use xlink:href="#DejaVuSans-6e" transform="translate(1738.130859 0)"/>
     <use xlink:href="#DejaVuSans-67" transform="translate(1801.509766 0)"/>
     <use xlink:href="#DejaVuSans-20" transform="translate(1864.986328 0)"/>
     <use xlink:href="#DejaVuSans-43" transform="translate(1896.773438 0)"/>
     <use xlink:href="#DejaVuSans-68" transform="translate(1966.597656 0)"/>
     <use xlink:href="#DejaVuSans-61" transform="translate(2029.976562 0)"/>
     <use xlink:href="#DejaVuSans-72" transform="translate(2091.255859 0)"/>
     <use xlink:href="#DejaVuSans-73" transform="translate(2132.369141 0)"/>
     <use xlink:href="#DejaVuSans-20" transform="translate(2184.46875 0)"/>
     <use xlink:href="#DejaVuSans-2014" transform="translate(2216.255859 0)"/>
     <use xlink:href="#DejaVuSans-20" transform="translate(2316.255859 0)"/>
     <use xlink:href="#DejaVuSans-73" transform="translate(2348.042969 0)"/>
     <use xlink:href="#DejaVuSans-20" transform="translate(2400.142578 0)"/>
     <use xlink:href="#DejaVuSans-3d" transform="translate(2431.929688 0)"/>
     <use xlink:href="#DejaVuSans-20" transform="translate(2515.71875 0)"/>
     <use xlink:href="#DejaVuSans-22" transform="translate(2547.505859 0)"/>
     <use xlink:href="#DejaVuSans-61" transform="translate(2593.501953 0)"/>
     <use xlink:href="#DejaVuSans-62" transform="translate(2654.78125 0)"/>
     <use xlink:href="#DejaVuSans-63" transform="translate(2718.257812 0)"/>
     <use xlink:href="#DejaVuSans-61" transform="translate(2773.238281 0)"/>
     <use xlink:href="#DejaVuSans-62" transform="translate(2834.517578 0)"/>
     <use xlink:href="#DejaVuSans-63" transform="translate(2897.994141 0)"/>
     <use xlink:href="#DejaVuSans-62" transform="translate(2952.974609 0)"/>
     <use xlink:href="#DejaVuSans-62" transform="translate(3016.451172 0)"/>
     <use xlink:href="#DejaVuSans-22" transform="translate(3079.927734 0)"/>
    </g>
   </g>
  </g>
 </g>
 <defs>
  <clipPath id="p1c2549b64f">
   <rect x="7.2" y="30.318125" width="530.1" height="232.848"/>
  </clipPath>
 </defs>
</svg>
