<?xml version="1.0" encoding="utf-8" standalone="no"?>
<!DOCTYPE svg PUBLIC "-//W3C//DTD SVG 1.1//EN"
  "http://www.w3.org/Graphics/SVG/1.1/DTD/svg11.dtd">
<svg xmlns:xlink="http://www.w3.org/1999/xlink" width="516.6pt" height="286.998125pt" viewBox="0 0 516.6 286.998125" xmlns="http://www.w3.org/2000/svg" version="1.1">
 <metadata>
  <rdf:RDF xmlns:dc="http://purl.org/dc/elements/1.1/" xmlns:cc="http://creativecommons.org/ns#" xmlns:rdf="http://www.w3.org/1999/02/22-rdf-syntax-ns#">
   <cc:Work>
    <dc:type rdf:resource="http://purl.org/dc/dcmitype/StillImage"/>
    <dc:date>2026-07-04T14:20:19.898880</dc:date>
    <dc:format>image/svg+xml</dc:format>
    <dc:creator>
     <cc:Agent>
      <dc:title>Matplotlib v3.10.8, https://matplotlib.org/</dc:title>
     </cc:Agent>
    </dc:creator>
   </cc:Work>
  </rdf:RDF>
 </metadata>
 <defs>
  <style type="text/css">*{stroke-linejoin: round; stroke-linecap: butt}</style>
 </defs>
 <g id="figure_1">
  <g id="patch_1">
   <path d="M 0 286.998125 
L 516.6 286.998125 
L 516.6 0 
L 0 0 
z
" style="fill: #fafaf9"/>
  </g>
  <g id="axes_1">
   <g id="patch_2">
    <path d="M 82.155224 99.767963 
L 143.618507 99.767963 
Q 145.867164 99.767963 145.867164 97.745152 
L 145.867164 64.031639 
Q 145.867164 62.008828 143.618507 62.008828 
L 82.155224 62.008828 
Q 79.906567 62.008828 79.906567 64.031639 
L 79.906567 97.745152 
Q 79.906567 99.767963 82.155224 99.767963 
z
" clip-path="url(#pc8d6884f02)" style="fill: #d6eaf8; stroke: #666666; stroke-width: 1.2; stroke-linejoin: miter"/>
   </g>
   <g id="patch_3">
    <path d="M 149.614925 99.767963 
L 211.078209 99.767963 
Q 213.326866 99.767963 213.326866 97.745152 
L 213.326866 64.031639 
Q 213.326866 62.008828 211.078209 62.008828 
L 149.614925 62.008828 
Q 147.366269 62.008828 147.366269 64.031639 
L 147.366269 97.745152 
Q 147.366269 99.767963 149.614925 99.767963 
z
" clip-path="url(#pc8d6884f02)" style="fill: #d6eaf8; stroke: #666666; stroke-width: 1.2; stroke-linejoin: miter"/>
   </g>
   <g id="patch_4">
    <path d="M 217.074627 99.767963 
L 278.53791 99.767963 
Q 280.786567 99.767963 280.786567 97.745152 
L 280.786567 64.031639 
Q 280.786567 62.008828 278.53791 62.008828 
L 217.074627 62.008828 
Q 214.82597 62.008828 214.82597 64.031639 
L 214.82597 97.745152 
Q 214.82597 99.767963 217.074627 99.767963 
z
" clip-path="url(#pc8d6884f02)" style="fill: #d6eaf8; stroke: #666666; stroke-width: 1.2; stroke-linejoin: miter"/>
   </g>
   <g id="patch_5">
    <path d="M 82.155224 167.19499 
L 143.618507 167.19499 
Q 145.867164 167.19499 145.867164 165.172179 
L 145.867164 131.458666 
Q 145.867164 129.435855 143.618507 129.435855 
L 82.155224 129.435855 
Q 79.906567 129.435855 79.906567 131.458666 
L 79.906567 165.172179 
Q 79.906567 167.19499 82.155224 167.19499 
z
" clip-path="url(#pc8d6884f02)" style="fill: #fadbd8; stroke: #666666; stroke-width: 1.2; stroke-linejoin: miter"/>
   </g>
   <g id="patch_6">
    <path d="M 149.614925 167.19499 
L 211.078209 167.19499 
Q 213.326866 167.19499 213.326866 165.172179 
L 213.326866 131.458666 
Q 213.326866 129.435855 211.078209 129.435855 
L 149.614925 129.435855 
Q 147.366269 129.435855 147.366269 131.458666 
L 147.366269 165.172179 
Q 147.366269 167.19499 149.614925 167.19499 
z
" clip-path="url(#pc8d6884f02)" style="fill: #fadbd8; stroke: #666666; stroke-width: 1.2; stroke-linejoin: miter"/>
   </g>
   <g id="patch_7">
    <path d="M 217.074627 167.19499 
L 278.53791 167.19499 
Q 280.786567 167.19499 280.786567 165.172179 
L 280.786567 131.458666 
Q 280.786567 129.435855 278.53791 129.435855 
L 217.074627 129.435855 
Q 214.82597 129.435855 214.82597 131.458666 
L 214.82597 165.172179 
Q 214.82597 167.19499 217.074627 167.19499 
z
" clip-path="url(#pc8d6884f02)" style="fill: #fadbd8; stroke: #666666; stroke-width: 1.2; stroke-linejoin: miter"/>
   </g>
   <g id="patch_8">
    <path d="M 82.155224 254.850125 
L 143.618507 254.850125 
Q 145.867164 254.850125 145.867164 252.827314 
L 145.867164 219.113801 
Q 145.867164 217.09099 143.618507 217.09099 
L 82.155224 217.09099 
Q 79.906567 217.09099 79.906567 219.113801 
L 79.906567 252.827314 
Q 79.906567 254.850125 82.155224 254.850125 
z
" clip-path="url(#pc8d6884f02)" style="fill: #c8e6c9; stroke: #666666; stroke-width: 1.2; stroke-linejoin: miter"/>
   </g>
   <g id="patch_9">
    <path d="M 149.614925 254.850125 
L 211.078209 254.850125 
Q 213.326866 254.850125 213.326866 252.827314 
L 213.326866 219.113801 
Q 213.326866 217.09099 211.078209 217.09099 
L 149.614925 217.09099 
Q 147.366269 217.09099 147.366269 219.113801 
L 147.366269 252.827314 
Q 147.366269 254.850125 149.614925 254.850125 
z
" clip-path="url(#pc8d6884f02)" style="fill: #c8e6c9; stroke: #666666; stroke-width: 1.2; stroke-linejoin: miter"/>
   </g>
   <g id="patch_10">
    <path d="M 217.074627 254.850125 
L 278.53791 254.850125 
Q 280.786567 254.850125 280.786567 252.827314 
L 280.786567 219.113801 
Q 280.786567 217.09099 278.53791 217.09099 
L 217.074627 217.09099 
Q 214.82597 217.09099 214.82597 219.113801 
L 214.82597 252.827314 
Q 214.82597 254.850125 217.074627 254.850125 
z
" clip-path="url(#pc8d6884f02)" style="fill: #c8e6c9; stroke: #666666; stroke-width: 1.2; stroke-linejoin: miter"/>
   </g>
   <g id="patch_11">
    <path d="M 284.534328 254.850125 
L 345.997612 254.850125 
Q 348.246269 254.850125 348.246269 252.827314 
L 348.246269 219.113801 
Q 348.246269 217.09099 345.997612 217.09099 
L 284.534328 217.09099 
Q 282.285672 217.09099 282.285672 219.113801 
L 282.285672 252.827314 
Q 282.285672 254.850125 284.534328 254.850125 
z
" clip-path="url(#pc8d6884f02)" style="fill: #c8e6c9; stroke: #666666; stroke-width: 1.2; stroke-linejoin: miter"/>
   </g>
   <g id="patch_12">
    <path d="M 351.99403 254.850125 
L 413.457313 254.850125 
Q 415.70597 254.850125 415.70597 252.827314 
L 415.70597 219.113801 
Q 415.70597 217.09099 413.457313 217.09099 
L 351.99403 217.09099 
Q 349.745373 217.09099 349.745373 219.113801 
L 349.745373 252.827314 
Q 349.745373 254.850125 351.99403 254.850125 
z
" clip-path="url(#pc8d6884f02)" style="fill: #c8e6c9; stroke: #666666; stroke-width: 1.2; stroke-linejoin: miter"/>
   </g>
   <g id="patch_13">
    <path d="M 419.453731 254.850125 
L 480.917015 254.850125 
Q 483.165672 254.850125 483.165672 252.827314 
L 483.165672 219.113801 
Q 483.165672 217.09099 480.917015 217.09099 
L 419.453731 217.09099 
Q 417.205075 217.09099 417.205075 219.113801 
L 417.205075 252.827314 
Q 417.205075 254.850125 419.453731 254.850125 
z
" clip-path="url(#pc8d6884f02)" style="fill: #c8e6c9; stroke: #666666; stroke-width: 1.2; stroke-linejoin: miter"/>
   </g>
   <g id="text_1">
    <!-- 1 -->
    <g transform="translate(109.060069 83.923708) scale(0.11 -0.11)">
     <defs>
      <path id="DejaVuSans-Bold-31" d="M 750 831 
L 1813 831 
L 1813 3847 
L 722 3622 
L 722 4441 
L 1806 4666 
L 2950 4666 
L 2950 831 
L 4013 831 
L 4013 0 
L 750 0 
L 750 831 
z
" transform="scale(0.015625)"/>
     </defs>
     <use xlink:href="#DejaVuSans-Bold-31"/>
    </g>
   </g>
   <g id="patch_14">
    <path d="M 147.117394 80.888395 
Q 148.114601 80.888395 147.993775 80.888395 
" style="fill: none; stroke: #999999; stroke-linecap: round"/>
    <path d="M 143.993775 78.888395 
L 147.993775 80.888395 
L 143.993775 82.888395 
" style="fill: none; stroke: #999999; stroke-linecap: round"/>
   </g>
   <g id="text_2">
    <!-- 2 -->
    <g transform="translate(176.51977 83.923708) scale(0.11 -0.11)">
     <defs>
      <path id="DejaVuSans-Bold-32" d="M 1844 884 
L 3897 884 
L 3897 0 
L 506 0 
L 506 884 
L 2209 2388 
Q 2438 2594 2547 2791 
Q 2656 2988 2656 3200 
Q 2656 3528 2436 3728 
Q 2216 3928 1850 3928 
Q 1569 3928 1234 3808 
Q 900 3688 519 3450 
L 519 4475 
Q 925 4609 1322 4679 
Q 1719 4750 2100 4750 
Q 2938 4750 3402 4381 
Q 3866 4013 3866 3353 
Q 3866 2972 3669 2642 
Q 3472 2313 2841 1759 
L 1844 884 
z
" transform="scale(0.015625)"/>
     </defs>
     <use xlink:href="#DejaVuSans-Bold-32"/>
    </g>
   </g>
   <g id="patch_15">
    <path d="M 214.577095 80.888395 
Q 215.574303 80.888395 215.453476 80.888395 
" style="fill: none; stroke: #999999; stroke-linecap: round"/>
    <path d="M 211.453476 78.888395 
L 215.453476 80.888395 
L 211.453476 82.888395 
" style="fill: none; stroke: #999999; stroke-linecap: round"/>
   </g>
   <g id="text_3">
    <!-- 4 -->
    <g transform="translate(243.979472 83.923708) scale(0.11 -0.11)">
     <defs>
      <path id="DejaVuSans-Bold-34" d="M 2356 3675 
L 1038 1722 
L 2356 1722 
L 2356 3675 
z
M 2156 4666 
L 3494 4666 
L 3494 1722 
L 4159 1722 
L 4159 850 
L 3494 850 
L 3494 0 
L 2356 0 
L 2356 850 
L 288 850 
L 288 1881 
L 2156 4666 
z
" transform="scale(0.015625)"/>
     </defs>
     <use xlink:href="#DejaVuSans-Bold-34"/>
    </g>
   </g>
   <g id="text_4">
    <!-- l1: -->
    <g style="fill: #d6eaf8" transform="translate(29.686567 80.888395) scale(0.09 -0.09)">
     <defs>
      <path id="DejaVuSans-Bold-6c" d="M 538 4863 
L 1656 4863 
L 1656 0 
L 538 0 
L 538 4863 
z
" transform="scale(0.015625)"/>
      <path id="DejaVuSans-Bold-3a" d="M 716 3500 
L 1844 3500 
L 1844 2291 
L 716 2291 
L 716 3500 
z
M 716 1209 
L 1844 1209 
L 1844 0 
L 716 0 
L 716 1209 
z
" transform="scale(0.015625)"/>
     </defs>
     <use xlink:href="#DejaVuSans-Bold-6c"/>
     <use xlink:href="#DejaVuSans-Bold-31" transform="translate(34.277344 0)"/>
     <use xlink:href="#DejaVuSans-Bold-3a" transform="translate(103.857422 0)"/>
    </g>
   </g>
   <g id="text_5">
    <!-- 1 -->
    <g transform="translate(109.060069 151.350735) scale(0.11 -0.11)">
     <use xlink:href="#DejaVuSans-Bold-31"/>
    </g>
   </g>
   <g id="patch_16">
    <path d="M 147.117394 148.315422 
Q 148.114601 148.315422 147.993775 148.315422 
" style="fill: none; stroke: #999999; stroke-linecap: round"/>
    <path d="M 143.993775 146.315422 
L 147.993775 148.315422 
L 143.993775 150.315422 
" style="fill: none; stroke: #999999; stroke-linecap: round"/>
   </g>
   <g id="text_6">
    <!-- 3 -->
    <g transform="translate(176.51977 151.350735) scale(0.11 -0.11)">
     <defs>
      <path id="DejaVuSans-Bold-33" d="M 2981 2516 
Q 3453 2394 3698 2092 
Q 3944 1791 3944 1325 
Q 3944 631 3412 270 
Q 2881 -91 1863 -91 
Q 1503 -91 1142 -33 
Q 781 25 428 141 
L 428 1069 
Q 766 900 1098 814 
Q 1431 728 1753 728 
Q 2231 728 2486 893 
Q 2741 1059 2741 1369 
Q 2741 1688 2480 1852 
Q 2219 2016 1709 2016 
L 1228 2016 
L 1228 2791 
L 1734 2791 
Q 2188 2791 2409 2933 
Q 2631 3075 2631 3366 
Q 2631 3634 2415 3781 
Q 2200 3928 1806 3928 
Q 1516 3928 1219 3862 
Q 922 3797 628 3669 
L 628 4550 
Q 984 4650 1334 4700 
Q 1684 4750 2022 4750 
Q 2931 4750 3382 4451 
Q 3834 4153 3834 3553 
Q 3834 3144 3618 2883 
Q 3403 2622 2981 2516 
z
" transform="scale(0.015625)"/>
     </defs>
     <use xlink:href="#DejaVuSans-Bold-33"/>
    </g>
   </g>
   <g id="patch_17">
    <path d="M 214.577095 148.315422 
Q 215.574303 148.315422 215.453476 148.315422 
" style="fill: none; stroke: #999999; stroke-linecap: round"/>
    <path d="M 211.453476 146.315422 
L 215.453476 148.315422 
L 211.453476 150.315422 
" style="fill: none; stroke: #999999; stroke-linecap: round"/>
   </g>
   <g id="text_7">
    <!-- 4 -->
    <g transform="translate(243.979472 151.350735) scale(0.11 -0.11)">
     <use xlink:href="#DejaVuSans-Bold-34"/>
    </g>
   </g>
   <g id="text_8">
    <!-- l2: -->
    <g style="fill: #fadbd8" transform="translate(29.686567 148.315422) scale(0.09 -0.09)">
     <use xlink:href="#DejaVuSans-Bold-6c"/>
     <use xlink:href="#DejaVuSans-Bold-32" transform="translate(34.277344 0)"/>
     <use xlink:href="#DejaVuSans-Bold-3a" transform="translate(103.857422 0)"/>
    </g>
   </g>
   <g id="text_9">
    <!-- 1 -->
    <g transform="translate(109.060069 239.00587) scale(0.11 -0.11)">
     <use xlink:href="#DejaVuSans-Bold-31"/>
    </g>
   </g>
   <g id="patch_18">
    <path d="M 147.117394 235.970557 
Q 148.114601 235.970557 147.993775 235.970557 
" style="fill: none; stroke: #999999; stroke-linecap: round"/>
    <path d="M 143.993775 233.970557 
L 147.993775 235.970557 
L 143.993775 237.970557 
" style="fill: none; stroke: #999999; stroke-linecap: round"/>
   </g>
   <g id="text_10">
    <!-- 1 -->
    <g transform="translate(176.51977 239.00587) scale(0.11 -0.11)">
     <use xlink:href="#DejaVuSans-Bold-31"/>
    </g>
   </g>
   <g id="patch_19">
    <path d="M 214.577095 235.970557 
Q 215.574303 235.970557 215.453476 235.970557 
" style="fill: none; stroke: #999999; stroke-linecap: round"/>
    <path d="M 211.453476 233.970557 
L 215.453476 235.970557 
L 211.453476 237.970557 
" style="fill: none; stroke: #999999; stroke-linecap: round"/>
   </g>
   <g id="text_11">
    <!-- 2 -->
    <g transform="translate(243.979472 239.00587) scale(0.11 -0.11)">
     <use xlink:href="#DejaVuSans-Bold-32"/>
    </g>
   </g>
   <g id="patch_20">
    <path d="M 282.036797 235.970557 
Q 283.034004 235.970557 282.913178 235.970557 
" style="fill: none; stroke: #999999; stroke-linecap: round"/>
    <path d="M 278.913178 233.970557 
L 282.913178 235.970557 
L 278.913178 237.970557 
" style="fill: none; stroke: #999999; stroke-linecap: round"/>
   </g>
   <g id="text_12">
    <!-- 3 -->
    <g transform="translate(311.439173 239.00587) scale(0.11 -0.11)">
     <use xlink:href="#DejaVuSans-Bold-33"/>
    </g>
   </g>
   <g id="patch_21">
    <path d="M 349.496498 235.970557 
Q 350.493706 235.970557 350.372879 235.970557 
" style="fill: none; stroke: #999999; stroke-linecap: round"/>
    <path d="M 346.372879 233.970557 
L 350.372879 235.970557 
L 346.372879 237.970557 
" style="fill: none; stroke: #999999; stroke-linecap: round"/>
   </g>
   <g id="text_13">
    <!-- 4 -->
    <g transform="translate(378.898875 239.00587) scale(0.11 -0.11)">
     <use xlink:href="#DejaVuSans-Bold-34"/>
    </g>
   </g>
   <g id="patch_22">
    <path d="M 416.9562 235.970557 
Q 417.953407 235.970557 417.832581 235.970557 
" style="fill: none; stroke: #999999; stroke-linecap: round"/>
    <path d="M 413.832581 233.970557 
L 417.832581 235.970557 
L 413.832581 237.970557 
" style="fill: none; stroke: #999999; stroke-linecap: round"/>
   </g>
   <g id="text_14">
    <!-- 4 -->
    <g transform="translate(446.358576 239.00587) scale(0.11 -0.11)">
     <use xlink:href="#DejaVuSans-Bold-34"/>
    </g>
   </g>
   <g id="text_15">
    <!-- out: -->
    <g style="fill: #c8e6c9" transform="translate(29.686567 235.970557) scale(0.09 -0.09)">
     <defs>
      <path id="DejaVuSans-Bold-6f" d="M 2203 2784 
Q 1831 2784 1636 2517 
Q 1441 2250 1441 1747 
Q 1441 1244 1636 976 
Q 1831 709 2203 709 
Q 2569 709 2762 976 
Q 2956 1244 2956 1747 
Q 2956 2250 2762 2517 
Q 2569 2784 2203 2784 
z
M 2203 3584 
Q 3106 3584 3614 3096 
Q 4122 2609 4122 1747 
Q 4122 884 3614 396 
Q 3106 -91 2203 -91 
Q 1297 -91 786 396 
Q 275 884 275 1747 
Q 275 2609 786 3096 
Q 1297 3584 2203 3584 
z
" transform="scale(0.015625)"/>
      <path id="DejaVuSans-Bold-75" d="M 500 1363 
L 500 3500 
L 1625 3500 
L 1625 3150 
Q 1625 2866 1622 2436 
Q 1619 2006 1619 1863 
Q 1619 1441 1641 1255 
Q 1663 1069 1716 984 
Q 1784 875 1895 815 
Q 2006 756 2150 756 
Q 2500 756 2700 1025 
Q 2900 1294 2900 1772 
L 2900 3500 
L 4019 3500 
L 4019 0 
L 2900 0 
L 2900 506 
Q 2647 200 2364 54 
Q 2081 -91 1741 -91 
Q 1134 -91 817 281 
Q 500 653 500 1363 
z
" transform="scale(0.015625)"/>
      <path id="DejaVuSans-Bold-74" d="M 1759 4494 
L 1759 3500 
L 2913 3500 
L 2913 2700 
L 1759 2700 
L 1759 1216 
Q 1759 972 1856 886 
Q 1953 800 2241 800 
L 2816 800 
L 2816 0 
L 1856 0 
Q 1194 0 917 276 
Q 641 553 641 1216 
L 641 2700 
L 84 2700 
L 84 3500 
L 641 3500 
L 641 4494 
L 1759 4494 
z
" transform="scale(0.015625)"/>
     </defs>
     <use xlink:href="#DejaVuSans-Bold-6f"/>
     <use xlink:href="#DejaVuSans-Bold-75" transform="translate(68.701172 0)"/>
     <use xlink:href="#DejaVuSans-Bold-74" transform="translate(139.892578 0)"/>
     <use xlink:href="#DejaVuSans-Bold-3a" transform="translate(187.695312 0)"/>
    </g>
   </g>
   <g id="text_16">
    <!-- Compare heads of both lists, pick the smaller, advance that pointer -->
    <g style="fill: #555555" transform="translate(82.155224 37.060828) scale(0.09 -0.09)">
     <defs>
      <path id="DejaVuSans-Oblique-43" d="M 4447 4306 
L 4319 3641 
Q 4019 3944 3683 4091 
Q 3347 4238 2956 4238 
Q 2422 4238 2017 3981 
Q 1613 3725 1319 3200 
Q 1131 2863 1032 2486 
Q 934 2109 934 1728 
Q 934 1091 1264 756 
Q 1594 422 2222 422 
Q 2656 422 3056 561 
Q 3456 700 3834 978 
L 3688 231 
Q 3316 72 2936 -9 
Q 2556 -91 2175 -91 
Q 1278 -91 773 396 
Q 269 884 269 1753 
Q 269 2309 461 2846 
Q 653 3384 1013 3828 
Q 1394 4300 1883 4525 
Q 2372 4750 3022 4750 
Q 3422 4750 3780 4639 
Q 4138 4528 4447 4306 
z
" transform="scale(0.015625)"/>
      <path id="DejaVuSans-Oblique-6f" d="M 1625 -91 
Q 1009 -91 651 289 
Q 294 669 294 1325 
Q 294 1706 417 2101 
Q 541 2497 738 2766 
Q 1047 3184 1428 3384 
Q 1809 3584 2291 3584 
Q 2888 3584 3255 3212 
Q 3622 2841 3622 2241 
Q 3622 1825 3500 1412 
Q 3378 1000 3181 728 
Q 2875 309 2494 109 
Q 2113 -91 1625 -91 
z
M 891 1344 
Q 891 869 1089 633 
Q 1288 397 1691 397 
Q 2269 397 2648 901 
Q 3028 1406 3028 2181 
Q 3028 2634 2825 2865 
Q 2622 3097 2228 3097 
Q 1903 3097 1650 2945 
Q 1397 2794 1197 2484 
Q 1050 2253 970 1956 
Q 891 1659 891 1344 
z
" transform="scale(0.015625)"/>
      <path id="DejaVuSans-Oblique-6d" d="M 5747 2113 
L 5338 0 
L 4763 0 
L 5166 2094 
Q 5191 2228 5203 2325 
Q 5216 2422 5216 2491 
Q 5216 2772 5059 2928 
Q 4903 3084 4622 3084 
Q 4203 3084 3875 2770 
Q 3547 2456 3450 1953 
L 3066 0 
L 2491 0 
L 2900 2094 
Q 2925 2209 2937 2307 
Q 2950 2406 2950 2484 
Q 2950 2769 2794 2926 
Q 2638 3084 2363 3084 
Q 1938 3084 1609 2770 
Q 1281 2456 1184 1953 
L 800 0 
L 225 0 
L 909 3500 
L 1484 3500 
L 1375 2956 
Q 1609 3263 1923 3423 
Q 2238 3584 2597 3584 
Q 2978 3584 3223 3384 
Q 3469 3184 3519 2828 
Q 3781 3197 4126 3390 
Q 4472 3584 4856 3584 
Q 5306 3584 5551 3325 
Q 5797 3066 5797 2591 
Q 5797 2488 5784 2364 
Q 5772 2241 5747 2113 
z
" transform="scale(0.015625)"/>
      <path id="DejaVuSans-Oblique-70" d="M 3175 2156 
Q 3175 2616 2975 2859 
Q 2775 3103 2400 3103 
Q 2144 3103 1911 2972 
Q 1678 2841 1497 2591 
Q 1319 2344 1212 1994 
Q 1106 1644 1106 1300 
Q 1106 863 1306 627 
Q 1506 391 1875 391 
Q 2147 391 2380 519 
Q 2613 647 2778 891 
Q 2956 1147 3065 1494 
Q 3175 1841 3175 2156 
z
M 1394 2969 
Q 1625 3272 1939 3428 
Q 2253 3584 2638 3584 
Q 3175 3584 3472 3232 
Q 3769 2881 3769 2247 
Q 3769 1728 3584 1258 
Q 3400 788 3053 416 
Q 2822 169 2531 39 
Q 2241 -91 1919 -91 
Q 1547 -91 1294 64 
Q 1041 219 916 525 
L 556 -1331 
L -19 -1331 
L 922 3500 
L 1497 3500 
L 1394 2969 
z
" transform="scale(0.015625)"/>
      <path id="DejaVuSans-Oblique-61" d="M 3438 1997 
L 3047 0 
L 2472 0 
L 2578 531 
Q 2325 219 2001 64 
Q 1678 -91 1281 -91 
Q 834 -91 548 182 
Q 263 456 263 884 
Q 263 1497 752 1853 
Q 1241 2209 2100 2209 
L 2900 2209 
L 2931 2363 
Q 2938 2388 2941 2417 
Q 2944 2447 2944 2509 
Q 2944 2788 2717 2942 
Q 2491 3097 2081 3097 
Q 1800 3097 1504 3025 
Q 1209 2953 897 2809 
L 997 3341 
Q 1322 3463 1633 3523 
Q 1944 3584 2234 3584 
Q 2853 3584 3176 3315 
Q 3500 3047 3500 2534 
Q 3500 2431 3484 2292 
Q 3469 2153 3438 1997 
z
M 2816 1759 
L 2241 1759 
Q 1534 1759 1195 1570 
Q 856 1381 856 984 
Q 856 709 1029 553 
Q 1203 397 1509 397 
Q 1978 397 2328 733 
Q 2678 1069 2791 1631 
L 2816 1759 
z
" transform="scale(0.015625)"/>
      <path id="DejaVuSans-Oblique-72" d="M 2853 2969 
Q 2766 3016 2653 3041 
Q 2541 3066 2413 3066 
Q 1953 3066 1609 2717 
Q 1266 2369 1153 1784 
L 800 0 
L 225 0 
L 909 3500 
L 1484 3500 
L 1375 2956 
Q 1603 3259 1920 3421 
Q 2238 3584 2597 3584 
Q 2691 3584 2781 3573 
Q 2872 3563 2963 3538 
L 2853 2969 
z
" transform="scale(0.015625)"/>
      <path id="DejaVuSans-Oblique-65" d="M 3078 2063 
Q 3088 2113 3092 2166 
Q 3097 2219 3097 2272 
Q 3097 2653 2873 2875 
Q 2650 3097 2266 3097 
Q 1838 3097 1509 2826 
Q 1181 2556 1013 2059 
L 3078 2063 
z
M 3578 1613 
L 903 1613 
Q 884 1494 878 1425 
Q 872 1356 872 1306 
Q 872 872 1139 634 
Q 1406 397 1894 397 
Q 2269 397 2603 481 
Q 2938 566 3225 728 
L 3116 159 
Q 2806 34 2476 -28 
Q 2147 -91 1806 -91 
Q 1078 -91 686 257 
Q 294 606 294 1247 
Q 294 1794 489 2264 
Q 684 2734 1063 3103 
Q 1306 3334 1642 3459 
Q 1978 3584 2356 3584 
Q 2950 3584 3301 3228 
Q 3653 2872 3653 2272 
Q 3653 2128 3634 1964 
Q 3616 1800 3578 1613 
z
" transform="scale(0.015625)"/>
      <path id="DejaVuSans-Oblique-20" transform="scale(0.015625)"/>
      <path id="DejaVuSans-Oblique-68" d="M 3566 2113 
L 3156 0 
L 2578 0 
L 2988 2091 
Q 3016 2238 3031 2350 
Q 3047 2463 3047 2528 
Q 3047 2791 2881 2937 
Q 2716 3084 2419 3084 
Q 1956 3084 1617 2771 
Q 1278 2459 1178 1941 
L 800 0 
L 225 0 
L 1172 4863 
L 1747 4863 
L 1375 2950 
Q 1594 3244 1934 3414 
Q 2275 3584 2650 3584 
Q 3113 3584 3367 3334 
Q 3622 3084 3622 2631 
Q 3622 2519 3608 2391 
Q 3594 2263 3566 2113 
z
" transform="scale(0.015625)"/>
      <path id="DejaVuSans-Oblique-64" d="M 2675 525 
Q 2444 222 2128 65 
Q 1813 -91 1428 -91 
Q 903 -91 598 267 
Q 294 625 294 1247 
Q 294 1766 478 2236 
Q 663 2706 1013 3078 
Q 1244 3325 1534 3454 
Q 1825 3584 2144 3584 
Q 2481 3584 2739 3421 
Q 2997 3259 3138 2956 
L 3513 4863 
L 4091 4863 
L 3144 0 
L 2566 0 
L 2675 525 
z
M 891 1350 
Q 891 897 1095 644 
Q 1300 391 1663 391 
Q 1931 391 2161 520 
Q 2391 650 2566 903 
Q 2750 1166 2856 1509 
Q 2963 1853 2963 2188 
Q 2963 2622 2758 2865 
Q 2553 3109 2194 3109 
Q 1922 3109 1687 2981 
Q 1453 2853 1288 2613 
Q 1106 2353 998 2009 
Q 891 1666 891 1350 
z
" transform="scale(0.015625)"/>
      <path id="DejaVuSans-Oblique-73" d="M 3200 3397 
L 3091 2853 
Q 2863 2978 2609 3040 
Q 2356 3103 2088 3103 
Q 1634 3103 1373 2948 
Q 1113 2794 1113 2528 
Q 1113 2219 1719 2053 
Q 1766 2041 1788 2034 
L 1972 1978 
Q 2547 1819 2739 1644 
Q 2931 1469 2931 1166 
Q 2931 609 2489 259 
Q 2047 -91 1331 -91 
Q 1053 -91 747 -37 
Q 441 16 72 128 
L 184 722 
Q 500 559 806 475 
Q 1113 391 1394 391 
Q 1816 391 2080 572 
Q 2344 753 2344 1031 
Q 2344 1331 1650 1516 
L 1591 1531 
L 1394 1581 
Q 956 1697 753 1886 
Q 550 2075 550 2369 
Q 550 2928 970 3256 
Q 1391 3584 2113 3584 
Q 2397 3584 2667 3537 
Q 2938 3491 3200 3397 
z
" transform="scale(0.015625)"/>
      <path id="DejaVuSans-Oblique-66" d="M 3059 4863 
L 2969 4384 
L 2419 4384 
Q 2106 4384 1964 4261 
Q 1822 4138 1753 3809 
L 1691 3500 
L 2638 3500 
L 2553 3053 
L 1606 3053 
L 1013 0 
L 434 0 
L 1031 3053 
L 481 3053 
L 563 3500 
L 1113 3500 
L 1159 3744 
Q 1278 4363 1576 4613 
Q 1875 4863 2516 4863 
L 3059 4863 
z
" transform="scale(0.015625)"/>
      <path id="DejaVuSans-Oblique-62" d="M 3169 2138 
Q 3169 2591 2961 2847 
Q 2753 3103 2388 3103 
Q 2122 3103 1889 2973 
Q 1656 2844 1484 2597 
Q 1303 2338 1198 1995 
Q 1094 1653 1094 1313 
Q 1094 881 1298 636 
Q 1503 391 1863 391 
Q 2134 391 2365 517 
Q 2597 644 2772 891 
Q 2950 1147 3059 1487 
Q 3169 1828 3169 2138 
z
M 1381 2969 
Q 1594 3256 1914 3420 
Q 2234 3584 2584 3584 
Q 3122 3584 3439 3221 
Q 3756 2859 3756 2241 
Q 3756 1734 3570 1259 
Q 3384 784 3041 416 
Q 2816 172 2522 40 
Q 2228 -91 1906 -91 
Q 1566 -91 1316 65 
Q 1066 222 909 531 
L 806 0 
L 231 0 
L 1178 4863 
L 1753 4863 
L 1381 2969 
z
" transform="scale(0.015625)"/>
      <path id="DejaVuSans-Oblique-74" d="M 2706 3500 
L 2619 3053 
L 1472 3053 
L 1100 1153 
Q 1081 1047 1072 975 
Q 1063 903 1063 863 
Q 1063 663 1183 572 
Q 1303 481 1569 481 
L 2150 481 
L 2053 0 
L 1503 0 
Q 991 0 739 200 
Q 488 400 488 806 
Q 488 878 497 964 
Q 506 1050 525 1153 
L 897 3053 
L 409 3053 
L 500 3500 
L 978 3500 
L 1172 4494 
L 1747 4494 
L 1556 3500 
L 2706 3500 
z
" transform="scale(0.015625)"/>
      <path id="DejaVuSans-Oblique-6c" d="M 1172 4863 
L 1747 4863 
L 800 0 
L 225 0 
L 1172 4863 
z
" transform="scale(0.015625)"/>
      <path id="DejaVuSans-Oblique-69" d="M 1172 4863 
L 1747 4863 
L 1606 4134 
L 1031 4134 
L 1172 4863 
z
M 909 3500 
L 1484 3500 
L 800 0 
L 225 0 
L 909 3500 
z
" transform="scale(0.015625)"/>
      <path id="DejaVuSans-Oblique-2c" d="M 575 794 
L 1234 794 
L 1131 256 
L 422 -744 
L 19 -744 
L 469 256 
L 575 794 
z
" transform="scale(0.015625)"/>
      <path id="DejaVuSans-Oblique-63" d="M 3431 3366 
L 3316 2797 
Q 3109 2947 2876 3022 
Q 2644 3097 2394 3097 
Q 2119 3097 1870 3000 
Q 1622 2903 1453 2725 
Q 1184 2453 1037 2087 
Q 891 1722 891 1331 
Q 891 859 1127 628 
Q 1363 397 1844 397 
Q 2081 397 2348 469 
Q 2616 541 2906 684 
L 2797 116 
Q 2547 13 2283 -39 
Q 2019 -91 1741 -91 
Q 1044 -91 669 257 
Q 294 606 294 1253 
Q 294 1797 489 2255 
Q 684 2713 1069 3078 
Q 1331 3328 1684 3456 
Q 2038 3584 2456 3584 
Q 2700 3584 2940 3529 
Q 3181 3475 3431 3366 
z
" transform="scale(0.015625)"/>
      <path id="DejaVuSans-Oblique-6b" d="M 1172 4863 
L 1747 4863 
L 1197 2028 
L 3169 3500 
L 3916 3500 
L 1716 1825 
L 3322 0 
L 2625 0 
L 1131 1709 
L 800 0 
L 225 0 
L 1172 4863 
z
" transform="scale(0.015625)"/>
      <path id="DejaVuSans-Oblique-76" d="M 459 3500 
L 1069 3500 
L 1581 525 
L 3256 3500 
L 3866 3500 
L 1875 0 
L 1100 0 
L 459 3500 
z
" transform="scale(0.015625)"/>
      <path id="DejaVuSans-Oblique-6e" d="M 3566 2113 
L 3156 0 
L 2578 0 
L 2988 2091 
Q 3016 2238 3031 2350 
Q 3047 2463 3047 2528 
Q 3047 2791 2881 2937 
Q 2716 3084 2419 3084 
Q 1956 3084 1622 2776 
Q 1288 2469 1184 1941 
L 800 0 
L 225 0 
L 903 3500 
L 1478 3500 
L 1363 2950 
Q 1603 3253 1940 3418 
Q 2278 3584 2650 3584 
Q 3113 3584 3367 3334 
Q 3622 3084 3622 2631 
Q 3622 2519 3608 2391 
Q 3594 2263 3566 2113 
z
" transform="scale(0.015625)"/>
     </defs>
     <use xlink:href="#DejaVuSans-Oblique-43"/>
     <use xlink:href="#DejaVuSans-Oblique-6f" transform="translate(69.824219 0)"/>
     <use xlink:href="#DejaVuSans-Oblique-6d" transform="translate(131.005859 0)"/>
     <use xlink:href="#DejaVuSans-Oblique-70" transform="translate(228.417969 0)"/>
     <use xlink:href="#DejaVuSans-Oblique-61" transform="translate(291.894531 0)"/>
     <use xlink:href="#DejaVuSans-Oblique-72" transform="translate(353.173828 0)"/>
     <use xlink:href="#DejaVuSans-Oblique-65" transform="translate(394.287109 0)"/>
     <use xlink:href="#DejaVuSans-Oblique-20" transform="translate(455.810547 0)"/>
     <use xlink:href="#DejaVuSans-Oblique-68" transform="translate(487.597656 0)"/>
     <use xlink:href="#DejaVuSans-Oblique-65" transform="translate(550.976562 0)"/>
     <use xlink:href="#DejaVuSans-Oblique-61" transform="translate(612.5 0)"/>
     <use xlink:href="#DejaVuSans-Oblique-64" transform="translate(673.779297 0)"/>
     <use xlink:href="#DejaVuSans-Oblique-73" transform="translate(737.255859 0)"/>
     <use xlink:href="#DejaVuSans-Oblique-20" transform="translate(789.355469 0)"/>
     <use xlink:href="#DejaVuSans-Oblique-6f" transform="translate(821.142578 0)"/>
     <use xlink:href="#DejaVuSans-Oblique-66" transform="translate(882.324219 0)"/>
     <use xlink:href="#DejaVuSans-Oblique-20" transform="translate(917.529297 0)"/>
     <use xlink:href="#DejaVuSans-Oblique-62" transform="translate(949.316406 0)"/>
     <use xlink:href="#DejaVuSans-Oblique-6f" transform="translate(1012.792969 0)"/>
     <use xlink:href="#DejaVuSans-Oblique-74" transform="translate(1073.974609 0)"/>
     <use xlink:href="#DejaVuSans-Oblique-68" transform="translate(1113.183594 0)"/>
     <use xlink:href="#DejaVuSans-Oblique-20" transform="translate(1176.5625 0)"/>
     <use xlink:href="#DejaVuSans-Oblique-6c" transform="translate(1208.349609 0)"/>
     <use xlink:href="#DejaVuSans-Oblique-69" transform="translate(1236.132812 0)"/>
     <use xlink:href="#DejaVuSans-Oblique-73" transform="translate(1263.916016 0)"/>
     <use xlink:href="#DejaVuSans-Oblique-74" transform="translate(1316.015625 0)"/>
     <use xlink:href="#DejaVuSans-Oblique-73" transform="translate(1355.224609 0)"/>
     <use xlink:href="#DejaVuSans-Oblique-2c" transform="translate(1407.324219 0)"/>
     <use xlink:href="#DejaVuSans-Oblique-20" transform="translate(1439.111328 0)"/>
     <use xlink:href="#DejaVuSans-Oblique-70" transform="translate(1470.898438 0)"/>
     <use xlink:href="#DejaVuSans-Oblique-69" transform="translate(1534.375 0)"/>
     <use xlink:href="#DejaVuSans-Oblique-63" transform="translate(1562.158203 0)"/>
     <use xlink:href="#DejaVuSans-Oblique-6b" transform="translate(1617.138672 0)"/>
     <use xlink:href="#DejaVuSans-Oblique-20" transform="translate(1675.048828 0)"/>
     <use xlink:href="#DejaVuSans-Oblique-74" transform="translate(1706.835938 0)"/>
     <use xlink:href="#DejaVuSans-Oblique-68" transform="translate(1746.044922 0)"/>
     <use xlink:href="#DejaVuSans-Oblique-65" transform="translate(1809.423828 0)"/>
     <use xlink:href="#DejaVuSans-Oblique-20" transform="translate(1870.947266 0)"/>
     <use xlink:href="#DejaVuSans-Oblique-73" transform="translate(1902.734375 0)"/>
     <use xlink:href="#DejaVuSans-Oblique-6d" transform="translate(1954.833984 0)"/>
     <use xlink:href="#DejaVuSans-Oblique-61" transform="translate(2052.246094 0)"/>
     <use xlink:href="#DejaVuSans-Oblique-6c" transform="translate(2113.525391 0)"/>
     <use xlink:href="#DejaVuSans-Oblique-6c" transform="translate(2141.308594 0)"/>
     <use xlink:href="#DejaVuSans-Oblique-65" transform="translate(2169.091797 0)"/>
     <use xlink:href="#DejaVuSans-Oblique-72" transform="translate(2230.615234 0)"/>
     <use xlink:href="#DejaVuSans-Oblique-2c" transform="translate(2262.603516 0)"/>
     <use xlink:href="#DejaVuSans-Oblique-20" transform="translate(2294.390625 0)"/>
     <use xlink:href="#DejaVuSans-Oblique-61" transform="translate(2326.177734 0)"/>
     <use xlink:href="#DejaVuSans-Oblique-64" transform="translate(2387.457031 0)"/>
     <use xlink:href="#DejaVuSans-Oblique-76" transform="translate(2450.933594 0)"/>
     <use xlink:href="#DejaVuSans-Oblique-61" transform="translate(2510.113281 0)"/>
     <use xlink:href="#DejaVuSans-Oblique-6e" transform="translate(2571.392578 0)"/>
     <use xlink:href="#DejaVuSans-Oblique-63" transform="translate(2634.771484 0)"/>
     <use xlink:href="#DejaVuSans-Oblique-65" transform="translate(2689.751953 0)"/>
     <use xlink:href="#DejaVuSans-Oblique-20" transform="translate(2751.275391 0)"/>
     <use xlink:href="#DejaVuSans-Oblique-74" transform="translate(2783.0625 0)"/>
     <use xlink:href="#DejaVuSans-Oblique-68" transform="translate(2822.271484 0)"/>
     <use xlink:href="#DejaVuSans-Oblique-61" transform="translate(2885.650391 0)"/>
     <use xlink:href="#DejaVuSans-Oblique-74" transform="translate(2946.929688 0)"/>
     <use xlink:href="#DejaVuSans-Oblique-20" transform="translate(2986.138672 0)"/>
     <use xlink:href="#DejaVuSans-Oblique-70" transform="translate(3017.925781 0)"/>
     <use xlink:href="#DejaVuSans-Oblique-6f" transform="translate(3081.402344 0)"/>
     <use xlink:href="#DejaVuSans-Oblique-69" transform="translate(3142.583984 0)"/>
     <use xlink:href="#DejaVuSans-Oblique-6e" transform="translate(3170.367188 0)"/>
     <use xlink:href="#DejaVuSans-Oblique-74" transform="translate(3233.746094 0)"/>
     <use xlink:href="#DejaVuSans-Oblique-65" transform="translate(3272.955078 0)"/>
     <use xlink:href="#DejaVuSans-Oblique-72" transform="translate(3334.478516 0)"/>
    </g>
   </g>
   <g id="text_17">
    <!-- Merge Two Sorted Lists — l1=[1,2,4], l2=[1,3,4] -->
    <g transform="translate(114.63375 16.318125) scale(0.12 -0.12)">
     <defs>
      <path id="DejaVuSans-4d" d="M 628 4666 
L 1569 4666 
L 2759 1491 
L 3956 4666 
L 4897 4666 
L 4897 0 
L 4281 0 
L 4281 4097 
L 3078 897 
L 2444 897 
L 1241 4097 
L 1241 0 
L 628 0 
L 628 4666 
z
" transform="scale(0.015625)"/>
      <path id="DejaVuSans-65" d="M 3597 1894 
L 3597 1613 
L 953 1613 
Q 991 1019 1311 708 
Q 1631 397 2203 397 
Q 2534 397 2845 478 
Q 3156 559 3463 722 
L 3463 178 
Q 3153 47 2828 -22 
Q 2503 -91 2169 -91 
Q 1331 -91 842 396 
Q 353 884 353 1716 
Q 353 2575 817 3079 
Q 1281 3584 2069 3584 
Q 2775 3584 3186 3129 
Q 3597 2675 3597 1894 
z
M 3022 2063 
Q 3016 2534 2758 2815 
Q 2500 3097 2075 3097 
Q 1594 3097 1305 2825 
Q 1016 2553 972 2059 
L 3022 2063 
z
" transform="scale(0.015625)"/>
      <path id="DejaVuSans-72" d="M 2631 2963 
Q 2534 3019 2420 3045 
Q 2306 3072 2169 3072 
Q 1681 3072 1420 2755 
Q 1159 2438 1159 1844 
L 1159 0 
L 581 0 
L 581 3500 
L 1159 3500 
L 1159 2956 
Q 1341 3275 1631 3429 
Q 1922 3584 2338 3584 
Q 2397 3584 2469 3576 
Q 2541 3569 2628 3553 
L 2631 2963 
z
" transform="scale(0.015625)"/>
      <path id="DejaVuSans-67" d="M 2906 1791 
Q 2906 2416 2648 2759 
Q 2391 3103 1925 3103 
Q 1463 3103 1205 2759 
Q 947 2416 947 1791 
Q 947 1169 1205 825 
Q 1463 481 1925 481 
Q 2391 481 2648 825 
Q 2906 1169 2906 1791 
z
M 3481 434 
Q 3481 -459 3084 -895 
Q 2688 -1331 1869 -1331 
Q 1566 -1331 1297 -1286 
Q 1028 -1241 775 -1147 
L 775 -588 
Q 1028 -725 1275 -790 
Q 1522 -856 1778 -856 
Q 2344 -856 2625 -561 
Q 2906 -266 2906 331 
L 2906 616 
Q 2728 306 2450 153 
Q 2172 0 1784 0 
Q 1141 0 747 490 
Q 353 981 353 1791 
Q 353 2603 747 3093 
Q 1141 3584 1784 3584 
Q 2172 3584 2450 3431 
Q 2728 3278 2906 2969 
L 2906 3500 
L 3481 3500 
L 3481 434 
z
" transform="scale(0.015625)"/>
      <path id="DejaVuSans-20" transform="scale(0.015625)"/>
      <path id="DejaVuSans-54" d="M -19 4666 
L 3928 4666 
L 3928 4134 
L 2272 4134 
L 2272 0 
L 1638 0 
L 1638 4134 
L -19 4134 
L -19 4666 
z
" transform="scale(0.015625)"/>
      <path id="DejaVuSans-77" d="M 269 3500 
L 844 3500 
L 1563 769 
L 2278 3500 
L 2956 3500 
L 3675 769 
L 4391 3500 
L 4966 3500 
L 4050 0 
L 3372 0 
L 2619 2869 
L 1863 0 
L 1184 0 
L 269 3500 
z
" transform="scale(0.015625)"/>
      <path id="DejaVuSans-6f" d="M 1959 3097 
Q 1497 3097 1228 2736 
Q 959 2375 959 1747 
Q 959 1119 1226 758 
Q 1494 397 1959 397 
Q 2419 397 2687 759 
Q 2956 1122 2956 1747 
Q 2956 2369 2687 2733 
Q 2419 3097 1959 3097 
z
M 1959 3584 
Q 2709 3584 3137 3096 
Q 3566 2609 3566 1747 
Q 3566 888 3137 398 
Q 2709 -91 1959 -91 
Q 1206 -91 779 398 
Q 353 888 353 1747 
Q 353 2609 779 3096 
Q 1206 3584 1959 3584 
z
" transform="scale(0.015625)"/>
      <path id="DejaVuSans-53" d="M 3425 4513 
L 3425 3897 
Q 3066 4069 2747 4153 
Q 2428 4238 2131 4238 
Q 1616 4238 1336 4038 
Q 1056 3838 1056 3469 
Q 1056 3159 1242 3001 
Q 1428 2844 1947 2747 
L 2328 2669 
Q 3034 2534 3370 2195 
Q 3706 1856 3706 1288 
Q 3706 609 3251 259 
Q 2797 -91 1919 -91 
Q 1588 -91 1214 -16 
Q 841 59 441 206 
L 441 856 
Q 825 641 1194 531 
Q 1563 422 1919 422 
Q 2459 422 2753 634 
Q 3047 847 3047 1241 
Q 3047 1584 2836 1778 
Q 2625 1972 2144 2069 
L 1759 2144 
Q 1053 2284 737 2584 
Q 422 2884 422 3419 
Q 422 4038 858 4394 
Q 1294 4750 2059 4750 
Q 2388 4750 2728 4690 
Q 3069 4631 3425 4513 
z
" transform="scale(0.015625)"/>
      <path id="DejaVuSans-74" d="M 1172 4494 
L 1172 3500 
L 2356 3500 
L 2356 3053 
L 1172 3053 
L 1172 1153 
Q 1172 725 1289 603 
Q 1406 481 1766 481 
L 2356 481 
L 2356 0 
L 1766 0 
Q 1100 0 847 248 
Q 594 497 594 1153 
L 594 3053 
L 172 3053 
L 172 3500 
L 594 3500 
L 594 4494 
L 1172 4494 
z
" transform="scale(0.015625)"/>
      <path id="DejaVuSans-64" d="M 2906 2969 
L 2906 4863 
L 3481 4863 
L 3481 0 
L 2906 0 
L 2906 525 
Q 2725 213 2448 61 
Q 2172 -91 1784 -91 
Q 1150 -91 751 415 
Q 353 922 353 1747 
Q 353 2572 751 3078 
Q 1150 3584 1784 3584 
Q 2172 3584 2448 3432 
Q 2725 3281 2906 2969 
z
M 947 1747 
Q 947 1113 1208 752 
Q 1469 391 1925 391 
Q 2381 391 2643 752 
Q 2906 1113 2906 1747 
Q 2906 2381 2643 2742 
Q 2381 3103 1925 3103 
Q 1469 3103 1208 2742 
Q 947 2381 947 1747 
z
" transform="scale(0.015625)"/>
      <path id="DejaVuSans-4c" d="M 628 4666 
L 1259 4666 
L 1259 531 
L 3531 531 
L 3531 0 
L 628 0 
L 628 4666 
z
" transform="scale(0.015625)"/>
      <path id="DejaVuSans-69" d="M 603 3500 
L 1178 3500 
L 1178 0 
L 603 0 
L 603 3500 
z
M 603 4863 
L 1178 4863 
L 1178 4134 
L 603 4134 
L 603 4863 
z
" transform="scale(0.015625)"/>
      <path id="DejaVuSans-73" d="M 2834 3397 
L 2834 2853 
Q 2591 2978 2328 3040 
Q 2066 3103 1784 3103 
Q 1356 3103 1142 2972 
Q 928 2841 928 2578 
Q 928 2378 1081 2264 
Q 1234 2150 1697 2047 
L 1894 2003 
Q 2506 1872 2764 1633 
Q 3022 1394 3022 966 
Q 3022 478 2636 193 
Q 2250 -91 1575 -91 
Q 1294 -91 989 -36 
Q 684 19 347 128 
L 347 722 
Q 666 556 975 473 
Q 1284 391 1588 391 
Q 1994 391 2212 530 
Q 2431 669 2431 922 
Q 2431 1156 2273 1281 
Q 2116 1406 1581 1522 
L 1381 1569 
Q 847 1681 609 1914 
Q 372 2147 372 2553 
Q 372 3047 722 3315 
Q 1072 3584 1716 3584 
Q 2034 3584 2315 3537 
Q 2597 3491 2834 3397 
z
" transform="scale(0.015625)"/>
      <path id="DejaVuSans-2014" d="M 313 1978 
L 6088 1978 
L 6088 1528 
L 313 1528 
L 313 1978 
z
" transform="scale(0.015625)"/>
      <path id="DejaVuSans-6c" d="M 603 4863 
L 1178 4863 
L 1178 0 
L 603 0 
L 603 4863 
z
" transform="scale(0.015625)"/>
      <path id="DejaVuSans-31" d="M 794 531 
L 1825 531 
L 1825 4091 
L 703 3866 
L 703 4441 
L 1819 4666 
L 2450 4666 
L 2450 531 
L 3481 531 
L 3481 0 
L 794 0 
L 794 531 
z
" transform="scale(0.015625)"/>
      <path id="DejaVuSans-3d" d="M 678 2906 
L 4684 2906 
L 4684 2381 
L 678 2381 
L 678 2906 
z
M 678 1631 
L 4684 1631 
L 4684 1100 
L 678 1100 
L 678 1631 
z
" transform="scale(0.015625)"/>
      <path id="DejaVuSans-5b" d="M 550 4863 
L 1875 4863 
L 1875 4416 
L 1125 4416 
L 1125 -397 
L 1875 -397 
L 1875 -844 
L 550 -844 
L 550 4863 
z
" transform="scale(0.015625)"/>
      <path id="DejaVuSans-2c" d="M 750 794 
L 1409 794 
L 1409 256 
L 897 -744 
L 494 -744 
L 750 256 
L 750 794 
z
" transform="scale(0.015625)"/>
      <path id="DejaVuSans-32" d="M 1228 531 
L 3431 531 
L 3431 0 
L 469 0 
L 469 531 
Q 828 903 1448 1529 
Q 2069 2156 2228 2338 
Q 2531 2678 2651 2914 
Q 2772 3150 2772 3378 
Q 2772 3750 2511 3984 
Q 2250 4219 1831 4219 
Q 1534 4219 1204 4116 
Q 875 4013 500 3803 
L 500 4441 
Q 881 4594 1212 4672 
Q 1544 4750 1819 4750 
Q 2544 4750 2975 4387 
Q 3406 4025 3406 3419 
Q 3406 3131 3298 2873 
Q 3191 2616 2906 2266 
Q 2828 2175 2409 1742 
Q 1991 1309 1228 531 
z
" transform="scale(0.015625)"/>
      <path id="DejaVuSans-34" d="M 2419 4116 
L 825 1625 
L 2419 1625 
L 2419 4116 
z
M 2253 4666 
L 3047 4666 
L 3047 1625 
L 3713 1625 
L 3713 1100 
L 3047 1100 
L 3047 0 
L 2419 0 
L 2419 1100 
L 313 1100 
L 313 1709 
L 2253 4666 
z
" transform="scale(0.015625)"/>
      <path id="DejaVuSans-5d" d="M 1947 4863 
L 1947 -844 
L 622 -844 
L 622 -397 
L 1369 -397 
L 1369 4416 
L 622 4416 
L 622 4863 
L 1947 4863 
z
" transform="scale(0.015625)"/>
      <path id="DejaVuSans-33" d="M 2597 2516 
Q 3050 2419 3304 2112 
Q 3559 1806 3559 1356 
Q 3559 666 3084 287 
Q 2609 -91 1734 -91 
Q 1441 -91 1130 -33 
Q 819 25 488 141 
L 488 750 
Q 750 597 1062 519 
Q 1375 441 1716 441 
Q 2309 441 2620 675 
Q 2931 909 2931 1356 
Q 2931 1769 2642 2001 
Q 2353 2234 1838 2234 
L 1294 2234 
L 1294 2753 
L 1863 2753 
Q 2328 2753 2575 2939 
Q 2822 3125 2822 3475 
Q 2822 3834 2567 4026 
Q 2313 4219 1838 4219 
Q 1578 4219 1281 4162 
Q 984 4106 628 3988 
L 628 4550 
Q 988 4650 1302 4700 
Q 1616 4750 1894 4750 
Q 2613 4750 3031 4423 
Q 3450 4097 3450 3541 
Q 3450 3153 3228 2886 
Q 3006 2619 2597 2516 
z
" transform="scale(0.015625)"/>
     </defs>
     <use xlink:href="#DejaVuSans-4d"/>
     <use xlink:href="#DejaVuSans-65" transform="translate(86.279297 0)"/>
     <use xlink:href="#DejaVuSans-72" transform="translate(147.802734 0)"/>
     <use xlink:href="#DejaVuSans-67" transform="translate(187.166016 0)"/>
     <use xlink:href="#DejaVuSans-65" transform="translate(250.642578 0)"/>
     <use xlink:href="#DejaVuSans-20" transform="translate(312.166016 0)"/>
     <use xlink:href="#DejaVuSans-54" transform="translate(343.953125 0)"/>
     <use xlink:href="#DejaVuSans-77" transform="translate(388.537109 0)"/>
     <use xlink:href="#DejaVuSans-6f" transform="translate(470.324219 0)"/>
     <use xlink:href="#DejaVuSans-20" transform="translate(531.505859 0)"/>
     <use xlink:href="#DejaVuSans-53" transform="translate(563.292969 0)"/>
     <use xlink:href="#DejaVuSans-6f" transform="translate(626.769531 0)"/>
     <use xlink:href="#DejaVuSans-72" transform="translate(687.951172 0)"/>
     <use xlink:href="#DejaVuSans-74" transform="translate(729.064453 0)"/>
     <use xlink:href="#DejaVuSans-65" transform="translate(768.273438 0)"/>
     <use xlink:href="#DejaVuSans-64" transform="translate(829.796875 0)"/>
     <use xlink:href="#DejaVuSans-20" transform="translate(893.273438 0)"/>
     <use xlink:href="#DejaVuSans-4c" transform="translate(925.060547 0)"/>
     <use xlink:href="#DejaVuSans-69" transform="translate(980.773438 0)"/>
     <use xlink:href="#DejaVuSans-73" transform="translate(1008.556641 0)"/>
     <use xlink:href="#DejaVuSans-74" transform="translate(1060.65625 0)"/>
     <use xlink:href="#DejaVuSans-73" transform="translate(1099.865234 0)"/>
     <use xlink:href="#DejaVuSans-20" transform="translate(1151.964844 0)"/>
     <use xlink:href="#DejaVuSans-2014" transform="translate(1183.751953 0)"/>
     <use xlink:href="#DejaVuSans-20" transform="translate(1283.751953 0)"/>
     <use xlink:href="#DejaVuSans-6c" transform="translate(1315.539062 0)"/>
     <use xlink:href="#DejaVuSans-31" transform="translate(1343.322266 0)"/>
     <use xlink:href="#DejaVuSans-3d" transform="translate(1406.945312 0)"/>
     <use xlink:href="#DejaVuSans-5b" transform="translate(1490.734375 0)"/>
     <use xlink:href="#DejaVuSans-31" transform="translate(1529.748047 0)"/>
     <use xlink:href="#DejaVuSans-2c" transform="translate(1593.371094 0)"/>
     <use xlink:href="#DejaVuSans-32" transform="translate(1625.158203 0)"/>
     <use xlink:href="#DejaVuSans-2c" transform="translate(1688.78125 0)"/>
     <use xlink:href="#DejaVuSans-34" transform="translate(1720.568359 0)"/>
     <use xlink:href="#DejaVuSans-5d" transform="translate(1784.191406 0)"/>
     <use xlink:href="#DejaVuSans-2c" transform="translate(1823.205078 0)"/>
     <use xlink:href="#DejaVuSans-20" transform="translate(1854.992188 0)"/>
     <use xlink:href="#DejaVuSans-6c" transform="translate(1886.779297 0)"/>
     <use xlink:href="#DejaVuSans-32" transform="translate(1914.5625 0)"/>
     <use xlink:href="#DejaVuSans-3d" transform="translate(1978.185547 0)"/>
     <use xlink:href="#DejaVuSans-5b" transform="translate(2061.974609 0)"/>
     <use xlink:href="#DejaVuSans-31" transform="translate(2100.988281 0)"/>
     <use xlink:href="#DejaVuSans-2c" transform="translate(2164.611328 0)"/>
     <use xlink:href="#DejaVuSans-33" transform="translate(2196.398438 0)"/>
     <use xlink:href="#DejaVuSans-2c" transform="translate(2260.021484 0)"/>
     <use xlink:href="#DejaVuSans-34" transform="translate(2291.808594 0)"/>
     <use xlink:href="#DejaVuSans-5d" transform="translate(2355.431641 0)"/>
    </g>
   </g>
  </g>
 </g>
 <defs>
  <clipPath id="pc8d6884f02">
   <rect x="7.2" y="30.318125" width="502.2" height="249.48"/>
  </clipPath>
 </defs>
</svg>
