<?xml version="1.0" encoding="utf-8" standalone="no"?>
<!DOCTYPE svg PUBLIC "-//W3C//DTD SVG 1.1//EN"
  "http://www.w3.org/Graphics/SVG/1.1/DTD/svg11.dtd">
<svg xmlns:xlink="http://www.w3.org/1999/xlink" width="516.6pt" height="259.278125pt" viewBox="0 0 516.6 259.278125" xmlns="http://www.w3.org/2000/svg" version="1.1">
 <metadata>
  <rdf:RDF xmlns:dc="http://purl.org/dc/elements/1.1/" xmlns:cc="http://creativecommons.org/ns#" xmlns:rdf="http://www.w3.org/1999/02/22-rdf-syntax-ns#">
   <cc:Work>
    <dc:type rdf:resource="http://purl.org/dc/dcmitype/StillImage"/>
    <dc:date>2026-07-04T14:20:19.527040</dc:date>
    <dc:format>image/svg+xml</dc:format>
    <dc:creator>
     <cc:Agent>
      <dc:title>Matplotlib v3.10.8, https://matplotlib.org/</dc:title>
     </cc:Agent>
    </dc:creator>
   </cc:Work>
  </rdf:RDF>
 </metadata>
 <defs>
  <style type="text/css">*{stroke-linejoin: round; stroke-linecap: butt}</style>
 </defs>
 <g id="figure_1">
  <g id="patch_1">
   <path d="M 0 259.278125 
L 516.6 259.278125 
L 516.6 0 
L 0 0 
z
" style="fill: #fafaf9"/>
  </g>
  <g id="axes_1">
   <g id="patch_2">
    <path d="M 44.294318 114.586925 
C 46.564517 114.586925 48.74204 113.885944 50.347313 112.638365 
C 51.952586 111.390786 52.854545 109.698468 52.854545 107.934125 
C 52.854545 106.169782 51.952586 104.477464 50.347313 103.229885 
C 48.74204 101.982306 46.564517 101.281325 44.294318 101.281325 
C 42.024119 101.281325 39.846596 101.982306 38.241323 103.229885 
C 36.63605 104.477464 35.734091 106.169782 35.734091 107.934125 
C 35.734091 109.698468 36.63605 111.390786 38.241323 112.638365 
C 39.846596 113.885944 42.024119 114.586925 44.294318 114.586925 
z
" clip-path="url(#pb20819072b)" style="fill: #f4f4f4; stroke: #666666; stroke-width: 1.2; stroke-linejoin: miter"/>
   </g>
   <g id="text_1">
    <!-- t=1 -->
    <g style="fill: #555555" transform="translate(36.829318 91.302125) scale(0.08 -0.08)">
     <defs>
      <path id="DejaVuSans-74" d="M 1172 4494 
L 1172 3500 
L 2356 3500 
L 2356 3053 
L 1172 3053 
L 1172 1153 
Q 1172 725 1289 603 
Q 1406 481 1766 481 
L 2356 481 
L 2356 0 
L 1766 0 
Q 1100 0 847 248 
Q 594 497 594 1153 
L 594 3053 
L 172 3053 
L 172 3500 
L 594 3500 
L 594 4494 
L 1172 4494 
z
" transform="scale(0.015625)"/>
      <path id="DejaVuSans-3d" d="M 678 2906 
L 4684 2906 
L 4684 2381 
L 678 2381 
L 678 2906 
z
M 678 1631 
L 4684 1631 
L 4684 1100 
L 678 1100 
L 678 1631 
z
" transform="scale(0.015625)"/>
      <path id="DejaVuSans-31" d="M 794 531 
L 1825 531 
L 1825 4091 
L 703 3866 
L 703 4441 
L 1819 4666 
L 2450 4666 
L 2450 531 
L 3481 531 
L 3481 0 
L 794 0 
L 794 531 
z
" transform="scale(0.015625)"/>
     </defs>
     <use xlink:href="#DejaVuSans-74"/>
     <use xlink:href="#DejaVuSans-3d" transform="translate(39.208984 0)"/>
     <use xlink:href="#DejaVuSans-31" transform="translate(122.998047 0)"/>
    </g>
   </g>
   <g id="patch_3">
    <path d="M 45.721023 114.586925 
C 47.991222 114.586925 50.168745 113.885944 51.774017 112.638365 
C 53.37929 111.390786 54.28125 109.698468 54.28125 107.934125 
C 54.28125 106.169782 53.37929 104.477464 51.774017 103.229885 
C 50.168745 101.982306 47.991222 101.281325 45.721023 101.281325 
C 43.450824 101.281325 41.273301 101.982306 39.668028 103.229885 
C 38.062755 104.477464 37.160795 106.169782 37.160795 107.934125 
C 37.160795 109.698468 38.062755 111.390786 39.668028 112.638365 
C 41.273301 113.885944 43.450824 114.586925 45.721023 114.586925 
z
" clip-path="url(#pb20819072b)" style="fill: #f4f4f4; stroke: #666666; stroke-width: 1.2; stroke-linejoin: miter"/>
   </g>
   <g id="text_2">
    <!-- t=2 -->
    <g style="fill: #555555" transform="translate(38.256023 91.302125) scale(0.08 -0.08)">
     <defs>
      <path id="DejaVuSans-32" d="M 1228 531 
L 3431 531 
L 3431 0 
L 469 0 
L 469 531 
Q 828 903 1448 1529 
Q 2069 2156 2228 2338 
Q 2531 2678 2651 2914 
Q 2772 3150 2772 3378 
Q 2772 3750 2511 3984 
Q 2250 4219 1831 4219 
Q 1534 4219 1204 4116 
Q 875 4013 500 3803 
L 500 4441 
Q 881 4594 1212 4672 
Q 1544 4750 1819 4750 
Q 2544 4750 2975 4387 
Q 3406 4025 3406 3419 
Q 3406 3131 3298 2873 
Q 3191 2616 2906 2266 
Q 2828 2175 2409 1742 
Q 1991 1309 1228 531 
z
" transform="scale(0.015625)"/>
     </defs>
     <use xlink:href="#DejaVuSans-74"/>
     <use xlink:href="#DejaVuSans-3d" transform="translate(39.208984 0)"/>
     <use xlink:href="#DejaVuSans-32" transform="translate(122.998047 0)"/>
    </g>
   </g>
   <g id="patch_4">
    <path d="M 47.147727 114.586925 
C 49.417926 114.586925 51.595449 113.885944 53.200722 112.638365 
C 54.805995 111.390786 55.707955 109.698468 55.707955 107.934125 
C 55.707955 106.169782 54.805995 104.477464 53.200722 103.229885 
C 51.595449 101.982306 49.417926 101.281325 47.147727 101.281325 
C 44.877528 101.281325 42.700005 101.982306 41.094733 103.229885 
C 39.48946 104.477464 38.5875 106.169782 38.5875 107.934125 
C 38.5875 109.698468 39.48946 111.390786 41.094733 112.638365 
C 42.700005 113.885944 44.877528 114.586925 47.147727 114.586925 
z
" clip-path="url(#pb20819072b)" style="fill: #c8e6c9; stroke: #666666; stroke-width: 1.2; stroke-linejoin: miter"/>
   </g>
   <g id="text_3">
    <!-- t=3 -->
    <g style="fill: #555555" transform="translate(39.682727 91.302125) scale(0.08 -0.08)">
     <defs>
      <path id="DejaVuSans-33" d="M 2597 2516 
Q 3050 2419 3304 2112 
Q 3559 1806 3559 1356 
Q 3559 666 3084 287 
Q 2609 -91 1734 -91 
Q 1441 -91 1130 -33 
Q 819 25 488 141 
L 488 750 
Q 750 597 1062 519 
Q 1375 441 1716 441 
Q 2309 441 2620 675 
Q 2931 909 2931 1356 
Q 2931 1769 2642 2001 
Q 2353 2234 1838 2234 
L 1294 2234 
L 1294 2753 
L 1863 2753 
Q 2328 2753 2575 2939 
Q 2822 3125 2822 3475 
Q 2822 3834 2567 4026 
Q 2313 4219 1838 4219 
Q 1578 4219 1281 4162 
Q 984 4106 628 3988 
L 628 4550 
Q 988 4650 1302 4700 
Q 1616 4750 1894 4750 
Q 2613 4750 3031 4423 
Q 3450 4097 3450 3541 
Q 3450 3153 3228 2886 
Q 3006 2619 2597 2516 
z
" transform="scale(0.015625)"/>
     </defs>
     <use xlink:href="#DejaVuSans-74"/>
     <use xlink:href="#DejaVuSans-3d" transform="translate(39.208984 0)"/>
     <use xlink:href="#DejaVuSans-33" transform="translate(122.998047 0)"/>
    </g>
   </g>
   <g id="patch_5">
    <path d="M 470.878977 114.586925 
C 473.149176 114.586925 475.326699 113.885944 476.931972 112.638365 
C 478.537245 111.390786 479.439205 109.698468 479.439205 107.934125 
C 479.439205 106.169782 478.537245 104.477464 476.931972 103.229885 
C 475.326699 101.982306 473.149176 101.281325 470.878977 101.281325 
C 468.608778 101.281325 466.431255 101.982306 464.825983 103.229885 
C 463.22071 104.477464 462.31875 106.169782 462.31875 107.934125 
C 462.31875 109.698468 463.22071 111.390786 464.825983 112.638365 
C 466.431255 113.885944 468.608778 114.586925 470.878977 114.586925 
z
" clip-path="url(#pb20819072b)" style="fill: #c8e6c9; stroke: #666666; stroke-width: 1.2; stroke-linejoin: miter"/>
   </g>
   <g id="text_4">
    <!-- t=300 -->
    <g style="fill: #555555" transform="translate(458.323977 91.302125) scale(0.08 -0.08)">
     <defs>
      <path id="DejaVuSans-30" d="M 2034 4250 
Q 1547 4250 1301 3770 
Q 1056 3291 1056 2328 
Q 1056 1369 1301 889 
Q 1547 409 2034 409 
Q 2525 409 2770 889 
Q 3016 1369 3016 2328 
Q 3016 3291 2770 3770 
Q 2525 4250 2034 4250 
z
M 2034 4750 
Q 2819 4750 3233 4129 
Q 3647 3509 3647 2328 
Q 3647 1150 3233 529 
Q 2819 -91 2034 -91 
Q 1250 -91 836 529 
Q 422 1150 422 2328 
Q 422 3509 836 4129 
Q 1250 4750 2034 4750 
z
" transform="scale(0.015625)"/>
     </defs>
     <use xlink:href="#DejaVuSans-74"/>
     <use xlink:href="#DejaVuSans-3d" transform="translate(39.208984 0)"/>
     <use xlink:href="#DejaVuSans-33" transform="translate(122.998047 0)"/>
     <use xlink:href="#DejaVuSans-30" transform="translate(186.621094 0)"/>
     <use xlink:href="#DejaVuSans-30" transform="translate(250.244141 0)"/>
    </g>
   </g>
   <g id="patch_6">
    <path d="M 472.305682 114.586925 
C 474.575881 114.586925 476.753404 113.885944 478.358677 112.638365 
C 479.96395 111.390786 480.865909 109.698468 480.865909 107.934125 
C 480.865909 106.169782 479.96395 104.477464 478.358677 103.229885 
C 476.753404 101.982306 474.575881 101.281325 472.305682 101.281325 
C 470.035483 101.281325 467.85796 101.982306 466.252687 103.229885 
C 464.647414 104.477464 463.745455 106.169782 463.745455 107.934125 
C 463.745455 109.698468 464.647414 111.390786 466.252687 112.638365 
C 467.85796 113.885944 470.035483 114.586925 472.305682 114.586925 
z
" clip-path="url(#pb20819072b)" style="fill: #c8e6c9; stroke: #666666; stroke-width: 1.2; stroke-linejoin: miter"/>
   </g>
   <g id="text_5">
    <!-- t=301 -->
    <g style="fill: #555555" transform="translate(459.750682 91.302125) scale(0.08 -0.08)">
     <use xlink:href="#DejaVuSans-74"/>
     <use xlink:href="#DejaVuSans-3d" transform="translate(39.208984 0)"/>
     <use xlink:href="#DejaVuSans-33" transform="translate(122.998047 0)"/>
     <use xlink:href="#DejaVuSans-30" transform="translate(186.621094 0)"/>
     <use xlink:href="#DejaVuSans-31" transform="translate(250.244141 0)"/>
    </g>
   </g>
   <g id="patch_7">
    <path d="M 473.732386 114.586925 
C 476.002585 114.586925 478.180108 113.885944 479.785381 112.638365 
C 481.390654 111.390786 482.292614 109.698468 482.292614 107.934125 
C 482.292614 106.169782 481.390654 104.477464 479.785381 103.229885 
C 478.180108 101.982306 476.002585 101.281325 473.732386 101.281325 
C 471.462188 101.281325 469.284665 101.982306 467.679392 103.229885 
C 466.074119 104.477464 465.172159 106.169782 465.172159 107.934125 
C 465.172159 109.698468 466.074119 111.390786 467.679392 112.638365 
C 469.284665 113.885944 471.462188 114.586925 473.732386 114.586925 
z
" clip-path="url(#pb20819072b)" style="fill: #c8e6c9; stroke: #666666; stroke-width: 1.2; stroke-linejoin: miter"/>
   </g>
   <g id="text_6">
    <!-- t=302 -->
    <g style="fill: #555555" transform="translate(461.177386 91.302125) scale(0.08 -0.08)">
     <use xlink:href="#DejaVuSans-74"/>
     <use xlink:href="#DejaVuSans-3d" transform="translate(39.208984 0)"/>
     <use xlink:href="#DejaVuSans-33" transform="translate(122.998047 0)"/>
     <use xlink:href="#DejaVuSans-30" transform="translate(186.621094 0)"/>
     <use xlink:href="#DejaVuSans-32" transform="translate(250.244141 0)"/>
    </g>
   </g>
   <g id="patch_8">
    <path d="M 50.93815 130.110125 
Q 260.441513 130.110125 469.944877 130.110125 
" style="fill: none; stroke: #1e8449; stroke-width: 1.6; stroke-linecap: round"/>
    <path d="M 54.93815 132.110125 
L 50.93815 130.110125 
L 54.93815 128.110125 
" style="fill: none; stroke: #1e8449; stroke-width: 1.6; stroke-linecap: round"/>
    <path d="M 465.944877 128.110125 
L 469.944877 130.110125 
L 465.944877 132.110125 
" style="fill: none; stroke: #1e8449; stroke-width: 1.6; stroke-linecap: round"/>
   </g>
   <g id="text_7">
    <!-- valid window: [3, 302] -->
    <g style="fill: #1e8449" transform="translate(203.943963 143.970125) scale(0.09 -0.09)">
     <defs>
      <path id="DejaVuSans-Bold-76" d="M 97 3500 
L 1216 3500 
L 2088 1081 
L 2956 3500 
L 4078 3500 
L 2700 0 
L 1472 0 
L 97 3500 
z
" transform="scale(0.015625)"/>
      <path id="DejaVuSans-Bold-61" d="M 2106 1575 
Q 1756 1575 1579 1456 
Q 1403 1338 1403 1106 
Q 1403 894 1545 773 
Q 1688 653 1941 653 
Q 2256 653 2472 879 
Q 2688 1106 2688 1447 
L 2688 1575 
L 2106 1575 
z
M 3816 1997 
L 3816 0 
L 2688 0 
L 2688 519 
Q 2463 200 2181 54 
Q 1900 -91 1497 -91 
Q 953 -91 614 226 
Q 275 544 275 1050 
Q 275 1666 698 1953 
Q 1122 2241 2028 2241 
L 2688 2241 
L 2688 2328 
Q 2688 2594 2478 2717 
Q 2269 2841 1825 2841 
Q 1466 2841 1156 2769 
Q 847 2697 581 2553 
L 581 3406 
Q 941 3494 1303 3539 
Q 1666 3584 2028 3584 
Q 2975 3584 3395 3211 
Q 3816 2838 3816 1997 
z
" transform="scale(0.015625)"/>
      <path id="DejaVuSans-Bold-6c" d="M 538 4863 
L 1656 4863 
L 1656 0 
L 538 0 
L 538 4863 
z
" transform="scale(0.015625)"/>
      <path id="DejaVuSans-Bold-69" d="M 538 3500 
L 1656 3500 
L 1656 0 
L 538 0 
L 538 3500 
z
M 538 4863 
L 1656 4863 
L 1656 3950 
L 538 3950 
L 538 4863 
z
" transform="scale(0.015625)"/>
      <path id="DejaVuSans-Bold-64" d="M 2919 2988 
L 2919 4863 
L 4044 4863 
L 4044 0 
L 2919 0 
L 2919 506 
Q 2688 197 2409 53 
Q 2131 -91 1766 -91 
Q 1119 -91 703 423 
Q 288 938 288 1747 
Q 288 2556 703 3070 
Q 1119 3584 1766 3584 
Q 2128 3584 2408 3439 
Q 2688 3294 2919 2988 
z
M 2181 722 
Q 2541 722 2730 984 
Q 2919 1247 2919 1747 
Q 2919 2247 2730 2509 
Q 2541 2772 2181 2772 
Q 1825 2772 1636 2509 
Q 1447 2247 1447 1747 
Q 1447 1247 1636 984 
Q 1825 722 2181 722 
z
" transform="scale(0.015625)"/>
      <path id="DejaVuSans-Bold-20" transform="scale(0.015625)"/>
      <path id="DejaVuSans-Bold-77" d="M 225 3500 
L 1313 3500 
L 1900 1088 
L 2491 3500 
L 3425 3500 
L 4013 1113 
L 4603 3500 
L 5691 3500 
L 4769 0 
L 3547 0 
L 2956 2406 
L 2369 0 
L 1147 0 
L 225 3500 
z
" transform="scale(0.015625)"/>
      <path id="DejaVuSans-Bold-6e" d="M 4056 2131 
L 4056 0 
L 2931 0 
L 2931 347 
L 2931 1631 
Q 2931 2084 2911 2256 
Q 2891 2428 2841 2509 
Q 2775 2619 2662 2680 
Q 2550 2741 2406 2741 
Q 2056 2741 1856 2470 
Q 1656 2200 1656 1722 
L 1656 0 
L 538 0 
L 538 3500 
L 1656 3500 
L 1656 2988 
Q 1909 3294 2193 3439 
Q 2478 3584 2822 3584 
Q 3428 3584 3742 3212 
Q 4056 2841 4056 2131 
z
" transform="scale(0.015625)"/>
      <path id="DejaVuSans-Bold-6f" d="M 2203 2784 
Q 1831 2784 1636 2517 
Q 1441 2250 1441 1747 
Q 1441 1244 1636 976 
Q 1831 709 2203 709 
Q 2569 709 2762 976 
Q 2956 1244 2956 1747 
Q 2956 2250 2762 2517 
Q 2569 2784 2203 2784 
z
M 2203 3584 
Q 3106 3584 3614 3096 
Q 4122 2609 4122 1747 
Q 4122 884 3614 396 
Q 3106 -91 2203 -91 
Q 1297 -91 786 396 
Q 275 884 275 1747 
Q 275 2609 786 3096 
Q 1297 3584 2203 3584 
z
" transform="scale(0.015625)"/>
      <path id="DejaVuSans-Bold-3a" d="M 716 3500 
L 1844 3500 
L 1844 2291 
L 716 2291 
L 716 3500 
z
M 716 1209 
L 1844 1209 
L 1844 0 
L 716 0 
L 716 1209 
z
" transform="scale(0.015625)"/>
      <path id="DejaVuSans-Bold-5b" d="M 550 4863 
L 2491 4863 
L 2491 4159 
L 1613 4159 
L 1613 -141 
L 2491 -141 
L 2491 -844 
L 550 -844 
L 550 4863 
z
" transform="scale(0.015625)"/>
      <path id="DejaVuSans-Bold-33" d="M 2981 2516 
Q 3453 2394 3698 2092 
Q 3944 1791 3944 1325 
Q 3944 631 3412 270 
Q 2881 -91 1863 -91 
Q 1503 -91 1142 -33 
Q 781 25 428 141 
L 428 1069 
Q 766 900 1098 814 
Q 1431 728 1753 728 
Q 2231 728 2486 893 
Q 2741 1059 2741 1369 
Q 2741 1688 2480 1852 
Q 2219 2016 1709 2016 
L 1228 2016 
L 1228 2791 
L 1734 2791 
Q 2188 2791 2409 2933 
Q 2631 3075 2631 3366 
Q 2631 3634 2415 3781 
Q 2200 3928 1806 3928 
Q 1516 3928 1219 3862 
Q 922 3797 628 3669 
L 628 4550 
Q 984 4650 1334 4700 
Q 1684 4750 2022 4750 
Q 2931 4750 3382 4451 
Q 3834 4153 3834 3553 
Q 3834 3144 3618 2883 
Q 3403 2622 2981 2516 
z
" transform="scale(0.015625)"/>
      <path id="DejaVuSans-Bold-2c" d="M 653 1209 
L 1778 1209 
L 1778 256 
L 1006 -909 
L 341 -909 
L 653 256 
L 653 1209 
z
" transform="scale(0.015625)"/>
      <path id="DejaVuSans-Bold-30" d="M 2944 2338 
Q 2944 3213 2780 3570 
Q 2616 3928 2228 3928 
Q 1841 3928 1675 3570 
Q 1509 3213 1509 2338 
Q 1509 1453 1675 1090 
Q 1841 728 2228 728 
Q 2613 728 2778 1090 
Q 2944 1453 2944 2338 
z
M 4147 2328 
Q 4147 1169 3647 539 
Q 3147 -91 2228 -91 
Q 1306 -91 806 539 
Q 306 1169 306 2328 
Q 306 3491 806 4120 
Q 1306 4750 2228 4750 
Q 3147 4750 3647 4120 
Q 4147 3491 4147 2328 
z
" transform="scale(0.015625)"/>
      <path id="DejaVuSans-Bold-32" d="M 1844 884 
L 3897 884 
L 3897 0 
L 506 0 
L 506 884 
L 2209 2388 
Q 2438 2594 2547 2791 
Q 2656 2988 2656 3200 
Q 2656 3528 2436 3728 
Q 2216 3928 1850 3928 
Q 1569 3928 1234 3808 
Q 900 3688 519 3450 
L 519 4475 
Q 925 4609 1322 4679 
Q 1719 4750 2100 4750 
Q 2938 4750 3402 4381 
Q 3866 4013 3866 3353 
Q 3866 2972 3669 2642 
Q 3472 2313 2841 1759 
L 1844 884 
z
" transform="scale(0.015625)"/>
      <path id="DejaVuSans-Bold-5d" d="M 2375 -844 
L 434 -844 
L 434 -141 
L 1313 -141 
L 1313 4159 
L 434 4159 
L 434 4863 
L 2375 4863 
L 2375 -844 
z
" transform="scale(0.015625)"/>
     </defs>
     <use xlink:href="#DejaVuSans-Bold-76"/>
     <use xlink:href="#DejaVuSans-Bold-61" transform="translate(65.185547 0)"/>
     <use xlink:href="#DejaVuSans-Bold-6c" transform="translate(132.666016 0)"/>
     <use xlink:href="#DejaVuSans-Bold-69" transform="translate(166.943359 0)"/>
     <use xlink:href="#DejaVuSans-Bold-64" transform="translate(201.220703 0)"/>
     <use xlink:href="#DejaVuSans-Bold-20" transform="translate(272.802734 0)"/>
     <use xlink:href="#DejaVuSans-Bold-77" transform="translate(307.617188 0)"/>
     <use xlink:href="#DejaVuSans-Bold-69" transform="translate(400 0)"/>
     <use xlink:href="#DejaVuSans-Bold-6e" transform="translate(434.277344 0)"/>
     <use xlink:href="#DejaVuSans-Bold-64" transform="translate(505.46875 0)"/>
     <use xlink:href="#DejaVuSans-Bold-6f" transform="translate(577.050781 0)"/>
     <use xlink:href="#DejaVuSans-Bold-77" transform="translate(645.751953 0)"/>
     <use xlink:href="#DejaVuSans-Bold-3a" transform="translate(738.134766 0)"/>
     <use xlink:href="#DejaVuSans-Bold-20" transform="translate(778.125 0)"/>
     <use xlink:href="#DejaVuSans-Bold-5b" transform="translate(812.939453 0)"/>
     <use xlink:href="#DejaVuSans-Bold-33" transform="translate(858.642578 0)"/>
     <use xlink:href="#DejaVuSans-Bold-2c" transform="translate(928.222656 0)"/>
     <use xlink:href="#DejaVuSans-Bold-20" transform="translate(966.210938 0)"/>
     <use xlink:href="#DejaVuSans-Bold-33" transform="translate(1001.025391 0)"/>
     <use xlink:href="#DejaVuSans-Bold-30" transform="translate(1070.605469 0)"/>
     <use xlink:href="#DejaVuSans-Bold-32" transform="translate(1140.185547 0)"/>
     <use xlink:href="#DejaVuSans-Bold-5d" transform="translate(1209.765625 0)"/>
    </g>
   </g>
   <g id="text_8">
    <!-- old hit -->
    <g style="fill: #999999" transform="translate(13.163409 98.975875) scale(0.08 -0.08)">
     <defs>
      <path id="DejaVuSans-6f" d="M 1959 3097 
Q 1497 3097 1228 2736 
Q 959 2375 959 1747 
Q 959 1119 1226 758 
Q 1494 397 1959 397 
Q 2419 397 2687 759 
Q 2956 1122 2956 1747 
Q 2956 2369 2687 2733 
Q 2419 3097 1959 3097 
z
M 1959 3584 
Q 2709 3584 3137 3096 
Q 3566 2609 3566 1747 
Q 3566 888 3137 398 
Q 2709 -91 1959 -91 
Q 1206 -91 779 398 
Q 353 888 353 1747 
Q 353 2609 779 3096 
Q 1206 3584 1959 3584 
z
" transform="scale(0.015625)"/>
      <path id="DejaVuSans-6c" d="M 603 4863 
L 1178 4863 
L 1178 0 
L 603 0 
L 603 4863 
z
" transform="scale(0.015625)"/>
      <path id="DejaVuSans-64" d="M 2906 2969 
L 2906 4863 
L 3481 4863 
L 3481 0 
L 2906 0 
L 2906 525 
Q 2725 213 2448 61 
Q 2172 -91 1784 -91 
Q 1150 -91 751 415 
Q 353 922 353 1747 
Q 353 2572 751 3078 
Q 1150 3584 1784 3584 
Q 2172 3584 2448 3432 
Q 2725 3281 2906 2969 
z
M 947 1747 
Q 947 1113 1208 752 
Q 1469 391 1925 391 
Q 2381 391 2643 752 
Q 2906 1113 2906 1747 
Q 2906 2381 2643 2742 
Q 2381 3103 1925 3103 
Q 1469 3103 1208 2742 
Q 947 2381 947 1747 
z
" transform="scale(0.015625)"/>
      <path id="DejaVuSans-20" transform="scale(0.015625)"/>
      <path id="DejaVuSans-68" d="M 3513 2113 
L 3513 0 
L 2938 0 
L 2938 2094 
Q 2938 2591 2744 2837 
Q 2550 3084 2163 3084 
Q 1697 3084 1428 2787 
Q 1159 2491 1159 1978 
L 1159 0 
L 581 0 
L 581 4863 
L 1159 4863 
L 1159 2956 
Q 1366 3272 1645 3428 
Q 1925 3584 2291 3584 
Q 2894 3584 3203 3211 
Q 3513 2838 3513 2113 
z
" transform="scale(0.015625)"/>
      <path id="DejaVuSans-69" d="M 603 3500 
L 1178 3500 
L 1178 0 
L 603 0 
L 603 3500 
z
M 603 4863 
L 1178 4863 
L 1178 4134 
L 603 4134 
L 603 4863 
z
" transform="scale(0.015625)"/>
     </defs>
     <use xlink:href="#DejaVuSans-6f"/>
     <use xlink:href="#DejaVuSans-6c" transform="translate(61.181641 0)"/>
     <use xlink:href="#DejaVuSans-64" transform="translate(88.964844 0)"/>
     <use xlink:href="#DejaVuSans-20" transform="translate(152.441406 0)"/>
     <use xlink:href="#DejaVuSans-68" transform="translate(184.228516 0)"/>
     <use xlink:href="#DejaVuSans-69" transform="translate(247.607422 0)"/>
     <use xlink:href="#DejaVuSans-74" transform="translate(275.390625 0)"/>
    </g>
    <!-- (expired) -->
    <g style="fill: #999999" transform="translate(7.661534 107.934125) scale(0.08 -0.08)">
     <defs>
      <path id="DejaVuSans-28" d="M 1984 4856 
Q 1566 4138 1362 3434 
Q 1159 2731 1159 2009 
Q 1159 1288 1364 580 
Q 1569 -128 1984 -844 
L 1484 -844 
Q 1016 -109 783 600 
Q 550 1309 550 2009 
Q 550 2706 781 3412 
Q 1013 4119 1484 4856 
L 1984 4856 
z
" transform="scale(0.015625)"/>
      <path id="DejaVuSans-65" d="M 3597 1894 
L 3597 1613 
L 953 1613 
Q 991 1019 1311 708 
Q 1631 397 2203 397 
Q 2534 397 2845 478 
Q 3156 559 3463 722 
L 3463 178 
Q 3153 47 2828 -22 
Q 2503 -91 2169 -91 
Q 1331 -91 842 396 
Q 353 884 353 1716 
Q 353 2575 817 3079 
Q 1281 3584 2069 3584 
Q 2775 3584 3186 3129 
Q 3597 2675 3597 1894 
z
M 3022 2063 
Q 3016 2534 2758 2815 
Q 2500 3097 2075 3097 
Q 1594 3097 1305 2825 
Q 1016 2553 972 2059 
L 3022 2063 
z
" transform="scale(0.015625)"/>
      <path id="DejaVuSans-78" d="M 3513 3500 
L 2247 1797 
L 3578 0 
L 2900 0 
L 1881 1375 
L 863 0 
L 184 0 
L 1544 1831 
L 300 3500 
L 978 3500 
L 1906 2253 
L 2834 3500 
L 3513 3500 
z
" transform="scale(0.015625)"/>
      <path id="DejaVuSans-70" d="M 1159 525 
L 1159 -1331 
L 581 -1331 
L 581 3500 
L 1159 3500 
L 1159 2969 
Q 1341 3281 1617 3432 
Q 1894 3584 2278 3584 
Q 2916 3584 3314 3078 
Q 3713 2572 3713 1747 
Q 3713 922 3314 415 
Q 2916 -91 2278 -91 
Q 1894 -91 1617 61 
Q 1341 213 1159 525 
z
M 3116 1747 
Q 3116 2381 2855 2742 
Q 2594 3103 2138 3103 
Q 1681 3103 1420 2742 
Q 1159 2381 1159 1747 
Q 1159 1113 1420 752 
Q 1681 391 2138 391 
Q 2594 391 2855 752 
Q 3116 1113 3116 1747 
z
" transform="scale(0.015625)"/>
      <path id="DejaVuSans-72" d="M 2631 2963 
Q 2534 3019 2420 3045 
Q 2306 3072 2169 3072 
Q 1681 3072 1420 2755 
Q 1159 2438 1159 1844 
L 1159 0 
L 581 0 
L 581 3500 
L 1159 3500 
L 1159 2956 
Q 1341 3275 1631 3429 
Q 1922 3584 2338 3584 
Q 2397 3584 2469 3576 
Q 2541 3569 2628 3553 
L 2631 2963 
z
" transform="scale(0.015625)"/>
      <path id="DejaVuSans-29" d="M 513 4856 
L 1013 4856 
Q 1481 4119 1714 3412 
Q 1947 2706 1947 2009 
Q 1947 1309 1714 600 
Q 1481 -109 1013 -844 
L 513 -844 
Q 928 -128 1133 580 
Q 1338 1288 1338 2009 
Q 1338 2731 1133 3434 
Q 928 4138 513 4856 
z
" transform="scale(0.015625)"/>
     </defs>
     <use xlink:href="#DejaVuSans-28"/>
     <use xlink:href="#DejaVuSans-65" transform="translate(39.013672 0)"/>
     <use xlink:href="#DejaVuSans-78" transform="translate(98.787109 0)"/>
     <use xlink:href="#DejaVuSans-70" transform="translate(157.966797 0)"/>
     <use xlink:href="#DejaVuSans-69" transform="translate(221.443359 0)"/>
     <use xlink:href="#DejaVuSans-72" transform="translate(249.226562 0)"/>
     <use xlink:href="#DejaVuSans-65" transform="translate(288.089844 0)"/>
     <use xlink:href="#DejaVuSans-64" transform="translate(349.613281 0)"/>
     <use xlink:href="#DejaVuSans-29" transform="translate(413.089844 0)"/>
    </g>
   </g>
   <g id="text_9">
    <!-- getHits(t): pop all timestamps older than t-300 from the front of the queue -->
    <g style="fill: #555555" transform="translate(91.750526 52.494125) scale(0.09 -0.09)">
     <defs>
      <path id="DejaVuSans-Oblique-67" d="M 3816 3500 
L 3219 434 
Q 3047 -456 2561 -893 
Q 2075 -1331 1253 -1331 
Q 950 -1331 690 -1286 
Q 431 -1241 206 -1147 
L 313 -588 
Q 525 -725 762 -790 
Q 1000 -856 1269 -856 
Q 1816 -856 2167 -557 
Q 2519 -259 2631 300 
L 2681 563 
Q 2441 288 2122 144 
Q 1803 0 1434 0 
Q 903 0 598 351 
Q 294 703 294 1319 
Q 294 1803 478 2267 
Q 663 2731 997 3091 
Q 1219 3328 1514 3456 
Q 1809 3584 2131 3584 
Q 2484 3584 2746 3420 
Q 3009 3256 3138 2956 
L 3238 3500 
L 3816 3500 
z
M 2950 2216 
Q 2950 2641 2750 2872 
Q 2550 3103 2181 3103 
Q 1953 3103 1747 3012 
Q 1541 2922 1394 2759 
Q 1156 2491 1023 2127 
Q 891 1763 891 1375 
Q 891 944 1092 712 
Q 1294 481 1672 481 
Q 2219 481 2584 976 
Q 2950 1472 2950 2216 
z
" transform="scale(0.015625)"/>
      <path id="DejaVuSans-Oblique-65" d="M 3078 2063 
Q 3088 2113 3092 2166 
Q 3097 2219 3097 2272 
Q 3097 2653 2873 2875 
Q 2650 3097 2266 3097 
Q 1838 3097 1509 2826 
Q 1181 2556 1013 2059 
L 3078 2063 
z
M 3578 1613 
L 903 1613 
Q 884 1494 878 1425 
Q 872 1356 872 1306 
Q 872 872 1139 634 
Q 1406 397 1894 397 
Q 2269 397 2603 481 
Q 2938 566 3225 728 
L 3116 159 
Q 2806 34 2476 -28 
Q 2147 -91 1806 -91 
Q 1078 -91 686 257 
Q 294 606 294 1247 
Q 294 1794 489 2264 
Q 684 2734 1063 3103 
Q 1306 3334 1642 3459 
Q 1978 3584 2356 3584 
Q 2950 3584 3301 3228 
Q 3653 2872 3653 2272 
Q 3653 2128 3634 1964 
Q 3616 1800 3578 1613 
z
" transform="scale(0.015625)"/>
      <path id="DejaVuSans-Oblique-74" d="M 2706 3500 
L 2619 3053 
L 1472 3053 
L 1100 1153 
Q 1081 1047 1072 975 
Q 1063 903 1063 863 
Q 1063 663 1183 572 
Q 1303 481 1569 481 
L 2150 481 
L 2053 0 
L 1503 0 
Q 991 0 739 200 
Q 488 400 488 806 
Q 488 878 497 964 
Q 506 1050 525 1153 
L 897 3053 
L 409 3053 
L 500 3500 
L 978 3500 
L 1172 4494 
L 1747 4494 
L 1556 3500 
L 2706 3500 
z
" transform="scale(0.015625)"/>
      <path id="DejaVuSans-Oblique-48" d="M 1081 4666 
L 1716 4666 
L 1344 2753 
L 3634 2753 
L 4006 4666 
L 4641 4666 
L 3731 0 
L 3097 0 
L 3531 2222 
L 1241 2222 
L 806 0 
L 172 0 
L 1081 4666 
z
" transform="scale(0.015625)"/>
      <path id="DejaVuSans-Oblique-69" d="M 1172 4863 
L 1747 4863 
L 1606 4134 
L 1031 4134 
L 1172 4863 
z
M 909 3500 
L 1484 3500 
L 800 0 
L 225 0 
L 909 3500 
z
" transform="scale(0.015625)"/>
      <path id="DejaVuSans-Oblique-73" d="M 3200 3397 
L 3091 2853 
Q 2863 2978 2609 3040 
Q 2356 3103 2088 3103 
Q 1634 3103 1373 2948 
Q 1113 2794 1113 2528 
Q 1113 2219 1719 2053 
Q 1766 2041 1788 2034 
L 1972 1978 
Q 2547 1819 2739 1644 
Q 2931 1469 2931 1166 
Q 2931 609 2489 259 
Q 2047 -91 1331 -91 
Q 1053 -91 747 -37 
Q 441 16 72 128 
L 184 722 
Q 500 559 806 475 
Q 1113 391 1394 391 
Q 1816 391 2080 572 
Q 2344 753 2344 1031 
Q 2344 1331 1650 1516 
L 1591 1531 
L 1394 1581 
Q 956 1697 753 1886 
Q 550 2075 550 2369 
Q 550 2928 970 3256 
Q 1391 3584 2113 3584 
Q 2397 3584 2667 3537 
Q 2938 3491 3200 3397 
z
" transform="scale(0.015625)"/>
      <path id="DejaVuSans-Oblique-28" d="M 2731 4856 
Q 1903 3822 1495 2892 
Q 1088 1963 1088 1100 
Q 1088 606 1206 120 
Q 1325 -366 1563 -844 
L 1063 -844 
Q 775 -306 634 201 
Q 494 709 494 1197 
Q 494 2125 923 3036 
Q 1353 3947 2222 4856 
L 2731 4856 
z
" transform="scale(0.015625)"/>
      <path id="DejaVuSans-Oblique-29" d="M -397 -844 
Q 434 191 840 1120 
Q 1247 2050 1247 2913 
Q 1247 3406 1130 3892 
Q 1013 4378 775 4856 
L 1275 4856 
Q 1563 4316 1703 3812 
Q 1844 3309 1844 2822 
Q 1844 1891 1411 973 
Q 978 56 116 -844 
L -397 -844 
z
" transform="scale(0.015625)"/>
      <path id="DejaVuSans-Oblique-3a" d="M 978 3309 
L 1638 3309 
L 1484 2516 
L 825 2516 
L 978 3309 
z
M 488 794 
L 1147 794 
L 991 0 
L 331 0 
L 488 794 
z
" transform="scale(0.015625)"/>
      <path id="DejaVuSans-Oblique-20" transform="scale(0.015625)"/>
      <path id="DejaVuSans-Oblique-70" d="M 3175 2156 
Q 3175 2616 2975 2859 
Q 2775 3103 2400 3103 
Q 2144 3103 1911 2972 
Q 1678 2841 1497 2591 
Q 1319 2344 1212 1994 
Q 1106 1644 1106 1300 
Q 1106 863 1306 627 
Q 1506 391 1875 391 
Q 2147 391 2380 519 
Q 2613 647 2778 891 
Q 2956 1147 3065 1494 
Q 3175 1841 3175 2156 
z
M 1394 2969 
Q 1625 3272 1939 3428 
Q 2253 3584 2638 3584 
Q 3175 3584 3472 3232 
Q 3769 2881 3769 2247 
Q 3769 1728 3584 1258 
Q 3400 788 3053 416 
Q 2822 169 2531 39 
Q 2241 -91 1919 -91 
Q 1547 -91 1294 64 
Q 1041 219 916 525 
L 556 -1331 
L -19 -1331 
L 922 3500 
L 1497 3500 
L 1394 2969 
z
" transform="scale(0.015625)"/>
      <path id="DejaVuSans-Oblique-6f" d="M 1625 -91 
Q 1009 -91 651 289 
Q 294 669 294 1325 
Q 294 1706 417 2101 
Q 541 2497 738 2766 
Q 1047 3184 1428 3384 
Q 1809 3584 2291 3584 
Q 2888 3584 3255 3212 
Q 3622 2841 3622 2241 
Q 3622 1825 3500 1412 
Q 3378 1000 3181 728 
Q 2875 309 2494 109 
Q 2113 -91 1625 -91 
z
M 891 1344 
Q 891 869 1089 633 
Q 1288 397 1691 397 
Q 2269 397 2648 901 
Q 3028 1406 3028 2181 
Q 3028 2634 2825 2865 
Q 2622 3097 2228 3097 
Q 1903 3097 1650 2945 
Q 1397 2794 1197 2484 
Q 1050 2253 970 1956 
Q 891 1659 891 1344 
z
" transform="scale(0.015625)"/>
      <path id="DejaVuSans-Oblique-61" d="M 3438 1997 
L 3047 0 
L 2472 0 
L 2578 531 
Q 2325 219 2001 64 
Q 1678 -91 1281 -91 
Q 834 -91 548 182 
Q 263 456 263 884 
Q 263 1497 752 1853 
Q 1241 2209 2100 2209 
L 2900 2209 
L 2931 2363 
Q 2938 2388 2941 2417 
Q 2944 2447 2944 2509 
Q 2944 2788 2717 2942 
Q 2491 3097 2081 3097 
Q 1800 3097 1504 3025 
Q 1209 2953 897 2809 
L 997 3341 
Q 1322 3463 1633 3523 
Q 1944 3584 2234 3584 
Q 2853 3584 3176 3315 
Q 3500 3047 3500 2534 
Q 3500 2431 3484 2292 
Q 3469 2153 3438 1997 
z
M 2816 1759 
L 2241 1759 
Q 1534 1759 1195 1570 
Q 856 1381 856 984 
Q 856 709 1029 553 
Q 1203 397 1509 397 
Q 1978 397 2328 733 
Q 2678 1069 2791 1631 
L 2816 1759 
z
" transform="scale(0.015625)"/>
      <path id="DejaVuSans-Oblique-6c" d="M 1172 4863 
L 1747 4863 
L 800 0 
L 225 0 
L 1172 4863 
z
" transform="scale(0.015625)"/>
      <path id="DejaVuSans-Oblique-6d" d="M 5747 2113 
L 5338 0 
L 4763 0 
L 5166 2094 
Q 5191 2228 5203 2325 
Q 5216 2422 5216 2491 
Q 5216 2772 5059 2928 
Q 4903 3084 4622 3084 
Q 4203 3084 3875 2770 
Q 3547 2456 3450 1953 
L 3066 0 
L 2491 0 
L 2900 2094 
Q 2925 2209 2937 2307 
Q 2950 2406 2950 2484 
Q 2950 2769 2794 2926 
Q 2638 3084 2363 3084 
Q 1938 3084 1609 2770 
Q 1281 2456 1184 1953 
L 800 0 
L 225 0 
L 909 3500 
L 1484 3500 
L 1375 2956 
Q 1609 3263 1923 3423 
Q 2238 3584 2597 3584 
Q 2978 3584 3223 3384 
Q 3469 3184 3519 2828 
Q 3781 3197 4126 3390 
Q 4472 3584 4856 3584 
Q 5306 3584 5551 3325 
Q 5797 3066 5797 2591 
Q 5797 2488 5784 2364 
Q 5772 2241 5747 2113 
z
" transform="scale(0.015625)"/>
      <path id="DejaVuSans-Oblique-64" d="M 2675 525 
Q 2444 222 2128 65 
Q 1813 -91 1428 -91 
Q 903 -91 598 267 
Q 294 625 294 1247 
Q 294 1766 478 2236 
Q 663 2706 1013 3078 
Q 1244 3325 1534 3454 
Q 1825 3584 2144 3584 
Q 2481 3584 2739 3421 
Q 2997 3259 3138 2956 
L 3513 4863 
L 4091 4863 
L 3144 0 
L 2566 0 
L 2675 525 
z
M 891 1350 
Q 891 897 1095 644 
Q 1300 391 1663 391 
Q 1931 391 2161 520 
Q 2391 650 2566 903 
Q 2750 1166 2856 1509 
Q 2963 1853 2963 2188 
Q 2963 2622 2758 2865 
Q 2553 3109 2194 3109 
Q 1922 3109 1687 2981 
Q 1453 2853 1288 2613 
Q 1106 2353 998 2009 
Q 891 1666 891 1350 
z
" transform="scale(0.015625)"/>
      <path id="DejaVuSans-Oblique-72" d="M 2853 2969 
Q 2766 3016 2653 3041 
Q 2541 3066 2413 3066 
Q 1953 3066 1609 2717 
Q 1266 2369 1153 1784 
L 800 0 
L 225 0 
L 909 3500 
L 1484 3500 
L 1375 2956 
Q 1603 3259 1920 3421 
Q 2238 3584 2597 3584 
Q 2691 3584 2781 3573 
Q 2872 3563 2963 3538 
L 2853 2969 
z
" transform="scale(0.015625)"/>
      <path id="DejaVuSans-Oblique-68" d="M 3566 2113 
L 3156 0 
L 2578 0 
L 2988 2091 
Q 3016 2238 3031 2350 
Q 3047 2463 3047 2528 
Q 3047 2791 2881 2937 
Q 2716 3084 2419 3084 
Q 1956 3084 1617 2771 
Q 1278 2459 1178 1941 
L 800 0 
L 225 0 
L 1172 4863 
L 1747 4863 
L 1375 2950 
Q 1594 3244 1934 3414 
Q 2275 3584 2650 3584 
Q 3113 3584 3367 3334 
Q 3622 3084 3622 2631 
Q 3622 2519 3608 2391 
Q 3594 2263 3566 2113 
z
" transform="scale(0.015625)"/>
      <path id="DejaVuSans-Oblique-6e" d="M 3566 2113 
L 3156 0 
L 2578 0 
L 2988 2091 
Q 3016 2238 3031 2350 
Q 3047 2463 3047 2528 
Q 3047 2791 2881 2937 
Q 2716 3084 2419 3084 
Q 1956 3084 1622 2776 
Q 1288 2469 1184 1941 
L 800 0 
L 225 0 
L 903 3500 
L 1478 3500 
L 1363 2950 
Q 1603 3253 1940 3418 
Q 2278 3584 2650 3584 
Q 3113 3584 3367 3334 
Q 3622 3084 3622 2631 
Q 3622 2519 3608 2391 
Q 3594 2263 3566 2113 
z
" transform="scale(0.015625)"/>
      <path id="DejaVuSans-Oblique-2d" d="M 391 2009 
L 2075 2009 
L 1978 1497 
L 288 1497 
L 391 2009 
z
" transform="scale(0.015625)"/>
      <path id="DejaVuSans-Oblique-33" d="M 1013 4550 
Q 1356 4650 1679 4700 
Q 2003 4750 2316 4750 
Q 2934 4750 3296 4475 
Q 3659 4200 3659 3738 
Q 3659 3284 3373 2959 
Q 3088 2634 2584 2516 
Q 2978 2403 3162 2165 
Q 3347 1928 3347 1538 
Q 3347 1163 3167 834 
Q 2988 506 2650 269 
Q 2394 88 2037 -1 
Q 1681 -91 1216 -91 
Q 922 -91 622 -33 
Q 322 25 13 141 
L 128 738 
Q 422 575 720 495 
Q 1019 416 1331 416 
Q 1947 416 2330 733 
Q 2713 1050 2713 1556 
Q 2713 1881 2469 2057 
Q 2225 2234 1772 2234 
L 1228 2234 
L 1325 2747 
L 1900 2747 
Q 2419 2747 2717 2984 
Q 3016 3222 3016 3628 
Q 3016 3922 2797 4083 
Q 2578 4244 2181 4244 
Q 1881 4244 1567 4180 
Q 1253 4116 916 3988 
L 1013 4550 
z
" transform="scale(0.015625)"/>
      <path id="DejaVuSans-Oblique-30" d="M 2444 4750 
Q 3078 4750 3414 4328 
Q 3750 3906 3750 3116 
Q 3750 2516 3592 1923 
Q 3434 1331 3150 863 
Q 2859 394 2467 151 
Q 2075 -91 1600 -91 
Q 988 -91 653 334 
Q 319 759 319 1544 
Q 319 2138 480 2733 
Q 641 3328 928 3794 
Q 1216 4263 1602 4506 
Q 1988 4750 2444 4750 
z
M 2406 4250 
Q 2169 4250 1955 4123 
Q 1741 3997 1569 3750 
Q 1281 3338 1111 2720 
Q 941 2103 941 1453 
Q 941 938 1123 673 
Q 1306 409 1663 409 
Q 1913 409 2125 536 
Q 2338 663 2509 909 
Q 2794 1319 2961 1936 
Q 3128 2553 3128 3206 
Q 3128 3722 2945 3986 
Q 2763 4250 2406 4250 
z
" transform="scale(0.015625)"/>
      <path id="DejaVuSans-Oblique-66" d="M 3059 4863 
L 2969 4384 
L 2419 4384 
Q 2106 4384 1964 4261 
Q 1822 4138 1753 3809 
L 1691 3500 
L 2638 3500 
L 2553 3053 
L 1606 3053 
L 1013 0 
L 434 0 
L 1031 3053 
L 481 3053 
L 563 3500 
L 1113 3500 
L 1159 3744 
Q 1278 4363 1576 4613 
Q 1875 4863 2516 4863 
L 3059 4863 
z
" transform="scale(0.015625)"/>
      <path id="DejaVuSans-Oblique-71" d="M 2669 525 
Q 2438 222 2123 65 
Q 1809 -91 1428 -91 
Q 897 -91 595 267 
Q 294 625 294 1253 
Q 294 1759 480 2231 
Q 666 2703 1013 3078 
Q 1238 3322 1530 3453 
Q 1822 3584 2144 3584 
Q 2531 3584 2781 3431 
Q 3031 3278 3144 2969 
L 3244 3494 
L 3822 3494 
L 2888 -1319 
L 2309 -1319 
L 2669 525 
z
M 891 1338 
Q 891 875 1084 633 
Q 1278 391 1644 391 
Q 2188 391 2572 911 
Q 2956 1431 2956 2175 
Q 2956 2625 2757 2864 
Q 2559 3103 2188 3103 
Q 1916 3103 1684 2976 
Q 1453 2850 1281 2606 
Q 1100 2350 995 2006 
Q 891 1663 891 1338 
z
" transform="scale(0.015625)"/>
      <path id="DejaVuSans-Oblique-75" d="M 428 1388 
L 838 3500 
L 1416 3500 
L 1006 1409 
Q 975 1256 961 1147 
Q 947 1038 947 966 
Q 947 700 1109 554 
Q 1272 409 1569 409 
Q 2031 409 2368 721 
Q 2706 1034 2809 1563 
L 3194 3500 
L 3769 3500 
L 3091 0 
L 2516 0 
L 2631 550 
Q 2388 244 2052 76 
Q 1716 -91 1338 -91 
Q 878 -91 622 161 
Q 366 413 366 863 
Q 366 956 381 1097 
Q 397 1238 428 1388 
z
" transform="scale(0.015625)"/>
     </defs>
     <use xlink:href="#DejaVuSans-Oblique-67"/>
     <use xlink:href="#DejaVuSans-Oblique-65" transform="translate(63.476562 0)"/>
     <use xlink:href="#DejaVuSans-Oblique-74" transform="translate(125 0)"/>
     <use xlink:href="#DejaVuSans-Oblique-48" transform="translate(164.208984 0)"/>
     <use xlink:href="#DejaVuSans-Oblique-69" transform="translate(239.404297 0)"/>
     <use xlink:href="#DejaVuSans-Oblique-74" transform="translate(267.1875 0)"/>
     <use xlink:href="#DejaVuSans-Oblique-73" transform="translate(306.396484 0)"/>
     <use xlink:href="#DejaVuSans-Oblique-28" transform="translate(358.496094 0)"/>
     <use xlink:href="#DejaVuSans-Oblique-74" transform="translate(397.509766 0)"/>
     <use xlink:href="#DejaVuSans-Oblique-29" transform="translate(436.71875 0)"/>
     <use xlink:href="#DejaVuSans-Oblique-3a" transform="translate(475.732422 0)"/>
     <use xlink:href="#DejaVuSans-Oblique-20" transform="translate(509.423828 0)"/>
     <use xlink:href="#DejaVuSans-Oblique-70" transform="translate(541.210938 0)"/>
     <use xlink:href="#DejaVuSans-Oblique-6f" transform="translate(604.6875 0)"/>
     <use xlink:href="#DejaVuSans-Oblique-70" transform="translate(665.869141 0)"/>
     <use xlink:href="#DejaVuSans-Oblique-20" transform="translate(729.345703 0)"/>
     <use xlink:href="#DejaVuSans-Oblique-61" transform="translate(761.132812 0)"/>
     <use xlink:href="#DejaVuSans-Oblique-6c" transform="translate(822.412109 0)"/>
     <use xlink:href="#DejaVuSans-Oblique-6c" transform="translate(850.195312 0)"/>
     <use xlink:href="#DejaVuSans-Oblique-20" transform="translate(877.978516 0)"/>
     <use xlink:href="#DejaVuSans-Oblique-74" transform="translate(909.765625 0)"/>
     <use xlink:href="#DejaVuSans-Oblique-69" transform="translate(948.974609 0)"/>
     <use xlink:href="#DejaVuSans-Oblique-6d" transform="translate(976.757812 0)"/>
     <use xlink:href="#DejaVuSans-Oblique-65" transform="translate(1074.169922 0)"/>
     <use xlink:href="#DejaVuSans-Oblique-73" transform="translate(1135.693359 0)"/>
     <use xlink:href="#DejaVuSans-Oblique-74" transform="translate(1187.792969 0)"/>
     <use xlink:href="#DejaVuSans-Oblique-61" transform="translate(1227.001953 0)"/>
     <use xlink:href="#DejaVuSans-Oblique-6d" transform="translate(1288.28125 0)"/>
     <use xlink:href="#DejaVuSans-Oblique-70" transform="translate(1385.693359 0)"/>
     <use xlink:href="#DejaVuSans-Oblique-73" transform="translate(1449.169922 0)"/>
     <use xlink:href="#DejaVuSans-Oblique-20" transform="translate(1501.269531 0)"/>
     <use xlink:href="#DejaVuSans-Oblique-6f" transform="translate(1533.056641 0)"/>
     <use xlink:href="#DejaVuSans-Oblique-6c" transform="translate(1594.238281 0)"/>
     <use xlink:href="#DejaVuSans-Oblique-64" transform="translate(1622.021484 0)"/>
     <use xlink:href="#DejaVuSans-Oblique-65" transform="translate(1685.498047 0)"/>
     <use xlink:href="#DejaVuSans-Oblique-72" transform="translate(1747.021484 0)"/>
     <use xlink:href="#DejaVuSans-Oblique-20" transform="translate(1788.134766 0)"/>
     <use xlink:href="#DejaVuSans-Oblique-74" transform="translate(1819.921875 0)"/>
     <use xlink:href="#DejaVuSans-Oblique-68" transform="translate(1859.130859 0)"/>
     <use xlink:href="#DejaVuSans-Oblique-61" transform="translate(1922.509766 0)"/>
     <use xlink:href="#DejaVuSans-Oblique-6e" transform="translate(1983.789062 0)"/>
     <use xlink:href="#DejaVuSans-Oblique-20" transform="translate(2047.167969 0)"/>
     <use xlink:href="#DejaVuSans-Oblique-74" transform="translate(2078.955078 0)"/>
     <use xlink:href="#DejaVuSans-Oblique-2d" transform="translate(2118.164062 0)"/>
     <use xlink:href="#DejaVuSans-Oblique-33" transform="translate(2154.248047 0)"/>
     <use xlink:href="#DejaVuSans-Oblique-30" transform="translate(2217.871094 0)"/>
     <use xlink:href="#DejaVuSans-Oblique-30" transform="translate(2281.494141 0)"/>
     <use xlink:href="#DejaVuSans-Oblique-20" transform="translate(2345.117188 0)"/>
     <use xlink:href="#DejaVuSans-Oblique-66" transform="translate(2376.904297 0)"/>
     <use xlink:href="#DejaVuSans-Oblique-72" transform="translate(2412.109375 0)"/>
     <use xlink:href="#DejaVuSans-Oblique-6f" transform="translate(2453.222656 0)"/>
     <use xlink:href="#DejaVuSans-Oblique-6d" transform="translate(2514.404297 0)"/>
     <use xlink:href="#DejaVuSans-Oblique-20" transform="translate(2611.816406 0)"/>
     <use xlink:href="#DejaVuSans-Oblique-74" transform="translate(2643.603516 0)"/>
     <use xlink:href="#DejaVuSans-Oblique-68" transform="translate(2682.8125 0)"/>
     <use xlink:href="#DejaVuSans-Oblique-65" transform="translate(2746.191406 0)"/>
     <use xlink:href="#DejaVuSans-Oblique-20" transform="translate(2807.714844 0)"/>
     <use xlink:href="#DejaVuSans-Oblique-66" transform="translate(2839.501953 0)"/>
     <use xlink:href="#DejaVuSans-Oblique-72" transform="translate(2874.707031 0)"/>
     <use xlink:href="#DejaVuSans-Oblique-6f" transform="translate(2915.820312 0)"/>
     <use xlink:href="#DejaVuSans-Oblique-6e" transform="translate(2977.001953 0)"/>
     <use xlink:href="#DejaVuSans-Oblique-74" transform="translate(3040.380859 0)"/>
     <use xlink:href="#DejaVuSans-Oblique-20" transform="translate(3079.589844 0)"/>
     <use xlink:href="#DejaVuSans-Oblique-6f" transform="translate(3111.376953 0)"/>
     <use xlink:href="#DejaVuSans-Oblique-66" transform="translate(3172.558594 0)"/>
     <use xlink:href="#DejaVuSans-Oblique-20" transform="translate(3207.763672 0)"/>
     <use xlink:href="#DejaVuSans-Oblique-74" transform="translate(3239.550781 0)"/>
     <use xlink:href="#DejaVuSans-Oblique-68" transform="translate(3278.759766 0)"/>
     <use xlink:href="#DejaVuSans-Oblique-65" transform="translate(3342.138672 0)"/>
     <use xlink:href="#DejaVuSans-Oblique-20" transform="translate(3403.662109 0)"/>
     <use xlink:href="#DejaVuSans-Oblique-71" transform="translate(3435.449219 0)"/>
     <use xlink:href="#DejaVuSans-Oblique-75" transform="translate(3498.925781 0)"/>
     <use xlink:href="#DejaVuSans-Oblique-65" transform="translate(3562.304688 0)"/>
     <use xlink:href="#DejaVuSans-Oblique-75" transform="translate(3623.828125 0)"/>
     <use xlink:href="#DejaVuSans-Oblique-65" transform="translate(3687.207031 0)"/>
    </g>
   </g>
   <g id="text_10">
    <g id="patch_9">
     <path d="M 143.618338 236.589781 
L 377.261776 236.589781 
Q 381.661776 236.589781 381.661776 232.189781 
L 381.661776 221.543844 
Q 381.661776 217.143844 377.261776 217.143844 
L 143.618338 217.143844 
Q 139.218338 217.143844 139.218338 221.543844 
L 139.218338 232.189781 
Q 139.218338 236.589781 143.618338 236.589781 
z
" style="fill: #d5f5e3; stroke: #27ae60; stroke-linejoin: miter"/>
    </g>
    <!-- 3 hits are within the last 300 seconds -->
    <g transform="translate(143.618338 229.902125) scale(0.11 -0.11)">
     <defs>
      <path id="DejaVuSans-Bold-68" d="M 4056 2131 
L 4056 0 
L 2931 0 
L 2931 347 
L 2931 1625 
Q 2931 2084 2911 2256 
Q 2891 2428 2841 2509 
Q 2775 2619 2662 2680 
Q 2550 2741 2406 2741 
Q 2056 2741 1856 2470 
Q 1656 2200 1656 1722 
L 1656 0 
L 538 0 
L 538 4863 
L 1656 4863 
L 1656 2988 
Q 1909 3294 2193 3439 
Q 2478 3584 2822 3584 
Q 3428 3584 3742 3212 
Q 4056 2841 4056 2131 
z
" transform="scale(0.015625)"/>
      <path id="DejaVuSans-Bold-74" d="M 1759 4494 
L 1759 3500 
L 2913 3500 
L 2913 2700 
L 1759 2700 
L 1759 1216 
Q 1759 972 1856 886 
Q 1953 800 2241 800 
L 2816 800 
L 2816 0 
L 1856 0 
Q 1194 0 917 276 
Q 641 553 641 1216 
L 641 2700 
L 84 2700 
L 84 3500 
L 641 3500 
L 641 4494 
L 1759 4494 
z
" transform="scale(0.015625)"/>
      <path id="DejaVuSans-Bold-73" d="M 3272 3391 
L 3272 2541 
Q 2913 2691 2578 2766 
Q 2244 2841 1947 2841 
Q 1628 2841 1473 2761 
Q 1319 2681 1319 2516 
Q 1319 2381 1436 2309 
Q 1553 2238 1856 2203 
L 2053 2175 
Q 2913 2066 3209 1816 
Q 3506 1566 3506 1031 
Q 3506 472 3093 190 
Q 2681 -91 1863 -91 
Q 1516 -91 1145 -36 
Q 775 19 384 128 
L 384 978 
Q 719 816 1070 734 
Q 1422 653 1784 653 
Q 2113 653 2278 743 
Q 2444 834 2444 1013 
Q 2444 1163 2330 1236 
Q 2216 1309 1875 1350 
L 1678 1375 
Q 931 1469 631 1722 
Q 331 1975 331 2491 
Q 331 3047 712 3315 
Q 1094 3584 1881 3584 
Q 2191 3584 2531 3537 
Q 2872 3491 3272 3391 
z
" transform="scale(0.015625)"/>
      <path id="DejaVuSans-Bold-72" d="M 3138 2547 
Q 2991 2616 2845 2648 
Q 2700 2681 2553 2681 
Q 2122 2681 1889 2404 
Q 1656 2128 1656 1613 
L 1656 0 
L 538 0 
L 538 3500 
L 1656 3500 
L 1656 2925 
Q 1872 3269 2151 3426 
Q 2431 3584 2822 3584 
Q 2878 3584 2943 3579 
Q 3009 3575 3134 3559 
L 3138 2547 
z
" transform="scale(0.015625)"/>
      <path id="DejaVuSans-Bold-65" d="M 4031 1759 
L 4031 1441 
L 1416 1441 
Q 1456 1047 1700 850 
Q 1944 653 2381 653 
Q 2734 653 3104 758 
Q 3475 863 3866 1075 
L 3866 213 
Q 3469 63 3072 -14 
Q 2675 -91 2278 -91 
Q 1328 -91 801 392 
Q 275 875 275 1747 
Q 275 2603 792 3093 
Q 1309 3584 2216 3584 
Q 3041 3584 3536 3087 
Q 4031 2591 4031 1759 
z
M 2881 2131 
Q 2881 2450 2695 2645 
Q 2509 2841 2209 2841 
Q 1884 2841 1681 2658 
Q 1478 2475 1428 2131 
L 2881 2131 
z
" transform="scale(0.015625)"/>
      <path id="DejaVuSans-Bold-63" d="M 3366 3391 
L 3366 2478 
Q 3138 2634 2908 2709 
Q 2678 2784 2431 2784 
Q 1963 2784 1702 2511 
Q 1441 2238 1441 1747 
Q 1441 1256 1702 982 
Q 1963 709 2431 709 
Q 2694 709 2930 787 
Q 3166 866 3366 1019 
L 3366 103 
Q 3103 6 2833 -42 
Q 2563 -91 2291 -91 
Q 1344 -91 809 395 
Q 275 881 275 1747 
Q 275 2613 809 3098 
Q 1344 3584 2291 3584 
Q 2566 3584 2833 3536 
Q 3100 3488 3366 3391 
z
" transform="scale(0.015625)"/>
     </defs>
     <use xlink:href="#DejaVuSans-Bold-33"/>
     <use xlink:href="#DejaVuSans-Bold-20" transform="translate(69.580078 0)"/>
     <use xlink:href="#DejaVuSans-Bold-68" transform="translate(104.394531 0)"/>
     <use xlink:href="#DejaVuSans-Bold-69" transform="translate(175.585938 0)"/>
     <use xlink:href="#DejaVuSans-Bold-74" transform="translate(209.863281 0)"/>
     <use xlink:href="#DejaVuSans-Bold-73" transform="translate(257.666016 0)"/>
     <use xlink:href="#DejaVuSans-Bold-20" transform="translate(317.1875 0)"/>
     <use xlink:href="#DejaVuSans-Bold-61" transform="translate(352.001953 0)"/>
     <use xlink:href="#DejaVuSans-Bold-72" transform="translate(419.482422 0)"/>
     <use xlink:href="#DejaVuSans-Bold-65" transform="translate(468.798828 0)"/>
     <use xlink:href="#DejaVuSans-Bold-20" transform="translate(536.621094 0)"/>
     <use xlink:href="#DejaVuSans-Bold-77" transform="translate(571.435547 0)"/>
     <use xlink:href="#DejaVuSans-Bold-69" transform="translate(663.818359 0)"/>
     <use xlink:href="#DejaVuSans-Bold-74" transform="translate(698.095703 0)"/>
     <use xlink:href="#DejaVuSans-Bold-68" transform="translate(745.898438 0)"/>
     <use xlink:href="#DejaVuSans-Bold-69" transform="translate(817.089844 0)"/>
     <use xlink:href="#DejaVuSans-Bold-6e" transform="translate(851.367188 0)"/>
     <use xlink:href="#DejaVuSans-Bold-20" transform="translate(922.558594 0)"/>
     <use xlink:href="#DejaVuSans-Bold-74" transform="translate(957.373047 0)"/>
     <use xlink:href="#DejaVuSans-Bold-68" transform="translate(1005.175781 0)"/>
     <use xlink:href="#DejaVuSans-Bold-65" transform="translate(1076.367188 0)"/>
     <use xlink:href="#DejaVuSans-Bold-20" transform="translate(1144.189453 0)"/>
     <use xlink:href="#DejaVuSans-Bold-6c" transform="translate(1179.003906 0)"/>
     <use xlink:href="#DejaVuSans-Bold-61" transform="translate(1213.28125 0)"/>
     <use xlink:href="#DejaVuSans-Bold-73" transform="translate(1280.761719 0)"/>
     <use xlink:href="#DejaVuSans-Bold-74" transform="translate(1340.283203 0)"/>
     <use xlink:href="#DejaVuSans-Bold-20" transform="translate(1388.085938 0)"/>
     <use xlink:href="#DejaVuSans-Bold-33" transform="translate(1422.900391 0)"/>
     <use xlink:href="#DejaVuSans-Bold-30" transform="translate(1492.480469 0)"/>
     <use xlink:href="#DejaVuSans-Bold-30" transform="translate(1562.060547 0)"/>
     <use xlink:href="#DejaVuSans-Bold-20" transform="translate(1631.640625 0)"/>
     <use xlink:href="#DejaVuSans-Bold-73" transform="translate(1666.455078 0)"/>
     <use xlink:href="#DejaVuSans-Bold-65" transform="translate(1725.976562 0)"/>
     <use xlink:href="#DejaVuSans-Bold-63" transform="translate(1793.798828 0)"/>
     <use xlink:href="#DejaVuSans-Bold-6f" transform="translate(1853.076172 0)"/>
     <use xlink:href="#DejaVuSans-Bold-6e" transform="translate(1921.777344 0)"/>
     <use xlink:href="#DejaVuSans-Bold-64" transform="translate(1992.96875 0)"/>
     <use xlink:href="#DejaVuSans-Bold-73" transform="translate(2064.550781 0)"/>
    </g>
   </g>
   <g id="text_11">
    <!-- Design Hit Counter — sliding 300-second window -->
    <g transform="translate(110.308125 16.318125) scale(0.12 -0.12)">
     <defs>
      <path id="DejaVuSans-44" d="M 1259 4147 
L 1259 519 
L 2022 519 
Q 2988 519 3436 956 
Q 3884 1394 3884 2338 
Q 3884 3275 3436 3711 
Q 2988 4147 2022 4147 
L 1259 4147 
z
M 628 4666 
L 1925 4666 
Q 3281 4666 3915 4102 
Q 4550 3538 4550 2338 
Q 4550 1131 3912 565 
Q 3275 0 1925 0 
L 628 0 
L 628 4666 
z
" transform="scale(0.015625)"/>
      <path id="DejaVuSans-73" d="M 2834 3397 
L 2834 2853 
Q 2591 2978 2328 3040 
Q 2066 3103 1784 3103 
Q 1356 3103 1142 2972 
Q 928 2841 928 2578 
Q 928 2378 1081 2264 
Q 1234 2150 1697 2047 
L 1894 2003 
Q 2506 1872 2764 1633 
Q 3022 1394 3022 966 
Q 3022 478 2636 193 
Q 2250 -91 1575 -91 
Q 1294 -91 989 -36 
Q 684 19 347 128 
L 347 722 
Q 666 556 975 473 
Q 1284 391 1588 391 
Q 1994 391 2212 530 
Q 2431 669 2431 922 
Q 2431 1156 2273 1281 
Q 2116 1406 1581 1522 
L 1381 1569 
Q 847 1681 609 1914 
Q 372 2147 372 2553 
Q 372 3047 722 3315 
Q 1072 3584 1716 3584 
Q 2034 3584 2315 3537 
Q 2597 3491 2834 3397 
z
" transform="scale(0.015625)"/>
      <path id="DejaVuSans-67" d="M 2906 1791 
Q 2906 2416 2648 2759 
Q 2391 3103 1925 3103 
Q 1463 3103 1205 2759 
Q 947 2416 947 1791 
Q 947 1169 1205 825 
Q 1463 481 1925 481 
Q 2391 481 2648 825 
Q 2906 1169 2906 1791 
z
M 3481 434 
Q 3481 -459 3084 -895 
Q 2688 -1331 1869 -1331 
Q 1566 -1331 1297 -1286 
Q 1028 -1241 775 -1147 
L 775 -588 
Q 1028 -725 1275 -790 
Q 1522 -856 1778 -856 
Q 2344 -856 2625 -561 
Q 2906 -266 2906 331 
L 2906 616 
Q 2728 306 2450 153 
Q 2172 0 1784 0 
Q 1141 0 747 490 
Q 353 981 353 1791 
Q 353 2603 747 3093 
Q 1141 3584 1784 3584 
Q 2172 3584 2450 3431 
Q 2728 3278 2906 2969 
L 2906 3500 
L 3481 3500 
L 3481 434 
z
" transform="scale(0.015625)"/>
      <path id="DejaVuSans-6e" d="M 3513 2113 
L 3513 0 
L 2938 0 
L 2938 2094 
Q 2938 2591 2744 2837 
Q 2550 3084 2163 3084 
Q 1697 3084 1428 2787 
Q 1159 2491 1159 1978 
L 1159 0 
L 581 0 
L 581 3500 
L 1159 3500 
L 1159 2956 
Q 1366 3272 1645 3428 
Q 1925 3584 2291 3584 
Q 2894 3584 3203 3211 
Q 3513 2838 3513 2113 
z
" transform="scale(0.015625)"/>
      <path id="DejaVuSans-48" d="M 628 4666 
L 1259 4666 
L 1259 2753 
L 3553 2753 
L 3553 4666 
L 4184 4666 
L 4184 0 
L 3553 0 
L 3553 2222 
L 1259 2222 
L 1259 0 
L 628 0 
L 628 4666 
z
" transform="scale(0.015625)"/>
      <path id="DejaVuSans-43" d="M 4122 4306 
L 4122 3641 
Q 3803 3938 3442 4084 
Q 3081 4231 2675 4231 
Q 1875 4231 1450 3742 
Q 1025 3253 1025 2328 
Q 1025 1406 1450 917 
Q 1875 428 2675 428 
Q 3081 428 3442 575 
Q 3803 722 4122 1019 
L 4122 359 
Q 3791 134 3420 21 
Q 3050 -91 2638 -91 
Q 1578 -91 968 557 
Q 359 1206 359 2328 
Q 359 3453 968 4101 
Q 1578 4750 2638 4750 
Q 3056 4750 3426 4639 
Q 3797 4528 4122 4306 
z
" transform="scale(0.015625)"/>
      <path id="DejaVuSans-75" d="M 544 1381 
L 544 3500 
L 1119 3500 
L 1119 1403 
Q 1119 906 1312 657 
Q 1506 409 1894 409 
Q 2359 409 2629 706 
Q 2900 1003 2900 1516 
L 2900 3500 
L 3475 3500 
L 3475 0 
L 2900 0 
L 2900 538 
Q 2691 219 2414 64 
Q 2138 -91 1772 -91 
Q 1169 -91 856 284 
Q 544 659 544 1381 
z
M 1991 3584 
L 1991 3584 
z
" transform="scale(0.015625)"/>
      <path id="DejaVuSans-2014" d="M 313 1978 
L 6088 1978 
L 6088 1528 
L 313 1528 
L 313 1978 
z
" transform="scale(0.015625)"/>
      <path id="DejaVuSans-2d" d="M 313 2009 
L 1997 2009 
L 1997 1497 
L 313 1497 
L 313 2009 
z
" transform="scale(0.015625)"/>
      <path id="DejaVuSans-63" d="M 3122 3366 
L 3122 2828 
Q 2878 2963 2633 3030 
Q 2388 3097 2138 3097 
Q 1578 3097 1268 2742 
Q 959 2388 959 1747 
Q 959 1106 1268 751 
Q 1578 397 2138 397 
Q 2388 397 2633 464 
Q 2878 531 3122 666 
L 3122 134 
Q 2881 22 2623 -34 
Q 2366 -91 2075 -91 
Q 1284 -91 818 406 
Q 353 903 353 1747 
Q 353 2603 823 3093 
Q 1294 3584 2113 3584 
Q 2378 3584 2631 3529 
Q 2884 3475 3122 3366 
z
" transform="scale(0.015625)"/>
      <path id="DejaVuSans-77" d="M 269 3500 
L 844 3500 
L 1563 769 
L 2278 3500 
L 2956 3500 
L 3675 769 
L 4391 3500 
L 4966 3500 
L 4050 0 
L 3372 0 
L 2619 2869 
L 1863 0 
L 1184 0 
L 269 3500 
z
" transform="scale(0.015625)"/>
     </defs>
     <use xlink:href="#DejaVuSans-44"/>
     <use xlink:href="#DejaVuSans-65" transform="translate(77.001953 0)"/>
     <use xlink:href="#DejaVuSans-73" transform="translate(138.525391 0)"/>
     <use xlink:href="#DejaVuSans-69" transform="translate(190.625 0)"/>
     <use xlink:href="#DejaVuSans-67" transform="translate(218.408203 0)"/>
     <use xlink:href="#DejaVuSans-6e" transform="translate(281.884766 0)"/>
     <use xlink:href="#DejaVuSans-20" transform="translate(345.263672 0)"/>
     <use xlink:href="#DejaVuSans-48" transform="translate(377.050781 0)"/>
     <use xlink:href="#DejaVuSans-69" transform="translate(452.246094 0)"/>
     <use xlink:href="#DejaVuSans-74" transform="translate(480.029297 0)"/>
     <use xlink:href="#DejaVuSans-20" transform="translate(519.238281 0)"/>
     <use xlink:href="#DejaVuSans-43" transform="translate(551.025391 0)"/>
     <use xlink:href="#DejaVuSans-6f" transform="translate(620.849609 0)"/>
     <use xlink:href="#DejaVuSans-75" transform="translate(682.03125 0)"/>
     <use xlink:href="#DejaVuSans-6e" transform="translate(745.410156 0)"/>
     <use xlink:href="#DejaVuSans-74" transform="translate(808.789062 0)"/>
     <use xlink:href="#DejaVuSans-65" transform="translate(847.998047 0)"/>
     <use xlink:href="#DejaVuSans-72" transform="translate(909.521484 0)"/>
     <use xlink:href="#DejaVuSans-20" transform="translate(950.634766 0)"/>
     <use xlink:href="#DejaVuSans-2014" transform="translate(982.421875 0)"/>
     <use xlink:href="#DejaVuSans-20" transform="translate(1082.421875 0)"/>
     <use xlink:href="#DejaVuSans-73" transform="translate(1114.208984 0)"/>
     <use xlink:href="#DejaVuSans-6c" transform="translate(1166.308594 0)"/>
     <use xlink:href="#DejaVuSans-69" transform="translate(1194.091797 0)"/>
     <use xlink:href="#DejaVuSans-64" transform="translate(1221.875 0)"/>
     <use xlink:href="#DejaVuSans-69" transform="translate(1285.351562 0)"/>
     <use xlink:href="#DejaVuSans-6e" transform="translate(1313.134766 0)"/>
     <use xlink:href="#DejaVuSans-67" transform="translate(1376.513672 0)"/>
     <use xlink:href="#DejaVuSans-20" transform="translate(1439.990234 0)"/>
     <use xlink:href="#DejaVuSans-33" transform="translate(1471.777344 0)"/>
     <use xlink:href="#DejaVuSans-30" transform="translate(1535.400391 0)"/>
     <use xlink:href="#DejaVuSans-30" transform="translate(1599.023438 0)"/>
     <use xlink:href="#DejaVuSans-2d" transform="translate(1662.646484 0)"/>
     <use xlink:href="#DejaVuSans-73" transform="translate(1698.730469 0)"/>
     <use xlink:href="#DejaVuSans-65" transform="translate(1750.830078 0)"/>
     <use xlink:href="#DejaVuSans-63" transform="translate(1812.353516 0)"/>
     <use xlink:href="#DejaVuSans-6f" transform="translate(1867.333984 0)"/>
     <use xlink:href="#DejaVuSans-6e" transform="translate(1928.515625 0)"/>
     <use xlink:href="#DejaVuSans-64" transform="translate(1991.894531 0)"/>
     <use xlink:href="#DejaVuSans-20" transform="translate(2055.371094 0)"/>
     <use xlink:href="#DejaVuSans-77" transform="translate(2087.158203 0)"/>
     <use xlink:href="#DejaVuSans-69" transform="translate(2168.945312 0)"/>
     <use xlink:href="#DejaVuSans-6e" transform="translate(2196.728516 0)"/>
     <use xlink:href="#DejaVuSans-64" transform="translate(2260.107422 0)"/>
     <use xlink:href="#DejaVuSans-6f" transform="translate(2323.583984 0)"/>
     <use xlink:href="#DejaVuSans-77" transform="translate(2384.765625 0)"/>
    </g>
   </g>
  </g>
 </g>
 <defs>
  <clipPath id="pb20819072b">
   <rect x="7.2" y="30.318125" width="502.2" height="221.76"/>
  </clipPath>
 </defs>
</svg>
