<?xml version="1.0" encoding="utf-8" standalone="no"?>
<!DOCTYPE svg PUBLIC "-//W3C//DTD SVG 1.1//EN"
  "http://www.w3.org/Graphics/SVG/1.1/DTD/svg11.dtd">
<svg xmlns:xlink="http://www.w3.org/1999/xlink" width="628.2pt" height="279.36pt" viewBox="0 0 628.2 279.36" xmlns="http://www.w3.org/2000/svg" version="1.1">
 <metadata>
  <rdf:RDF xmlns:dc="http://purl.org/dc/elements/1.1/" xmlns:cc="http://creativecommons.org/ns#" xmlns:rdf="http://www.w3.org/1999/02/22-rdf-syntax-ns#">
   <cc:Work>
    <dc:type rdf:resource="http://purl.org/dc/dcmitype/StillImage"/>
    <dc:date>2026-07-04T08:30:03.631625</dc:date>
    <dc:format>image/svg+xml</dc:format>
    <dc:creator>
     <cc:Agent>
      <dc:title>Matplotlib v3.10.8, https://matplotlib.org/</dc:title>
     </cc:Agent>
    </dc:creator>
   </cc:Work>
  </rdf:RDF>
 </metadata>
 <defs>
  <style type="text/css">*{stroke-linejoin: round; stroke-linecap: butt}</style>
 </defs>
 <g id="figure_1">
  <g id="patch_1">
   <path d="M 0 279.36 
L 628.2 279.36 
L 628.2 0 
L 0 0 
z
" style="fill: #fafaf9"/>
  </g>
  <g id="axes_1">
   <g id="patch_2">
    <path d="M 16.701548 130.544842 
L 65.476161 130.544842 
Q 67.376471 130.544842 67.376471 128.210526 
L 67.376471 68.296421 
Q 67.376471 65.962105 65.476161 65.962105 
L 16.701548 65.962105 
Q 14.801238 65.962105 14.801238 68.296421 
L 14.801238 128.210526 
Q 14.801238 130.544842 16.701548 130.544842 
z
" clip-path="url(#pc67c2556fc)" style="fill: #f1948a; stroke: #999999; stroke-width: 1.1; stroke-linejoin: miter"/>
   </g>
   <g id="patch_3">
    <path d="M 70.543653 130.544842 
L 119.318266 130.544842 
Q 121.218576 130.544842 121.218576 128.210526 
L 121.218576 68.296421 
Q 121.218576 65.962105 119.318266 65.962105 
L 70.543653 65.962105 
Q 68.643344 65.962105 68.643344 68.296421 
L 68.643344 128.210526 
Q 68.643344 130.544842 70.543653 130.544842 
z
" clip-path="url(#pc67c2556fc)" style="fill: #a9dfbf; stroke: #999999; stroke-width: 1.1; stroke-linejoin: miter"/>
   </g>
   <g id="patch_4">
    <path d="M 124.385759 130.544842 
L 173.160372 130.544842 
Q 175.060681 130.544842 175.060681 128.210526 
L 175.060681 68.296421 
Q 175.060681 65.962105 173.160372 65.962105 
L 124.385759 65.962105 
Q 122.485449 65.962105 122.485449 68.296421 
L 122.485449 128.210526 
Q 122.485449 130.544842 124.385759 130.544842 
z
" clip-path="url(#pc67c2556fc)" style="fill: #a9dfbf; stroke: #999999; stroke-width: 1.1; stroke-linejoin: miter"/>
   </g>
   <g id="patch_5">
    <path d="M 16.701548 196.683789 
L 65.476161 196.683789 
Q 67.376471 196.683789 67.376471 194.349474 
L 67.376471 134.435368 
Q 67.376471 132.101053 65.476161 132.101053 
L 16.701548 132.101053 
Q 14.801238 132.101053 14.801238 134.435368 
L 14.801238 194.349474 
Q 14.801238 196.683789 16.701548 196.683789 
z
" clip-path="url(#pc67c2556fc)" style="fill: #a9dfbf; stroke: #999999; stroke-width: 1.1; stroke-linejoin: miter"/>
   </g>
   <g id="patch_6">
    <path d="M 70.543653 196.683789 
L 119.318266 196.683789 
Q 121.218576 196.683789 121.218576 194.349474 
L 121.218576 134.435368 
Q 121.218576 132.101053 119.318266 132.101053 
L 70.543653 132.101053 
Q 68.643344 132.101053 68.643344 134.435368 
L 68.643344 194.349474 
Q 68.643344 196.683789 70.543653 196.683789 
z
" clip-path="url(#pc67c2556fc)" style="fill: #a9dfbf; stroke: #999999; stroke-width: 1.1; stroke-linejoin: miter"/>
   </g>
   <g id="patch_7">
    <path d="M 124.385759 196.683789 
L 173.160372 196.683789 
Q 175.060681 196.683789 175.060681 194.349474 
L 175.060681 134.435368 
Q 175.060681 132.101053 173.160372 132.101053 
L 124.385759 132.101053 
Q 122.485449 132.101053 122.485449 134.435368 
L 122.485449 194.349474 
Q 122.485449 196.683789 124.385759 196.683789 
z
" clip-path="url(#pc67c2556fc)" style="fill: #d6eaf8; stroke: #999999; stroke-width: 1.1; stroke-linejoin: miter"/>
   </g>
   <g id="patch_8">
    <path d="M 16.701548 262.822737 
L 65.476161 262.822737 
Q 67.376471 262.822737 67.376471 260.488421 
L 67.376471 200.574316 
Q 67.376471 198.24 65.476161 198.24 
L 16.701548 198.24 
Q 14.801238 198.24 14.801238 200.574316 
L 14.801238 260.488421 
Q 14.801238 262.822737 16.701548 262.822737 
z
" clip-path="url(#pc67c2556fc)" style="fill: #d6eaf8; stroke: #999999; stroke-width: 1.1; stroke-linejoin: miter"/>
   </g>
   <g id="patch_9">
    <path d="M 70.543653 262.822737 
L 119.318266 262.822737 
Q 121.218576 262.822737 121.218576 260.488421 
L 121.218576 200.574316 
Q 121.218576 198.24 119.318266 198.24 
L 70.543653 198.24 
Q 68.643344 198.24 68.643344 200.574316 
L 68.643344 260.488421 
Q 68.643344 262.822737 70.543653 262.822737 
z
" clip-path="url(#pc67c2556fc)" style="fill: #a9dfbf; stroke: #999999; stroke-width: 1.1; stroke-linejoin: miter"/>
   </g>
   <g id="patch_10">
    <path d="M 124.385759 262.822737 
L 173.160372 262.822737 
Q 175.060681 262.822737 175.060681 260.488421 
L 175.060681 200.574316 
Q 175.060681 198.24 173.160372 198.24 
L 124.385759 198.24 
Q 122.485449 198.24 122.485449 200.574316 
L 122.485449 260.488421 
Q 122.485449 262.822737 124.385759 262.822737 
z
" clip-path="url(#pc67c2556fc)" style="fill: #a9dfbf; stroke: #999999; stroke-width: 1.1; stroke-linejoin: miter"/>
   </g>
   <g id="text_1">
    <!-- minute 0 -->
    <g style="fill: #555555" transform="translate(75.0608 44.4) scale(0.1 -0.1)">
     <defs>
      <path id="DejaVuSans-6d" d="M 3328 2828 
Q 3544 3216 3844 3400 
Q 4144 3584 4550 3584 
Q 5097 3584 5394 3201 
Q 5691 2819 5691 2113 
L 5691 0 
L 5113 0 
L 5113 2094 
Q 5113 2597 4934 2840 
Q 4756 3084 4391 3084 
Q 3944 3084 3684 2787 
Q 3425 2491 3425 1978 
L 3425 0 
L 2847 0 
L 2847 2094 
Q 2847 2600 2669 2842 
Q 2491 3084 2119 3084 
Q 1678 3084 1418 2786 
Q 1159 2488 1159 1978 
L 1159 0 
L 581 0 
L 581 3500 
L 1159 3500 
L 1159 2956 
Q 1356 3278 1631 3431 
Q 1906 3584 2284 3584 
Q 2666 3584 2933 3390 
Q 3200 3197 3328 2828 
z
" transform="scale(0.015625)"/>
      <path id="DejaVuSans-69" d="M 603 3500 
L 1178 3500 
L 1178 0 
L 603 0 
L 603 3500 
z
M 603 4863 
L 1178 4863 
L 1178 4134 
L 603 4134 
L 603 4863 
z
" transform="scale(0.015625)"/>
      <path id="DejaVuSans-6e" d="M 3513 2113 
L 3513 0 
L 2938 0 
L 2938 2094 
Q 2938 2591 2744 2837 
Q 2550 3084 2163 3084 
Q 1697 3084 1428 2787 
Q 1159 2491 1159 1978 
L 1159 0 
L 581 0 
L 581 3500 
L 1159 3500 
L 1159 2956 
Q 1366 3272 1645 3428 
Q 1925 3584 2291 3584 
Q 2894 3584 3203 3211 
Q 3513 2838 3513 2113 
z
" transform="scale(0.015625)"/>
      <path id="DejaVuSans-75" d="M 544 1381 
L 544 3500 
L 1119 3500 
L 1119 1403 
Q 1119 906 1312 657 
Q 1506 409 1894 409 
Q 2359 409 2629 706 
Q 2900 1003 2900 1516 
L 2900 3500 
L 3475 3500 
L 3475 0 
L 2900 0 
L 2900 538 
Q 2691 219 2414 64 
Q 2138 -91 1772 -91 
Q 1169 -91 856 284 
Q 544 659 544 1381 
z
M 1991 3584 
L 1991 3584 
z
" transform="scale(0.015625)"/>
      <path id="DejaVuSans-74" d="M 1172 4494 
L 1172 3500 
L 2356 3500 
L 2356 3053 
L 1172 3053 
L 1172 1153 
Q 1172 725 1289 603 
Q 1406 481 1766 481 
L 2356 481 
L 2356 0 
L 1766 0 
Q 1100 0 847 248 
Q 594 497 594 1153 
L 594 3053 
L 172 3053 
L 172 3500 
L 594 3500 
L 594 4494 
L 1172 4494 
z
" transform="scale(0.015625)"/>
      <path id="DejaVuSans-65" d="M 3597 1894 
L 3597 1613 
L 953 1613 
Q 991 1019 1311 708 
Q 1631 397 2203 397 
Q 2534 397 2845 478 
Q 3156 559 3463 722 
L 3463 178 
Q 3153 47 2828 -22 
Q 2503 -91 2169 -91 
Q 1331 -91 842 396 
Q 353 884 353 1716 
Q 353 2575 817 3079 
Q 1281 3584 2069 3584 
Q 2775 3584 3186 3129 
Q 3597 2675 3597 1894 
z
M 3022 2063 
Q 3016 2534 2758 2815 
Q 2500 3097 2075 3097 
Q 1594 3097 1305 2825 
Q 1016 2553 972 2059 
L 3022 2063 
z
" transform="scale(0.015625)"/>
      <path id="DejaVuSans-20" transform="scale(0.015625)"/>
      <path id="DejaVuSans-30" d="M 2034 4250 
Q 1547 4250 1301 3770 
Q 1056 3291 1056 2328 
Q 1056 1369 1301 889 
Q 1547 409 2034 409 
Q 2525 409 2770 889 
Q 3016 1369 3016 2328 
Q 3016 3291 2770 3770 
Q 2525 4250 2034 4250 
z
M 2034 4750 
Q 2819 4750 3233 4129 
Q 3647 3509 3647 2328 
Q 3647 1150 3233 529 
Q 2819 -91 2034 -91 
Q 1250 -91 836 529 
Q 422 1150 422 2328 
Q 422 3509 836 4129 
Q 1250 4750 2034 4750 
z
" transform="scale(0.015625)"/>
     </defs>
     <use xlink:href="#DejaVuSans-6d"/>
     <use xlink:href="#DejaVuSans-69" transform="translate(97.412109 0)"/>
     <use xlink:href="#DejaVuSans-6e" transform="translate(125.195312 0)"/>
     <use xlink:href="#DejaVuSans-75" transform="translate(188.574219 0)"/>
     <use xlink:href="#DejaVuSans-74" transform="translate(251.953125 0)"/>
     <use xlink:href="#DejaVuSans-65" transform="translate(291.162109 0)"/>
     <use xlink:href="#DejaVuSans-20" transform="translate(352.685547 0)"/>
     <use xlink:href="#DejaVuSans-30" transform="translate(384.472656 0)"/>
    </g>
   </g>
  </g>
  <g id="axes_2">
   <g id="patch_11">
    <path d="M 233.336842 130.544842 
L 282.111455 130.544842 
Q 284.011765 130.544842 284.011765 128.210526 
L 284.011765 68.296421 
Q 284.011765 65.962105 282.111455 65.962105 
L 233.336842 65.962105 
Q 231.436533 65.962105 231.436533 68.296421 
L 231.436533 128.210526 
Q 231.436533 130.544842 233.336842 130.544842 
z
" clip-path="url(#p4117d2d679)" style="fill: #f1948a; stroke: #999999; stroke-width: 1.1; stroke-linejoin: miter"/>
   </g>
   <g id="patch_12">
    <path d="M 287.178947 130.544842 
L 335.95356 130.544842 
Q 337.85387 130.544842 337.85387 128.210526 
L 337.85387 68.296421 
Q 337.85387 65.962105 335.95356 65.962105 
L 287.178947 65.962105 
Q 285.278638 65.962105 285.278638 68.296421 
L 285.278638 128.210526 
Q 285.278638 130.544842 287.178947 130.544842 
z
" clip-path="url(#p4117d2d679)" style="fill: #f1948a; stroke: #999999; stroke-width: 1.1; stroke-linejoin: miter"/>
   </g>
   <g id="patch_13">
    <path d="M 341.021053 130.544842 
L 389.795666 130.544842 
Q 391.695975 130.544842 391.695975 128.210526 
L 391.695975 68.296421 
Q 391.695975 65.962105 389.795666 65.962105 
L 341.021053 65.962105 
Q 339.120743 65.962105 339.120743 68.296421 
L 339.120743 128.210526 
Q 339.120743 130.544842 341.021053 130.544842 
z
" clip-path="url(#p4117d2d679)" style="fill: #a9dfbf; stroke: #999999; stroke-width: 1.1; stroke-linejoin: miter"/>
   </g>
   <g id="patch_14">
    <path d="M 233.336842 196.683789 
L 282.111455 196.683789 
Q 284.011765 196.683789 284.011765 194.349474 
L 284.011765 134.435368 
Q 284.011765 132.101053 282.111455 132.101053 
L 233.336842 132.101053 
Q 231.436533 132.101053 231.436533 134.435368 
L 231.436533 194.349474 
Q 231.436533 196.683789 233.336842 196.683789 
z
" clip-path="url(#p4117d2d679)" style="fill: #f1948a; stroke: #999999; stroke-width: 1.1; stroke-linejoin: miter"/>
   </g>
   <g id="patch_15">
    <path d="M 287.178947 196.683789 
L 335.95356 196.683789 
Q 337.85387 196.683789 337.85387 194.349474 
L 337.85387 134.435368 
Q 337.85387 132.101053 335.95356 132.101053 
L 287.178947 132.101053 
Q 285.278638 132.101053 285.278638 134.435368 
L 285.278638 194.349474 
Q 285.278638 196.683789 287.178947 196.683789 
z
" clip-path="url(#p4117d2d679)" style="fill: #a9dfbf; stroke: #999999; stroke-width: 1.1; stroke-linejoin: miter"/>
   </g>
   <g id="patch_16">
    <path d="M 341.021053 196.683789 
L 389.795666 196.683789 
Q 391.695975 196.683789 391.695975 194.349474 
L 391.695975 134.435368 
Q 391.695975 132.101053 389.795666 132.101053 
L 341.021053 132.101053 
Q 339.120743 132.101053 339.120743 134.435368 
L 339.120743 194.349474 
Q 339.120743 196.683789 341.021053 196.683789 
z
" clip-path="url(#p4117d2d679)" style="fill: #d6eaf8; stroke: #999999; stroke-width: 1.1; stroke-linejoin: miter"/>
   </g>
   <g id="patch_17">
    <path d="M 233.336842 262.822737 
L 282.111455 262.822737 
Q 284.011765 262.822737 284.011765 260.488421 
L 284.011765 200.574316 
Q 284.011765 198.24 282.111455 198.24 
L 233.336842 198.24 
Q 231.436533 198.24 231.436533 200.574316 
L 231.436533 260.488421 
Q 231.436533 262.822737 233.336842 262.822737 
z
" clip-path="url(#p4117d2d679)" style="fill: #d6eaf8; stroke: #999999; stroke-width: 1.1; stroke-linejoin: miter"/>
   </g>
   <g id="patch_18">
    <path d="M 287.178947 262.822737 
L 335.95356 262.822737 
Q 337.85387 262.822737 337.85387 260.488421 
L 337.85387 200.574316 
Q 337.85387 198.24 335.95356 198.24 
L 287.178947 198.24 
Q 285.278638 198.24 285.278638 200.574316 
L 285.278638 260.488421 
Q 285.278638 262.822737 287.178947 262.822737 
z
" clip-path="url(#p4117d2d679)" style="fill: #a9dfbf; stroke: #999999; stroke-width: 1.1; stroke-linejoin: miter"/>
   </g>
   <g id="patch_19">
    <path d="M 341.021053 262.822737 
L 389.795666 262.822737 
Q 391.695975 262.822737 391.695975 260.488421 
L 391.695975 200.574316 
Q 391.695975 198.24 389.795666 198.24 
L 341.021053 198.24 
Q 339.120743 198.24 339.120743 200.574316 
L 339.120743 260.488421 
Q 339.120743 262.822737 341.021053 262.822737 
z
" clip-path="url(#p4117d2d679)" style="fill: #a9dfbf; stroke: #999999; stroke-width: 1.1; stroke-linejoin: miter"/>
   </g>
   <g id="text_2">
    <!-- minute 1 -->
    <g style="fill: #555555" transform="translate(291.696094 44.4) scale(0.1 -0.1)">
     <defs>
      <path id="DejaVuSans-31" d="M 794 531 
L 1825 531 
L 1825 4091 
L 703 3866 
L 703 4441 
L 1819 4666 
L 2450 4666 
L 2450 531 
L 3481 531 
L 3481 0 
L 794 0 
L 794 531 
z
" transform="scale(0.015625)"/>
     </defs>
     <use xlink:href="#DejaVuSans-6d"/>
     <use xlink:href="#DejaVuSans-69" transform="translate(97.412109 0)"/>
     <use xlink:href="#DejaVuSans-6e" transform="translate(125.195312 0)"/>
     <use xlink:href="#DejaVuSans-75" transform="translate(188.574219 0)"/>
     <use xlink:href="#DejaVuSans-74" transform="translate(251.953125 0)"/>
     <use xlink:href="#DejaVuSans-65" transform="translate(291.162109 0)"/>
     <use xlink:href="#DejaVuSans-20" transform="translate(352.685547 0)"/>
     <use xlink:href="#DejaVuSans-31" transform="translate(384.472656 0)"/>
    </g>
   </g>
  </g>
  <g id="axes_3">
   <g id="patch_20">
    <path d="M 449.972136 130.544842 
L 498.746749 130.544842 
Q 500.647059 130.544842 500.647059 128.210526 
L 500.647059 68.296421 
Q 500.647059 65.962105 498.746749 65.962105 
L 449.972136 65.962105 
Q 448.071827 65.962105 448.071827 68.296421 
L 448.071827 128.210526 
Q 448.071827 130.544842 449.972136 130.544842 
z
" clip-path="url(#p2eef15ac63)" style="fill: #f1948a; stroke: #999999; stroke-width: 1.1; stroke-linejoin: miter"/>
   </g>
   <g id="patch_21">
    <path d="M 503.814241 130.544842 
L 552.588854 130.544842 
Q 554.489164 130.544842 554.489164 128.210526 
L 554.489164 68.296421 
Q 554.489164 65.962105 552.588854 65.962105 
L 503.814241 65.962105 
Q 501.913932 65.962105 501.913932 68.296421 
L 501.913932 128.210526 
Q 501.913932 130.544842 503.814241 130.544842 
z
" clip-path="url(#p2eef15ac63)" style="fill: #f1948a; stroke: #999999; stroke-width: 1.1; stroke-linejoin: miter"/>
   </g>
   <g id="patch_22">
    <path d="M 557.656347 130.544842 
L 606.43096 130.544842 
Q 608.331269 130.544842 608.331269 128.210526 
L 608.331269 68.296421 
Q 608.331269 65.962105 606.43096 65.962105 
L 557.656347 65.962105 
Q 555.756037 65.962105 555.756037 68.296421 
L 555.756037 128.210526 
Q 555.756037 130.544842 557.656347 130.544842 
z
" clip-path="url(#p2eef15ac63)" style="fill: #f1948a; stroke: #999999; stroke-width: 1.1; stroke-linejoin: miter"/>
   </g>
   <g id="patch_23">
    <path d="M 449.972136 196.683789 
L 498.746749 196.683789 
Q 500.647059 196.683789 500.647059 194.349474 
L 500.647059 134.435368 
Q 500.647059 132.101053 498.746749 132.101053 
L 449.972136 132.101053 
Q 448.071827 132.101053 448.071827 134.435368 
L 448.071827 194.349474 
Q 448.071827 196.683789 449.972136 196.683789 
z
" clip-path="url(#p2eef15ac63)" style="fill: #f1948a; stroke: #999999; stroke-width: 1.1; stroke-linejoin: miter"/>
   </g>
   <g id="patch_24">
    <path d="M 503.814241 196.683789 
L 552.588854 196.683789 
Q 554.489164 196.683789 554.489164 194.349474 
L 554.489164 134.435368 
Q 554.489164 132.101053 552.588854 132.101053 
L 503.814241 132.101053 
Q 501.913932 132.101053 501.913932 134.435368 
L 501.913932 194.349474 
Q 501.913932 196.683789 503.814241 196.683789 
z
" clip-path="url(#p2eef15ac63)" style="fill: #f1948a; stroke: #999999; stroke-width: 1.1; stroke-linejoin: miter"/>
   </g>
   <g id="patch_25">
    <path d="M 557.656347 196.683789 
L 606.43096 196.683789 
Q 608.331269 196.683789 608.331269 194.349474 
L 608.331269 134.435368 
Q 608.331269 132.101053 606.43096 132.101053 
L 557.656347 132.101053 
Q 555.756037 132.101053 555.756037 134.435368 
L 555.756037 194.349474 
Q 555.756037 196.683789 557.656347 196.683789 
z
" clip-path="url(#p2eef15ac63)" style="fill: #d6eaf8; stroke: #999999; stroke-width: 1.1; stroke-linejoin: miter"/>
   </g>
   <g id="patch_26">
    <path d="M 449.972136 262.822737 
L 498.746749 262.822737 
Q 500.647059 262.822737 500.647059 260.488421 
L 500.647059 200.574316 
Q 500.647059 198.24 498.746749 198.24 
L 449.972136 198.24 
Q 448.071827 198.24 448.071827 200.574316 
L 448.071827 260.488421 
Q 448.071827 262.822737 449.972136 262.822737 
z
" clip-path="url(#p2eef15ac63)" style="fill: #d6eaf8; stroke: #999999; stroke-width: 1.1; stroke-linejoin: miter"/>
   </g>
   <g id="patch_27">
    <path d="M 503.814241 262.822737 
L 552.588854 262.822737 
Q 554.489164 262.822737 554.489164 260.488421 
L 554.489164 200.574316 
Q 554.489164 198.24 552.588854 198.24 
L 503.814241 198.24 
Q 501.913932 198.24 501.913932 200.574316 
L 501.913932 260.488421 
Q 501.913932 262.822737 503.814241 262.822737 
z
" clip-path="url(#p2eef15ac63)" style="fill: #a9dfbf; stroke: #999999; stroke-width: 1.1; stroke-linejoin: miter"/>
   </g>
   <g id="patch_28">
    <path d="M 557.656347 262.822737 
L 606.43096 262.822737 
Q 608.331269 262.822737 608.331269 260.488421 
L 608.331269 200.574316 
Q 608.331269 198.24 606.43096 198.24 
L 557.656347 198.24 
Q 555.756037 198.24 555.756037 200.574316 
L 555.756037 260.488421 
Q 555.756037 262.822737 557.656347 262.822737 
z
" clip-path="url(#p2eef15ac63)" style="fill: #a9dfbf; stroke: #999999; stroke-width: 1.1; stroke-linejoin: miter"/>
   </g>
   <g id="text_3">
    <!-- minute 2 -->
    <g style="fill: #555555" transform="translate(508.331388 44.4) scale(0.1 -0.1)">
     <defs>
      <path id="DejaVuSans-32" d="M 1228 531 
L 3431 531 
L 3431 0 
L 469 0 
L 469 531 
Q 828 903 1448 1529 
Q 2069 2156 2228 2338 
Q 2531 2678 2651 2914 
Q 2772 3150 2772 3378 
Q 2772 3750 2511 3984 
Q 2250 4219 1831 4219 
Q 1534 4219 1204 4116 
Q 875 4013 500 3803 
L 500 4441 
Q 881 4594 1212 4672 
Q 1544 4750 1819 4750 
Q 2544 4750 2975 4387 
Q 3406 4025 3406 3419 
Q 3406 3131 3298 2873 
Q 3191 2616 2906 2266 
Q 2828 2175 2409 1742 
Q 1991 1309 1228 531 
z
" transform="scale(0.015625)"/>
     </defs>
     <use xlink:href="#DejaVuSans-6d"/>
     <use xlink:href="#DejaVuSans-69" transform="translate(97.412109 0)"/>
     <use xlink:href="#DejaVuSans-6e" transform="translate(125.195312 0)"/>
     <use xlink:href="#DejaVuSans-75" transform="translate(188.574219 0)"/>
     <use xlink:href="#DejaVuSans-74" transform="translate(251.953125 0)"/>
     <use xlink:href="#DejaVuSans-65" transform="translate(291.162109 0)"/>
     <use xlink:href="#DejaVuSans-20" transform="translate(352.685547 0)"/>
     <use xlink:href="#DejaVuSans-32" transform="translate(384.472656 0)"/>
    </g>
   </g>
   <g id="legend_1">
    <g id="patch_29">
     <path d="M 564.135 268.16 
L 615.4 268.16 
Q 617 268.16 617 266.56 
L 617 232.1325 
Q 617 230.5325 615.4 230.5325 
L 564.135 230.5325 
Q 562.535 230.5325 562.535 232.1325 
L 562.535 266.56 
Q 562.535 268.16 564.135 268.16 
z
" style="fill: #ffffff; opacity: 0.9; stroke: #cccccc; stroke-linejoin: miter"/>
    </g>
    <g id="patch_30">
     <path d="M 565.735 239.81125 
L 581.735 239.81125 
L 581.735 234.21125 
L 565.735 234.21125 
z
" style="fill: #f1948a; stroke: #999999; stroke-linejoin: miter"/>
    </g>
    <g id="text_4">
     <!-- rotten -->
     <g transform="translate(588.135 239.81125) scale(0.08 -0.08)">
      <defs>
       <path id="DejaVuSans-72" d="M 2631 2963 
Q 2534 3019 2420 3045 
Q 2306 3072 2169 3072 
Q 1681 3072 1420 2755 
Q 1159 2438 1159 1844 
L 1159 0 
L 581 0 
L 581 3500 
L 1159 3500 
L 1159 2956 
Q 1341 3275 1631 3429 
Q 1922 3584 2338 3584 
Q 2397 3584 2469 3576 
Q 2541 3569 2628 3553 
L 2631 2963 
z
" transform="scale(0.015625)"/>
       <path id="DejaVuSans-6f" d="M 1959 3097 
Q 1497 3097 1228 2736 
Q 959 2375 959 1747 
Q 959 1119 1226 758 
Q 1494 397 1959 397 
Q 2419 397 2687 759 
Q 2956 1122 2956 1747 
Q 2956 2369 2687 2733 
Q 2419 3097 1959 3097 
z
M 1959 3584 
Q 2709 3584 3137 3096 
Q 3566 2609 3566 1747 
Q 3566 888 3137 398 
Q 2709 -91 1959 -91 
Q 1206 -91 779 398 
Q 353 888 353 1747 
Q 353 2609 779 3096 
Q 1206 3584 1959 3584 
z
" transform="scale(0.015625)"/>
      </defs>
      <use xlink:href="#DejaVuSans-72"/>
      <use xlink:href="#DejaVuSans-6f" transform="translate(38.863281 0)"/>
      <use xlink:href="#DejaVuSans-74" transform="translate(100.044922 0)"/>
      <use xlink:href="#DejaVuSans-74" transform="translate(139.253906 0)"/>
      <use xlink:href="#DejaVuSans-65" transform="translate(178.462891 0)"/>
      <use xlink:href="#DejaVuSans-6e" transform="translate(239.986328 0)"/>
     </g>
    </g>
    <g id="patch_31">
     <path d="M 565.735 251.55375 
L 581.735 251.55375 
L 581.735 245.95375 
L 565.735 245.95375 
z
" style="fill: #a9dfbf; stroke: #999999; stroke-linejoin: miter"/>
    </g>
    <g id="text_5">
     <!-- fresh -->
     <g transform="translate(588.135 251.55375) scale(0.08 -0.08)">
      <defs>
       <path id="DejaVuSans-66" d="M 2375 4863 
L 2375 4384 
L 1825 4384 
Q 1516 4384 1395 4259 
Q 1275 4134 1275 3809 
L 1275 3500 
L 2222 3500 
L 2222 3053 
L 1275 3053 
L 1275 0 
L 697 0 
L 697 3053 
L 147 3053 
L 147 3500 
L 697 3500 
L 697 3744 
Q 697 4328 969 4595 
Q 1241 4863 1831 4863 
L 2375 4863 
z
" transform="scale(0.015625)"/>
       <path id="DejaVuSans-73" d="M 2834 3397 
L 2834 2853 
Q 2591 2978 2328 3040 
Q 2066 3103 1784 3103 
Q 1356 3103 1142 2972 
Q 928 2841 928 2578 
Q 928 2378 1081 2264 
Q 1234 2150 1697 2047 
L 1894 2003 
Q 2506 1872 2764 1633 
Q 3022 1394 3022 966 
Q 3022 478 2636 193 
Q 2250 -91 1575 -91 
Q 1294 -91 989 -36 
Q 684 19 347 128 
L 347 722 
Q 666 556 975 473 
Q 1284 391 1588 391 
Q 1994 391 2212 530 
Q 2431 669 2431 922 
Q 2431 1156 2273 1281 
Q 2116 1406 1581 1522 
L 1381 1569 
Q 847 1681 609 1914 
Q 372 2147 372 2553 
Q 372 3047 722 3315 
Q 1072 3584 1716 3584 
Q 2034 3584 2315 3537 
Q 2597 3491 2834 3397 
z
" transform="scale(0.015625)"/>
       <path id="DejaVuSans-68" d="M 3513 2113 
L 3513 0 
L 2938 0 
L 2938 2094 
Q 2938 2591 2744 2837 
Q 2550 3084 2163 3084 
Q 1697 3084 1428 2787 
Q 1159 2491 1159 1978 
L 1159 0 
L 581 0 
L 581 4863 
L 1159 4863 
L 1159 2956 
Q 1366 3272 1645 3428 
Q 1925 3584 2291 3584 
Q 2894 3584 3203 3211 
Q 3513 2838 3513 2113 
z
" transform="scale(0.015625)"/>
      </defs>
      <use xlink:href="#DejaVuSans-66"/>
      <use xlink:href="#DejaVuSans-72" transform="translate(35.205078 0)"/>
      <use xlink:href="#DejaVuSans-65" transform="translate(74.068359 0)"/>
      <use xlink:href="#DejaVuSans-73" transform="translate(135.591797 0)"/>
      <use xlink:href="#DejaVuSans-68" transform="translate(187.691406 0)"/>
     </g>
    </g>
    <g id="patch_32">
     <path d="M 565.735 263.29625 
L 581.735 263.29625 
L 581.735 257.69625 
L 565.735 257.69625 
z
" style="fill: #d6eaf8; stroke: #999999; stroke-linejoin: miter"/>
    </g>
    <g id="text_6">
     <!-- empty -->
     <g transform="translate(588.135 263.29625) scale(0.08 -0.08)">
      <defs>
       <path id="DejaVuSans-70" d="M 1159 525 
L 1159 -1331 
L 581 -1331 
L 581 3500 
L 1159 3500 
L 1159 2969 
Q 1341 3281 1617 3432 
Q 1894 3584 2278 3584 
Q 2916 3584 3314 3078 
Q 3713 2572 3713 1747 
Q 3713 922 3314 415 
Q 2916 -91 2278 -91 
Q 1894 -91 1617 61 
Q 1341 213 1159 525 
z
M 3116 1747 
Q 3116 2381 2855 2742 
Q 2594 3103 2138 3103 
Q 1681 3103 1420 2742 
Q 1159 2381 1159 1747 
Q 1159 1113 1420 752 
Q 1681 391 2138 391 
Q 2594 391 2855 752 
Q 3116 1113 3116 1747 
z
" transform="scale(0.015625)"/>
       <path id="DejaVuSans-79" d="M 2059 -325 
Q 1816 -950 1584 -1140 
Q 1353 -1331 966 -1331 
L 506 -1331 
L 506 -850 
L 844 -850 
Q 1081 -850 1212 -737 
Q 1344 -625 1503 -206 
L 1606 56 
L 191 3500 
L 800 3500 
L 1894 763 
L 2988 3500 
L 3597 3500 
L 2059 -325 
z
" transform="scale(0.015625)"/>
      </defs>
      <use xlink:href="#DejaVuSans-65"/>
      <use xlink:href="#DejaVuSans-6d" transform="translate(61.523438 0)"/>
      <use xlink:href="#DejaVuSans-70" transform="translate(158.935547 0)"/>
      <use xlink:href="#DejaVuSans-74" transform="translate(222.412109 0)"/>
      <use xlink:href="#DejaVuSans-79" transform="translate(261.621094 0)"/>
     </g>
    </g>
   </g>
  </g>
  <g id="text_7">
   <!-- Rotting Oranges — Multi-source BFS (minute 0 -&gt; 1 -&gt; 2) -->
   <g transform="translate(132.579375 16.318125) scale(0.12 -0.12)">
    <defs>
     <path id="DejaVuSans-52" d="M 2841 2188 
Q 3044 2119 3236 1894 
Q 3428 1669 3622 1275 
L 4263 0 
L 3584 0 
L 2988 1197 
Q 2756 1666 2539 1819 
Q 2322 1972 1947 1972 
L 1259 1972 
L 1259 0 
L 628 0 
L 628 4666 
L 2053 4666 
Q 2853 4666 3247 4331 
Q 3641 3997 3641 3322 
Q 3641 2881 3436 2590 
Q 3231 2300 2841 2188 
z
M 1259 4147 
L 1259 2491 
L 2053 2491 
Q 2509 2491 2742 2702 
Q 2975 2913 2975 3322 
Q 2975 3731 2742 3939 
Q 2509 4147 2053 4147 
L 1259 4147 
z
" transform="scale(0.015625)"/>
     <path id="DejaVuSans-67" d="M 2906 1791 
Q 2906 2416 2648 2759 
Q 2391 3103 1925 3103 
Q 1463 3103 1205 2759 
Q 947 2416 947 1791 
Q 947 1169 1205 825 
Q 1463 481 1925 481 
Q 2391 481 2648 825 
Q 2906 1169 2906 1791 
z
M 3481 434 
Q 3481 -459 3084 -895 
Q 2688 -1331 1869 -1331 
Q 1566 -1331 1297 -1286 
Q 1028 -1241 775 -1147 
L 775 -588 
Q 1028 -725 1275 -790 
Q 1522 -856 1778 -856 
Q 2344 -856 2625 -561 
Q 2906 -266 2906 331 
L 2906 616 
Q 2728 306 2450 153 
Q 2172 0 1784 0 
Q 1141 0 747 490 
Q 353 981 353 1791 
Q 353 2603 747 3093 
Q 1141 3584 1784 3584 
Q 2172 3584 2450 3431 
Q 2728 3278 2906 2969 
L 2906 3500 
L 3481 3500 
L 3481 434 
z
" transform="scale(0.015625)"/>
     <path id="DejaVuSans-4f" d="M 2522 4238 
Q 1834 4238 1429 3725 
Q 1025 3213 1025 2328 
Q 1025 1447 1429 934 
Q 1834 422 2522 422 
Q 3209 422 3611 934 
Q 4013 1447 4013 2328 
Q 4013 3213 3611 3725 
Q 3209 4238 2522 4238 
z
M 2522 4750 
Q 3503 4750 4090 4092 
Q 4678 3434 4678 2328 
Q 4678 1225 4090 567 
Q 3503 -91 2522 -91 
Q 1538 -91 948 565 
Q 359 1222 359 2328 
Q 359 3434 948 4092 
Q 1538 4750 2522 4750 
z
" transform="scale(0.015625)"/>
     <path id="DejaVuSans-61" d="M 2194 1759 
Q 1497 1759 1228 1600 
Q 959 1441 959 1056 
Q 959 750 1161 570 
Q 1363 391 1709 391 
Q 2188 391 2477 730 
Q 2766 1069 2766 1631 
L 2766 1759 
L 2194 1759 
z
M 3341 1997 
L 3341 0 
L 2766 0 
L 2766 531 
Q 2569 213 2275 61 
Q 1981 -91 1556 -91 
Q 1019 -91 701 211 
Q 384 513 384 1019 
Q 384 1609 779 1909 
Q 1175 2209 1959 2209 
L 2766 2209 
L 2766 2266 
Q 2766 2663 2505 2880 
Q 2244 3097 1772 3097 
Q 1472 3097 1187 3025 
Q 903 2953 641 2809 
L 641 3341 
Q 956 3463 1253 3523 
Q 1550 3584 1831 3584 
Q 2591 3584 2966 3190 
Q 3341 2797 3341 1997 
z
" transform="scale(0.015625)"/>
     <path id="DejaVuSans-2014" d="M 313 1978 
L 6088 1978 
L 6088 1528 
L 313 1528 
L 313 1978 
z
" transform="scale(0.015625)"/>
     <path id="DejaVuSans-4d" d="M 628 4666 
L 1569 4666 
L 2759 1491 
L 3956 4666 
L 4897 4666 
L 4897 0 
L 4281 0 
L 4281 4097 
L 3078 897 
L 2444 897 
L 1241 4097 
L 1241 0 
L 628 0 
L 628 4666 
z
" transform="scale(0.015625)"/>
     <path id="DejaVuSans-6c" d="M 603 4863 
L 1178 4863 
L 1178 0 
L 603 0 
L 603 4863 
z
" transform="scale(0.015625)"/>
     <path id="DejaVuSans-2d" d="M 313 2009 
L 1997 2009 
L 1997 1497 
L 313 1497 
L 313 2009 
z
" transform="scale(0.015625)"/>
     <path id="DejaVuSans-63" d="M 3122 3366 
L 3122 2828 
Q 2878 2963 2633 3030 
Q 2388 3097 2138 3097 
Q 1578 3097 1268 2742 
Q 959 2388 959 1747 
Q 959 1106 1268 751 
Q 1578 397 2138 397 
Q 2388 397 2633 464 
Q 2878 531 3122 666 
L 3122 134 
Q 2881 22 2623 -34 
Q 2366 -91 2075 -91 
Q 1284 -91 818 406 
Q 353 903 353 1747 
Q 353 2603 823 3093 
Q 1294 3584 2113 3584 
Q 2378 3584 2631 3529 
Q 2884 3475 3122 3366 
z
" transform="scale(0.015625)"/>
     <path id="DejaVuSans-42" d="M 1259 2228 
L 1259 519 
L 2272 519 
Q 2781 519 3026 730 
Q 3272 941 3272 1375 
Q 3272 1813 3026 2020 
Q 2781 2228 2272 2228 
L 1259 2228 
z
M 1259 4147 
L 1259 2741 
L 2194 2741 
Q 2656 2741 2882 2914 
Q 3109 3088 3109 3444 
Q 3109 3797 2882 3972 
Q 2656 4147 2194 4147 
L 1259 4147 
z
M 628 4666 
L 2241 4666 
Q 2963 4666 3353 4366 
Q 3744 4066 3744 3513 
Q 3744 3084 3544 2831 
Q 3344 2578 2956 2516 
Q 3422 2416 3680 2098 
Q 3938 1781 3938 1306 
Q 3938 681 3513 340 
Q 3088 0 2303 0 
L 628 0 
L 628 4666 
z
" transform="scale(0.015625)"/>
     <path id="DejaVuSans-46" d="M 628 4666 
L 3309 4666 
L 3309 4134 
L 1259 4134 
L 1259 2759 
L 3109 2759 
L 3109 2228 
L 1259 2228 
L 1259 0 
L 628 0 
L 628 4666 
z
" transform="scale(0.015625)"/>
     <path id="DejaVuSans-53" d="M 3425 4513 
L 3425 3897 
Q 3066 4069 2747 4153 
Q 2428 4238 2131 4238 
Q 1616 4238 1336 4038 
Q 1056 3838 1056 3469 
Q 1056 3159 1242 3001 
Q 1428 2844 1947 2747 
L 2328 2669 
Q 3034 2534 3370 2195 
Q 3706 1856 3706 1288 
Q 3706 609 3251 259 
Q 2797 -91 1919 -91 
Q 1588 -91 1214 -16 
Q 841 59 441 206 
L 441 856 
Q 825 641 1194 531 
Q 1563 422 1919 422 
Q 2459 422 2753 634 
Q 3047 847 3047 1241 
Q 3047 1584 2836 1778 
Q 2625 1972 2144 2069 
L 1759 2144 
Q 1053 2284 737 2584 
Q 422 2884 422 3419 
Q 422 4038 858 4394 
Q 1294 4750 2059 4750 
Q 2388 4750 2728 4690 
Q 3069 4631 3425 4513 
z
" transform="scale(0.015625)"/>
     <path id="DejaVuSans-28" d="M 1984 4856 
Q 1566 4138 1362 3434 
Q 1159 2731 1159 2009 
Q 1159 1288 1364 580 
Q 1569 -128 1984 -844 
L 1484 -844 
Q 1016 -109 783 600 
Q 550 1309 550 2009 
Q 550 2706 781 3412 
Q 1013 4119 1484 4856 
L 1984 4856 
z
" transform="scale(0.015625)"/>
     <path id="DejaVuSans-3e" d="M 678 3150 
L 678 3719 
L 4684 2266 
L 4684 1747 
L 678 294 
L 678 863 
L 3897 2003 
L 678 3150 
z
" transform="scale(0.015625)"/>
     <path id="DejaVuSans-29" d="M 513 4856 
L 1013 4856 
Q 1481 4119 1714 3412 
Q 1947 2706 1947 2009 
Q 1947 1309 1714 600 
Q 1481 -109 1013 -844 
L 513 -844 
Q 928 -128 1133 580 
Q 1338 1288 1338 2009 
Q 1338 2731 1133 3434 
Q 928 4138 513 4856 
z
" transform="scale(0.015625)"/>
    </defs>
    <use xlink:href="#DejaVuSans-52"/>
    <use xlink:href="#DejaVuSans-6f" transform="translate(64.982422 0)"/>
    <use xlink:href="#DejaVuSans-74" transform="translate(126.164062 0)"/>
    <use xlink:href="#DejaVuSans-74" transform="translate(165.373047 0)"/>
    <use xlink:href="#DejaVuSans-69" transform="translate(204.582031 0)"/>
    <use xlink:href="#DejaVuSans-6e" transform="translate(232.365234 0)"/>
    <use xlink:href="#DejaVuSans-67" transform="translate(295.744141 0)"/>
    <use xlink:href="#DejaVuSans-20" transform="translate(359.220703 0)"/>
    <use xlink:href="#DejaVuSans-4f" transform="translate(391.007812 0)"/>
    <use xlink:href="#DejaVuSans-72" transform="translate(469.71875 0)"/>
    <use xlink:href="#DejaVuSans-61" transform="translate(510.832031 0)"/>
    <use xlink:href="#DejaVuSans-6e" transform="translate(572.111328 0)"/>
    <use xlink:href="#DejaVuSans-67" transform="translate(635.490234 0)"/>
    <use xlink:href="#DejaVuSans-65" transform="translate(698.966797 0)"/>
    <use xlink:href="#DejaVuSans-73" transform="translate(760.490234 0)"/>
    <use xlink:href="#DejaVuSans-20" transform="translate(812.589844 0)"/>
    <use xlink:href="#DejaVuSans-2014" transform="translate(844.376953 0)"/>
    <use xlink:href="#DejaVuSans-20" transform="translate(944.376953 0)"/>
    <use xlink:href="#DejaVuSans-4d" transform="translate(976.164062 0)"/>
    <use xlink:href="#DejaVuSans-75" transform="translate(1062.443359 0)"/>
    <use xlink:href="#DejaVuSans-6c" transform="translate(1125.822266 0)"/>
    <use xlink:href="#DejaVuSans-74" transform="translate(1153.605469 0)"/>
    <use xlink:href="#DejaVuSans-69" transform="translate(1192.814453 0)"/>
    <use xlink:href="#DejaVuSans-2d" transform="translate(1220.597656 0)"/>
    <use xlink:href="#DejaVuSans-73" transform="translate(1256.681641 0)"/>
    <use xlink:href="#DejaVuSans-6f" transform="translate(1308.78125 0)"/>
    <use xlink:href="#DejaVuSans-75" transform="translate(1369.962891 0)"/>
    <use xlink:href="#DejaVuSans-72" transform="translate(1433.341797 0)"/>
    <use xlink:href="#DejaVuSans-63" transform="translate(1472.205078 0)"/>
    <use xlink:href="#DejaVuSans-65" transform="translate(1527.185547 0)"/>
    <use xlink:href="#DejaVuSans-20" transform="translate(1588.708984 0)"/>
    <use xlink:href="#DejaVuSans-42" transform="translate(1620.496094 0)"/>
    <use xlink:href="#DejaVuSans-46" transform="translate(1689.099609 0)"/>
    <use xlink:href="#DejaVuSans-53" transform="translate(1744.869141 0)"/>
    <use xlink:href="#DejaVuSans-20" transform="translate(1808.345703 0)"/>
    <use xlink:href="#DejaVuSans-28" transform="translate(1840.132812 0)"/>
    <use xlink:href="#DejaVuSans-6d" transform="translate(1879.146484 0)"/>
    <use xlink:href="#DejaVuSans-69" transform="translate(1976.558594 0)"/>
    <use xlink:href="#DejaVuSans-6e" transform="translate(2004.341797 0)"/>
    <use xlink:href="#DejaVuSans-75" transform="translate(2067.720703 0)"/>
    <use xlink:href="#DejaVuSans-74" transform="translate(2131.099609 0)"/>
    <use xlink:href="#DejaVuSans-65" transform="translate(2170.308594 0)"/>
    <use xlink:href="#DejaVuSans-20" transform="translate(2231.832031 0)"/>
    <use xlink:href="#DejaVuSans-30" transform="translate(2263.619141 0)"/>
    <use xlink:href="#DejaVuSans-20" transform="translate(2327.242188 0)"/>
    <use xlink:href="#DejaVuSans-2d" transform="translate(2359.029297 0)"/>
    <use xlink:href="#DejaVuSans-3e" transform="translate(2395.113281 0)"/>
    <use xlink:href="#DejaVuSans-20" transform="translate(2478.902344 0)"/>
    <use xlink:href="#DejaVuSans-31" transform="translate(2510.689453 0)"/>
    <use xlink:href="#DejaVuSans-20" transform="translate(2574.3125 0)"/>
    <use xlink:href="#DejaVuSans-2d" transform="translate(2606.099609 0)"/>
    <use xlink:href="#DejaVuSans-3e" transform="translate(2642.183594 0)"/>
    <use xlink:href="#DejaVuSans-20" transform="translate(2725.972656 0)"/>
    <use xlink:href="#DejaVuSans-32" transform="translate(2757.759766 0)"/>
    <use xlink:href="#DejaVuSans-29" transform="translate(2821.382812 0)"/>
   </g>
  </g>
 </g>
 <defs>
  <clipPath id="pc67c2556fc">
   <rect x="7.2" y="50.4" width="180.529412" height="221.76"/>
  </clipPath>
  <clipPath id="p4117d2d679">
   <rect x="223.835294" y="50.4" width="180.529412" height="221.76"/>
  </clipPath>
  <clipPath id="p2eef15ac63">
   <rect x="440.470588" y="50.4" width="180.529412" height="221.76"/>
  </clipPath>
 </defs>
</svg>
