<?xml version="1.0" encoding="utf-8" standalone="no"?>
<!DOCTYPE svg PUBLIC "-//W3C//DTD SVG 1.1//EN"
  "http://www.w3.org/Graphics/SVG/1.1/DTD/svg11.dtd">
<svg xmlns:xlink="http://www.w3.org/1999/xlink" width="460.8pt" height="315.477969pt" viewBox="0 0 460.8 315.477969" xmlns="http://www.w3.org/2000/svg" version="1.1">
 <metadata>
  <rdf:RDF xmlns:dc="http://purl.org/dc/elements/1.1/" xmlns:cc="http://creativecommons.org/ns#" xmlns:rdf="http://www.w3.org/1999/02/22-rdf-syntax-ns#">
   <cc:Work>
    <dc:type rdf:resource="http://purl.org/dc/dcmitype/StillImage"/>
    <dc:date>2026-07-04T08:30:03.338026</dc:date>
    <dc:format>image/svg+xml</dc:format>
    <dc:creator>
     <cc:Agent>
      <dc:title>Matplotlib v3.10.8, https://matplotlib.org/</dc:title>
     </cc:Agent>
    </dc:creator>
   </cc:Work>
  </rdf:RDF>
 </metadata>
 <defs>
  <style type="text/css">*{stroke-linejoin: round; stroke-linecap: butt}</style>
 </defs>
 <g id="figure_1">
  <g id="patch_1">
   <path d="M 0 315.477969 
L 460.8 315.477969 
L 460.8 0 
L 0 0 
z
" style="fill: #fafaf9"/>
  </g>
  <g id="axes_1">
   <g id="line2d_1">
    <path d="M 230.4 76.520592 
L 118.8 144.684526 
" clip-path="url(#p6034259d37)" style="fill: none; stroke: #999999; stroke-width: 1.5; stroke-linecap: square"/>
   </g>
   <g id="line2d_2">
    <path d="M 230.4 76.520592 
L 342 144.684526 
" clip-path="url(#p6034259d37)" style="fill: none; stroke: #999999; stroke-width: 1.5; stroke-linecap: square"/>
   </g>
   <g id="line2d_3">
    <path d="M 342 144.684526 
L 286.2 212.848461 
" clip-path="url(#p6034259d37)" style="fill: none; stroke: #999999; stroke-width: 1.5; stroke-linecap: square"/>
   </g>
   <g id="line2d_4">
    <path d="M 342 144.684526 
L 397.8 212.848461 
" clip-path="url(#p6034259d37)" style="fill: none; stroke: #999999; stroke-width: 1.5; stroke-linecap: square"/>
   </g>
   <g id="patch_2">
    <path d="M 230.4 96.969772 
C 237.05925 96.969772 243.446651 94.815117 248.155451 90.980346 
C 252.864252 87.145574 255.51 81.943778 255.51 76.520592 
C 255.51 71.097406 252.864252 65.895609 248.155451 62.060838 
C 243.446651 58.226066 237.05925 56.071411 230.4 56.071411 
C 223.74075 56.071411 217.353349 58.226066 212.644549 62.060838 
C 207.935748 65.895609 205.29 71.097406 205.29 76.520592 
C 205.29 81.943778 207.935748 87.145574 212.644549 90.980346 
C 217.353349 94.815117 223.74075 96.969772 230.4 96.969772 
z
" clip-path="url(#p6034259d37)" style="fill: #c8e6c9; stroke: #666666; stroke-width: 1.3; stroke-linejoin: miter"/>
   </g>
   <g id="patch_3">
    <path d="M 118.8 165.133706 
C 125.45925 165.133706 131.846651 162.979052 136.555451 159.14428 
C 141.264252 155.309509 143.91 150.107712 143.91 144.684526 
C 143.91 139.26134 141.264252 134.059544 136.555451 130.224772 
C 131.846651 126.39 125.45925 124.235346 118.8 124.235346 
C 112.14075 124.235346 105.753349 126.39 101.044549 130.224772 
C 96.335748 134.059544 93.69 139.26134 93.69 144.684526 
C 93.69 150.107712 96.335748 155.309509 101.044549 159.14428 
C 105.753349 162.979052 112.14075 165.133706 118.8 165.133706 
z
" clip-path="url(#p6034259d37)" style="fill: #d6eaf8; stroke: #666666; stroke-width: 1.3; stroke-linejoin: miter"/>
   </g>
   <g id="patch_4">
    <path d="M 342 165.133706 
C 348.65925 165.133706 355.046651 162.979052 359.755451 159.14428 
C 364.464252 155.309509 367.11 150.107712 367.11 144.684526 
C 367.11 139.26134 364.464252 134.059544 359.755451 130.224772 
C 355.046651 126.39 348.65925 124.235346 342 124.235346 
C 335.34075 124.235346 328.953349 126.39 324.244549 130.224772 
C 319.535748 134.059544 316.89 139.26134 316.89 144.684526 
C 316.89 150.107712 319.535748 155.309509 324.244549 159.14428 
C 328.953349 162.979052 335.34075 165.133706 342 165.133706 
z
" clip-path="url(#p6034259d37)" style="fill: #d6eaf8; stroke: #666666; stroke-width: 1.3; stroke-linejoin: miter"/>
   </g>
   <g id="patch_5">
    <path d="M 286.2 233.297641 
C 292.85925 233.297641 299.246651 231.142986 303.955451 227.308215 
C 308.664252 223.473443 311.31 218.271647 311.31 212.848461 
C 311.31 207.425275 308.664252 202.223478 303.955451 198.388706 
C 299.246651 194.553935 292.85925 192.39928 286.2 192.39928 
C 279.54075 192.39928 273.153349 194.553935 268.444549 198.388706 
C 263.735748 202.223478 261.09 207.425275 261.09 212.848461 
C 261.09 218.271647 263.735748 223.473443 268.444549 227.308215 
C 273.153349 231.142986 279.54075 233.297641 286.2 233.297641 
z
" clip-path="url(#p6034259d37)" style="fill: #fadbd8; stroke: #666666; stroke-width: 1.3; stroke-linejoin: miter"/>
   </g>
   <g id="patch_6">
    <path d="M 397.8 233.297641 
C 404.45925 233.297641 410.846651 231.142986 415.555451 227.308215 
C 420.264252 223.473443 422.91 218.271647 422.91 212.848461 
C 422.91 207.425275 420.264252 202.223478 415.555451 198.388706 
C 410.846651 194.553935 404.45925 192.39928 397.8 192.39928 
C 391.14075 192.39928 384.753349 194.553935 380.044549 198.388706 
C 375.335748 202.223478 372.69 207.425275 372.69 212.848461 
C 372.69 218.271647 375.335748 223.473443 380.044549 227.308215 
C 384.753349 231.142986 391.14075 233.297641 397.8 233.297641 
z
" clip-path="url(#p6034259d37)" style="fill: #fadbd8; stroke: #666666; stroke-width: 1.3; stroke-linejoin: miter"/>
   </g>
   <g id="text_1">
    <!-- 3 -->
    <g transform="translate(225.877422 80.107779) scale(0.13 -0.13)">
     <defs>
      <path id="DejaVuSans-Bold-33" d="M 2981 2516 
Q 3453 2394 3698 2092 
Q 3944 1791 3944 1325 
Q 3944 631 3412 270 
Q 2881 -91 1863 -91 
Q 1503 -91 1142 -33 
Q 781 25 428 141 
L 428 1069 
Q 766 900 1098 814 
Q 1431 728 1753 728 
Q 2231 728 2486 893 
Q 2741 1059 2741 1369 
Q 2741 1688 2480 1852 
Q 2219 2016 1709 2016 
L 1228 2016 
L 1228 2791 
L 1734 2791 
Q 2188 2791 2409 2933 
Q 2631 3075 2631 3366 
Q 2631 3634 2415 3781 
Q 2200 3928 1806 3928 
Q 1516 3928 1219 3862 
Q 922 3797 628 3669 
L 628 4550 
Q 984 4650 1334 4700 
Q 1684 4750 2022 4750 
Q 2931 4750 3382 4451 
Q 3834 4153 3834 3553 
Q 3834 3144 3618 2883 
Q 3403 2622 2981 2516 
z
" transform="scale(0.015625)"/>
     </defs>
     <use xlink:href="#DejaVuSans-Bold-33"/>
    </g>
   </g>
   <g id="text_2">
    <!-- 9 -->
    <g transform="translate(114.277422 148.271714) scale(0.13 -0.13)">
     <defs>
      <path id="DejaVuSans-Bold-39" d="M 641 103 
L 641 966 
Q 928 831 1190 764 
Q 1453 697 1709 697 
Q 2247 697 2547 995 
Q 2847 1294 2900 1881 
Q 2688 1725 2447 1647 
Q 2206 1569 1925 1569 
Q 1209 1569 770 1986 
Q 331 2403 331 3084 
Q 331 3838 820 4291 
Q 1309 4744 2131 4744 
Q 3044 4744 3544 4128 
Q 4044 3513 4044 2388 
Q 4044 1231 3459 570 
Q 2875 -91 1856 -91 
Q 1528 -91 1228 -42 
Q 928 6 641 103 
z
M 2125 2350 
Q 2441 2350 2600 2554 
Q 2759 2759 2759 3169 
Q 2759 3575 2600 3781 
Q 2441 3988 2125 3988 
Q 1809 3988 1650 3781 
Q 1491 3575 1491 3169 
Q 1491 2759 1650 2554 
Q 1809 2350 2125 2350 
z
" transform="scale(0.015625)"/>
     </defs>
     <use xlink:href="#DejaVuSans-Bold-39"/>
    </g>
   </g>
   <g id="text_3">
    <!-- 20 -->
    <g transform="translate(332.954844 148.271714) scale(0.13 -0.13)">
     <defs>
      <path id="DejaVuSans-Bold-32" d="M 1844 884 
L 3897 884 
L 3897 0 
L 506 0 
L 506 884 
L 2209 2388 
Q 2438 2594 2547 2791 
Q 2656 2988 2656 3200 
Q 2656 3528 2436 3728 
Q 2216 3928 1850 3928 
Q 1569 3928 1234 3808 
Q 900 3688 519 3450 
L 519 4475 
Q 925 4609 1322 4679 
Q 1719 4750 2100 4750 
Q 2938 4750 3402 4381 
Q 3866 4013 3866 3353 
Q 3866 2972 3669 2642 
Q 3472 2313 2841 1759 
L 1844 884 
z
" transform="scale(0.015625)"/>
      <path id="DejaVuSans-Bold-30" d="M 2944 2338 
Q 2944 3213 2780 3570 
Q 2616 3928 2228 3928 
Q 1841 3928 1675 3570 
Q 1509 3213 1509 2338 
Q 1509 1453 1675 1090 
Q 1841 728 2228 728 
Q 2613 728 2778 1090 
Q 2944 1453 2944 2338 
z
M 4147 2328 
Q 4147 1169 3647 539 
Q 3147 -91 2228 -91 
Q 1306 -91 806 539 
Q 306 1169 306 2328 
Q 306 3491 806 4120 
Q 1306 4750 2228 4750 
Q 3147 4750 3647 4120 
Q 4147 3491 4147 2328 
z
" transform="scale(0.015625)"/>
     </defs>
     <use xlink:href="#DejaVuSans-Bold-32"/>
     <use xlink:href="#DejaVuSans-Bold-30" transform="translate(69.580078 0)"/>
    </g>
   </g>
   <g id="text_4">
    <!-- 15 -->
    <g transform="translate(277.154844 216.435648) scale(0.13 -0.13)">
     <defs>
      <path id="DejaVuSans-Bold-31" d="M 750 831 
L 1813 831 
L 1813 3847 
L 722 3622 
L 722 4441 
L 1806 4666 
L 2950 4666 
L 2950 831 
L 4013 831 
L 4013 0 
L 750 0 
L 750 831 
z
" transform="scale(0.015625)"/>
      <path id="DejaVuSans-Bold-35" d="M 678 4666 
L 3669 4666 
L 3669 3781 
L 1638 3781 
L 1638 3059 
Q 1775 3097 1914 3117 
Q 2053 3138 2203 3138 
Q 3056 3138 3531 2711 
Q 4006 2284 4006 1522 
Q 4006 766 3489 337 
Q 2972 -91 2053 -91 
Q 1656 -91 1267 -14 
Q 878 63 494 219 
L 494 1166 
Q 875 947 1217 837 
Q 1559 728 1863 728 
Q 2300 728 2551 942 
Q 2803 1156 2803 1522 
Q 2803 1891 2551 2103 
Q 2300 2316 1863 2316 
Q 1603 2316 1309 2248 
Q 1016 2181 678 2041 
L 678 4666 
z
" transform="scale(0.015625)"/>
     </defs>
     <use xlink:href="#DejaVuSans-Bold-31"/>
     <use xlink:href="#DejaVuSans-Bold-35" transform="translate(69.580078 0)"/>
    </g>
   </g>
   <g id="text_5">
    <!-- 7 -->
    <g transform="translate(393.277422 216.435648) scale(0.13 -0.13)">
     <defs>
      <path id="DejaVuSans-Bold-37" d="M 428 4666 
L 3944 4666 
L 3944 3988 
L 2125 0 
L 953 0 
L 2675 3781 
L 428 3781 
L 428 4666 
z
" transform="scale(0.015625)"/>
     </defs>
     <use xlink:href="#DejaVuSans-Bold-37"/>
    </g>
   </g>
   <g id="text_6">
    <!-- Level 0 -->
    <g style="fill: #1e8449" transform="translate(23.94 76.520592) scale(0.09 -0.09)">
     <defs>
      <path id="DejaVuSans-Bold-4c" d="M 588 4666 
L 1791 4666 
L 1791 909 
L 3903 909 
L 3903 0 
L 588 0 
L 588 4666 
z
" transform="scale(0.015625)"/>
      <path id="DejaVuSans-Bold-65" d="M 4031 1759 
L 4031 1441 
L 1416 1441 
Q 1456 1047 1700 850 
Q 1944 653 2381 653 
Q 2734 653 3104 758 
Q 3475 863 3866 1075 
L 3866 213 
Q 3469 63 3072 -14 
Q 2675 -91 2278 -91 
Q 1328 -91 801 392 
Q 275 875 275 1747 
Q 275 2603 792 3093 
Q 1309 3584 2216 3584 
Q 3041 3584 3536 3087 
Q 4031 2591 4031 1759 
z
M 2881 2131 
Q 2881 2450 2695 2645 
Q 2509 2841 2209 2841 
Q 1884 2841 1681 2658 
Q 1478 2475 1428 2131 
L 2881 2131 
z
" transform="scale(0.015625)"/>
      <path id="DejaVuSans-Bold-76" d="M 97 3500 
L 1216 3500 
L 2088 1081 
L 2956 3500 
L 4078 3500 
L 2700 0 
L 1472 0 
L 97 3500 
z
" transform="scale(0.015625)"/>
      <path id="DejaVuSans-Bold-6c" d="M 538 4863 
L 1656 4863 
L 1656 0 
L 538 0 
L 538 4863 
z
" transform="scale(0.015625)"/>
      <path id="DejaVuSans-Bold-20" transform="scale(0.015625)"/>
     </defs>
     <use xlink:href="#DejaVuSans-Bold-4c"/>
     <use xlink:href="#DejaVuSans-Bold-65" transform="translate(63.720703 0)"/>
     <use xlink:href="#DejaVuSans-Bold-76" transform="translate(131.542969 0)"/>
     <use xlink:href="#DejaVuSans-Bold-65" transform="translate(196.728516 0)"/>
     <use xlink:href="#DejaVuSans-Bold-6c" transform="translate(264.550781 0)"/>
     <use xlink:href="#DejaVuSans-Bold-20" transform="translate(298.828125 0)"/>
     <use xlink:href="#DejaVuSans-Bold-30" transform="translate(333.642578 0)"/>
    </g>
   </g>
   <g id="text_7">
    <!-- Level 1 -->
    <g style="fill: #2471a3" transform="translate(23.94 144.684526) scale(0.09 -0.09)">
     <use xlink:href="#DejaVuSans-Bold-4c"/>
     <use xlink:href="#DejaVuSans-Bold-65" transform="translate(63.720703 0)"/>
     <use xlink:href="#DejaVuSans-Bold-76" transform="translate(131.542969 0)"/>
     <use xlink:href="#DejaVuSans-Bold-65" transform="translate(196.728516 0)"/>
     <use xlink:href="#DejaVuSans-Bold-6c" transform="translate(264.550781 0)"/>
     <use xlink:href="#DejaVuSans-Bold-20" transform="translate(298.828125 0)"/>
     <use xlink:href="#DejaVuSans-Bold-31" transform="translate(333.642578 0)"/>
    </g>
   </g>
   <g id="text_8">
    <!-- Level 2 -->
    <g style="fill: #c0392b" transform="translate(23.94 212.848461) scale(0.09 -0.09)">
     <use xlink:href="#DejaVuSans-Bold-4c"/>
     <use xlink:href="#DejaVuSans-Bold-65" transform="translate(63.720703 0)"/>
     <use xlink:href="#DejaVuSans-Bold-76" transform="translate(131.542969 0)"/>
     <use xlink:href="#DejaVuSans-Bold-65" transform="translate(196.728516 0)"/>
     <use xlink:href="#DejaVuSans-Bold-6c" transform="translate(264.550781 0)"/>
     <use xlink:href="#DejaVuSans-Bold-20" transform="translate(298.828125 0)"/>
     <use xlink:href="#DejaVuSans-Bold-32" transform="translate(333.642578 0)"/>
    </g>
   </g>
   <g id="text_9">
    <g id="patch_7">
     <path d="M 141.672969 278.611527 
L 319.127031 278.611527 
Q 323.527031 278.611527 323.527031 274.211527 
L 323.527031 263.565589 
Q 323.527031 259.165589 319.127031 259.165589 
L 141.672969 259.165589 
Q 137.272969 259.165589 137.272969 263.565589 
L 137.272969 274.211527 
Q 137.272969 278.611527 141.672969 278.611527 
z
" style="fill: #d5f5e3; stroke: #27ae60; stroke-linejoin: miter"/>
    </g>
    <!-- Output: [[3], [9, 20], [15, 7]] -->
    <g transform="translate(141.672969 271.92387) scale(0.11 -0.11)">
     <defs>
      <path id="DejaVuSans-Bold-4f" d="M 2719 3878 
Q 2169 3878 1866 3472 
Q 1563 3066 1563 2328 
Q 1563 1594 1866 1187 
Q 2169 781 2719 781 
Q 3272 781 3575 1187 
Q 3878 1594 3878 2328 
Q 3878 3066 3575 3472 
Q 3272 3878 2719 3878 
z
M 2719 4750 
Q 3844 4750 4481 4106 
Q 5119 3463 5119 2328 
Q 5119 1197 4481 553 
Q 3844 -91 2719 -91 
Q 1597 -91 958 553 
Q 319 1197 319 2328 
Q 319 3463 958 4106 
Q 1597 4750 2719 4750 
z
" transform="scale(0.015625)"/>
      <path id="DejaVuSans-Bold-75" d="M 500 1363 
L 500 3500 
L 1625 3500 
L 1625 3150 
Q 1625 2866 1622 2436 
Q 1619 2006 1619 1863 
Q 1619 1441 1641 1255 
Q 1663 1069 1716 984 
Q 1784 875 1895 815 
Q 2006 756 2150 756 
Q 2500 756 2700 1025 
Q 2900 1294 2900 1772 
L 2900 3500 
L 4019 3500 
L 4019 0 
L 2900 0 
L 2900 506 
Q 2647 200 2364 54 
Q 2081 -91 1741 -91 
Q 1134 -91 817 281 
Q 500 653 500 1363 
z
" transform="scale(0.015625)"/>
      <path id="DejaVuSans-Bold-74" d="M 1759 4494 
L 1759 3500 
L 2913 3500 
L 2913 2700 
L 1759 2700 
L 1759 1216 
Q 1759 972 1856 886 
Q 1953 800 2241 800 
L 2816 800 
L 2816 0 
L 1856 0 
Q 1194 0 917 276 
Q 641 553 641 1216 
L 641 2700 
L 84 2700 
L 84 3500 
L 641 3500 
L 641 4494 
L 1759 4494 
z
" transform="scale(0.015625)"/>
      <path id="DejaVuSans-Bold-70" d="M 1656 506 
L 1656 -1331 
L 538 -1331 
L 538 3500 
L 1656 3500 
L 1656 2988 
Q 1888 3294 2169 3439 
Q 2450 3584 2816 3584 
Q 3463 3584 3878 3070 
Q 4294 2556 4294 1747 
Q 4294 938 3878 423 
Q 3463 -91 2816 -91 
Q 2450 -91 2169 54 
Q 1888 200 1656 506 
z
M 2400 2772 
Q 2041 2772 1848 2508 
Q 1656 2244 1656 1747 
Q 1656 1250 1848 986 
Q 2041 722 2400 722 
Q 2759 722 2948 984 
Q 3138 1247 3138 1747 
Q 3138 2247 2948 2509 
Q 2759 2772 2400 2772 
z
" transform="scale(0.015625)"/>
      <path id="DejaVuSans-Bold-3a" d="M 716 3500 
L 1844 3500 
L 1844 2291 
L 716 2291 
L 716 3500 
z
M 716 1209 
L 1844 1209 
L 1844 0 
L 716 0 
L 716 1209 
z
" transform="scale(0.015625)"/>
      <path id="DejaVuSans-Bold-5b" d="M 550 4863 
L 2491 4863 
L 2491 4159 
L 1613 4159 
L 1613 -141 
L 2491 -141 
L 2491 -844 
L 550 -844 
L 550 4863 
z
" transform="scale(0.015625)"/>
      <path id="DejaVuSans-Bold-5d" d="M 2375 -844 
L 434 -844 
L 434 -141 
L 1313 -141 
L 1313 4159 
L 434 4159 
L 434 4863 
L 2375 4863 
L 2375 -844 
z
" transform="scale(0.015625)"/>
      <path id="DejaVuSans-Bold-2c" d="M 653 1209 
L 1778 1209 
L 1778 256 
L 1006 -909 
L 341 -909 
L 653 256 
L 653 1209 
z
" transform="scale(0.015625)"/>
     </defs>
     <use xlink:href="#DejaVuSans-Bold-4f"/>
     <use xlink:href="#DejaVuSans-Bold-75" transform="translate(85.009766 0)"/>
     <use xlink:href="#DejaVuSans-Bold-74" transform="translate(156.201172 0)"/>
     <use xlink:href="#DejaVuSans-Bold-70" transform="translate(204.003906 0)"/>
     <use xlink:href="#DejaVuSans-Bold-75" transform="translate(275.585938 0)"/>
     <use xlink:href="#DejaVuSans-Bold-74" transform="translate(346.777344 0)"/>
     <use xlink:href="#DejaVuSans-Bold-3a" transform="translate(394.580078 0)"/>
     <use xlink:href="#DejaVuSans-Bold-20" transform="translate(434.570312 0)"/>
     <use xlink:href="#DejaVuSans-Bold-5b" transform="translate(469.384766 0)"/>
     <use xlink:href="#DejaVuSans-Bold-5b" transform="translate(515.087891 0)"/>
     <use xlink:href="#DejaVuSans-Bold-33" transform="translate(560.791016 0)"/>
     <use xlink:href="#DejaVuSans-Bold-5d" transform="translate(630.371094 0)"/>
     <use xlink:href="#DejaVuSans-Bold-2c" transform="translate(676.074219 0)"/>
     <use xlink:href="#DejaVuSans-Bold-20" transform="translate(714.0625 0)"/>
     <use xlink:href="#DejaVuSans-Bold-5b" transform="translate(748.876953 0)"/>
     <use xlink:href="#DejaVuSans-Bold-39" transform="translate(794.580078 0)"/>
     <use xlink:href="#DejaVuSans-Bold-2c" transform="translate(864.160156 0)"/>
     <use xlink:href="#DejaVuSans-Bold-20" transform="translate(902.148438 0)"/>
     <use xlink:href="#DejaVuSans-Bold-32" transform="translate(936.962891 0)"/>
     <use xlink:href="#DejaVuSans-Bold-30" transform="translate(1006.542969 0)"/>
     <use xlink:href="#DejaVuSans-Bold-5d" transform="translate(1076.123047 0)"/>
     <use xlink:href="#DejaVuSans-Bold-2c" transform="translate(1121.826172 0)"/>
     <use xlink:href="#DejaVuSans-Bold-20" transform="translate(1159.814453 0)"/>
     <use xlink:href="#DejaVuSans-Bold-5b" transform="translate(1194.628906 0)"/>
     <use xlink:href="#DejaVuSans-Bold-31" transform="translate(1240.332031 0)"/>
     <use xlink:href="#DejaVuSans-Bold-35" transform="translate(1309.912109 0)"/>
     <use xlink:href="#DejaVuSans-Bold-2c" transform="translate(1379.492188 0)"/>
     <use xlink:href="#DejaVuSans-Bold-20" transform="translate(1417.480469 0)"/>
     <use xlink:href="#DejaVuSans-Bold-37" transform="translate(1452.294922 0)"/>
     <use xlink:href="#DejaVuSans-Bold-5d" transform="translate(1521.875 0)"/>
     <use xlink:href="#DejaVuSans-Bold-5d" transform="translate(1567.578125 0)"/>
    </g>
   </g>
   <g id="text_10">
    <!-- BFS with queue: process len(queue) nodes per level, collect values, enqueue children -->
    <g style="fill: #555555" transform="translate(37.245234 292.373051) scale(0.09 -0.09)">
     <defs>
      <path id="DejaVuSans-Oblique-42" d="M 1081 4666 
L 2694 4666 
Q 3350 4666 3675 4422 
Q 4000 4178 4000 3688 
Q 4000 3238 3720 2911 
Q 3441 2584 2988 2516 
Q 3375 2428 3569 2181 
Q 3763 1934 3763 1522 
Q 3763 819 3242 409 
Q 2722 0 1819 0 
L 172 0 
L 1081 4666 
z
M 1234 2228 
L 903 519 
L 1919 519 
Q 2491 519 2800 781 
Q 3109 1044 3109 1522 
Q 3109 1891 2904 2059 
Q 2700 2228 2247 2228 
L 1234 2228 
z
M 1606 4147 
L 1331 2741 
L 2272 2741 
Q 2775 2741 3058 2959 
Q 3341 3178 3341 3566 
Q 3341 3869 3150 4008 
Q 2959 4147 2541 4147 
L 1606 4147 
z
" transform="scale(0.015625)"/>
      <path id="DejaVuSans-Oblique-46" d="M 1081 4666 
L 3756 4666 
L 3653 4134 
L 1606 4134 
L 1338 2759 
L 3188 2759 
L 3084 2228 
L 1234 2228 
L 800 0 
L 172 0 
L 1081 4666 
z
" transform="scale(0.015625)"/>
      <path id="DejaVuSans-Oblique-53" d="M 3859 4513 
L 3738 3897 
Q 3422 4066 3111 4152 
Q 2800 4238 2509 4238 
Q 1944 4238 1609 3991 
Q 1275 3744 1275 3334 
Q 1275 3109 1398 2989 
Q 1522 2869 2034 2731 
L 2413 2638 
Q 3053 2472 3303 2217 
Q 3553 1963 3553 1503 
Q 3553 797 2998 353 
Q 2444 -91 1538 -91 
Q 1166 -91 791 -17 
Q 416 56 38 206 
L 166 856 
Q 513 641 861 531 
Q 1209 422 1556 422 
Q 2147 422 2503 684 
Q 2859 947 2859 1369 
Q 2859 1650 2717 1795 
Q 2575 1941 2106 2059 
L 1728 2156 
Q 1081 2325 845 2545 
Q 609 2766 609 3163 
Q 609 3859 1145 4304 
Q 1681 4750 2541 4750 
Q 2875 4750 3203 4690 
Q 3531 4631 3859 4513 
z
" transform="scale(0.015625)"/>
      <path id="DejaVuSans-Oblique-20" transform="scale(0.015625)"/>
      <path id="DejaVuSans-Oblique-77" d="M 544 3500 
L 1113 3500 
L 1259 684 
L 2566 3500 
L 3231 3500 
L 3425 684 
L 4666 3500 
L 5241 3500 
L 3641 0 
L 2969 0 
L 2797 2900 
L 1459 0 
L 781 0 
L 544 3500 
z
" transform="scale(0.015625)"/>
      <path id="DejaVuSans-Oblique-69" d="M 1172 4863 
L 1747 4863 
L 1606 4134 
L 1031 4134 
L 1172 4863 
z
M 909 3500 
L 1484 3500 
L 800 0 
L 225 0 
L 909 3500 
z
" transform="scale(0.015625)"/>
      <path id="DejaVuSans-Oblique-74" d="M 2706 3500 
L 2619 3053 
L 1472 3053 
L 1100 1153 
Q 1081 1047 1072 975 
Q 1063 903 1063 863 
Q 1063 663 1183 572 
Q 1303 481 1569 481 
L 2150 481 
L 2053 0 
L 1503 0 
Q 991 0 739 200 
Q 488 400 488 806 
Q 488 878 497 964 
Q 506 1050 525 1153 
L 897 3053 
L 409 3053 
L 500 3500 
L 978 3500 
L 1172 4494 
L 1747 4494 
L 1556 3500 
L 2706 3500 
z
" transform="scale(0.015625)"/>
      <path id="DejaVuSans-Oblique-68" d="M 3566 2113 
L 3156 0 
L 2578 0 
L 2988 2091 
Q 3016 2238 3031 2350 
Q 3047 2463 3047 2528 
Q 3047 2791 2881 2937 
Q 2716 3084 2419 3084 
Q 1956 3084 1617 2771 
Q 1278 2459 1178 1941 
L 800 0 
L 225 0 
L 1172 4863 
L 1747 4863 
L 1375 2950 
Q 1594 3244 1934 3414 
Q 2275 3584 2650 3584 
Q 3113 3584 3367 3334 
Q 3622 3084 3622 2631 
Q 3622 2519 3608 2391 
Q 3594 2263 3566 2113 
z
" transform="scale(0.015625)"/>
      <path id="DejaVuSans-Oblique-71" d="M 2669 525 
Q 2438 222 2123 65 
Q 1809 -91 1428 -91 
Q 897 -91 595 267 
Q 294 625 294 1253 
Q 294 1759 480 2231 
Q 666 2703 1013 3078 
Q 1238 3322 1530 3453 
Q 1822 3584 2144 3584 
Q 2531 3584 2781 3431 
Q 3031 3278 3144 2969 
L 3244 3494 
L 3822 3494 
L 2888 -1319 
L 2309 -1319 
L 2669 525 
z
M 891 1338 
Q 891 875 1084 633 
Q 1278 391 1644 391 
Q 2188 391 2572 911 
Q 2956 1431 2956 2175 
Q 2956 2625 2757 2864 
Q 2559 3103 2188 3103 
Q 1916 3103 1684 2976 
Q 1453 2850 1281 2606 
Q 1100 2350 995 2006 
Q 891 1663 891 1338 
z
" transform="scale(0.015625)"/>
      <path id="DejaVuSans-Oblique-75" d="M 428 1388 
L 838 3500 
L 1416 3500 
L 1006 1409 
Q 975 1256 961 1147 
Q 947 1038 947 966 
Q 947 700 1109 554 
Q 1272 409 1569 409 
Q 2031 409 2368 721 
Q 2706 1034 2809 1563 
L 3194 3500 
L 3769 3500 
L 3091 0 
L 2516 0 
L 2631 550 
Q 2388 244 2052 76 
Q 1716 -91 1338 -91 
Q 878 -91 622 161 
Q 366 413 366 863 
Q 366 956 381 1097 
Q 397 1238 428 1388 
z
" transform="scale(0.015625)"/>
      <path id="DejaVuSans-Oblique-65" d="M 3078 2063 
Q 3088 2113 3092 2166 
Q 3097 2219 3097 2272 
Q 3097 2653 2873 2875 
Q 2650 3097 2266 3097 
Q 1838 3097 1509 2826 
Q 1181 2556 1013 2059 
L 3078 2063 
z
M 3578 1613 
L 903 1613 
Q 884 1494 878 1425 
Q 872 1356 872 1306 
Q 872 872 1139 634 
Q 1406 397 1894 397 
Q 2269 397 2603 481 
Q 2938 566 3225 728 
L 3116 159 
Q 2806 34 2476 -28 
Q 2147 -91 1806 -91 
Q 1078 -91 686 257 
Q 294 606 294 1247 
Q 294 1794 489 2264 
Q 684 2734 1063 3103 
Q 1306 3334 1642 3459 
Q 1978 3584 2356 3584 
Q 2950 3584 3301 3228 
Q 3653 2872 3653 2272 
Q 3653 2128 3634 1964 
Q 3616 1800 3578 1613 
z
" transform="scale(0.015625)"/>
      <path id="DejaVuSans-Oblique-3a" d="M 978 3309 
L 1638 3309 
L 1484 2516 
L 825 2516 
L 978 3309 
z
M 488 794 
L 1147 794 
L 991 0 
L 331 0 
L 488 794 
z
" transform="scale(0.015625)"/>
      <path id="DejaVuSans-Oblique-70" d="M 3175 2156 
Q 3175 2616 2975 2859 
Q 2775 3103 2400 3103 
Q 2144 3103 1911 2972 
Q 1678 2841 1497 2591 
Q 1319 2344 1212 1994 
Q 1106 1644 1106 1300 
Q 1106 863 1306 627 
Q 1506 391 1875 391 
Q 2147 391 2380 519 
Q 2613 647 2778 891 
Q 2956 1147 3065 1494 
Q 3175 1841 3175 2156 
z
M 1394 2969 
Q 1625 3272 1939 3428 
Q 2253 3584 2638 3584 
Q 3175 3584 3472 3232 
Q 3769 2881 3769 2247 
Q 3769 1728 3584 1258 
Q 3400 788 3053 416 
Q 2822 169 2531 39 
Q 2241 -91 1919 -91 
Q 1547 -91 1294 64 
Q 1041 219 916 525 
L 556 -1331 
L -19 -1331 
L 922 3500 
L 1497 3500 
L 1394 2969 
z
" transform="scale(0.015625)"/>
      <path id="DejaVuSans-Oblique-72" d="M 2853 2969 
Q 2766 3016 2653 3041 
Q 2541 3066 2413 3066 
Q 1953 3066 1609 2717 
Q 1266 2369 1153 1784 
L 800 0 
L 225 0 
L 909 3500 
L 1484 3500 
L 1375 2956 
Q 1603 3259 1920 3421 
Q 2238 3584 2597 3584 
Q 2691 3584 2781 3573 
Q 2872 3563 2963 3538 
L 2853 2969 
z
" transform="scale(0.015625)"/>
      <path id="DejaVuSans-Oblique-6f" d="M 1625 -91 
Q 1009 -91 651 289 
Q 294 669 294 1325 
Q 294 1706 417 2101 
Q 541 2497 738 2766 
Q 1047 3184 1428 3384 
Q 1809 3584 2291 3584 
Q 2888 3584 3255 3212 
Q 3622 2841 3622 2241 
Q 3622 1825 3500 1412 
Q 3378 1000 3181 728 
Q 2875 309 2494 109 
Q 2113 -91 1625 -91 
z
M 891 1344 
Q 891 869 1089 633 
Q 1288 397 1691 397 
Q 2269 397 2648 901 
Q 3028 1406 3028 2181 
Q 3028 2634 2825 2865 
Q 2622 3097 2228 3097 
Q 1903 3097 1650 2945 
Q 1397 2794 1197 2484 
Q 1050 2253 970 1956 
Q 891 1659 891 1344 
z
" transform="scale(0.015625)"/>
      <path id="DejaVuSans-Oblique-63" d="M 3431 3366 
L 3316 2797 
Q 3109 2947 2876 3022 
Q 2644 3097 2394 3097 
Q 2119 3097 1870 3000 
Q 1622 2903 1453 2725 
Q 1184 2453 1037 2087 
Q 891 1722 891 1331 
Q 891 859 1127 628 
Q 1363 397 1844 397 
Q 2081 397 2348 469 
Q 2616 541 2906 684 
L 2797 116 
Q 2547 13 2283 -39 
Q 2019 -91 1741 -91 
Q 1044 -91 669 257 
Q 294 606 294 1253 
Q 294 1797 489 2255 
Q 684 2713 1069 3078 
Q 1331 3328 1684 3456 
Q 2038 3584 2456 3584 
Q 2700 3584 2940 3529 
Q 3181 3475 3431 3366 
z
" transform="scale(0.015625)"/>
      <path id="DejaVuSans-Oblique-73" d="M 3200 3397 
L 3091 2853 
Q 2863 2978 2609 3040 
Q 2356 3103 2088 3103 
Q 1634 3103 1373 2948 
Q 1113 2794 1113 2528 
Q 1113 2219 1719 2053 
Q 1766 2041 1788 2034 
L 1972 1978 
Q 2547 1819 2739 1644 
Q 2931 1469 2931 1166 
Q 2931 609 2489 259 
Q 2047 -91 1331 -91 
Q 1053 -91 747 -37 
Q 441 16 72 128 
L 184 722 
Q 500 559 806 475 
Q 1113 391 1394 391 
Q 1816 391 2080 572 
Q 2344 753 2344 1031 
Q 2344 1331 1650 1516 
L 1591 1531 
L 1394 1581 
Q 956 1697 753 1886 
Q 550 2075 550 2369 
Q 550 2928 970 3256 
Q 1391 3584 2113 3584 
Q 2397 3584 2667 3537 
Q 2938 3491 3200 3397 
z
" transform="scale(0.015625)"/>
      <path id="DejaVuSans-Oblique-6c" d="M 1172 4863 
L 1747 4863 
L 800 0 
L 225 0 
L 1172 4863 
z
" transform="scale(0.015625)"/>
      <path id="DejaVuSans-Oblique-6e" d="M 3566 2113 
L 3156 0 
L 2578 0 
L 2988 2091 
Q 3016 2238 3031 2350 
Q 3047 2463 3047 2528 
Q 3047 2791 2881 2937 
Q 2716 3084 2419 3084 
Q 1956 3084 1622 2776 
Q 1288 2469 1184 1941 
L 800 0 
L 225 0 
L 903 3500 
L 1478 3500 
L 1363 2950 
Q 1603 3253 1940 3418 
Q 2278 3584 2650 3584 
Q 3113 3584 3367 3334 
Q 3622 3084 3622 2631 
Q 3622 2519 3608 2391 
Q 3594 2263 3566 2113 
z
" transform="scale(0.015625)"/>
      <path id="DejaVuSans-Oblique-28" d="M 2731 4856 
Q 1903 3822 1495 2892 
Q 1088 1963 1088 1100 
Q 1088 606 1206 120 
Q 1325 -366 1563 -844 
L 1063 -844 
Q 775 -306 634 201 
Q 494 709 494 1197 
Q 494 2125 923 3036 
Q 1353 3947 2222 4856 
L 2731 4856 
z
" transform="scale(0.015625)"/>
      <path id="DejaVuSans-Oblique-29" d="M -397 -844 
Q 434 191 840 1120 
Q 1247 2050 1247 2913 
Q 1247 3406 1130 3892 
Q 1013 4378 775 4856 
L 1275 4856 
Q 1563 4316 1703 3812 
Q 1844 3309 1844 2822 
Q 1844 1891 1411 973 
Q 978 56 116 -844 
L -397 -844 
z
" transform="scale(0.015625)"/>
      <path id="DejaVuSans-Oblique-64" d="M 2675 525 
Q 2444 222 2128 65 
Q 1813 -91 1428 -91 
Q 903 -91 598 267 
Q 294 625 294 1247 
Q 294 1766 478 2236 
Q 663 2706 1013 3078 
Q 1244 3325 1534 3454 
Q 1825 3584 2144 3584 
Q 2481 3584 2739 3421 
Q 2997 3259 3138 2956 
L 3513 4863 
L 4091 4863 
L 3144 0 
L 2566 0 
L 2675 525 
z
M 891 1350 
Q 891 897 1095 644 
Q 1300 391 1663 391 
Q 1931 391 2161 520 
Q 2391 650 2566 903 
Q 2750 1166 2856 1509 
Q 2963 1853 2963 2188 
Q 2963 2622 2758 2865 
Q 2553 3109 2194 3109 
Q 1922 3109 1687 2981 
Q 1453 2853 1288 2613 
Q 1106 2353 998 2009 
Q 891 1666 891 1350 
z
" transform="scale(0.015625)"/>
      <path id="DejaVuSans-Oblique-76" d="M 459 3500 
L 1069 3500 
L 1581 525 
L 3256 3500 
L 3866 3500 
L 1875 0 
L 1100 0 
L 459 3500 
z
" transform="scale(0.015625)"/>
      <path id="DejaVuSans-Oblique-2c" d="M 575 794 
L 1234 794 
L 1131 256 
L 422 -744 
L 19 -744 
L 469 256 
L 575 794 
z
" transform="scale(0.015625)"/>
      <path id="DejaVuSans-Oblique-61" d="M 3438 1997 
L 3047 0 
L 2472 0 
L 2578 531 
Q 2325 219 2001 64 
Q 1678 -91 1281 -91 
Q 834 -91 548 182 
Q 263 456 263 884 
Q 263 1497 752 1853 
Q 1241 2209 2100 2209 
L 2900 2209 
L 2931 2363 
Q 2938 2388 2941 2417 
Q 2944 2447 2944 2509 
Q 2944 2788 2717 2942 
Q 2491 3097 2081 3097 
Q 1800 3097 1504 3025 
Q 1209 2953 897 2809 
L 997 3341 
Q 1322 3463 1633 3523 
Q 1944 3584 2234 3584 
Q 2853 3584 3176 3315 
Q 3500 3047 3500 2534 
Q 3500 2431 3484 2292 
Q 3469 2153 3438 1997 
z
M 2816 1759 
L 2241 1759 
Q 1534 1759 1195 1570 
Q 856 1381 856 984 
Q 856 709 1029 553 
Q 1203 397 1509 397 
Q 1978 397 2328 733 
Q 2678 1069 2791 1631 
L 2816 1759 
z
" transform="scale(0.015625)"/>
     </defs>
     <use xlink:href="#DejaVuSans-Oblique-42"/>
     <use xlink:href="#DejaVuSans-Oblique-46" transform="translate(68.603516 0)"/>
     <use xlink:href="#DejaVuSans-Oblique-53" transform="translate(126.123047 0)"/>
     <use xlink:href="#DejaVuSans-Oblique-20" transform="translate(189.599609 0)"/>
     <use xlink:href="#DejaVuSans-Oblique-77" transform="translate(221.386719 0)"/>
     <use xlink:href="#DejaVuSans-Oblique-69" transform="translate(303.173828 0)"/>
     <use xlink:href="#DejaVuSans-Oblique-74" transform="translate(330.957031 0)"/>
     <use xlink:href="#DejaVuSans-Oblique-68" transform="translate(370.166016 0)"/>
     <use xlink:href="#DejaVuSans-Oblique-20" transform="translate(433.544922 0)"/>
     <use xlink:href="#DejaVuSans-Oblique-71" transform="translate(465.332031 0)"/>
     <use xlink:href="#DejaVuSans-Oblique-75" transform="translate(528.808594 0)"/>
     <use xlink:href="#DejaVuSans-Oblique-65" transform="translate(592.1875 0)"/>
     <use xlink:href="#DejaVuSans-Oblique-75" transform="translate(653.710938 0)"/>
     <use xlink:href="#DejaVuSans-Oblique-65" transform="translate(717.089844 0)"/>
     <use xlink:href="#DejaVuSans-Oblique-3a" transform="translate(778.613281 0)"/>
     <use xlink:href="#DejaVuSans-Oblique-20" transform="translate(812.304688 0)"/>
     <use xlink:href="#DejaVuSans-Oblique-70" transform="translate(844.091797 0)"/>
     <use xlink:href="#DejaVuSans-Oblique-72" transform="translate(907.568359 0)"/>
     <use xlink:href="#DejaVuSans-Oblique-6f" transform="translate(948.681641 0)"/>
     <use xlink:href="#DejaVuSans-Oblique-63" transform="translate(1009.863281 0)"/>
     <use xlink:href="#DejaVuSans-Oblique-65" transform="translate(1064.84375 0)"/>
     <use xlink:href="#DejaVuSans-Oblique-73" transform="translate(1126.367188 0)"/>
     <use xlink:href="#DejaVuSans-Oblique-73" transform="translate(1178.466797 0)"/>
     <use xlink:href="#DejaVuSans-Oblique-20" transform="translate(1230.566406 0)"/>
     <use xlink:href="#DejaVuSans-Oblique-6c" transform="translate(1262.353516 0)"/>
     <use xlink:href="#DejaVuSans-Oblique-65" transform="translate(1290.136719 0)"/>
     <use xlink:href="#DejaVuSans-Oblique-6e" transform="translate(1351.660156 0)"/>
     <use xlink:href="#DejaVuSans-Oblique-28" transform="translate(1415.039062 0)"/>
     <use xlink:href="#DejaVuSans-Oblique-71" transform="translate(1454.052734 0)"/>
     <use xlink:href="#DejaVuSans-Oblique-75" transform="translate(1517.529297 0)"/>
     <use xlink:href="#DejaVuSans-Oblique-65" transform="translate(1580.908203 0)"/>
     <use xlink:href="#DejaVuSans-Oblique-75" transform="translate(1642.431641 0)"/>
     <use xlink:href="#DejaVuSans-Oblique-65" transform="translate(1705.810547 0)"/>
     <use xlink:href="#DejaVuSans-Oblique-29" transform="translate(1767.333984 0)"/>
     <use xlink:href="#DejaVuSans-Oblique-20" transform="translate(1806.347656 0)"/>
     <use xlink:href="#DejaVuSans-Oblique-6e" transform="translate(1838.134766 0)"/>
     <use xlink:href="#DejaVuSans-Oblique-6f" transform="translate(1901.513672 0)"/>
     <use xlink:href="#DejaVuSans-Oblique-64" transform="translate(1962.695312 0)"/>
     <use xlink:href="#DejaVuSans-Oblique-65" transform="translate(2026.171875 0)"/>
     <use xlink:href="#DejaVuSans-Oblique-73" transform="translate(2087.695312 0)"/>
     <use xlink:href="#DejaVuSans-Oblique-20" transform="translate(2139.794922 0)"/>
     <use xlink:href="#DejaVuSans-Oblique-70" transform="translate(2171.582031 0)"/>
     <use xlink:href="#DejaVuSans-Oblique-65" transform="translate(2235.058594 0)"/>
     <use xlink:href="#DejaVuSans-Oblique-72" transform="translate(2296.582031 0)"/>
     <use xlink:href="#DejaVuSans-Oblique-20" transform="translate(2337.695312 0)"/>
     <use xlink:href="#DejaVuSans-Oblique-6c" transform="translate(2369.482422 0)"/>
     <use xlink:href="#DejaVuSans-Oblique-65" transform="translate(2397.265625 0)"/>
     <use xlink:href="#DejaVuSans-Oblique-76" transform="translate(2458.789062 0)"/>
     <use xlink:href="#DejaVuSans-Oblique-65" transform="translate(2517.96875 0)"/>
     <use xlink:href="#DejaVuSans-Oblique-6c" transform="translate(2579.492188 0)"/>
     <use xlink:href="#DejaVuSans-Oblique-2c" transform="translate(2607.275391 0)"/>
     <use xlink:href="#DejaVuSans-Oblique-20" transform="translate(2639.0625 0)"/>
     <use xlink:href="#DejaVuSans-Oblique-63" transform="translate(2670.849609 0)"/>
     <use xlink:href="#DejaVuSans-Oblique-6f" transform="translate(2725.830078 0)"/>
     <use xlink:href="#DejaVuSans-Oblique-6c" transform="translate(2787.011719 0)"/>
     <use xlink:href="#DejaVuSans-Oblique-6c" transform="translate(2814.794922 0)"/>
     <use xlink:href="#DejaVuSans-Oblique-65" transform="translate(2842.578125 0)"/>
     <use xlink:href="#DejaVuSans-Oblique-63" transform="translate(2904.101562 0)"/>
     <use xlink:href="#DejaVuSans-Oblique-74" transform="translate(2959.082031 0)"/>
     <use xlink:href="#DejaVuSans-Oblique-20" transform="translate(2998.291016 0)"/>
     <use xlink:href="#DejaVuSans-Oblique-76" transform="translate(3030.078125 0)"/>
     <use xlink:href="#DejaVuSans-Oblique-61" transform="translate(3089.257812 0)"/>
     <use xlink:href="#DejaVuSans-Oblique-6c" transform="translate(3150.537109 0)"/>
     <use xlink:href="#DejaVuSans-Oblique-75" transform="translate(3178.320312 0)"/>
     <use xlink:href="#DejaVuSans-Oblique-65" transform="translate(3241.699219 0)"/>
     <use xlink:href="#DejaVuSans-Oblique-73" transform="translate(3303.222656 0)"/>
     <use xlink:href="#DejaVuSans-Oblique-2c" transform="translate(3355.322266 0)"/>
     <use xlink:href="#DejaVuSans-Oblique-20" transform="translate(3387.109375 0)"/>
     <use xlink:href="#DejaVuSans-Oblique-65" transform="translate(3418.896484 0)"/>
     <use xlink:href="#DejaVuSans-Oblique-6e" transform="translate(3480.419922 0)"/>
     <use xlink:href="#DejaVuSans-Oblique-71" transform="translate(3543.798828 0)"/>
     <use xlink:href="#DejaVuSans-Oblique-75" transform="translate(3607.275391 0)"/>
     <use xlink:href="#DejaVuSans-Oblique-65" transform="translate(3670.654297 0)"/>
     <use xlink:href="#DejaVuSans-Oblique-75" transform="translate(3732.177734 0)"/>
     <use xlink:href="#DejaVuSans-Oblique-65" transform="translate(3795.556641 0)"/>
     <use xlink:href="#DejaVuSans-Oblique-20" transform="translate(3857.080078 0)"/>
     <use xlink:href="#DejaVuSans-Oblique-63" transform="translate(3888.867188 0)"/>
     <use xlink:href="#DejaVuSans-Oblique-68" transform="translate(3943.847656 0)"/>
     <use xlink:href="#DejaVuSans-Oblique-69" transform="translate(4007.226562 0)"/>
     <use xlink:href="#DejaVuSans-Oblique-6c" transform="translate(4035.009766 0)"/>
     <use xlink:href="#DejaVuSans-Oblique-64" transform="translate(4062.792969 0)"/>
     <use xlink:href="#DejaVuSans-Oblique-72" transform="translate(4126.269531 0)"/>
     <use xlink:href="#DejaVuSans-Oblique-65" transform="translate(4167.382812 0)"/>
     <use xlink:href="#DejaVuSans-Oblique-6e" transform="translate(4228.90625 0)"/>
    </g>
   </g>
   <g id="text_11">
    <!-- Binary Tree Level Order Traversal (BFS) -->
    <g transform="translate(103.370703 17.077969) scale(0.13 -0.13)">
     <defs>
      <path id="DejaVuSans-42" d="M 1259 2228 
L 1259 519 
L 2272 519 
Q 2781 519 3026 730 
Q 3272 941 3272 1375 
Q 3272 1813 3026 2020 
Q 2781 2228 2272 2228 
L 1259 2228 
z
M 1259 4147 
L 1259 2741 
L 2194 2741 
Q 2656 2741 2882 2914 
Q 3109 3088 3109 3444 
Q 3109 3797 2882 3972 
Q 2656 4147 2194 4147 
L 1259 4147 
z
M 628 4666 
L 2241 4666 
Q 2963 4666 3353 4366 
Q 3744 4066 3744 3513 
Q 3744 3084 3544 2831 
Q 3344 2578 2956 2516 
Q 3422 2416 3680 2098 
Q 3938 1781 3938 1306 
Q 3938 681 3513 340 
Q 3088 0 2303 0 
L 628 0 
L 628 4666 
z
" transform="scale(0.015625)"/>
      <path id="DejaVuSans-69" d="M 603 3500 
L 1178 3500 
L 1178 0 
L 603 0 
L 603 3500 
z
M 603 4863 
L 1178 4863 
L 1178 4134 
L 603 4134 
L 603 4863 
z
" transform="scale(0.015625)"/>
      <path id="DejaVuSans-6e" d="M 3513 2113 
L 3513 0 
L 2938 0 
L 2938 2094 
Q 2938 2591 2744 2837 
Q 2550 3084 2163 3084 
Q 1697 3084 1428 2787 
Q 1159 2491 1159 1978 
L 1159 0 
L 581 0 
L 581 3500 
L 1159 3500 
L 1159 2956 
Q 1366 3272 1645 3428 
Q 1925 3584 2291 3584 
Q 2894 3584 3203 3211 
Q 3513 2838 3513 2113 
z
" transform="scale(0.015625)"/>
      <path id="DejaVuSans-61" d="M 2194 1759 
Q 1497 1759 1228 1600 
Q 959 1441 959 1056 
Q 959 750 1161 570 
Q 1363 391 1709 391 
Q 2188 391 2477 730 
Q 2766 1069 2766 1631 
L 2766 1759 
L 2194 1759 
z
M 3341 1997 
L 3341 0 
L 2766 0 
L 2766 531 
Q 2569 213 2275 61 
Q 1981 -91 1556 -91 
Q 1019 -91 701 211 
Q 384 513 384 1019 
Q 384 1609 779 1909 
Q 1175 2209 1959 2209 
L 2766 2209 
L 2766 2266 
Q 2766 2663 2505 2880 
Q 2244 3097 1772 3097 
Q 1472 3097 1187 3025 
Q 903 2953 641 2809 
L 641 3341 
Q 956 3463 1253 3523 
Q 1550 3584 1831 3584 
Q 2591 3584 2966 3190 
Q 3341 2797 3341 1997 
z
" transform="scale(0.015625)"/>
      <path id="DejaVuSans-72" d="M 2631 2963 
Q 2534 3019 2420 3045 
Q 2306 3072 2169 3072 
Q 1681 3072 1420 2755 
Q 1159 2438 1159 1844 
L 1159 0 
L 581 0 
L 581 3500 
L 1159 3500 
L 1159 2956 
Q 1341 3275 1631 3429 
Q 1922 3584 2338 3584 
Q 2397 3584 2469 3576 
Q 2541 3569 2628 3553 
L 2631 2963 
z
" transform="scale(0.015625)"/>
      <path id="DejaVuSans-79" d="M 2059 -325 
Q 1816 -950 1584 -1140 
Q 1353 -1331 966 -1331 
L 506 -1331 
L 506 -850 
L 844 -850 
Q 1081 -850 1212 -737 
Q 1344 -625 1503 -206 
L 1606 56 
L 191 3500 
L 800 3500 
L 1894 763 
L 2988 3500 
L 3597 3500 
L 2059 -325 
z
" transform="scale(0.015625)"/>
      <path id="DejaVuSans-20" transform="scale(0.015625)"/>
      <path id="DejaVuSans-54" d="M -19 4666 
L 3928 4666 
L 3928 4134 
L 2272 4134 
L 2272 0 
L 1638 0 
L 1638 4134 
L -19 4134 
L -19 4666 
z
" transform="scale(0.015625)"/>
      <path id="DejaVuSans-65" d="M 3597 1894 
L 3597 1613 
L 953 1613 
Q 991 1019 1311 708 
Q 1631 397 2203 397 
Q 2534 397 2845 478 
Q 3156 559 3463 722 
L 3463 178 
Q 3153 47 2828 -22 
Q 2503 -91 2169 -91 
Q 1331 -91 842 396 
Q 353 884 353 1716 
Q 353 2575 817 3079 
Q 1281 3584 2069 3584 
Q 2775 3584 3186 3129 
Q 3597 2675 3597 1894 
z
M 3022 2063 
Q 3016 2534 2758 2815 
Q 2500 3097 2075 3097 
Q 1594 3097 1305 2825 
Q 1016 2553 972 2059 
L 3022 2063 
z
" transform="scale(0.015625)"/>
      <path id="DejaVuSans-4c" d="M 628 4666 
L 1259 4666 
L 1259 531 
L 3531 531 
L 3531 0 
L 628 0 
L 628 4666 
z
" transform="scale(0.015625)"/>
      <path id="DejaVuSans-76" d="M 191 3500 
L 800 3500 
L 1894 563 
L 2988 3500 
L 3597 3500 
L 2284 0 
L 1503 0 
L 191 3500 
z
" transform="scale(0.015625)"/>
      <path id="DejaVuSans-6c" d="M 603 4863 
L 1178 4863 
L 1178 0 
L 603 0 
L 603 4863 
z
" transform="scale(0.015625)"/>
      <path id="DejaVuSans-4f" d="M 2522 4238 
Q 1834 4238 1429 3725 
Q 1025 3213 1025 2328 
Q 1025 1447 1429 934 
Q 1834 422 2522 422 
Q 3209 422 3611 934 
Q 4013 1447 4013 2328 
Q 4013 3213 3611 3725 
Q 3209 4238 2522 4238 
z
M 2522 4750 
Q 3503 4750 4090 4092 
Q 4678 3434 4678 2328 
Q 4678 1225 4090 567 
Q 3503 -91 2522 -91 
Q 1538 -91 948 565 
Q 359 1222 359 2328 
Q 359 3434 948 4092 
Q 1538 4750 2522 4750 
z
" transform="scale(0.015625)"/>
      <path id="DejaVuSans-64" d="M 2906 2969 
L 2906 4863 
L 3481 4863 
L 3481 0 
L 2906 0 
L 2906 525 
Q 2725 213 2448 61 
Q 2172 -91 1784 -91 
Q 1150 -91 751 415 
Q 353 922 353 1747 
Q 353 2572 751 3078 
Q 1150 3584 1784 3584 
Q 2172 3584 2448 3432 
Q 2725 3281 2906 2969 
z
M 947 1747 
Q 947 1113 1208 752 
Q 1469 391 1925 391 
Q 2381 391 2643 752 
Q 2906 1113 2906 1747 
Q 2906 2381 2643 2742 
Q 2381 3103 1925 3103 
Q 1469 3103 1208 2742 
Q 947 2381 947 1747 
z
" transform="scale(0.015625)"/>
      <path id="DejaVuSans-73" d="M 2834 3397 
L 2834 2853 
Q 2591 2978 2328 3040 
Q 2066 3103 1784 3103 
Q 1356 3103 1142 2972 
Q 928 2841 928 2578 
Q 928 2378 1081 2264 
Q 1234 2150 1697 2047 
L 1894 2003 
Q 2506 1872 2764 1633 
Q 3022 1394 3022 966 
Q 3022 478 2636 193 
Q 2250 -91 1575 -91 
Q 1294 -91 989 -36 
Q 684 19 347 128 
L 347 722 
Q 666 556 975 473 
Q 1284 391 1588 391 
Q 1994 391 2212 530 
Q 2431 669 2431 922 
Q 2431 1156 2273 1281 
Q 2116 1406 1581 1522 
L 1381 1569 
Q 847 1681 609 1914 
Q 372 2147 372 2553 
Q 372 3047 722 3315 
Q 1072 3584 1716 3584 
Q 2034 3584 2315 3537 
Q 2597 3491 2834 3397 
z
" transform="scale(0.015625)"/>
      <path id="DejaVuSans-28" d="M 1984 4856 
Q 1566 4138 1362 3434 
Q 1159 2731 1159 2009 
Q 1159 1288 1364 580 
Q 1569 -128 1984 -844 
L 1484 -844 
Q 1016 -109 783 600 
Q 550 1309 550 2009 
Q 550 2706 781 3412 
Q 1013 4119 1484 4856 
L 1984 4856 
z
" transform="scale(0.015625)"/>
      <path id="DejaVuSans-46" d="M 628 4666 
L 3309 4666 
L 3309 4134 
L 1259 4134 
L 1259 2759 
L 3109 2759 
L 3109 2228 
L 1259 2228 
L 1259 0 
L 628 0 
L 628 4666 
z
" transform="scale(0.015625)"/>
      <path id="DejaVuSans-53" d="M 3425 4513 
L 3425 3897 
Q 3066 4069 2747 4153 
Q 2428 4238 2131 4238 
Q 1616 4238 1336 4038 
Q 1056 3838 1056 3469 
Q 1056 3159 1242 3001 
Q 1428 2844 1947 2747 
L 2328 2669 
Q 3034 2534 3370 2195 
Q 3706 1856 3706 1288 
Q 3706 609 3251 259 
Q 2797 -91 1919 -91 
Q 1588 -91 1214 -16 
Q 841 59 441 206 
L 441 856 
Q 825 641 1194 531 
Q 1563 422 1919 422 
Q 2459 422 2753 634 
Q 3047 847 3047 1241 
Q 3047 1584 2836 1778 
Q 2625 1972 2144 2069 
L 1759 2144 
Q 1053 2284 737 2584 
Q 422 2884 422 3419 
Q 422 4038 858 4394 
Q 1294 4750 2059 4750 
Q 2388 4750 2728 4690 
Q 3069 4631 3425 4513 
z
" transform="scale(0.015625)"/>
      <path id="DejaVuSans-29" d="M 513 4856 
L 1013 4856 
Q 1481 4119 1714 3412 
Q 1947 2706 1947 2009 
Q 1947 1309 1714 600 
Q 1481 -109 1013 -844 
L 513 -844 
Q 928 -128 1133 580 
Q 1338 1288 1338 2009 
Q 1338 2731 1133 3434 
Q 928 4138 513 4856 
z
" transform="scale(0.015625)"/>
     </defs>
     <use xlink:href="#DejaVuSans-42"/>
     <use xlink:href="#DejaVuSans-69" transform="translate(68.603516 0)"/>
     <use xlink:href="#DejaVuSans-6e" transform="translate(96.386719 0)"/>
     <use xlink:href="#DejaVuSans-61" transform="translate(159.765625 0)"/>
     <use xlink:href="#DejaVuSans-72" transform="translate(221.044922 0)"/>
     <use xlink:href="#DejaVuSans-79" transform="translate(262.158203 0)"/>
     <use xlink:href="#DejaVuSans-20" transform="translate(321.337891 0)"/>
     <use xlink:href="#DejaVuSans-54" transform="translate(353.125 0)"/>
     <use xlink:href="#DejaVuSans-72" transform="translate(399.458984 0)"/>
     <use xlink:href="#DejaVuSans-65" transform="translate(438.322266 0)"/>
     <use xlink:href="#DejaVuSans-65" transform="translate(499.845703 0)"/>
     <use xlink:href="#DejaVuSans-20" transform="translate(561.369141 0)"/>
     <use xlink:href="#DejaVuSans-4c" transform="translate(593.15625 0)"/>
     <use xlink:href="#DejaVuSans-65" transform="translate(647.119141 0)"/>
     <use xlink:href="#DejaVuSans-76" transform="translate(708.642578 0)"/>
     <use xlink:href="#DejaVuSans-65" transform="translate(767.822266 0)"/>
     <use xlink:href="#DejaVuSans-6c" transform="translate(829.345703 0)"/>
     <use xlink:href="#DejaVuSans-20" transform="translate(857.128906 0)"/>
     <use xlink:href="#DejaVuSans-4f" transform="translate(888.916016 0)"/>
     <use xlink:href="#DejaVuSans-72" transform="translate(967.626953 0)"/>
     <use xlink:href="#DejaVuSans-64" transform="translate(1006.990234 0)"/>
     <use xlink:href="#DejaVuSans-65" transform="translate(1070.466797 0)"/>
     <use xlink:href="#DejaVuSans-72" transform="translate(1131.990234 0)"/>
     <use xlink:href="#DejaVuSans-20" transform="translate(1173.103516 0)"/>
     <use xlink:href="#DejaVuSans-54" transform="translate(1204.890625 0)"/>
     <use xlink:href="#DejaVuSans-72" transform="translate(1251.224609 0)"/>
     <use xlink:href="#DejaVuSans-61" transform="translate(1292.337891 0)"/>
     <use xlink:href="#DejaVuSans-76" transform="translate(1353.617188 0)"/>
     <use xlink:href="#DejaVuSans-65" transform="translate(1412.796875 0)"/>
     <use xlink:href="#DejaVuSans-72" transform="translate(1474.320312 0)"/>
     <use xlink:href="#DejaVuSans-73" transform="translate(1515.433594 0)"/>
     <use xlink:href="#DejaVuSans-61" transform="translate(1567.533203 0)"/>
     <use xlink:href="#DejaVuSans-6c" transform="translate(1628.8125 0)"/>
     <use xlink:href="#DejaVuSans-20" transform="translate(1656.595703 0)"/>
     <use xlink:href="#DejaVuSans-28" transform="translate(1688.382812 0)"/>
     <use xlink:href="#DejaVuSans-42" transform="translate(1727.396484 0)"/>
     <use xlink:href="#DejaVuSans-46" transform="translate(1796 0)"/>
     <use xlink:href="#DejaVuSans-53" transform="translate(1851.769531 0)"/>
     <use xlink:href="#DejaVuSans-29" transform="translate(1915.246094 0)"/>
    </g>
   </g>
  </g>
 </g>
 <defs>
  <clipPath id="p6034259d37">
   <rect x="7.2" y="31.077969" width="446.4" height="277.2"/>
  </clipPath>
 </defs>
</svg>
