<?xml version="1.0" encoding="utf-8" standalone="no"?>
<!DOCTYPE svg PUBLIC "-//W3C//DTD SVG 1.1//EN"
  "http://www.w3.org/Graphics/SVG/1.1/DTD/svg11.dtd">
<svg xmlns:xlink="http://www.w3.org/1999/xlink" width="526.594219pt" height="287.757969pt" viewBox="0 0 526.594219 287.757969" xmlns="http://www.w3.org/2000/svg" version="1.1">
 <metadata>
  <rdf:RDF xmlns:dc="http://purl.org/dc/elements/1.1/" xmlns:cc="http://creativecommons.org/ns#" xmlns:rdf="http://www.w3.org/1999/02/22-rdf-syntax-ns#">
   <cc:Work>
    <dc:type rdf:resource="http://purl.org/dc/dcmitype/StillImage"/>
    <dc:date>2026-07-04T08:30:03.020564</dc:date>
    <dc:format>image/svg+xml</dc:format>
    <dc:creator>
     <cc:Agent>
      <dc:title>Matplotlib v3.10.8, https://matplotlib.org/</dc:title>
     </cc:Agent>
    </dc:creator>
   </cc:Work>
  </rdf:RDF>
 </metadata>
 <defs>
  <style type="text/css">*{stroke-linejoin: round; stroke-linecap: butt}</style>
 </defs>
 <g id="figure_1">
  <g id="patch_1">
   <path d="M 0 287.757969 
L 526.594219 287.757969 
L 526.594219 0 
L 0 0 
z
" style="fill: #fafaf9"/>
  </g>
  <g id="axes_1">
   <g id="patch_2">
    <path d="M 38.5875 129.087969 
L 120.195 129.087969 
Q 123.33375 129.087969 123.33375 126.117969 
L 123.33375 72.657969 
Q 123.33375 69.687969 120.195 69.687969 
L 38.5875 69.687969 
Q 35.44875 69.687969 35.44875 72.657969 
L 35.44875 126.117969 
Q 35.44875 129.087969 38.5875 129.087969 
z
" clip-path="url(#p9534d38220)" style="fill: #eeeeee; stroke: #999999; stroke-width: 1.3; stroke-linejoin: miter"/>
   </g>
   <g id="patch_3">
    <path d="M 145.305 129.087969 
L 226.9125 129.087969 
Q 230.05125 129.087969 230.05125 126.117969 
L 230.05125 72.657969 
Q 230.05125 69.687969 226.9125 69.687969 
L 145.305 69.687969 
Q 142.16625 69.687969 142.16625 72.657969 
L 142.16625 126.117969 
Q 142.16625 129.087969 145.305 129.087969 
z
" clip-path="url(#p9534d38220)" style="fill: #c8e6c9; stroke: #999999; stroke-width: 1.3; stroke-linejoin: miter"/>
   </g>
   <g id="patch_4">
    <path d="M 252.0225 129.087969 
L 333.63 129.087969 
Q 336.76875 129.087969 336.76875 126.117969 
L 336.76875 72.657969 
Q 336.76875 69.687969 333.63 69.687969 
L 252.0225 69.687969 
Q 248.88375 69.687969 248.88375 72.657969 
L 248.88375 126.117969 
Q 248.88375 129.087969 252.0225 129.087969 
z
" clip-path="url(#p9534d38220)" style="fill: #d6eaf8; stroke: #999999; stroke-width: 1.3; stroke-linejoin: miter"/>
   </g>
   <g id="patch_5">
    <path d="M 358.74 129.087969 
L 440.3475 129.087969 
Q 443.48625 129.087969 443.48625 126.117969 
L 443.48625 72.657969 
Q 443.48625 69.687969 440.3475 69.687969 
L 358.74 69.687969 
Q 355.60125 69.687969 355.60125 72.657969 
L 355.60125 126.117969 
Q 355.60125 129.087969 358.74 129.087969 
z
" clip-path="url(#p9534d38220)" style="fill: #fadbd8; stroke: #999999; stroke-width: 1.3; stroke-linejoin: miter"/>
   </g>
   <g id="patch_6">
    <path d="M 465.4575 129.087969 
L 547.065 129.087969 
Q 550.20375 129.087969 550.20375 126.117969 
L 550.20375 72.657969 
Q 550.20375 69.687969 547.065 69.687969 
L 465.4575 69.687969 
Q 462.31875 69.687969 462.31875 72.657969 
L 462.31875 126.117969 
Q 462.31875 129.087969 465.4575 129.087969 
z
" clip-path="url(#p9534d38220)" style="fill: #eeeeee; stroke: #999999; stroke-width: 1.3; stroke-linejoin: miter"/>
   </g>
   <g id="patch_7">
    <path d="M 38.5875 236.007969 
L 452.9025 236.007969 
Q 456.04125 236.007969 456.04125 233.037969 
L 456.04125 179.577969 
Q 456.04125 176.607969 452.9025 176.607969 
L 38.5875 176.607969 
Q 35.44875 176.607969 35.44875 179.577969 
L 35.44875 233.037969 
Q 35.44875 236.007969 38.5875 236.007969 
z
" clip-path="url(#p9534d38220)" style="fill: #fff3cd; stroke: #999999; stroke-width: 1.3; stroke-linejoin: miter"/>
   </g>
   <g id="text_1">
    <!-- HEAD -->
    <g transform="translate(62.208906 94.404281) scale(0.11 -0.11)">
     <defs>
      <path id="DejaVuSans-Bold-48" d="M 588 4666 
L 1791 4666 
L 1791 2888 
L 3566 2888 
L 3566 4666 
L 4769 4666 
L 4769 0 
L 3566 0 
L 3566 1978 
L 1791 1978 
L 1791 0 
L 588 0 
L 588 4666 
z
" transform="scale(0.015625)"/>
      <path id="DejaVuSans-Bold-45" d="M 588 4666 
L 3834 4666 
L 3834 3756 
L 1791 3756 
L 1791 2888 
L 3713 2888 
L 3713 1978 
L 1791 1978 
L 1791 909 
L 3903 909 
L 3903 0 
L 588 0 
L 588 4666 
z
" transform="scale(0.015625)"/>
      <path id="DejaVuSans-Bold-41" d="M 3419 850 
L 1538 850 
L 1241 0 
L 31 0 
L 1759 4666 
L 3194 4666 
L 4922 0 
L 3713 0 
L 3419 850 
z
M 1838 1716 
L 3116 1716 
L 2478 3572 
L 1838 1716 
z
" transform="scale(0.015625)"/>
      <path id="DejaVuSans-Bold-44" d="M 1791 3756 
L 1791 909 
L 2222 909 
Q 2959 909 3348 1275 
Q 3738 1641 3738 2338 
Q 3738 3031 3350 3393 
Q 2963 3756 2222 3756 
L 1791 3756 
z
M 588 4666 
L 1856 4666 
Q 2919 4666 3439 4514 
Q 3959 4363 4331 4000 
Q 4659 3684 4818 3271 
Q 4978 2859 4978 2338 
Q 4978 1809 4818 1395 
Q 4659 981 4331 666 
Q 3956 303 3431 151 
Q 2906 0 1856 0 
L 588 0 
L 588 4666 
z
" transform="scale(0.015625)"/>
     </defs>
     <use xlink:href="#DejaVuSans-Bold-48"/>
     <use xlink:href="#DejaVuSans-Bold-45" transform="translate(83.691406 0)"/>
     <use xlink:href="#DejaVuSans-Bold-41" transform="translate(152.001953 0)"/>
     <use xlink:href="#DejaVuSans-Bold-44" transform="translate(229.394531 0)"/>
    </g>
   </g>
   <g id="patch_8">
    <path d="M 125.333784 94.041969 
Q 132.749356 94.041969 138.599681 94.041969 
" style="fill: none; stroke: #555555; stroke-width: 1.4; stroke-linecap: round"/>
    <path d="M 134.599681 92.041969 
L 138.599681 94.041969 
L 134.599681 96.041969 
" style="fill: none; stroke: #555555; stroke-width: 1.4; stroke-linecap: round"/>
   </g>
   <g id="patch_9">
    <path d="M 140.166216 110.079969 
Q 132.750644 110.079969 126.900319 110.079969 
" style="fill: none; stroke: #555555; stroke-width: 1.4; stroke-linecap: round"/>
    <path d="M 130.900319 112.079969 
L 126.900319 110.079969 
L 130.900319 108.079969 
" style="fill: none; stroke: #555555; stroke-width: 1.4; stroke-linecap: round"/>
   </g>
   <g id="text_2">
    <!-- k=3 -->
    <g transform="translate(174.015625 94.404281) scale(0.11 -0.11)">
     <defs>
      <path id="DejaVuSans-Bold-6b" d="M 538 4863 
L 1656 4863 
L 1656 2216 
L 2944 3500 
L 4244 3500 
L 2534 1894 
L 4378 0 
L 3022 0 
L 1656 1459 
L 1656 0 
L 538 0 
L 538 4863 
z
" transform="scale(0.015625)"/>
      <path id="DejaVuSans-Bold-3d" d="M 678 3084 
L 4684 3084 
L 4684 2350 
L 678 2350 
L 678 3084 
z
M 678 1663 
L 4684 1663 
L 4684 922 
L 678 922 
L 678 1663 
z
" transform="scale(0.015625)"/>
      <path id="DejaVuSans-Bold-33" d="M 2981 2516 
Q 3453 2394 3698 2092 
Q 3944 1791 3944 1325 
Q 3944 631 3412 270 
Q 2881 -91 1863 -91 
Q 1503 -91 1142 -33 
Q 781 25 428 141 
L 428 1069 
Q 766 900 1098 814 
Q 1431 728 1753 728 
Q 2231 728 2486 893 
Q 2741 1059 2741 1369 
Q 2741 1688 2480 1852 
Q 2219 2016 1709 2016 
L 1228 2016 
L 1228 2791 
L 1734 2791 
Q 2188 2791 2409 2933 
Q 2631 3075 2631 3366 
Q 2631 3634 2415 3781 
Q 2200 3928 1806 3928 
Q 1516 3928 1219 3862 
Q 922 3797 628 3669 
L 628 4550 
Q 984 4650 1334 4700 
Q 1684 4750 2022 4750 
Q 2931 4750 3382 4451 
Q 3834 4153 3834 3553 
Q 3834 3144 3618 2883 
Q 3403 2622 2981 2516 
z
" transform="scale(0.015625)"/>
     </defs>
     <use xlink:href="#DejaVuSans-Bold-6b"/>
     <use xlink:href="#DejaVuSans-Bold-3d" transform="translate(66.503906 0)"/>
     <use xlink:href="#DejaVuSans-Bold-33" transform="translate(150.292969 0)"/>
    </g>
   </g>
   <g id="text_3">
    <!-- v=3 -->
    <g style="fill: #555555" transform="translate(176.811328 112.563406) scale(0.09 -0.09)">
     <defs>
      <path id="DejaVuSans-76" d="M 191 3500 
L 800 3500 
L 1894 563 
L 2988 3500 
L 3597 3500 
L 2284 0 
L 1503 0 
L 191 3500 
z
" transform="scale(0.015625)"/>
      <path id="DejaVuSans-3d" d="M 678 2906 
L 4684 2906 
L 4684 2381 
L 678 2381 
L 678 2906 
z
M 678 1631 
L 4684 1631 
L 4684 1100 
L 678 1100 
L 678 1631 
z
" transform="scale(0.015625)"/>
      <path id="DejaVuSans-33" d="M 2597 2516 
Q 3050 2419 3304 2112 
Q 3559 1806 3559 1356 
Q 3559 666 3084 287 
Q 2609 -91 1734 -91 
Q 1441 -91 1130 -33 
Q 819 25 488 141 
L 488 750 
Q 750 597 1062 519 
Q 1375 441 1716 441 
Q 2309 441 2620 675 
Q 2931 909 2931 1356 
Q 2931 1769 2642 2001 
Q 2353 2234 1838 2234 
L 1294 2234 
L 1294 2753 
L 1863 2753 
Q 2328 2753 2575 2939 
Q 2822 3125 2822 3475 
Q 2822 3834 2567 4026 
Q 2313 4219 1838 4219 
Q 1578 4219 1281 4162 
Q 984 4106 628 3988 
L 628 4550 
Q 988 4650 1302 4700 
Q 1616 4750 1894 4750 
Q 2613 4750 3031 4423 
Q 3450 4097 3450 3541 
Q 3450 3153 3228 2886 
Q 3006 2619 2597 2516 
z
" transform="scale(0.015625)"/>
     </defs>
     <use xlink:href="#DejaVuSans-76"/>
     <use xlink:href="#DejaVuSans-3d" transform="translate(59.179688 0)"/>
     <use xlink:href="#DejaVuSans-33" transform="translate(142.96875 0)"/>
    </g>
   </g>
   <g id="patch_10">
    <path d="M 232.051284 94.041969 
Q 239.466856 94.041969 245.317181 94.041969 
" style="fill: none; stroke: #555555; stroke-width: 1.4; stroke-linecap: round"/>
    <path d="M 241.317181 92.041969 
L 245.317181 94.041969 
L 241.317181 96.041969 
" style="fill: none; stroke: #555555; stroke-width: 1.4; stroke-linecap: round"/>
   </g>
   <g id="patch_11">
    <path d="M 246.883716 110.079969 
Q 239.468144 110.079969 233.617819 110.079969 
" style="fill: none; stroke: #555555; stroke-width: 1.4; stroke-linecap: round"/>
    <path d="M 237.617819 112.079969 
L 233.617819 110.079969 
L 237.617819 108.079969 
" style="fill: none; stroke: #555555; stroke-width: 1.4; stroke-linecap: round"/>
   </g>
   <g id="text_4">
    <!-- k=1 -->
    <g transform="translate(280.733125 94.404281) scale(0.11 -0.11)">
     <defs>
      <path id="DejaVuSans-Bold-31" d="M 750 831 
L 1813 831 
L 1813 3847 
L 722 3622 
L 722 4441 
L 1806 4666 
L 2950 4666 
L 2950 831 
L 4013 831 
L 4013 0 
L 750 0 
L 750 831 
z
" transform="scale(0.015625)"/>
     </defs>
     <use xlink:href="#DejaVuSans-Bold-6b"/>
     <use xlink:href="#DejaVuSans-Bold-3d" transform="translate(66.503906 0)"/>
     <use xlink:href="#DejaVuSans-Bold-31" transform="translate(150.292969 0)"/>
    </g>
   </g>
   <g id="text_5">
    <!-- v=1 -->
    <g style="fill: #555555" transform="translate(283.528828 112.563406) scale(0.09 -0.09)">
     <defs>
      <path id="DejaVuSans-31" d="M 794 531 
L 1825 531 
L 1825 4091 
L 703 3866 
L 703 4441 
L 1819 4666 
L 2450 4666 
L 2450 531 
L 3481 531 
L 3481 0 
L 794 0 
L 794 531 
z
" transform="scale(0.015625)"/>
     </defs>
     <use xlink:href="#DejaVuSans-76"/>
     <use xlink:href="#DejaVuSans-3d" transform="translate(59.179688 0)"/>
     <use xlink:href="#DejaVuSans-31" transform="translate(142.96875 0)"/>
    </g>
   </g>
   <g id="patch_12">
    <path d="M 338.768784 94.041969 
Q 346.184356 94.041969 352.034681 94.041969 
" style="fill: none; stroke: #555555; stroke-width: 1.4; stroke-linecap: round"/>
    <path d="M 348.034681 92.041969 
L 352.034681 94.041969 
L 348.034681 96.041969 
" style="fill: none; stroke: #555555; stroke-width: 1.4; stroke-linecap: round"/>
   </g>
   <g id="patch_13">
    <path d="M 353.601216 110.079969 
Q 346.185644 110.079969 340.335319 110.079969 
" style="fill: none; stroke: #555555; stroke-width: 1.4; stroke-linecap: round"/>
    <path d="M 344.335319 112.079969 
L 340.335319 110.079969 
L 344.335319 108.079969 
" style="fill: none; stroke: #555555; stroke-width: 1.4; stroke-linecap: round"/>
   </g>
   <g id="text_6">
    <!-- k=2 -->
    <g transform="translate(387.450625 94.404281) scale(0.11 -0.11)">
     <defs>
      <path id="DejaVuSans-Bold-32" d="M 1844 884 
L 3897 884 
L 3897 0 
L 506 0 
L 506 884 
L 2209 2388 
Q 2438 2594 2547 2791 
Q 2656 2988 2656 3200 
Q 2656 3528 2436 3728 
Q 2216 3928 1850 3928 
Q 1569 3928 1234 3808 
Q 900 3688 519 3450 
L 519 4475 
Q 925 4609 1322 4679 
Q 1719 4750 2100 4750 
Q 2938 4750 3402 4381 
Q 3866 4013 3866 3353 
Q 3866 2972 3669 2642 
Q 3472 2313 2841 1759 
L 1844 884 
z
" transform="scale(0.015625)"/>
     </defs>
     <use xlink:href="#DejaVuSans-Bold-6b"/>
     <use xlink:href="#DejaVuSans-Bold-3d" transform="translate(66.503906 0)"/>
     <use xlink:href="#DejaVuSans-Bold-32" transform="translate(150.292969 0)"/>
    </g>
   </g>
   <g id="text_7">
    <!-- v=2 -->
    <g style="fill: #555555" transform="translate(390.246328 112.563406) scale(0.09 -0.09)">
     <defs>
      <path id="DejaVuSans-32" d="M 1228 531 
L 3431 531 
L 3431 0 
L 469 0 
L 469 531 
Q 828 903 1448 1529 
Q 2069 2156 2228 2338 
Q 2531 2678 2651 2914 
Q 2772 3150 2772 3378 
Q 2772 3750 2511 3984 
Q 2250 4219 1831 4219 
Q 1534 4219 1204 4116 
Q 875 4013 500 3803 
L 500 4441 
Q 881 4594 1212 4672 
Q 1544 4750 1819 4750 
Q 2544 4750 2975 4387 
Q 3406 4025 3406 3419 
Q 3406 3131 3298 2873 
Q 3191 2616 2906 2266 
Q 2828 2175 2409 1742 
Q 1991 1309 1228 531 
z
" transform="scale(0.015625)"/>
     </defs>
     <use xlink:href="#DejaVuSans-76"/>
     <use xlink:href="#DejaVuSans-3d" transform="translate(59.179688 0)"/>
     <use xlink:href="#DejaVuSans-32" transform="translate(142.96875 0)"/>
    </g>
   </g>
   <g id="patch_14">
    <path d="M 445.486284 94.041969 
Q 452.901856 94.041969 458.752181 94.041969 
" style="fill: none; stroke: #555555; stroke-width: 1.4; stroke-linecap: round"/>
    <path d="M 454.752181 92.041969 
L 458.752181 94.041969 
L 454.752181 96.041969 
" style="fill: none; stroke: #555555; stroke-width: 1.4; stroke-linecap: round"/>
   </g>
   <g id="patch_15">
    <path d="M 460.318716 110.079969 
Q 452.903144 110.079969 447.052819 110.079969 
" style="fill: none; stroke: #555555; stroke-width: 1.4; stroke-linecap: round"/>
    <path d="M 451.052819 112.079969 
L 447.052819 110.079969 
L 451.052819 108.079969 
" style="fill: none; stroke: #555555; stroke-width: 1.4; stroke-linecap: round"/>
   </g>
   <g id="text_8">
    <!-- TAIL -->
    <g transform="translate(493.128281 94.404281) scale(0.11 -0.11)">
     <defs>
      <path id="DejaVuSans-Bold-54" d="M 31 4666 
L 4331 4666 
L 4331 3756 
L 2784 3756 
L 2784 0 
L 1581 0 
L 1581 3756 
L 31 3756 
L 31 4666 
z
" transform="scale(0.015625)"/>
      <path id="DejaVuSans-Bold-49" d="M 588 4666 
L 1791 4666 
L 1791 0 
L 588 0 
L 588 4666 
z
" transform="scale(0.015625)"/>
      <path id="DejaVuSans-Bold-4c" d="M 588 4666 
L 1791 4666 
L 1791 909 
L 3903 909 
L 3903 0 
L 588 0 
L 588 4666 
z
" transform="scale(0.015625)"/>
     </defs>
     <use xlink:href="#DejaVuSans-Bold-54"/>
     <use xlink:href="#DejaVuSans-Bold-41" transform="translate(60.462891 0)"/>
     <use xlink:href="#DejaVuSans-Bold-49" transform="translate(137.855469 0)"/>
     <use xlink:href="#DejaVuSans-Bold-4c" transform="translate(175.0625 0)"/>
    </g>
   </g>
   <g id="text_9">
    <!-- Most Recently Used -->
    <g style="fill: #1e8449" transform="translate(38.5875 51.867969) scale(0.09 -0.09)">
     <defs>
      <path id="DejaVuSans-Bold-4d" d="M 588 4666 
L 2119 4666 
L 3181 2169 
L 4250 4666 
L 5778 4666 
L 5778 0 
L 4641 0 
L 4641 3413 
L 3566 897 
L 2803 897 
L 1728 3413 
L 1728 0 
L 588 0 
L 588 4666 
z
" transform="scale(0.015625)"/>
      <path id="DejaVuSans-Bold-6f" d="M 2203 2784 
Q 1831 2784 1636 2517 
Q 1441 2250 1441 1747 
Q 1441 1244 1636 976 
Q 1831 709 2203 709 
Q 2569 709 2762 976 
Q 2956 1244 2956 1747 
Q 2956 2250 2762 2517 
Q 2569 2784 2203 2784 
z
M 2203 3584 
Q 3106 3584 3614 3096 
Q 4122 2609 4122 1747 
Q 4122 884 3614 396 
Q 3106 -91 2203 -91 
Q 1297 -91 786 396 
Q 275 884 275 1747 
Q 275 2609 786 3096 
Q 1297 3584 2203 3584 
z
" transform="scale(0.015625)"/>
      <path id="DejaVuSans-Bold-73" d="M 3272 3391 
L 3272 2541 
Q 2913 2691 2578 2766 
Q 2244 2841 1947 2841 
Q 1628 2841 1473 2761 
Q 1319 2681 1319 2516 
Q 1319 2381 1436 2309 
Q 1553 2238 1856 2203 
L 2053 2175 
Q 2913 2066 3209 1816 
Q 3506 1566 3506 1031 
Q 3506 472 3093 190 
Q 2681 -91 1863 -91 
Q 1516 -91 1145 -36 
Q 775 19 384 128 
L 384 978 
Q 719 816 1070 734 
Q 1422 653 1784 653 
Q 2113 653 2278 743 
Q 2444 834 2444 1013 
Q 2444 1163 2330 1236 
Q 2216 1309 1875 1350 
L 1678 1375 
Q 931 1469 631 1722 
Q 331 1975 331 2491 
Q 331 3047 712 3315 
Q 1094 3584 1881 3584 
Q 2191 3584 2531 3537 
Q 2872 3491 3272 3391 
z
" transform="scale(0.015625)"/>
      <path id="DejaVuSans-Bold-74" d="M 1759 4494 
L 1759 3500 
L 2913 3500 
L 2913 2700 
L 1759 2700 
L 1759 1216 
Q 1759 972 1856 886 
Q 1953 800 2241 800 
L 2816 800 
L 2816 0 
L 1856 0 
Q 1194 0 917 276 
Q 641 553 641 1216 
L 641 2700 
L 84 2700 
L 84 3500 
L 641 3500 
L 641 4494 
L 1759 4494 
z
" transform="scale(0.015625)"/>
      <path id="DejaVuSans-Bold-20" transform="scale(0.015625)"/>
      <path id="DejaVuSans-Bold-52" d="M 2297 2597 
Q 2675 2597 2839 2737 
Q 3003 2878 3003 3200 
Q 3003 3519 2839 3656 
Q 2675 3794 2297 3794 
L 1791 3794 
L 1791 2597 
L 2297 2597 
z
M 1791 1766 
L 1791 0 
L 588 0 
L 588 4666 
L 2425 4666 
Q 3347 4666 3776 4356 
Q 4206 4047 4206 3378 
Q 4206 2916 3982 2619 
Q 3759 2322 3309 2181 
Q 3556 2125 3751 1926 
Q 3947 1728 4147 1325 
L 4800 0 
L 3519 0 
L 2950 1159 
Q 2778 1509 2601 1637 
Q 2425 1766 2131 1766 
L 1791 1766 
z
" transform="scale(0.015625)"/>
      <path id="DejaVuSans-Bold-65" d="M 4031 1759 
L 4031 1441 
L 1416 1441 
Q 1456 1047 1700 850 
Q 1944 653 2381 653 
Q 2734 653 3104 758 
Q 3475 863 3866 1075 
L 3866 213 
Q 3469 63 3072 -14 
Q 2675 -91 2278 -91 
Q 1328 -91 801 392 
Q 275 875 275 1747 
Q 275 2603 792 3093 
Q 1309 3584 2216 3584 
Q 3041 3584 3536 3087 
Q 4031 2591 4031 1759 
z
M 2881 2131 
Q 2881 2450 2695 2645 
Q 2509 2841 2209 2841 
Q 1884 2841 1681 2658 
Q 1478 2475 1428 2131 
L 2881 2131 
z
" transform="scale(0.015625)"/>
      <path id="DejaVuSans-Bold-63" d="M 3366 3391 
L 3366 2478 
Q 3138 2634 2908 2709 
Q 2678 2784 2431 2784 
Q 1963 2784 1702 2511 
Q 1441 2238 1441 1747 
Q 1441 1256 1702 982 
Q 1963 709 2431 709 
Q 2694 709 2930 787 
Q 3166 866 3366 1019 
L 3366 103 
Q 3103 6 2833 -42 
Q 2563 -91 2291 -91 
Q 1344 -91 809 395 
Q 275 881 275 1747 
Q 275 2613 809 3098 
Q 1344 3584 2291 3584 
Q 2566 3584 2833 3536 
Q 3100 3488 3366 3391 
z
" transform="scale(0.015625)"/>
      <path id="DejaVuSans-Bold-6e" d="M 4056 2131 
L 4056 0 
L 2931 0 
L 2931 347 
L 2931 1631 
Q 2931 2084 2911 2256 
Q 2891 2428 2841 2509 
Q 2775 2619 2662 2680 
Q 2550 2741 2406 2741 
Q 2056 2741 1856 2470 
Q 1656 2200 1656 1722 
L 1656 0 
L 538 0 
L 538 3500 
L 1656 3500 
L 1656 2988 
Q 1909 3294 2193 3439 
Q 2478 3584 2822 3584 
Q 3428 3584 3742 3212 
Q 4056 2841 4056 2131 
z
" transform="scale(0.015625)"/>
      <path id="DejaVuSans-Bold-6c" d="M 538 4863 
L 1656 4863 
L 1656 0 
L 538 0 
L 538 4863 
z
" transform="scale(0.015625)"/>
      <path id="DejaVuSans-Bold-79" d="M 78 3500 
L 1197 3500 
L 2138 1125 
L 2938 3500 
L 4056 3500 
L 2584 -331 
Q 2363 -916 2067 -1148 
Q 1772 -1381 1288 -1381 
L 641 -1381 
L 641 -647 
L 991 -647 
Q 1275 -647 1404 -556 
Q 1534 -466 1606 -231 
L 1638 -134 
L 78 3500 
z
" transform="scale(0.015625)"/>
      <path id="DejaVuSans-Bold-55" d="M 588 4666 
L 1791 4666 
L 1791 1869 
Q 1791 1291 1980 1042 
Q 2169 794 2597 794 
Q 3028 794 3217 1042 
Q 3406 1291 3406 1869 
L 3406 4666 
L 4609 4666 
L 4609 1869 
Q 4609 878 4112 393 
Q 3616 -91 2597 -91 
Q 1581 -91 1084 393 
Q 588 878 588 1869 
L 588 4666 
z
" transform="scale(0.015625)"/>
      <path id="DejaVuSans-Bold-64" d="M 2919 2988 
L 2919 4863 
L 4044 4863 
L 4044 0 
L 2919 0 
L 2919 506 
Q 2688 197 2409 53 
Q 2131 -91 1766 -91 
Q 1119 -91 703 423 
Q 288 938 288 1747 
Q 288 2556 703 3070 
Q 1119 3584 1766 3584 
Q 2128 3584 2408 3439 
Q 2688 3294 2919 2988 
z
M 2181 722 
Q 2541 722 2730 984 
Q 2919 1247 2919 1747 
Q 2919 2247 2730 2509 
Q 2541 2772 2181 2772 
Q 1825 2772 1636 2509 
Q 1447 2247 1447 1747 
Q 1447 1247 1636 984 
Q 1825 722 2181 722 
z
" transform="scale(0.015625)"/>
     </defs>
     <use xlink:href="#DejaVuSans-Bold-4d"/>
     <use xlink:href="#DejaVuSans-Bold-6f" transform="translate(99.511719 0)"/>
     <use xlink:href="#DejaVuSans-Bold-73" transform="translate(168.212891 0)"/>
     <use xlink:href="#DejaVuSans-Bold-74" transform="translate(227.734375 0)"/>
     <use xlink:href="#DejaVuSans-Bold-20" transform="translate(275.537109 0)"/>
     <use xlink:href="#DejaVuSans-Bold-52" transform="translate(310.351562 0)"/>
     <use xlink:href="#DejaVuSans-Bold-65" transform="translate(387.353516 0)"/>
     <use xlink:href="#DejaVuSans-Bold-63" transform="translate(455.175781 0)"/>
     <use xlink:href="#DejaVuSans-Bold-65" transform="translate(514.453125 0)"/>
     <use xlink:href="#DejaVuSans-Bold-6e" transform="translate(582.275391 0)"/>
     <use xlink:href="#DejaVuSans-Bold-74" transform="translate(653.466797 0)"/>
     <use xlink:href="#DejaVuSans-Bold-6c" transform="translate(701.269531 0)"/>
     <use xlink:href="#DejaVuSans-Bold-79" transform="translate(735.546875 0)"/>
     <use xlink:href="#DejaVuSans-Bold-20" transform="translate(800.732422 0)"/>
     <use xlink:href="#DejaVuSans-Bold-55" transform="translate(835.546875 0)"/>
     <use xlink:href="#DejaVuSans-Bold-73" transform="translate(916.748047 0)"/>
     <use xlink:href="#DejaVuSans-Bold-65" transform="translate(976.269531 0)"/>
     <use xlink:href="#DejaVuSans-Bold-64" transform="translate(1044.091797 0)"/>
    </g>
   </g>
   <g id="text_10">
    <!-- Least Recently Used -->
    <g style="fill: #c0392b" transform="translate(412.09875 51.867969) scale(0.09 -0.09)">
     <defs>
      <path id="DejaVuSans-Bold-61" d="M 2106 1575 
Q 1756 1575 1579 1456 
Q 1403 1338 1403 1106 
Q 1403 894 1545 773 
Q 1688 653 1941 653 
Q 2256 653 2472 879 
Q 2688 1106 2688 1447 
L 2688 1575 
L 2106 1575 
z
M 3816 1997 
L 3816 0 
L 2688 0 
L 2688 519 
Q 2463 200 2181 54 
Q 1900 -91 1497 -91 
Q 953 -91 614 226 
Q 275 544 275 1050 
Q 275 1666 698 1953 
Q 1122 2241 2028 2241 
L 2688 2241 
L 2688 2328 
Q 2688 2594 2478 2717 
Q 2269 2841 1825 2841 
Q 1466 2841 1156 2769 
Q 847 2697 581 2553 
L 581 3406 
Q 941 3494 1303 3539 
Q 1666 3584 2028 3584 
Q 2975 3584 3395 3211 
Q 3816 2838 3816 1997 
z
" transform="scale(0.015625)"/>
     </defs>
     <use xlink:href="#DejaVuSans-Bold-4c"/>
     <use xlink:href="#DejaVuSans-Bold-65" transform="translate(63.720703 0)"/>
     <use xlink:href="#DejaVuSans-Bold-61" transform="translate(131.542969 0)"/>
     <use xlink:href="#DejaVuSans-Bold-73" transform="translate(199.023438 0)"/>
     <use xlink:href="#DejaVuSans-Bold-74" transform="translate(258.544922 0)"/>
     <use xlink:href="#DejaVuSans-Bold-20" transform="translate(306.347656 0)"/>
     <use xlink:href="#DejaVuSans-Bold-52" transform="translate(341.162109 0)"/>
     <use xlink:href="#DejaVuSans-Bold-65" transform="translate(418.164062 0)"/>
     <use xlink:href="#DejaVuSans-Bold-63" transform="translate(485.986328 0)"/>
     <use xlink:href="#DejaVuSans-Bold-65" transform="translate(545.263672 0)"/>
     <use xlink:href="#DejaVuSans-Bold-6e" transform="translate(613.085938 0)"/>
     <use xlink:href="#DejaVuSans-Bold-74" transform="translate(684.277344 0)"/>
     <use xlink:href="#DejaVuSans-Bold-6c" transform="translate(732.080078 0)"/>
     <use xlink:href="#DejaVuSans-Bold-79" transform="translate(766.357422 0)"/>
     <use xlink:href="#DejaVuSans-Bold-20" transform="translate(831.542969 0)"/>
     <use xlink:href="#DejaVuSans-Bold-55" transform="translate(866.357422 0)"/>
     <use xlink:href="#DejaVuSans-Bold-73" transform="translate(947.558594 0)"/>
     <use xlink:href="#DejaVuSans-Bold-65" transform="translate(1007.080078 0)"/>
     <use xlink:href="#DejaVuSans-Bold-64" transform="translate(1074.902344 0)"/>
    </g>
   </g>
   <g id="text_11">
    <!-- HashMap: -->
    <g transform="translate(48.00375 209.067344) scale(0.1 -0.1)">
     <defs>
      <path id="DejaVuSans-Bold-68" d="M 4056 2131 
L 4056 0 
L 2931 0 
L 2931 347 
L 2931 1625 
Q 2931 2084 2911 2256 
Q 2891 2428 2841 2509 
Q 2775 2619 2662 2680 
Q 2550 2741 2406 2741 
Q 2056 2741 1856 2470 
Q 1656 2200 1656 1722 
L 1656 0 
L 538 0 
L 538 4863 
L 1656 4863 
L 1656 2988 
Q 1909 3294 2193 3439 
Q 2478 3584 2822 3584 
Q 3428 3584 3742 3212 
Q 4056 2841 4056 2131 
z
" transform="scale(0.015625)"/>
      <path id="DejaVuSans-Bold-70" d="M 1656 506 
L 1656 -1331 
L 538 -1331 
L 538 3500 
L 1656 3500 
L 1656 2988 
Q 1888 3294 2169 3439 
Q 2450 3584 2816 3584 
Q 3463 3584 3878 3070 
Q 4294 2556 4294 1747 
Q 4294 938 3878 423 
Q 3463 -91 2816 -91 
Q 2450 -91 2169 54 
Q 1888 200 1656 506 
z
M 2400 2772 
Q 2041 2772 1848 2508 
Q 1656 2244 1656 1747 
Q 1656 1250 1848 986 
Q 2041 722 2400 722 
Q 2759 722 2948 984 
Q 3138 1247 3138 1747 
Q 3138 2247 2948 2509 
Q 2759 2772 2400 2772 
z
" transform="scale(0.015625)"/>
      <path id="DejaVuSans-Bold-3a" d="M 716 3500 
L 1844 3500 
L 1844 2291 
L 716 2291 
L 716 3500 
z
M 716 1209 
L 1844 1209 
L 1844 0 
L 716 0 
L 716 1209 
z
" transform="scale(0.015625)"/>
     </defs>
     <use xlink:href="#DejaVuSans-Bold-48"/>
     <use xlink:href="#DejaVuSans-Bold-61" transform="translate(83.691406 0)"/>
     <use xlink:href="#DejaVuSans-Bold-73" transform="translate(151.171875 0)"/>
     <use xlink:href="#DejaVuSans-Bold-68" transform="translate(210.693359 0)"/>
     <use xlink:href="#DejaVuSans-Bold-4d" transform="translate(281.884766 0)"/>
     <use xlink:href="#DejaVuSans-Bold-61" transform="translate(381.396484 0)"/>
     <use xlink:href="#DejaVuSans-Bold-70" transform="translate(448.876953 0)"/>
     <use xlink:href="#DejaVuSans-Bold-3a" transform="translate(520.458984 0)"/>
    </g>
   </g>
   <g id="text_12">
    <!-- { 3: node_3,   1: node_1,   2: node_2 } -->
    <g transform="translate(139.0275 208.928281) scale(0.1 -0.1)">
     <defs>
      <path id="DejaVuSansMono-7b" d="M 3163 -594 
L 3163 -1044 
L 2963 -1044 
Q 2184 -1044 1920 -812 
Q 1656 -581 1656 109 
L 1656 856 
Q 1656 1328 1489 1509 
Q 1322 1691 884 1691 
L 691 1691 
L 691 2138 
L 884 2138 
Q 1325 2138 1490 2316 
Q 1656 2494 1656 2963 
L 1656 3713 
Q 1656 4403 1920 4633 
Q 2184 4863 2963 4863 
L 3163 4863 
L 3163 4416 
L 2944 4416 
Q 2506 4416 2373 4280 
Q 2241 4144 2241 3700 
L 2241 2925 
Q 2241 2434 2098 2212 
Q 1956 1991 1613 1913 
Q 1959 1828 2100 1606 
Q 2241 1384 2241 897 
L 2241 122 
Q 2241 -325 2373 -459 
Q 2506 -594 2944 -594 
L 3163 -594 
z
" transform="scale(0.015625)"/>
      <path id="DejaVuSansMono-20" transform="scale(0.015625)"/>
      <path id="DejaVuSansMono-33" d="M 2425 2497 
Q 2884 2375 3128 2064 
Q 3372 1753 3372 1288 
Q 3372 644 2939 276 
Q 2506 -91 1741 -91 
Q 1419 -91 1084 -31 
Q 750 28 428 141 
L 428 769 
Q 747 603 1056 522 
Q 1366 441 1672 441 
Q 2191 441 2469 675 
Q 2747 909 2747 1350 
Q 2747 1756 2469 1995 
Q 2191 2234 1716 2234 
L 1234 2234 
L 1234 2753 
L 1716 2753 
Q 2150 2753 2394 2943 
Q 2638 3134 2638 3475 
Q 2638 3834 2411 4026 
Q 2184 4219 1766 4219 
Q 1488 4219 1191 4156 
Q 894 4094 569 3969 
L 569 4550 
Q 947 4650 1242 4700 
Q 1538 4750 1766 4750 
Q 2447 4750 2855 4408 
Q 3263 4066 3263 3500 
Q 3263 3116 3048 2859 
Q 2834 2603 2425 2497 
z
" transform="scale(0.015625)"/>
      <path id="DejaVuSansMono-3a" d="M 1528 3322 
L 2316 3322 
L 2316 2375 
L 1528 2375 
L 1528 3322 
z
M 1528 953 
L 2316 953 
L 2316 0 
L 1528 0 
L 1528 953 
z
" transform="scale(0.015625)"/>
      <path id="DejaVuSansMono-6e" d="M 3284 2169 
L 3284 0 
L 2706 0 
L 2706 2169 
Q 2706 2641 2540 2862 
Q 2375 3084 2022 3084 
Q 1619 3084 1401 2798 
Q 1184 2513 1184 1978 
L 1184 0 
L 609 0 
L 609 3500 
L 1184 3500 
L 1184 2975 
Q 1338 3275 1600 3429 
Q 1863 3584 2222 3584 
Q 2756 3584 3020 3232 
Q 3284 2881 3284 2169 
z
" transform="scale(0.015625)"/>
      <path id="DejaVuSansMono-6f" d="M 1925 3097 
Q 1488 3097 1263 2756 
Q 1038 2416 1038 1747 
Q 1038 1081 1263 739 
Q 1488 397 1925 397 
Q 2366 397 2591 739 
Q 2816 1081 2816 1747 
Q 2816 2416 2591 2756 
Q 2366 3097 1925 3097 
z
M 1925 3584 
Q 2653 3584 3039 3112 
Q 3425 2641 3425 1747 
Q 3425 850 3040 379 
Q 2656 -91 1925 -91 
Q 1197 -91 812 379 
Q 428 850 428 1747 
Q 428 2641 812 3112 
Q 1197 3584 1925 3584 
z
" transform="scale(0.015625)"/>
      <path id="DejaVuSansMono-64" d="M 2681 3053 
L 2681 4863 
L 3256 4863 
L 3256 0 
L 2681 0 
L 2681 441 
Q 2538 181 2298 45 
Q 2059 -91 1747 -91 
Q 1113 -91 748 401 
Q 384 894 384 1759 
Q 384 2613 750 3098 
Q 1116 3584 1747 3584 
Q 2063 3584 2303 3448 
Q 2544 3313 2681 3053 
z
M 991 1747 
Q 991 1078 1203 737 
Q 1416 397 1831 397 
Q 2247 397 2464 740 
Q 2681 1084 2681 1747 
Q 2681 2413 2464 2755 
Q 2247 3097 1831 3097 
Q 1416 3097 1203 2756 
Q 991 2416 991 1747 
z
" transform="scale(0.015625)"/>
      <path id="DejaVuSansMono-65" d="M 3475 1894 
L 3475 1613 
L 984 1613 
L 984 1594 
Q 984 1022 1282 709 
Q 1581 397 2125 397 
Q 2400 397 2700 484 
Q 3000 572 3341 750 
L 3341 178 
Q 3013 44 2708 -23 
Q 2403 -91 2119 -91 
Q 1303 -91 843 398 
Q 384 888 384 1747 
Q 384 2584 834 3084 
Q 1284 3584 2034 3584 
Q 2703 3584 3089 3131 
Q 3475 2678 3475 1894 
z
M 2900 2063 
Q 2888 2569 2661 2833 
Q 2434 3097 2009 3097 
Q 1594 3097 1325 2822 
Q 1056 2547 1006 2059 
L 2900 2063 
z
" transform="scale(0.015625)"/>
      <path id="DejaVuSansMono-5f" d="M 3853 -1259 
L 3853 -1509 
L 0 -1509 
L 0 -1259 
L 3853 -1259 
z
" transform="scale(0.015625)"/>
      <path id="DejaVuSansMono-2c" d="M 1569 947 
L 2356 947 
L 2356 300 
L 1741 -897 
L 1259 -897 
L 1569 300 
L 1569 947 
z
" transform="scale(0.015625)"/>
      <path id="DejaVuSansMono-31" d="M 844 531 
L 1825 531 
L 1825 4097 
L 769 3859 
L 769 4434 
L 1819 4666 
L 2450 4666 
L 2450 531 
L 3419 531 
L 3419 0 
L 844 0 
L 844 531 
z
" transform="scale(0.015625)"/>
      <path id="DejaVuSansMono-32" d="M 1166 531 
L 3309 531 
L 3309 0 
L 475 0 
L 475 531 
Q 1059 1147 1496 1619 
Q 1934 2091 2100 2284 
Q 2413 2666 2522 2902 
Q 2631 3138 2631 3384 
Q 2631 3775 2401 3997 
Q 2172 4219 1772 4219 
Q 1488 4219 1175 4116 
Q 863 4013 513 3803 
L 513 4441 
Q 834 4594 1145 4672 
Q 1456 4750 1759 4750 
Q 2444 4750 2861 4386 
Q 3278 4022 3278 3431 
Q 3278 3131 3139 2831 
Q 3000 2531 2688 2169 
Q 2513 1966 2180 1606 
Q 1847 1247 1166 531 
z
" transform="scale(0.015625)"/>
      <path id="DejaVuSansMono-7d" d="M 691 -594 
L 903 -594 
Q 1344 -594 1478 -456 
Q 1613 -319 1613 122 
L 1613 897 
Q 1613 1384 1753 1606 
Q 1894 1828 2241 1913 
Q 1897 1991 1755 2212 
Q 1613 2434 1613 2925 
L 1613 3700 
Q 1613 4141 1478 4278 
Q 1344 4416 903 4416 
L 691 4416 
L 691 4863 
L 884 4863 
Q 1663 4863 1925 4633 
Q 2188 4403 2188 3713 
L 2188 2963 
Q 2188 2494 2355 2316 
Q 2522 2138 2963 2138 
L 3163 2138 
L 3163 1691 
L 2963 1691 
Q 2522 1691 2355 1509 
Q 2188 1328 2188 856 
L 2188 109 
Q 2188 -581 1925 -812 
Q 1663 -1044 884 -1044 
L 691 -1044 
L 691 -594 
z
" transform="scale(0.015625)"/>
     </defs>
     <use xlink:href="#DejaVuSansMono-7b"/>
     <use xlink:href="#DejaVuSansMono-20" transform="translate(60.205078 0)"/>
     <use xlink:href="#DejaVuSansMono-33" transform="translate(120.410156 0)"/>
     <use xlink:href="#DejaVuSansMono-3a" transform="translate(180.615234 0)"/>
     <use xlink:href="#DejaVuSansMono-20" transform="translate(240.820312 0)"/>
     <use xlink:href="#DejaVuSansMono-6e" transform="translate(301.025391 0)"/>
     <use xlink:href="#DejaVuSansMono-6f" transform="translate(361.230469 0)"/>
     <use xlink:href="#DejaVuSansMono-64" transform="translate(421.435547 0)"/>
     <use xlink:href="#DejaVuSansMono-65" transform="translate(481.640625 0)"/>
     <use xlink:href="#DejaVuSansMono-5f" transform="translate(541.845703 0)"/>
     <use xlink:href="#DejaVuSansMono-33" transform="translate(602.050781 0)"/>
     <use xlink:href="#DejaVuSansMono-2c" transform="translate(662.255859 0)"/>
     <use xlink:href="#DejaVuSansMono-20" transform="translate(722.460938 0)"/>
     <use xlink:href="#DejaVuSansMono-20" transform="translate(782.666016 0)"/>
     <use xlink:href="#DejaVuSansMono-20" transform="translate(842.871094 0)"/>
     <use xlink:href="#DejaVuSansMono-31" transform="translate(903.076172 0)"/>
     <use xlink:href="#DejaVuSansMono-3a" transform="translate(963.28125 0)"/>
     <use xlink:href="#DejaVuSansMono-20" transform="translate(1023.486328 0)"/>
     <use xlink:href="#DejaVuSansMono-6e" transform="translate(1083.691406 0)"/>
     <use xlink:href="#DejaVuSansMono-6f" transform="translate(1143.896484 0)"/>
     <use xlink:href="#DejaVuSansMono-64" transform="translate(1204.101562 0)"/>
     <use xlink:href="#DejaVuSansMono-65" transform="translate(1264.306641 0)"/>
     <use xlink:href="#DejaVuSansMono-5f" transform="translate(1324.511719 0)"/>
     <use xlink:href="#DejaVuSansMono-31" transform="translate(1384.716797 0)"/>
     <use xlink:href="#DejaVuSansMono-2c" transform="translate(1444.921875 0)"/>
     <use xlink:href="#DejaVuSansMono-20" transform="translate(1505.126953 0)"/>
     <use xlink:href="#DejaVuSansMono-20" transform="translate(1565.332031 0)"/>
     <use xlink:href="#DejaVuSansMono-20" transform="translate(1625.537109 0)"/>
     <use xlink:href="#DejaVuSansMono-32" transform="translate(1685.742188 0)"/>
     <use xlink:href="#DejaVuSansMono-3a" transform="translate(1745.947266 0)"/>
     <use xlink:href="#DejaVuSansMono-20" transform="translate(1806.152344 0)"/>
     <use xlink:href="#DejaVuSansMono-6e" transform="translate(1866.357422 0)"/>
     <use xlink:href="#DejaVuSansMono-6f" transform="translate(1926.5625 0)"/>
     <use xlink:href="#DejaVuSansMono-64" transform="translate(1986.767578 0)"/>
     <use xlink:href="#DejaVuSansMono-65" transform="translate(2046.972656 0)"/>
     <use xlink:href="#DejaVuSansMono-5f" transform="translate(2107.177734 0)"/>
     <use xlink:href="#DejaVuSansMono-32" transform="translate(2167.382812 0)"/>
     <use xlink:href="#DejaVuSansMono-20" transform="translate(2227.587891 0)"/>
     <use xlink:href="#DejaVuSansMono-7d" transform="translate(2287.792969 0)"/>
    </g>
   </g>
   <g id="patch_16">
    <path d="M 186.10875 177.577968 
Q 186.10875 154.331832 186.10875 132.203729 
" style="fill: none; stroke-dasharray: 3.7,1.6; stroke-dashoffset: 0; stroke: #b7950b; stroke-linecap: round"/>
    <path d="M 184.10875 136.203729 
L 186.10875 132.203729 
L 188.10875 136.203729 
" style="fill: none; stroke-dasharray: 3.7,1.6; stroke-dashoffset: 0; stroke: #b7950b; stroke-linecap: round"/>
   </g>
   <g id="patch_17">
    <path d="M 292.82625 177.577968 
Q 292.82625 154.331832 292.82625 132.203729 
" style="fill: none; stroke-dasharray: 3.7,1.6; stroke-dashoffset: 0; stroke: #b7950b; stroke-linecap: round"/>
    <path d="M 290.82625 136.203729 
L 292.82625 132.203729 
L 294.82625 136.203729 
" style="fill: none; stroke-dasharray: 3.7,1.6; stroke-dashoffset: 0; stroke: #b7950b; stroke-linecap: round"/>
   </g>
   <g id="patch_18">
    <path d="M 399.54375 177.577968 
Q 399.54375 154.331832 399.54375 132.203729 
" style="fill: none; stroke-dasharray: 3.7,1.6; stroke-dashoffset: 0; stroke: #b7950b; stroke-linecap: round"/>
    <path d="M 397.54375 136.203729 
L 399.54375 132.203729 
L 401.54375 136.203729 
" style="fill: none; stroke-dasharray: 3.7,1.6; stroke-dashoffset: 0; stroke: #b7950b; stroke-linecap: round"/>
   </g>
   <g id="text_13">
    <!-- HashMap gives O(1) access -&gt; node, Linked List tracks recency order -->
    <g style="fill: #555555" transform="translate(136.236797 253.827969) scale(0.09 -0.09)">
     <defs>
      <path id="DejaVuSans-Oblique-48" d="M 1081 4666 
L 1716 4666 
L 1344 2753 
L 3634 2753 
L 4006 4666 
L 4641 4666 
L 3731 0 
L 3097 0 
L 3531 2222 
L 1241 2222 
L 806 0 
L 172 0 
L 1081 4666 
z
" transform="scale(0.015625)"/>
      <path id="DejaVuSans-Oblique-61" d="M 3438 1997 
L 3047 0 
L 2472 0 
L 2578 531 
Q 2325 219 2001 64 
Q 1678 -91 1281 -91 
Q 834 -91 548 182 
Q 263 456 263 884 
Q 263 1497 752 1853 
Q 1241 2209 2100 2209 
L 2900 2209 
L 2931 2363 
Q 2938 2388 2941 2417 
Q 2944 2447 2944 2509 
Q 2944 2788 2717 2942 
Q 2491 3097 2081 3097 
Q 1800 3097 1504 3025 
Q 1209 2953 897 2809 
L 997 3341 
Q 1322 3463 1633 3523 
Q 1944 3584 2234 3584 
Q 2853 3584 3176 3315 
Q 3500 3047 3500 2534 
Q 3500 2431 3484 2292 
Q 3469 2153 3438 1997 
z
M 2816 1759 
L 2241 1759 
Q 1534 1759 1195 1570 
Q 856 1381 856 984 
Q 856 709 1029 553 
Q 1203 397 1509 397 
Q 1978 397 2328 733 
Q 2678 1069 2791 1631 
L 2816 1759 
z
" transform="scale(0.015625)"/>
      <path id="DejaVuSans-Oblique-73" d="M 3200 3397 
L 3091 2853 
Q 2863 2978 2609 3040 
Q 2356 3103 2088 3103 
Q 1634 3103 1373 2948 
Q 1113 2794 1113 2528 
Q 1113 2219 1719 2053 
Q 1766 2041 1788 2034 
L 1972 1978 
Q 2547 1819 2739 1644 
Q 2931 1469 2931 1166 
Q 2931 609 2489 259 
Q 2047 -91 1331 -91 
Q 1053 -91 747 -37 
Q 441 16 72 128 
L 184 722 
Q 500 559 806 475 
Q 1113 391 1394 391 
Q 1816 391 2080 572 
Q 2344 753 2344 1031 
Q 2344 1331 1650 1516 
L 1591 1531 
L 1394 1581 
Q 956 1697 753 1886 
Q 550 2075 550 2369 
Q 550 2928 970 3256 
Q 1391 3584 2113 3584 
Q 2397 3584 2667 3537 
Q 2938 3491 3200 3397 
z
" transform="scale(0.015625)"/>
      <path id="DejaVuSans-Oblique-68" d="M 3566 2113 
L 3156 0 
L 2578 0 
L 2988 2091 
Q 3016 2238 3031 2350 
Q 3047 2463 3047 2528 
Q 3047 2791 2881 2937 
Q 2716 3084 2419 3084 
Q 1956 3084 1617 2771 
Q 1278 2459 1178 1941 
L 800 0 
L 225 0 
L 1172 4863 
L 1747 4863 
L 1375 2950 
Q 1594 3244 1934 3414 
Q 2275 3584 2650 3584 
Q 3113 3584 3367 3334 
Q 3622 3084 3622 2631 
Q 3622 2519 3608 2391 
Q 3594 2263 3566 2113 
z
" transform="scale(0.015625)"/>
      <path id="DejaVuSans-Oblique-4d" d="M 1081 4666 
L 2028 4666 
L 2572 1522 
L 4378 4666 
L 5350 4666 
L 4441 0 
L 3828 0 
L 4622 4091 
L 2791 897 
L 2175 897 
L 1581 4103 
L 788 0 
L 172 0 
L 1081 4666 
z
" transform="scale(0.015625)"/>
      <path id="DejaVuSans-Oblique-70" d="M 3175 2156 
Q 3175 2616 2975 2859 
Q 2775 3103 2400 3103 
Q 2144 3103 1911 2972 
Q 1678 2841 1497 2591 
Q 1319 2344 1212 1994 
Q 1106 1644 1106 1300 
Q 1106 863 1306 627 
Q 1506 391 1875 391 
Q 2147 391 2380 519 
Q 2613 647 2778 891 
Q 2956 1147 3065 1494 
Q 3175 1841 3175 2156 
z
M 1394 2969 
Q 1625 3272 1939 3428 
Q 2253 3584 2638 3584 
Q 3175 3584 3472 3232 
Q 3769 2881 3769 2247 
Q 3769 1728 3584 1258 
Q 3400 788 3053 416 
Q 2822 169 2531 39 
Q 2241 -91 1919 -91 
Q 1547 -91 1294 64 
Q 1041 219 916 525 
L 556 -1331 
L -19 -1331 
L 922 3500 
L 1497 3500 
L 1394 2969 
z
" transform="scale(0.015625)"/>
      <path id="DejaVuSans-Oblique-20" transform="scale(0.015625)"/>
      <path id="DejaVuSans-Oblique-67" d="M 3816 3500 
L 3219 434 
Q 3047 -456 2561 -893 
Q 2075 -1331 1253 -1331 
Q 950 -1331 690 -1286 
Q 431 -1241 206 -1147 
L 313 -588 
Q 525 -725 762 -790 
Q 1000 -856 1269 -856 
Q 1816 -856 2167 -557 
Q 2519 -259 2631 300 
L 2681 563 
Q 2441 288 2122 144 
Q 1803 0 1434 0 
Q 903 0 598 351 
Q 294 703 294 1319 
Q 294 1803 478 2267 
Q 663 2731 997 3091 
Q 1219 3328 1514 3456 
Q 1809 3584 2131 3584 
Q 2484 3584 2746 3420 
Q 3009 3256 3138 2956 
L 3238 3500 
L 3816 3500 
z
M 2950 2216 
Q 2950 2641 2750 2872 
Q 2550 3103 2181 3103 
Q 1953 3103 1747 3012 
Q 1541 2922 1394 2759 
Q 1156 2491 1023 2127 
Q 891 1763 891 1375 
Q 891 944 1092 712 
Q 1294 481 1672 481 
Q 2219 481 2584 976 
Q 2950 1472 2950 2216 
z
" transform="scale(0.015625)"/>
      <path id="DejaVuSans-Oblique-69" d="M 1172 4863 
L 1747 4863 
L 1606 4134 
L 1031 4134 
L 1172 4863 
z
M 909 3500 
L 1484 3500 
L 800 0 
L 225 0 
L 909 3500 
z
" transform="scale(0.015625)"/>
      <path id="DejaVuSans-Oblique-76" d="M 459 3500 
L 1069 3500 
L 1581 525 
L 3256 3500 
L 3866 3500 
L 1875 0 
L 1100 0 
L 459 3500 
z
" transform="scale(0.015625)"/>
      <path id="DejaVuSans-Oblique-65" d="M 3078 2063 
Q 3088 2113 3092 2166 
Q 3097 2219 3097 2272 
Q 3097 2653 2873 2875 
Q 2650 3097 2266 3097 
Q 1838 3097 1509 2826 
Q 1181 2556 1013 2059 
L 3078 2063 
z
M 3578 1613 
L 903 1613 
Q 884 1494 878 1425 
Q 872 1356 872 1306 
Q 872 872 1139 634 
Q 1406 397 1894 397 
Q 2269 397 2603 481 
Q 2938 566 3225 728 
L 3116 159 
Q 2806 34 2476 -28 
Q 2147 -91 1806 -91 
Q 1078 -91 686 257 
Q 294 606 294 1247 
Q 294 1794 489 2264 
Q 684 2734 1063 3103 
Q 1306 3334 1642 3459 
Q 1978 3584 2356 3584 
Q 2950 3584 3301 3228 
Q 3653 2872 3653 2272 
Q 3653 2128 3634 1964 
Q 3616 1800 3578 1613 
z
" transform="scale(0.015625)"/>
      <path id="DejaVuSans-Oblique-4f" d="M 2919 4238 
Q 2400 4238 2003 3986 
Q 1606 3734 1313 3219 
Q 1125 2891 1026 2522 
Q 928 2153 928 1778 
Q 928 1128 1239 775 
Q 1550 422 2119 422 
Q 2631 422 3032 676 
Q 3434 931 3719 1434 
Q 3909 1772 4009 2142 
Q 4109 2513 4109 2881 
Q 4109 3528 3796 3883 
Q 3484 4238 2919 4238 
z
M 2100 -91 
Q 1241 -91 748 418 
Q 256 928 256 1813 
Q 256 2319 448 2847 
Q 641 3375 978 3788 
Q 1375 4272 1862 4511 
Q 2350 4750 2938 4750 
Q 3794 4750 4287 4245 
Q 4781 3741 4781 2869 
Q 4781 2331 4593 1812 
Q 4406 1294 4056 872 
Q 3656 384 3173 146 
Q 2691 -91 2100 -91 
z
" transform="scale(0.015625)"/>
      <path id="DejaVuSans-Oblique-28" d="M 2731 4856 
Q 1903 3822 1495 2892 
Q 1088 1963 1088 1100 
Q 1088 606 1206 120 
Q 1325 -366 1563 -844 
L 1063 -844 
Q 775 -306 634 201 
Q 494 709 494 1197 
Q 494 2125 923 3036 
Q 1353 3947 2222 4856 
L 2731 4856 
z
" transform="scale(0.015625)"/>
      <path id="DejaVuSans-Oblique-31" d="M 416 531 
L 1447 531 
L 2144 4122 
L 978 3897 
L 1088 4441 
L 2247 4666 
L 2881 4666 
L 2075 531 
L 3103 531 
L 3003 0 
L 313 0 
L 416 531 
z
" transform="scale(0.015625)"/>
      <path id="DejaVuSans-Oblique-29" d="M -397 -844 
Q 434 191 840 1120 
Q 1247 2050 1247 2913 
Q 1247 3406 1130 3892 
Q 1013 4378 775 4856 
L 1275 4856 
Q 1563 4316 1703 3812 
Q 1844 3309 1844 2822 
Q 1844 1891 1411 973 
Q 978 56 116 -844 
L -397 -844 
z
" transform="scale(0.015625)"/>
      <path id="DejaVuSans-Oblique-63" d="M 3431 3366 
L 3316 2797 
Q 3109 2947 2876 3022 
Q 2644 3097 2394 3097 
Q 2119 3097 1870 3000 
Q 1622 2903 1453 2725 
Q 1184 2453 1037 2087 
Q 891 1722 891 1331 
Q 891 859 1127 628 
Q 1363 397 1844 397 
Q 2081 397 2348 469 
Q 2616 541 2906 684 
L 2797 116 
Q 2547 13 2283 -39 
Q 2019 -91 1741 -91 
Q 1044 -91 669 257 
Q 294 606 294 1253 
Q 294 1797 489 2255 
Q 684 2713 1069 3078 
Q 1331 3328 1684 3456 
Q 2038 3584 2456 3584 
Q 2700 3584 2940 3529 
Q 3181 3475 3431 3366 
z
" transform="scale(0.015625)"/>
      <path id="DejaVuSans-Oblique-2d" d="M 391 2009 
L 2075 2009 
L 1978 1497 
L 288 1497 
L 391 2009 
z
" transform="scale(0.015625)"/>
      <path id="DejaVuSans-Oblique-3e" d="M 678 3150 
L 678 3719 
L 4684 2266 
L 4684 1747 
L 678 294 
L 678 863 
L 3897 2003 
L 678 3150 
z
" transform="scale(0.015625)"/>
      <path id="DejaVuSans-Oblique-6e" d="M 3566 2113 
L 3156 0 
L 2578 0 
L 2988 2091 
Q 3016 2238 3031 2350 
Q 3047 2463 3047 2528 
Q 3047 2791 2881 2937 
Q 2716 3084 2419 3084 
Q 1956 3084 1622 2776 
Q 1288 2469 1184 1941 
L 800 0 
L 225 0 
L 903 3500 
L 1478 3500 
L 1363 2950 
Q 1603 3253 1940 3418 
Q 2278 3584 2650 3584 
Q 3113 3584 3367 3334 
Q 3622 3084 3622 2631 
Q 3622 2519 3608 2391 
Q 3594 2263 3566 2113 
z
" transform="scale(0.015625)"/>
      <path id="DejaVuSans-Oblique-6f" d="M 1625 -91 
Q 1009 -91 651 289 
Q 294 669 294 1325 
Q 294 1706 417 2101 
Q 541 2497 738 2766 
Q 1047 3184 1428 3384 
Q 1809 3584 2291 3584 
Q 2888 3584 3255 3212 
Q 3622 2841 3622 2241 
Q 3622 1825 3500 1412 
Q 3378 1000 3181 728 
Q 2875 309 2494 109 
Q 2113 -91 1625 -91 
z
M 891 1344 
Q 891 869 1089 633 
Q 1288 397 1691 397 
Q 2269 397 2648 901 
Q 3028 1406 3028 2181 
Q 3028 2634 2825 2865 
Q 2622 3097 2228 3097 
Q 1903 3097 1650 2945 
Q 1397 2794 1197 2484 
Q 1050 2253 970 1956 
Q 891 1659 891 1344 
z
" transform="scale(0.015625)"/>
      <path id="DejaVuSans-Oblique-64" d="M 2675 525 
Q 2444 222 2128 65 
Q 1813 -91 1428 -91 
Q 903 -91 598 267 
Q 294 625 294 1247 
Q 294 1766 478 2236 
Q 663 2706 1013 3078 
Q 1244 3325 1534 3454 
Q 1825 3584 2144 3584 
Q 2481 3584 2739 3421 
Q 2997 3259 3138 2956 
L 3513 4863 
L 4091 4863 
L 3144 0 
L 2566 0 
L 2675 525 
z
M 891 1350 
Q 891 897 1095 644 
Q 1300 391 1663 391 
Q 1931 391 2161 520 
Q 2391 650 2566 903 
Q 2750 1166 2856 1509 
Q 2963 1853 2963 2188 
Q 2963 2622 2758 2865 
Q 2553 3109 2194 3109 
Q 1922 3109 1687 2981 
Q 1453 2853 1288 2613 
Q 1106 2353 998 2009 
Q 891 1666 891 1350 
z
" transform="scale(0.015625)"/>
      <path id="DejaVuSans-Oblique-2c" d="M 575 794 
L 1234 794 
L 1131 256 
L 422 -744 
L 19 -744 
L 469 256 
L 575 794 
z
" transform="scale(0.015625)"/>
      <path id="DejaVuSans-Oblique-4c" d="M 1075 4666 
L 1709 4666 
L 909 525 
L 3181 525 
L 3078 0 
L 172 0 
L 1075 4666 
z
" transform="scale(0.015625)"/>
      <path id="DejaVuSans-Oblique-6b" d="M 1172 4863 
L 1747 4863 
L 1197 2028 
L 3169 3500 
L 3916 3500 
L 1716 1825 
L 3322 0 
L 2625 0 
L 1131 1709 
L 800 0 
L 225 0 
L 1172 4863 
z
" transform="scale(0.015625)"/>
      <path id="DejaVuSans-Oblique-74" d="M 2706 3500 
L 2619 3053 
L 1472 3053 
L 1100 1153 
Q 1081 1047 1072 975 
Q 1063 903 1063 863 
Q 1063 663 1183 572 
Q 1303 481 1569 481 
L 2150 481 
L 2053 0 
L 1503 0 
Q 991 0 739 200 
Q 488 400 488 806 
Q 488 878 497 964 
Q 506 1050 525 1153 
L 897 3053 
L 409 3053 
L 500 3500 
L 978 3500 
L 1172 4494 
L 1747 4494 
L 1556 3500 
L 2706 3500 
z
" transform="scale(0.015625)"/>
      <path id="DejaVuSans-Oblique-72" d="M 2853 2969 
Q 2766 3016 2653 3041 
Q 2541 3066 2413 3066 
Q 1953 3066 1609 2717 
Q 1266 2369 1153 1784 
L 800 0 
L 225 0 
L 909 3500 
L 1484 3500 
L 1375 2956 
Q 1603 3259 1920 3421 
Q 2238 3584 2597 3584 
Q 2691 3584 2781 3573 
Q 2872 3563 2963 3538 
L 2853 2969 
z
" transform="scale(0.015625)"/>
      <path id="DejaVuSans-Oblique-79" d="M 1588 -325 
Q 1188 -997 936 -1164 
Q 684 -1331 294 -1331 
L -159 -1331 
L -63 -850 
L 269 -850 
Q 509 -850 678 -719 
Q 847 -588 1056 -206 
L 1234 128 
L 459 3500 
L 1069 3500 
L 1650 819 
L 3256 3500 
L 3859 3500 
L 1588 -325 
z
" transform="scale(0.015625)"/>
     </defs>
     <use xlink:href="#DejaVuSans-Oblique-48"/>
     <use xlink:href="#DejaVuSans-Oblique-61" transform="translate(75.195312 0)"/>
     <use xlink:href="#DejaVuSans-Oblique-73" transform="translate(136.474609 0)"/>
     <use xlink:href="#DejaVuSans-Oblique-68" transform="translate(188.574219 0)"/>
     <use xlink:href="#DejaVuSans-Oblique-4d" transform="translate(251.953125 0)"/>
     <use xlink:href="#DejaVuSans-Oblique-61" transform="translate(338.232422 0)"/>
     <use xlink:href="#DejaVuSans-Oblique-70" transform="translate(399.511719 0)"/>
     <use xlink:href="#DejaVuSans-Oblique-20" transform="translate(462.988281 0)"/>
     <use xlink:href="#DejaVuSans-Oblique-67" transform="translate(494.775391 0)"/>
     <use xlink:href="#DejaVuSans-Oblique-69" transform="translate(558.251953 0)"/>
     <use xlink:href="#DejaVuSans-Oblique-76" transform="translate(586.035156 0)"/>
     <use xlink:href="#DejaVuSans-Oblique-65" transform="translate(645.214844 0)"/>
     <use xlink:href="#DejaVuSans-Oblique-73" transform="translate(706.738281 0)"/>
     <use xlink:href="#DejaVuSans-Oblique-20" transform="translate(758.837891 0)"/>
     <use xlink:href="#DejaVuSans-Oblique-4f" transform="translate(790.625 0)"/>
     <use xlink:href="#DejaVuSans-Oblique-28" transform="translate(869.335938 0)"/>
     <use xlink:href="#DejaVuSans-Oblique-31" transform="translate(908.349609 0)"/>
     <use xlink:href="#DejaVuSans-Oblique-29" transform="translate(971.972656 0)"/>
     <use xlink:href="#DejaVuSans-Oblique-20" transform="translate(1010.986328 0)"/>
     <use xlink:href="#DejaVuSans-Oblique-61" transform="translate(1042.773438 0)"/>
     <use xlink:href="#DejaVuSans-Oblique-63" transform="translate(1104.052734 0)"/>
     <use xlink:href="#DejaVuSans-Oblique-63" transform="translate(1159.033203 0)"/>
     <use xlink:href="#DejaVuSans-Oblique-65" transform="translate(1214.013672 0)"/>
     <use xlink:href="#DejaVuSans-Oblique-73" transform="translate(1275.537109 0)"/>
     <use xlink:href="#DejaVuSans-Oblique-73" transform="translate(1327.636719 0)"/>
     <use xlink:href="#DejaVuSans-Oblique-20" transform="translate(1379.736328 0)"/>
     <use xlink:href="#DejaVuSans-Oblique-2d" transform="translate(1411.523438 0)"/>
     <use xlink:href="#DejaVuSans-Oblique-3e" transform="translate(1447.607422 0)"/>
     <use xlink:href="#DejaVuSans-Oblique-20" transform="translate(1531.396484 0)"/>
     <use xlink:href="#DejaVuSans-Oblique-6e" transform="translate(1563.183594 0)"/>
     <use xlink:href="#DejaVuSans-Oblique-6f" transform="translate(1626.5625 0)"/>
     <use xlink:href="#DejaVuSans-Oblique-64" transform="translate(1687.744141 0)"/>
     <use xlink:href="#DejaVuSans-Oblique-65" transform="translate(1751.220703 0)"/>
     <use xlink:href="#DejaVuSans-Oblique-2c" transform="translate(1812.744141 0)"/>
     <use xlink:href="#DejaVuSans-Oblique-20" transform="translate(1844.53125 0)"/>
     <use xlink:href="#DejaVuSans-Oblique-4c" transform="translate(1876.318359 0)"/>
     <use xlink:href="#DejaVuSans-Oblique-69" transform="translate(1932.03125 0)"/>
     <use xlink:href="#DejaVuSans-Oblique-6e" transform="translate(1959.814453 0)"/>
     <use xlink:href="#DejaVuSans-Oblique-6b" transform="translate(2023.193359 0)"/>
     <use xlink:href="#DejaVuSans-Oblique-65" transform="translate(2081.103516 0)"/>
     <use xlink:href="#DejaVuSans-Oblique-64" transform="translate(2142.626953 0)"/>
     <use xlink:href="#DejaVuSans-Oblique-20" transform="translate(2206.103516 0)"/>
     <use xlink:href="#DejaVuSans-Oblique-4c" transform="translate(2237.890625 0)"/>
     <use xlink:href="#DejaVuSans-Oblique-69" transform="translate(2293.603516 0)"/>
     <use xlink:href="#DejaVuSans-Oblique-73" transform="translate(2321.386719 0)"/>
     <use xlink:href="#DejaVuSans-Oblique-74" transform="translate(2373.486328 0)"/>
     <use xlink:href="#DejaVuSans-Oblique-20" transform="translate(2412.695312 0)"/>
     <use xlink:href="#DejaVuSans-Oblique-74" transform="translate(2444.482422 0)"/>
     <use xlink:href="#DejaVuSans-Oblique-72" transform="translate(2483.691406 0)"/>
     <use xlink:href="#DejaVuSans-Oblique-61" transform="translate(2524.804688 0)"/>
     <use xlink:href="#DejaVuSans-Oblique-63" transform="translate(2586.083984 0)"/>
     <use xlink:href="#DejaVuSans-Oblique-6b" transform="translate(2641.064453 0)"/>
     <use xlink:href="#DejaVuSans-Oblique-73" transform="translate(2698.974609 0)"/>
     <use xlink:href="#DejaVuSans-Oblique-20" transform="translate(2751.074219 0)"/>
     <use xlink:href="#DejaVuSans-Oblique-72" transform="translate(2782.861328 0)"/>
     <use xlink:href="#DejaVuSans-Oblique-65" transform="translate(2823.974609 0)"/>
     <use xlink:href="#DejaVuSans-Oblique-63" transform="translate(2885.498047 0)"/>
     <use xlink:href="#DejaVuSans-Oblique-65" transform="translate(2940.478516 0)"/>
     <use xlink:href="#DejaVuSans-Oblique-6e" transform="translate(3002.001953 0)"/>
     <use xlink:href="#DejaVuSans-Oblique-63" transform="translate(3065.380859 0)"/>
     <use xlink:href="#DejaVuSans-Oblique-79" transform="translate(3120.361328 0)"/>
     <use xlink:href="#DejaVuSans-Oblique-20" transform="translate(3179.541016 0)"/>
     <use xlink:href="#DejaVuSans-Oblique-6f" transform="translate(3211.328125 0)"/>
     <use xlink:href="#DejaVuSans-Oblique-72" transform="translate(3272.509766 0)"/>
     <use xlink:href="#DejaVuSans-Oblique-64" transform="translate(3313.623047 0)"/>
     <use xlink:href="#DejaVuSans-Oblique-65" transform="translate(3377.099609 0)"/>
     <use xlink:href="#DejaVuSans-Oblique-72" transform="translate(3438.623047 0)"/>
    </g>
   </g>
   <g id="text_14">
    <!-- LRU Cache — HashMap + Doubly Linked List -->
    <g transform="translate(113.243359 17.077969) scale(0.13 -0.13)">
     <defs>
      <path id="DejaVuSans-4c" d="M 628 4666 
L 1259 4666 
L 1259 531 
L 3531 531 
L 3531 0 
L 628 0 
L 628 4666 
z
" transform="scale(0.015625)"/>
      <path id="DejaVuSans-52" d="M 2841 2188 
Q 3044 2119 3236 1894 
Q 3428 1669 3622 1275 
L 4263 0 
L 3584 0 
L 2988 1197 
Q 2756 1666 2539 1819 
Q 2322 1972 1947 1972 
L 1259 1972 
L 1259 0 
L 628 0 
L 628 4666 
L 2053 4666 
Q 2853 4666 3247 4331 
Q 3641 3997 3641 3322 
Q 3641 2881 3436 2590 
Q 3231 2300 2841 2188 
z
M 1259 4147 
L 1259 2491 
L 2053 2491 
Q 2509 2491 2742 2702 
Q 2975 2913 2975 3322 
Q 2975 3731 2742 3939 
Q 2509 4147 2053 4147 
L 1259 4147 
z
" transform="scale(0.015625)"/>
      <path id="DejaVuSans-55" d="M 556 4666 
L 1191 4666 
L 1191 1831 
Q 1191 1081 1462 751 
Q 1734 422 2344 422 
Q 2950 422 3222 751 
Q 3494 1081 3494 1831 
L 3494 4666 
L 4128 4666 
L 4128 1753 
Q 4128 841 3676 375 
Q 3225 -91 2344 -91 
Q 1459 -91 1007 375 
Q 556 841 556 1753 
L 556 4666 
z
" transform="scale(0.015625)"/>
      <path id="DejaVuSans-20" transform="scale(0.015625)"/>
      <path id="DejaVuSans-43" d="M 4122 4306 
L 4122 3641 
Q 3803 3938 3442 4084 
Q 3081 4231 2675 4231 
Q 1875 4231 1450 3742 
Q 1025 3253 1025 2328 
Q 1025 1406 1450 917 
Q 1875 428 2675 428 
Q 3081 428 3442 575 
Q 3803 722 4122 1019 
L 4122 359 
Q 3791 134 3420 21 
Q 3050 -91 2638 -91 
Q 1578 -91 968 557 
Q 359 1206 359 2328 
Q 359 3453 968 4101 
Q 1578 4750 2638 4750 
Q 3056 4750 3426 4639 
Q 3797 4528 4122 4306 
z
" transform="scale(0.015625)"/>
      <path id="DejaVuSans-61" d="M 2194 1759 
Q 1497 1759 1228 1600 
Q 959 1441 959 1056 
Q 959 750 1161 570 
Q 1363 391 1709 391 
Q 2188 391 2477 730 
Q 2766 1069 2766 1631 
L 2766 1759 
L 2194 1759 
z
M 3341 1997 
L 3341 0 
L 2766 0 
L 2766 531 
Q 2569 213 2275 61 
Q 1981 -91 1556 -91 
Q 1019 -91 701 211 
Q 384 513 384 1019 
Q 384 1609 779 1909 
Q 1175 2209 1959 2209 
L 2766 2209 
L 2766 2266 
Q 2766 2663 2505 2880 
Q 2244 3097 1772 3097 
Q 1472 3097 1187 3025 
Q 903 2953 641 2809 
L 641 3341 
Q 956 3463 1253 3523 
Q 1550 3584 1831 3584 
Q 2591 3584 2966 3190 
Q 3341 2797 3341 1997 
z
" transform="scale(0.015625)"/>
      <path id="DejaVuSans-63" d="M 3122 3366 
L 3122 2828 
Q 2878 2963 2633 3030 
Q 2388 3097 2138 3097 
Q 1578 3097 1268 2742 
Q 959 2388 959 1747 
Q 959 1106 1268 751 
Q 1578 397 2138 397 
Q 2388 397 2633 464 
Q 2878 531 3122 666 
L 3122 134 
Q 2881 22 2623 -34 
Q 2366 -91 2075 -91 
Q 1284 -91 818 406 
Q 353 903 353 1747 
Q 353 2603 823 3093 
Q 1294 3584 2113 3584 
Q 2378 3584 2631 3529 
Q 2884 3475 3122 3366 
z
" transform="scale(0.015625)"/>
      <path id="DejaVuSans-68" d="M 3513 2113 
L 3513 0 
L 2938 0 
L 2938 2094 
Q 2938 2591 2744 2837 
Q 2550 3084 2163 3084 
Q 1697 3084 1428 2787 
Q 1159 2491 1159 1978 
L 1159 0 
L 581 0 
L 581 4863 
L 1159 4863 
L 1159 2956 
Q 1366 3272 1645 3428 
Q 1925 3584 2291 3584 
Q 2894 3584 3203 3211 
Q 3513 2838 3513 2113 
z
" transform="scale(0.015625)"/>
      <path id="DejaVuSans-65" d="M 3597 1894 
L 3597 1613 
L 953 1613 
Q 991 1019 1311 708 
Q 1631 397 2203 397 
Q 2534 397 2845 478 
Q 3156 559 3463 722 
L 3463 178 
Q 3153 47 2828 -22 
Q 2503 -91 2169 -91 
Q 1331 -91 842 396 
Q 353 884 353 1716 
Q 353 2575 817 3079 
Q 1281 3584 2069 3584 
Q 2775 3584 3186 3129 
Q 3597 2675 3597 1894 
z
M 3022 2063 
Q 3016 2534 2758 2815 
Q 2500 3097 2075 3097 
Q 1594 3097 1305 2825 
Q 1016 2553 972 2059 
L 3022 2063 
z
" transform="scale(0.015625)"/>
      <path id="DejaVuSans-2014" d="M 313 1978 
L 6088 1978 
L 6088 1528 
L 313 1528 
L 313 1978 
z
" transform="scale(0.015625)"/>
      <path id="DejaVuSans-48" d="M 628 4666 
L 1259 4666 
L 1259 2753 
L 3553 2753 
L 3553 4666 
L 4184 4666 
L 4184 0 
L 3553 0 
L 3553 2222 
L 1259 2222 
L 1259 0 
L 628 0 
L 628 4666 
z
" transform="scale(0.015625)"/>
      <path id="DejaVuSans-73" d="M 2834 3397 
L 2834 2853 
Q 2591 2978 2328 3040 
Q 2066 3103 1784 3103 
Q 1356 3103 1142 2972 
Q 928 2841 928 2578 
Q 928 2378 1081 2264 
Q 1234 2150 1697 2047 
L 1894 2003 
Q 2506 1872 2764 1633 
Q 3022 1394 3022 966 
Q 3022 478 2636 193 
Q 2250 -91 1575 -91 
Q 1294 -91 989 -36 
Q 684 19 347 128 
L 347 722 
Q 666 556 975 473 
Q 1284 391 1588 391 
Q 1994 391 2212 530 
Q 2431 669 2431 922 
Q 2431 1156 2273 1281 
Q 2116 1406 1581 1522 
L 1381 1569 
Q 847 1681 609 1914 
Q 372 2147 372 2553 
Q 372 3047 722 3315 
Q 1072 3584 1716 3584 
Q 2034 3584 2315 3537 
Q 2597 3491 2834 3397 
z
" transform="scale(0.015625)"/>
      <path id="DejaVuSans-4d" d="M 628 4666 
L 1569 4666 
L 2759 1491 
L 3956 4666 
L 4897 4666 
L 4897 0 
L 4281 0 
L 4281 4097 
L 3078 897 
L 2444 897 
L 1241 4097 
L 1241 0 
L 628 0 
L 628 4666 
z
" transform="scale(0.015625)"/>
      <path id="DejaVuSans-70" d="M 1159 525 
L 1159 -1331 
L 581 -1331 
L 581 3500 
L 1159 3500 
L 1159 2969 
Q 1341 3281 1617 3432 
Q 1894 3584 2278 3584 
Q 2916 3584 3314 3078 
Q 3713 2572 3713 1747 
Q 3713 922 3314 415 
Q 2916 -91 2278 -91 
Q 1894 -91 1617 61 
Q 1341 213 1159 525 
z
M 3116 1747 
Q 3116 2381 2855 2742 
Q 2594 3103 2138 3103 
Q 1681 3103 1420 2742 
Q 1159 2381 1159 1747 
Q 1159 1113 1420 752 
Q 1681 391 2138 391 
Q 2594 391 2855 752 
Q 3116 1113 3116 1747 
z
" transform="scale(0.015625)"/>
      <path id="DejaVuSans-2b" d="M 2944 4013 
L 2944 2272 
L 4684 2272 
L 4684 1741 
L 2944 1741 
L 2944 0 
L 2419 0 
L 2419 1741 
L 678 1741 
L 678 2272 
L 2419 2272 
L 2419 4013 
L 2944 4013 
z
" transform="scale(0.015625)"/>
      <path id="DejaVuSans-44" d="M 1259 4147 
L 1259 519 
L 2022 519 
Q 2988 519 3436 956 
Q 3884 1394 3884 2338 
Q 3884 3275 3436 3711 
Q 2988 4147 2022 4147 
L 1259 4147 
z
M 628 4666 
L 1925 4666 
Q 3281 4666 3915 4102 
Q 4550 3538 4550 2338 
Q 4550 1131 3912 565 
Q 3275 0 1925 0 
L 628 0 
L 628 4666 
z
" transform="scale(0.015625)"/>
      <path id="DejaVuSans-6f" d="M 1959 3097 
Q 1497 3097 1228 2736 
Q 959 2375 959 1747 
Q 959 1119 1226 758 
Q 1494 397 1959 397 
Q 2419 397 2687 759 
Q 2956 1122 2956 1747 
Q 2956 2369 2687 2733 
Q 2419 3097 1959 3097 
z
M 1959 3584 
Q 2709 3584 3137 3096 
Q 3566 2609 3566 1747 
Q 3566 888 3137 398 
Q 2709 -91 1959 -91 
Q 1206 -91 779 398 
Q 353 888 353 1747 
Q 353 2609 779 3096 
Q 1206 3584 1959 3584 
z
" transform="scale(0.015625)"/>
      <path id="DejaVuSans-75" d="M 544 1381 
L 544 3500 
L 1119 3500 
L 1119 1403 
Q 1119 906 1312 657 
Q 1506 409 1894 409 
Q 2359 409 2629 706 
Q 2900 1003 2900 1516 
L 2900 3500 
L 3475 3500 
L 3475 0 
L 2900 0 
L 2900 538 
Q 2691 219 2414 64 
Q 2138 -91 1772 -91 
Q 1169 -91 856 284 
Q 544 659 544 1381 
z
M 1991 3584 
L 1991 3584 
z
" transform="scale(0.015625)"/>
      <path id="DejaVuSans-62" d="M 3116 1747 
Q 3116 2381 2855 2742 
Q 2594 3103 2138 3103 
Q 1681 3103 1420 2742 
Q 1159 2381 1159 1747 
Q 1159 1113 1420 752 
Q 1681 391 2138 391 
Q 2594 391 2855 752 
Q 3116 1113 3116 1747 
z
M 1159 2969 
Q 1341 3281 1617 3432 
Q 1894 3584 2278 3584 
Q 2916 3584 3314 3078 
Q 3713 2572 3713 1747 
Q 3713 922 3314 415 
Q 2916 -91 2278 -91 
Q 1894 -91 1617 61 
Q 1341 213 1159 525 
L 1159 0 
L 581 0 
L 581 4863 
L 1159 4863 
L 1159 2969 
z
" transform="scale(0.015625)"/>
      <path id="DejaVuSans-6c" d="M 603 4863 
L 1178 4863 
L 1178 0 
L 603 0 
L 603 4863 
z
" transform="scale(0.015625)"/>
      <path id="DejaVuSans-79" d="M 2059 -325 
Q 1816 -950 1584 -1140 
Q 1353 -1331 966 -1331 
L 506 -1331 
L 506 -850 
L 844 -850 
Q 1081 -850 1212 -737 
Q 1344 -625 1503 -206 
L 1606 56 
L 191 3500 
L 800 3500 
L 1894 763 
L 2988 3500 
L 3597 3500 
L 2059 -325 
z
" transform="scale(0.015625)"/>
      <path id="DejaVuSans-69" d="M 603 3500 
L 1178 3500 
L 1178 0 
L 603 0 
L 603 3500 
z
M 603 4863 
L 1178 4863 
L 1178 4134 
L 603 4134 
L 603 4863 
z
" transform="scale(0.015625)"/>
      <path id="DejaVuSans-6e" d="M 3513 2113 
L 3513 0 
L 2938 0 
L 2938 2094 
Q 2938 2591 2744 2837 
Q 2550 3084 2163 3084 
Q 1697 3084 1428 2787 
Q 1159 2491 1159 1978 
L 1159 0 
L 581 0 
L 581 3500 
L 1159 3500 
L 1159 2956 
Q 1366 3272 1645 3428 
Q 1925 3584 2291 3584 
Q 2894 3584 3203 3211 
Q 3513 2838 3513 2113 
z
" transform="scale(0.015625)"/>
      <path id="DejaVuSans-6b" d="M 581 4863 
L 1159 4863 
L 1159 1991 
L 2875 3500 
L 3609 3500 
L 1753 1863 
L 3688 0 
L 2938 0 
L 1159 1709 
L 1159 0 
L 581 0 
L 581 4863 
z
" transform="scale(0.015625)"/>
      <path id="DejaVuSans-64" d="M 2906 2969 
L 2906 4863 
L 3481 4863 
L 3481 0 
L 2906 0 
L 2906 525 
Q 2725 213 2448 61 
Q 2172 -91 1784 -91 
Q 1150 -91 751 415 
Q 353 922 353 1747 
Q 353 2572 751 3078 
Q 1150 3584 1784 3584 
Q 2172 3584 2448 3432 
Q 2725 3281 2906 2969 
z
M 947 1747 
Q 947 1113 1208 752 
Q 1469 391 1925 391 
Q 2381 391 2643 752 
Q 2906 1113 2906 1747 
Q 2906 2381 2643 2742 
Q 2381 3103 1925 3103 
Q 1469 3103 1208 2742 
Q 947 2381 947 1747 
z
" transform="scale(0.015625)"/>
      <path id="DejaVuSans-74" d="M 1172 4494 
L 1172 3500 
L 2356 3500 
L 2356 3053 
L 1172 3053 
L 1172 1153 
Q 1172 725 1289 603 
Q 1406 481 1766 481 
L 2356 481 
L 2356 0 
L 1766 0 
Q 1100 0 847 248 
Q 594 497 594 1153 
L 594 3053 
L 172 3053 
L 172 3500 
L 594 3500 
L 594 4494 
L 1172 4494 
z
" transform="scale(0.015625)"/>
     </defs>
     <use xlink:href="#DejaVuSans-4c"/>
     <use xlink:href="#DejaVuSans-52" transform="translate(55.712891 0)"/>
     <use xlink:href="#DejaVuSans-55" transform="translate(125.195312 0)"/>
     <use xlink:href="#DejaVuSans-20" transform="translate(198.388672 0)"/>
     <use xlink:href="#DejaVuSans-43" transform="translate(230.175781 0)"/>
     <use xlink:href="#DejaVuSans-61" transform="translate(300 0)"/>
     <use xlink:href="#DejaVuSans-63" transform="translate(361.279297 0)"/>
     <use xlink:href="#DejaVuSans-68" transform="translate(416.259766 0)"/>
     <use xlink:href="#DejaVuSans-65" transform="translate(479.638672 0)"/>
     <use xlink:href="#DejaVuSans-20" transform="translate(541.162109 0)"/>
     <use xlink:href="#DejaVuSans-2014" transform="translate(572.949219 0)"/>
     <use xlink:href="#DejaVuSans-20" transform="translate(672.949219 0)"/>
     <use xlink:href="#DejaVuSans-48" transform="translate(704.736328 0)"/>
     <use xlink:href="#DejaVuSans-61" transform="translate(779.931641 0)"/>
     <use xlink:href="#DejaVuSans-73" transform="translate(841.210938 0)"/>
     <use xlink:href="#DejaVuSans-68" transform="translate(893.310547 0)"/>
     <use xlink:href="#DejaVuSans-4d" transform="translate(956.689453 0)"/>
     <use xlink:href="#DejaVuSans-61" transform="translate(1042.96875 0)"/>
     <use xlink:href="#DejaVuSans-70" transform="translate(1104.248047 0)"/>
     <use xlink:href="#DejaVuSans-20" transform="translate(1167.724609 0)"/>
     <use xlink:href="#DejaVuSans-2b" transform="translate(1199.511719 0)"/>
     <use xlink:href="#DejaVuSans-20" transform="translate(1283.300781 0)"/>
     <use xlink:href="#DejaVuSans-44" transform="translate(1315.087891 0)"/>
     <use xlink:href="#DejaVuSans-6f" transform="translate(1392.089844 0)"/>
     <use xlink:href="#DejaVuSans-75" transform="translate(1453.271484 0)"/>
     <use xlink:href="#DejaVuSans-62" transform="translate(1516.650391 0)"/>
     <use xlink:href="#DejaVuSans-6c" transform="translate(1580.126953 0)"/>
     <use xlink:href="#DejaVuSans-79" transform="translate(1607.910156 0)"/>
     <use xlink:href="#DejaVuSans-20" transform="translate(1667.089844 0)"/>
     <use xlink:href="#DejaVuSans-4c" transform="translate(1698.876953 0)"/>
     <use xlink:href="#DejaVuSans-69" transform="translate(1754.589844 0)"/>
     <use xlink:href="#DejaVuSans-6e" transform="translate(1782.373047 0)"/>
     <use xlink:href="#DejaVuSans-6b" transform="translate(1845.751953 0)"/>
     <use xlink:href="#DejaVuSans-65" transform="translate(1900.037109 0)"/>
     <use xlink:href="#DejaVuSans-64" transform="translate(1961.560547 0)"/>
     <use xlink:href="#DejaVuSans-20" transform="translate(2025.037109 0)"/>
     <use xlink:href="#DejaVuSans-4c" transform="translate(2056.824219 0)"/>
     <use xlink:href="#DejaVuSans-69" transform="translate(2112.537109 0)"/>
     <use xlink:href="#DejaVuSans-73" transform="translate(2140.320312 0)"/>
     <use xlink:href="#DejaVuSans-74" transform="translate(2192.419922 0)"/>
    </g>
   </g>
  </g>
 </g>
 <defs>
  <clipPath id="p9534d38220">
   <rect x="7.2" y="31.077969" width="502.2" height="249.48"/>
  </clipPath>
 </defs>
</svg>
