<?xml version="1.0" encoding="utf-8" standalone="no"?>
<!DOCTYPE svg PUBLIC "-//W3C//DTD SVG 1.1//EN"
  "http://www.w3.org/Graphics/SVG/1.1/DTD/svg11.dtd">
<svg xmlns:xlink="http://www.w3.org/1999/xlink" width="516.6pt" height="231.558125pt" viewBox="0 0 516.6 231.558125" xmlns="http://www.w3.org/2000/svg" version="1.1">
 <metadata>
  <rdf:RDF xmlns:dc="http://purl.org/dc/elements/1.1/" xmlns:cc="http://creativecommons.org/ns#" xmlns:rdf="http://www.w3.org/1999/02/22-rdf-syntax-ns#">
   <cc:Work>
    <dc:type rdf:resource="http://purl.org/dc/dcmitype/StillImage"/>
    <dc:date>2026-07-04T14:35:36.126327</dc:date>
    <dc:format>image/svg+xml</dc:format>
    <dc:creator>
     <cc:Agent>
      <dc:title>Matplotlib v3.10.8, https://matplotlib.org/</dc:title>
     </cc:Agent>
    </dc:creator>
   </cc:Work>
  </rdf:RDF>
 </metadata>
 <defs>
  <style type="text/css">*{stroke-linejoin: round; stroke-linecap: butt}</style>
 </defs>
 <g id="figure_1">
  <g id="patch_1">
   <path d="M 0 231.558125 
L 516.6 231.558125 
L 516.6 -0 
L 0 -0 
z
" style="fill: #fafaf9"/>
  </g>
  <g id="axes_1">
   <g id="patch_2">
    <path d="M 24.976991 92.168375 
L 70.308319 92.168375 
Q 72.086018 92.168375 72.086018 90.955625 
L 72.086018 60.636875 
Q 72.086018 59.424125 70.308319 59.424125 
L 24.976991 59.424125 
Q 23.199292 59.424125 23.199292 60.636875 
L 23.199292 90.955625 
Q 23.199292 92.168375 24.976991 92.168375 
z
" clip-path="url(#pad9542479a)" style="fill: #d6eaf8; stroke: #999999; stroke-linejoin: miter"/>
   </g>
   <g id="patch_3">
    <path d="M 73.863717 92.168375 
L 119.195044 92.168375 
Q 120.972743 92.168375 120.972743 90.955625 
L 120.972743 60.636875 
Q 120.972743 59.424125 119.195044 59.424125 
L 73.863717 59.424125 
Q 72.086018 59.424125 72.086018 60.636875 
L 72.086018 90.955625 
Q 72.086018 92.168375 73.863717 92.168375 
z
" clip-path="url(#pad9542479a)" style="fill: #d6eaf8; stroke: #999999; stroke-linejoin: miter"/>
   </g>
   <g id="patch_4">
    <path d="M 122.750442 92.168375 
L 168.08177 92.168375 
Q 169.859469 92.168375 169.859469 90.955625 
L 169.859469 60.636875 
Q 169.859469 59.424125 168.08177 59.424125 
L 122.750442 59.424125 
Q 120.972743 59.424125 120.972743 60.636875 
L 120.972743 90.955625 
Q 120.972743 92.168375 122.750442 92.168375 
z
" clip-path="url(#pad9542479a)" style="fill: #d6eaf8; stroke: #999999; stroke-linejoin: miter"/>
   </g>
   <g id="patch_5">
    <path d="M 171.637168 92.168375 
L 216.968496 92.168375 
Q 218.746195 92.168375 218.746195 90.955625 
L 218.746195 60.636875 
Q 218.746195 59.424125 216.968496 59.424125 
L 171.637168 59.424125 
Q 169.859469 59.424125 169.859469 60.636875 
L 169.859469 90.955625 
Q 169.859469 92.168375 171.637168 92.168375 
z
" clip-path="url(#pad9542479a)" style="fill: #fadbd8; stroke: #999999; stroke-linejoin: miter"/>
   </g>
   <g id="patch_6">
    <path d="M 220.523894 92.168375 
L 265.855221 92.168375 
Q 267.63292 92.168375 267.63292 90.955625 
L 267.63292 60.636875 
Q 267.63292 59.424125 265.855221 59.424125 
L 220.523894 59.424125 
Q 218.746195 59.424125 218.746195 60.636875 
L 218.746195 90.955625 
Q 218.746195 92.168375 220.523894 92.168375 
z
" clip-path="url(#pad9542479a)" style="fill: #fadbd8; stroke: #999999; stroke-linejoin: miter"/>
   </g>
   <g id="patch_7">
    <path d="M 269.410619 92.168375 
L 314.741947 92.168375 
Q 316.519646 92.168375 316.519646 90.955625 
L 316.519646 60.636875 
Q 316.519646 59.424125 314.741947 59.424125 
L 269.410619 59.424125 
Q 267.63292 59.424125 267.63292 60.636875 
L 267.63292 90.955625 
Q 267.63292 92.168375 269.410619 92.168375 
z
" clip-path="url(#pad9542479a)" style="fill: #f9e79f; stroke: #999999; stroke-linejoin: miter"/>
   </g>
   <g id="patch_8">
    <path d="M 318.297345 92.168375 
L 363.628673 92.168375 
Q 365.406372 92.168375 365.406372 90.955625 
L 365.406372 60.636875 
Q 365.406372 59.424125 363.628673 59.424125 
L 318.297345 59.424125 
Q 316.519646 59.424125 316.519646 60.636875 
L 316.519646 90.955625 
Q 316.519646 92.168375 318.297345 92.168375 
z
" clip-path="url(#pad9542479a)" style="fill: #a9dfbf; stroke: #999999; stroke-linejoin: miter"/>
   </g>
   <g id="patch_9">
    <path d="M 367.184071 92.168375 
L 412.515398 92.168375 
Q 414.293097 92.168375 414.293097 90.955625 
L 414.293097 60.636875 
Q 414.293097 59.424125 412.515398 59.424125 
L 367.184071 59.424125 
Q 365.406372 59.424125 365.406372 60.636875 
L 365.406372 90.955625 
Q 365.406372 92.168375 367.184071 92.168375 
z
" clip-path="url(#pad9542479a)" style="fill: #a9dfbf; stroke: #999999; stroke-linejoin: miter"/>
   </g>
   <g id="patch_10">
    <path d="M 416.070796 92.168375 
L 461.402124 92.168375 
Q 463.179823 92.168375 463.179823 90.955625 
L 463.179823 60.636875 
Q 463.179823 59.424125 461.402124 59.424125 
L 416.070796 59.424125 
Q 414.293097 59.424125 414.293097 60.636875 
L 414.293097 90.955625 
Q 414.293097 92.168375 416.070796 92.168375 
z
" clip-path="url(#pad9542479a)" style="fill: #a9dfbf; stroke: #999999; stroke-linejoin: miter"/>
   </g>
   <g id="patch_11">
    <path d="M 24.976991 164.933375 
L 108.52885 164.933375 
Q 110.306549 164.933375 110.306549 163.720625 
L 110.306549 133.401875 
Q 110.306549 132.189125 108.52885 132.189125 
L 24.976991 132.189125 
Q 23.199292 132.189125 23.199292 133.401875 
L 23.199292 163.720625 
Q 23.199292 164.933375 24.976991 164.933375 
z
" clip-path="url(#pad9542479a)" style="fill: #d6eaf8; stroke: #666666; stroke-width: 1.2; stroke-linejoin: miter"/>
   </g>
   <g id="patch_12">
    <path d="M 117.417345 164.933375 
L 200.969204 164.933375 
Q 202.746903 164.933375 202.746903 163.720625 
L 202.746903 133.401875 
Q 202.746903 132.189125 200.969204 132.189125 
L 117.417345 132.189125 
Q 115.639646 132.189125 115.639646 133.401875 
L 115.639646 163.720625 
Q 115.639646 164.933375 117.417345 164.933375 
z
" clip-path="url(#pad9542479a)" style="fill: #fadbd8; stroke: #666666; stroke-width: 1.2; stroke-linejoin: miter"/>
   </g>
   <g id="patch_13">
    <path d="M 209.857699 164.933375 
L 293.409558 164.933375 
Q 295.187257 164.933375 295.187257 163.720625 
L 295.187257 133.401875 
Q 295.187257 132.189125 293.409558 132.189125 
L 209.857699 132.189125 
Q 208.08 132.189125 208.08 133.401875 
L 208.08 163.720625 
Q 208.08 164.933375 209.857699 164.933375 
z
" clip-path="url(#pad9542479a)" style="fill: #f9e79f; stroke: #666666; stroke-width: 1.2; stroke-linejoin: miter"/>
   </g>
   <g id="patch_14">
    <path d="M 302.298053 164.933375 
L 385.849912 164.933375 
Q 387.627611 164.933375 387.627611 163.720625 
L 387.627611 133.401875 
Q 387.627611 132.189125 385.849912 132.189125 
L 302.298053 132.189125 
Q 300.520354 132.189125 300.520354 133.401875 
L 300.520354 163.720625 
Q 300.520354 164.933375 302.298053 164.933375 
z
" clip-path="url(#pad9542479a)" style="fill: #a9dfbf; stroke: #666666; stroke-width: 1.2; stroke-linejoin: miter"/>
   </g>
   <g id="text_1">
    <!-- a -->
    <g transform="translate(44.268436 78.555625) scale(0.1 -0.1)">
     <defs>
      <path id="DejaVuSans-Bold-61" d="M 2106 1575 
Q 1756 1575 1579 1456 
Q 1403 1338 1403 1106 
Q 1403 894 1545 773 
Q 1688 653 1941 653 
Q 2256 653 2472 879 
Q 2688 1106 2688 1447 
L 2688 1575 
L 2106 1575 
z
M 3816 1997 
L 3816 0 
L 2688 0 
L 2688 519 
Q 2463 200 2181 54 
Q 1900 -91 1497 -91 
Q 953 -91 614 226 
Q 275 544 275 1050 
Q 275 1666 698 1953 
Q 1122 2241 2028 2241 
L 2688 2241 
L 2688 2328 
Q 2688 2594 2478 2717 
Q 2269 2841 1825 2841 
Q 1466 2841 1156 2769 
Q 847 2697 581 2553 
L 581 3406 
Q 941 3494 1303 3539 
Q 1666 3584 2028 3584 
Q 2975 3584 3395 3211 
Q 3816 2838 3816 1997 
z
" transform="scale(0.015625)"/>
     </defs>
     <use xlink:href="#DejaVuSans-Bold-61"/>
    </g>
   </g>
   <g id="text_2">
    <!-- a -->
    <g transform="translate(93.155162 78.555625) scale(0.1 -0.1)">
     <use xlink:href="#DejaVuSans-Bold-61"/>
    </g>
   </g>
   <g id="text_3">
    <!-- a -->
    <g transform="translate(142.041887 78.555625) scale(0.1 -0.1)">
     <use xlink:href="#DejaVuSans-Bold-61"/>
    </g>
   </g>
   <g id="text_4">
    <!-- b -->
    <g transform="translate(190.723926 78.555625) scale(0.1 -0.1)">
     <defs>
      <path id="DejaVuSans-Bold-62" d="M 2400 722 
Q 2759 722 2948 984 
Q 3138 1247 3138 1747 
Q 3138 2247 2948 2509 
Q 2759 2772 2400 2772 
Q 2041 2772 1848 2508 
Q 1656 2244 1656 1747 
Q 1656 1250 1848 986 
Q 2041 722 2400 722 
z
M 1656 2988 
Q 1888 3294 2169 3439 
Q 2450 3584 2816 3584 
Q 3463 3584 3878 3070 
Q 4294 2556 4294 1747 
Q 4294 938 3878 423 
Q 3463 -91 2816 -91 
Q 2450 -91 2169 54 
Q 1888 200 1656 506 
L 1656 0 
L 538 0 
L 538 4863 
L 1656 4863 
L 1656 2988 
z
" transform="scale(0.015625)"/>
     </defs>
     <use xlink:href="#DejaVuSans-Bold-62"/>
    </g>
   </g>
   <g id="text_5">
    <!-- b -->
    <g transform="translate(239.610651 78.555625) scale(0.1 -0.1)">
     <use xlink:href="#DejaVuSans-Bold-62"/>
    </g>
   </g>
   <g id="text_6">
    <!-- c -->
    <g transform="translate(289.112221 78.555625) scale(0.1 -0.1)">
     <defs>
      <path id="DejaVuSans-Bold-63" d="M 3366 3391 
L 3366 2478 
Q 3138 2634 2908 2709 
Q 2678 2784 2431 2784 
Q 1963 2784 1702 2511 
Q 1441 2238 1441 1747 
Q 1441 1256 1702 982 
Q 1963 709 2431 709 
Q 2694 709 2930 787 
Q 3166 866 3366 1019 
L 3366 103 
Q 3103 6 2833 -42 
Q 2563 -91 2291 -91 
Q 1344 -91 809 395 
Q 275 881 275 1747 
Q 275 2613 809 3098 
Q 1344 3584 2291 3584 
Q 2566 3584 2833 3536 
Q 3100 3488 3366 3391 
z
" transform="scale(0.015625)"/>
     </defs>
     <use xlink:href="#DejaVuSans-Bold-63"/>
    </g>
   </g>
   <g id="text_7">
    <!-- b -->
    <g transform="translate(337.384103 78.555625) scale(0.1 -0.1)">
     <use xlink:href="#DejaVuSans-Bold-62"/>
    </g>
   </g>
   <g id="text_8">
    <!-- b -->
    <g transform="translate(386.270828 78.555625) scale(0.1 -0.1)">
     <use xlink:href="#DejaVuSans-Bold-62"/>
    </g>
   </g>
   <g id="text_9">
    <!-- b -->
    <g transform="translate(435.157554 78.555625) scale(0.1 -0.1)">
     <use xlink:href="#DejaVuSans-Bold-62"/>
    </g>
   </g>
   <g id="text_10">
    <!-- a3 -->
    <g transform="translate(60.34422 151.320625) scale(0.1 -0.1)">
     <defs>
      <path id="DejaVuSans-Bold-33" d="M 2981 2516 
Q 3453 2394 3698 2092 
Q 3944 1791 3944 1325 
Q 3944 631 3412 270 
Q 2881 -91 1863 -91 
Q 1503 -91 1142 -33 
Q 781 25 428 141 
L 428 1069 
Q 766 900 1098 814 
Q 1431 728 1753 728 
Q 2231 728 2486 893 
Q 2741 1059 2741 1369 
Q 2741 1688 2480 1852 
Q 2219 2016 1709 2016 
L 1228 2016 
L 1228 2791 
L 1734 2791 
Q 2188 2791 2409 2933 
Q 2631 3075 2631 3366 
Q 2631 3634 2415 3781 
Q 2200 3928 1806 3928 
Q 1516 3928 1219 3862 
Q 922 3797 628 3669 
L 628 4550 
Q 984 4650 1334 4700 
Q 1684 4750 2022 4750 
Q 2931 4750 3382 4451 
Q 3834 4153 3834 3553 
Q 3834 3144 3618 2883 
Q 3403 2622 2981 2516 
z
" transform="scale(0.015625)"/>
     </defs>
     <use xlink:href="#DejaVuSans-Bold-61"/>
     <use xlink:href="#DejaVuSans-Bold-33" transform="translate(67.480469 0)"/>
    </g>
   </g>
   <g id="text_11">
    <!-- b2 -->
    <g transform="translate(152.579887 151.320625) scale(0.1 -0.1)">
     <defs>
      <path id="DejaVuSans-Bold-32" d="M 1844 884 
L 3897 884 
L 3897 0 
L 506 0 
L 506 884 
L 2209 2388 
Q 2438 2594 2547 2791 
Q 2656 2988 2656 3200 
Q 2656 3528 2436 3728 
Q 2216 3928 1850 3928 
Q 1569 3928 1234 3808 
Q 900 3688 519 3450 
L 519 4475 
Q 925 4609 1322 4679 
Q 1719 4750 2100 4750 
Q 2938 4750 3402 4381 
Q 3866 4013 3866 3353 
Q 3866 2972 3669 2642 
Q 3472 2313 2841 1759 
L 1844 884 
z
" transform="scale(0.015625)"/>
     </defs>
     <use xlink:href="#DejaVuSans-Bold-62"/>
     <use xlink:href="#DejaVuSans-Bold-32" transform="translate(71.582031 0)"/>
    </g>
   </g>
   <g id="text_12">
    <!-- c1 -->
    <g transform="translate(245.635084 151.320625) scale(0.1 -0.1)">
     <defs>
      <path id="DejaVuSans-Bold-31" d="M 750 831 
L 1813 831 
L 1813 3847 
L 722 3622 
L 722 4441 
L 1806 4666 
L 2950 4666 
L 2950 831 
L 4013 831 
L 4013 0 
L 750 0 
L 750 831 
z
" transform="scale(0.015625)"/>
     </defs>
     <use xlink:href="#DejaVuSans-Bold-63"/>
     <use xlink:href="#DejaVuSans-Bold-31" transform="translate(59.277344 0)"/>
    </g>
   </g>
   <g id="text_13">
    <!-- b3 -->
    <g transform="translate(337.460595 151.320625) scale(0.1 -0.1)">
     <use xlink:href="#DejaVuSans-Bold-62"/>
     <use xlink:href="#DejaVuSans-Bold-33" transform="translate(71.582031 0)"/>
    </g>
   </g>
   <g id="text_14">
    <!-- Walk through, count consecutive repeats of each character -->
    <g style="fill: #555555" transform="translate(24.976991 42.445625) scale(0.09 -0.09)">
     <defs>
      <path id="DejaVuSans-Oblique-57" d="M 616 4666 
L 1228 4666 
L 1453 697 
L 3213 4666 
L 3916 4666 
L 4147 697 
L 5888 4666 
L 6528 4666 
L 4453 0 
L 3659 0 
L 3444 3891 
L 1697 0 
L 903 0 
L 616 4666 
z
" transform="scale(0.015625)"/>
      <path id="DejaVuSans-Oblique-61" d="M 3438 1997 
L 3047 0 
L 2472 0 
L 2578 531 
Q 2325 219 2001 64 
Q 1678 -91 1281 -91 
Q 834 -91 548 182 
Q 263 456 263 884 
Q 263 1497 752 1853 
Q 1241 2209 2100 2209 
L 2900 2209 
L 2931 2363 
Q 2938 2388 2941 2417 
Q 2944 2447 2944 2509 
Q 2944 2788 2717 2942 
Q 2491 3097 2081 3097 
Q 1800 3097 1504 3025 
Q 1209 2953 897 2809 
L 997 3341 
Q 1322 3463 1633 3523 
Q 1944 3584 2234 3584 
Q 2853 3584 3176 3315 
Q 3500 3047 3500 2534 
Q 3500 2431 3484 2292 
Q 3469 2153 3438 1997 
z
M 2816 1759 
L 2241 1759 
Q 1534 1759 1195 1570 
Q 856 1381 856 984 
Q 856 709 1029 553 
Q 1203 397 1509 397 
Q 1978 397 2328 733 
Q 2678 1069 2791 1631 
L 2816 1759 
z
" transform="scale(0.015625)"/>
      <path id="DejaVuSans-Oblique-6c" d="M 1172 4863 
L 1747 4863 
L 800 0 
L 225 0 
L 1172 4863 
z
" transform="scale(0.015625)"/>
      <path id="DejaVuSans-Oblique-6b" d="M 1172 4863 
L 1747 4863 
L 1197 2028 
L 3169 3500 
L 3916 3500 
L 1716 1825 
L 3322 0 
L 2625 0 
L 1131 1709 
L 800 0 
L 225 0 
L 1172 4863 
z
" transform="scale(0.015625)"/>
      <path id="DejaVuSans-Oblique-20" transform="scale(0.015625)"/>
      <path id="DejaVuSans-Oblique-74" d="M 2706 3500 
L 2619 3053 
L 1472 3053 
L 1100 1153 
Q 1081 1047 1072 975 
Q 1063 903 1063 863 
Q 1063 663 1183 572 
Q 1303 481 1569 481 
L 2150 481 
L 2053 0 
L 1503 0 
Q 991 0 739 200 
Q 488 400 488 806 
Q 488 878 497 964 
Q 506 1050 525 1153 
L 897 3053 
L 409 3053 
L 500 3500 
L 978 3500 
L 1172 4494 
L 1747 4494 
L 1556 3500 
L 2706 3500 
z
" transform="scale(0.015625)"/>
      <path id="DejaVuSans-Oblique-68" d="M 3566 2113 
L 3156 0 
L 2578 0 
L 2988 2091 
Q 3016 2238 3031 2350 
Q 3047 2463 3047 2528 
Q 3047 2791 2881 2937 
Q 2716 3084 2419 3084 
Q 1956 3084 1617 2771 
Q 1278 2459 1178 1941 
L 800 0 
L 225 0 
L 1172 4863 
L 1747 4863 
L 1375 2950 
Q 1594 3244 1934 3414 
Q 2275 3584 2650 3584 
Q 3113 3584 3367 3334 
Q 3622 3084 3622 2631 
Q 3622 2519 3608 2391 
Q 3594 2263 3566 2113 
z
" transform="scale(0.015625)"/>
      <path id="DejaVuSans-Oblique-72" d="M 2853 2969 
Q 2766 3016 2653 3041 
Q 2541 3066 2413 3066 
Q 1953 3066 1609 2717 
Q 1266 2369 1153 1784 
L 800 0 
L 225 0 
L 909 3500 
L 1484 3500 
L 1375 2956 
Q 1603 3259 1920 3421 
Q 2238 3584 2597 3584 
Q 2691 3584 2781 3573 
Q 2872 3563 2963 3538 
L 2853 2969 
z
" transform="scale(0.015625)"/>
      <path id="DejaVuSans-Oblique-6f" d="M 1625 -91 
Q 1009 -91 651 289 
Q 294 669 294 1325 
Q 294 1706 417 2101 
Q 541 2497 738 2766 
Q 1047 3184 1428 3384 
Q 1809 3584 2291 3584 
Q 2888 3584 3255 3212 
Q 3622 2841 3622 2241 
Q 3622 1825 3500 1412 
Q 3378 1000 3181 728 
Q 2875 309 2494 109 
Q 2113 -91 1625 -91 
z
M 891 1344 
Q 891 869 1089 633 
Q 1288 397 1691 397 
Q 2269 397 2648 901 
Q 3028 1406 3028 2181 
Q 3028 2634 2825 2865 
Q 2622 3097 2228 3097 
Q 1903 3097 1650 2945 
Q 1397 2794 1197 2484 
Q 1050 2253 970 1956 
Q 891 1659 891 1344 
z
" transform="scale(0.015625)"/>
      <path id="DejaVuSans-Oblique-75" d="M 428 1388 
L 838 3500 
L 1416 3500 
L 1006 1409 
Q 975 1256 961 1147 
Q 947 1038 947 966 
Q 947 700 1109 554 
Q 1272 409 1569 409 
Q 2031 409 2368 721 
Q 2706 1034 2809 1563 
L 3194 3500 
L 3769 3500 
L 3091 0 
L 2516 0 
L 2631 550 
Q 2388 244 2052 76 
Q 1716 -91 1338 -91 
Q 878 -91 622 161 
Q 366 413 366 863 
Q 366 956 381 1097 
Q 397 1238 428 1388 
z
" transform="scale(0.015625)"/>
      <path id="DejaVuSans-Oblique-67" d="M 3816 3500 
L 3219 434 
Q 3047 -456 2561 -893 
Q 2075 -1331 1253 -1331 
Q 950 -1331 690 -1286 
Q 431 -1241 206 -1147 
L 313 -588 
Q 525 -725 762 -790 
Q 1000 -856 1269 -856 
Q 1816 -856 2167 -557 
Q 2519 -259 2631 300 
L 2681 563 
Q 2441 288 2122 144 
Q 1803 0 1434 0 
Q 903 0 598 351 
Q 294 703 294 1319 
Q 294 1803 478 2267 
Q 663 2731 997 3091 
Q 1219 3328 1514 3456 
Q 1809 3584 2131 3584 
Q 2484 3584 2746 3420 
Q 3009 3256 3138 2956 
L 3238 3500 
L 3816 3500 
z
M 2950 2216 
Q 2950 2641 2750 2872 
Q 2550 3103 2181 3103 
Q 1953 3103 1747 3012 
Q 1541 2922 1394 2759 
Q 1156 2491 1023 2127 
Q 891 1763 891 1375 
Q 891 944 1092 712 
Q 1294 481 1672 481 
Q 2219 481 2584 976 
Q 2950 1472 2950 2216 
z
" transform="scale(0.015625)"/>
      <path id="DejaVuSans-Oblique-2c" d="M 575 794 
L 1234 794 
L 1131 256 
L 422 -744 
L 19 -744 
L 469 256 
L 575 794 
z
" transform="scale(0.015625)"/>
      <path id="DejaVuSans-Oblique-63" d="M 3431 3366 
L 3316 2797 
Q 3109 2947 2876 3022 
Q 2644 3097 2394 3097 
Q 2119 3097 1870 3000 
Q 1622 2903 1453 2725 
Q 1184 2453 1037 2087 
Q 891 1722 891 1331 
Q 891 859 1127 628 
Q 1363 397 1844 397 
Q 2081 397 2348 469 
Q 2616 541 2906 684 
L 2797 116 
Q 2547 13 2283 -39 
Q 2019 -91 1741 -91 
Q 1044 -91 669 257 
Q 294 606 294 1253 
Q 294 1797 489 2255 
Q 684 2713 1069 3078 
Q 1331 3328 1684 3456 
Q 2038 3584 2456 3584 
Q 2700 3584 2940 3529 
Q 3181 3475 3431 3366 
z
" transform="scale(0.015625)"/>
      <path id="DejaVuSans-Oblique-6e" d="M 3566 2113 
L 3156 0 
L 2578 0 
L 2988 2091 
Q 3016 2238 3031 2350 
Q 3047 2463 3047 2528 
Q 3047 2791 2881 2937 
Q 2716 3084 2419 3084 
Q 1956 3084 1622 2776 
Q 1288 2469 1184 1941 
L 800 0 
L 225 0 
L 903 3500 
L 1478 3500 
L 1363 2950 
Q 1603 3253 1940 3418 
Q 2278 3584 2650 3584 
Q 3113 3584 3367 3334 
Q 3622 3084 3622 2631 
Q 3622 2519 3608 2391 
Q 3594 2263 3566 2113 
z
" transform="scale(0.015625)"/>
      <path id="DejaVuSans-Oblique-73" d="M 3200 3397 
L 3091 2853 
Q 2863 2978 2609 3040 
Q 2356 3103 2088 3103 
Q 1634 3103 1373 2948 
Q 1113 2794 1113 2528 
Q 1113 2219 1719 2053 
Q 1766 2041 1788 2034 
L 1972 1978 
Q 2547 1819 2739 1644 
Q 2931 1469 2931 1166 
Q 2931 609 2489 259 
Q 2047 -91 1331 -91 
Q 1053 -91 747 -37 
Q 441 16 72 128 
L 184 722 
Q 500 559 806 475 
Q 1113 391 1394 391 
Q 1816 391 2080 572 
Q 2344 753 2344 1031 
Q 2344 1331 1650 1516 
L 1591 1531 
L 1394 1581 
Q 956 1697 753 1886 
Q 550 2075 550 2369 
Q 550 2928 970 3256 
Q 1391 3584 2113 3584 
Q 2397 3584 2667 3537 
Q 2938 3491 3200 3397 
z
" transform="scale(0.015625)"/>
      <path id="DejaVuSans-Oblique-65" d="M 3078 2063 
Q 3088 2113 3092 2166 
Q 3097 2219 3097 2272 
Q 3097 2653 2873 2875 
Q 2650 3097 2266 3097 
Q 1838 3097 1509 2826 
Q 1181 2556 1013 2059 
L 3078 2063 
z
M 3578 1613 
L 903 1613 
Q 884 1494 878 1425 
Q 872 1356 872 1306 
Q 872 872 1139 634 
Q 1406 397 1894 397 
Q 2269 397 2603 481 
Q 2938 566 3225 728 
L 3116 159 
Q 2806 34 2476 -28 
Q 2147 -91 1806 -91 
Q 1078 -91 686 257 
Q 294 606 294 1247 
Q 294 1794 489 2264 
Q 684 2734 1063 3103 
Q 1306 3334 1642 3459 
Q 1978 3584 2356 3584 
Q 2950 3584 3301 3228 
Q 3653 2872 3653 2272 
Q 3653 2128 3634 1964 
Q 3616 1800 3578 1613 
z
" transform="scale(0.015625)"/>
      <path id="DejaVuSans-Oblique-69" d="M 1172 4863 
L 1747 4863 
L 1606 4134 
L 1031 4134 
L 1172 4863 
z
M 909 3500 
L 1484 3500 
L 800 0 
L 225 0 
L 909 3500 
z
" transform="scale(0.015625)"/>
      <path id="DejaVuSans-Oblique-76" d="M 459 3500 
L 1069 3500 
L 1581 525 
L 3256 3500 
L 3866 3500 
L 1875 0 
L 1100 0 
L 459 3500 
z
" transform="scale(0.015625)"/>
      <path id="DejaVuSans-Oblique-70" d="M 3175 2156 
Q 3175 2616 2975 2859 
Q 2775 3103 2400 3103 
Q 2144 3103 1911 2972 
Q 1678 2841 1497 2591 
Q 1319 2344 1212 1994 
Q 1106 1644 1106 1300 
Q 1106 863 1306 627 
Q 1506 391 1875 391 
Q 2147 391 2380 519 
Q 2613 647 2778 891 
Q 2956 1147 3065 1494 
Q 3175 1841 3175 2156 
z
M 1394 2969 
Q 1625 3272 1939 3428 
Q 2253 3584 2638 3584 
Q 3175 3584 3472 3232 
Q 3769 2881 3769 2247 
Q 3769 1728 3584 1258 
Q 3400 788 3053 416 
Q 2822 169 2531 39 
Q 2241 -91 1919 -91 
Q 1547 -91 1294 64 
Q 1041 219 916 525 
L 556 -1331 
L -19 -1331 
L 922 3500 
L 1497 3500 
L 1394 2969 
z
" transform="scale(0.015625)"/>
      <path id="DejaVuSans-Oblique-66" d="M 3059 4863 
L 2969 4384 
L 2419 4384 
Q 2106 4384 1964 4261 
Q 1822 4138 1753 3809 
L 1691 3500 
L 2638 3500 
L 2553 3053 
L 1606 3053 
L 1013 0 
L 434 0 
L 1031 3053 
L 481 3053 
L 563 3500 
L 1113 3500 
L 1159 3744 
Q 1278 4363 1576 4613 
Q 1875 4863 2516 4863 
L 3059 4863 
z
" transform="scale(0.015625)"/>
     </defs>
     <use xlink:href="#DejaVuSans-Oblique-57"/>
     <use xlink:href="#DejaVuSans-Oblique-61" transform="translate(93.376953 0)"/>
     <use xlink:href="#DejaVuSans-Oblique-6c" transform="translate(154.65625 0)"/>
     <use xlink:href="#DejaVuSans-Oblique-6b" transform="translate(182.439453 0)"/>
     <use xlink:href="#DejaVuSans-Oblique-20" transform="translate(240.349609 0)"/>
     <use xlink:href="#DejaVuSans-Oblique-74" transform="translate(272.136719 0)"/>
     <use xlink:href="#DejaVuSans-Oblique-68" transform="translate(311.345703 0)"/>
     <use xlink:href="#DejaVuSans-Oblique-72" transform="translate(374.724609 0)"/>
     <use xlink:href="#DejaVuSans-Oblique-6f" transform="translate(415.837891 0)"/>
     <use xlink:href="#DejaVuSans-Oblique-75" transform="translate(477.019531 0)"/>
     <use xlink:href="#DejaVuSans-Oblique-67" transform="translate(540.398438 0)"/>
     <use xlink:href="#DejaVuSans-Oblique-68" transform="translate(603.875 0)"/>
     <use xlink:href="#DejaVuSans-Oblique-2c" transform="translate(667.253906 0)"/>
     <use xlink:href="#DejaVuSans-Oblique-20" transform="translate(699.041016 0)"/>
     <use xlink:href="#DejaVuSans-Oblique-63" transform="translate(730.828125 0)"/>
     <use xlink:href="#DejaVuSans-Oblique-6f" transform="translate(785.808594 0)"/>
     <use xlink:href="#DejaVuSans-Oblique-75" transform="translate(846.990234 0)"/>
     <use xlink:href="#DejaVuSans-Oblique-6e" transform="translate(910.369141 0)"/>
     <use xlink:href="#DejaVuSans-Oblique-74" transform="translate(973.748047 0)"/>
     <use xlink:href="#DejaVuSans-Oblique-20" transform="translate(1012.957031 0)"/>
     <use xlink:href="#DejaVuSans-Oblique-63" transform="translate(1044.744141 0)"/>
     <use xlink:href="#DejaVuSans-Oblique-6f" transform="translate(1099.724609 0)"/>
     <use xlink:href="#DejaVuSans-Oblique-6e" transform="translate(1160.90625 0)"/>
     <use xlink:href="#DejaVuSans-Oblique-73" transform="translate(1224.285156 0)"/>
     <use xlink:href="#DejaVuSans-Oblique-65" transform="translate(1276.384766 0)"/>
     <use xlink:href="#DejaVuSans-Oblique-63" transform="translate(1337.908203 0)"/>
     <use xlink:href="#DejaVuSans-Oblique-75" transform="translate(1392.888672 0)"/>
     <use xlink:href="#DejaVuSans-Oblique-74" transform="translate(1456.267578 0)"/>
     <use xlink:href="#DejaVuSans-Oblique-69" transform="translate(1495.476562 0)"/>
     <use xlink:href="#DejaVuSans-Oblique-76" transform="translate(1523.259766 0)"/>
     <use xlink:href="#DejaVuSans-Oblique-65" transform="translate(1582.439453 0)"/>
     <use xlink:href="#DejaVuSans-Oblique-20" transform="translate(1643.962891 0)"/>
     <use xlink:href="#DejaVuSans-Oblique-72" transform="translate(1675.75 0)"/>
     <use xlink:href="#DejaVuSans-Oblique-65" transform="translate(1716.863281 0)"/>
     <use xlink:href="#DejaVuSans-Oblique-70" transform="translate(1778.386719 0)"/>
     <use xlink:href="#DejaVuSans-Oblique-65" transform="translate(1841.863281 0)"/>
     <use xlink:href="#DejaVuSans-Oblique-61" transform="translate(1903.386719 0)"/>
     <use xlink:href="#DejaVuSans-Oblique-74" transform="translate(1964.666016 0)"/>
     <use xlink:href="#DejaVuSans-Oblique-73" transform="translate(2003.875 0)"/>
     <use xlink:href="#DejaVuSans-Oblique-20" transform="translate(2055.974609 0)"/>
     <use xlink:href="#DejaVuSans-Oblique-6f" transform="translate(2087.761719 0)"/>
     <use xlink:href="#DejaVuSans-Oblique-66" transform="translate(2148.943359 0)"/>
     <use xlink:href="#DejaVuSans-Oblique-20" transform="translate(2184.148438 0)"/>
     <use xlink:href="#DejaVuSans-Oblique-65" transform="translate(2215.935547 0)"/>
     <use xlink:href="#DejaVuSans-Oblique-61" transform="translate(2277.458984 0)"/>
     <use xlink:href="#DejaVuSans-Oblique-63" transform="translate(2338.738281 0)"/>
     <use xlink:href="#DejaVuSans-Oblique-68" transform="translate(2393.71875 0)"/>
     <use xlink:href="#DejaVuSans-Oblique-20" transform="translate(2457.097656 0)"/>
     <use xlink:href="#DejaVuSans-Oblique-63" transform="translate(2488.884766 0)"/>
     <use xlink:href="#DejaVuSans-Oblique-68" transform="translate(2543.865234 0)"/>
     <use xlink:href="#DejaVuSans-Oblique-61" transform="translate(2607.244141 0)"/>
     <use xlink:href="#DejaVuSans-Oblique-72" transform="translate(2668.523438 0)"/>
     <use xlink:href="#DejaVuSans-Oblique-61" transform="translate(2709.636719 0)"/>
     <use xlink:href="#DejaVuSans-Oblique-63" transform="translate(2770.916016 0)"/>
     <use xlink:href="#DejaVuSans-Oblique-74" transform="translate(2825.896484 0)"/>
     <use xlink:href="#DejaVuSans-Oblique-65" transform="translate(2865.105469 0)"/>
     <use xlink:href="#DejaVuSans-Oblique-72" transform="translate(2926.628906 0)"/>
    </g>
   </g>
   <g id="text_15">
    <g id="patch_15">
     <path d="M 24.976991 211.246563 
L 133.459804 211.246563 
Q 136.459804 211.246563 136.459804 208.246563 
L 136.459804 198.568438 
Q 136.459804 195.568438 133.459804 195.568438 
L 24.976991 195.568438 
Q 21.976991 195.568438 21.976991 198.568438 
L 21.976991 208.246563 
Q 21.976991 211.246563 24.976991 211.246563 
z
" style="fill: #d5f5e3; stroke: #27ae60; stroke-linejoin: miter"/>
    </g>
    <!-- Result: "a3b2c1b3" -->
    <g transform="translate(24.976991 206.166875) scale(0.1 -0.1)">
     <defs>
      <path id="DejaVuSans-Bold-52" d="M 2297 2597 
Q 2675 2597 2839 2737 
Q 3003 2878 3003 3200 
Q 3003 3519 2839 3656 
Q 2675 3794 2297 3794 
L 1791 3794 
L 1791 2597 
L 2297 2597 
z
M 1791 1766 
L 1791 0 
L 588 0 
L 588 4666 
L 2425 4666 
Q 3347 4666 3776 4356 
Q 4206 4047 4206 3378 
Q 4206 2916 3982 2619 
Q 3759 2322 3309 2181 
Q 3556 2125 3751 1926 
Q 3947 1728 4147 1325 
L 4800 0 
L 3519 0 
L 2950 1159 
Q 2778 1509 2601 1637 
Q 2425 1766 2131 1766 
L 1791 1766 
z
" transform="scale(0.015625)"/>
      <path id="DejaVuSans-Bold-65" d="M 4031 1759 
L 4031 1441 
L 1416 1441 
Q 1456 1047 1700 850 
Q 1944 653 2381 653 
Q 2734 653 3104 758 
Q 3475 863 3866 1075 
L 3866 213 
Q 3469 63 3072 -14 
Q 2675 -91 2278 -91 
Q 1328 -91 801 392 
Q 275 875 275 1747 
Q 275 2603 792 3093 
Q 1309 3584 2216 3584 
Q 3041 3584 3536 3087 
Q 4031 2591 4031 1759 
z
M 2881 2131 
Q 2881 2450 2695 2645 
Q 2509 2841 2209 2841 
Q 1884 2841 1681 2658 
Q 1478 2475 1428 2131 
L 2881 2131 
z
" transform="scale(0.015625)"/>
      <path id="DejaVuSans-Bold-73" d="M 3272 3391 
L 3272 2541 
Q 2913 2691 2578 2766 
Q 2244 2841 1947 2841 
Q 1628 2841 1473 2761 
Q 1319 2681 1319 2516 
Q 1319 2381 1436 2309 
Q 1553 2238 1856 2203 
L 2053 2175 
Q 2913 2066 3209 1816 
Q 3506 1566 3506 1031 
Q 3506 472 3093 190 
Q 2681 -91 1863 -91 
Q 1516 -91 1145 -36 
Q 775 19 384 128 
L 384 978 
Q 719 816 1070 734 
Q 1422 653 1784 653 
Q 2113 653 2278 743 
Q 2444 834 2444 1013 
Q 2444 1163 2330 1236 
Q 2216 1309 1875 1350 
L 1678 1375 
Q 931 1469 631 1722 
Q 331 1975 331 2491 
Q 331 3047 712 3315 
Q 1094 3584 1881 3584 
Q 2191 3584 2531 3537 
Q 2872 3491 3272 3391 
z
" transform="scale(0.015625)"/>
      <path id="DejaVuSans-Bold-75" d="M 500 1363 
L 500 3500 
L 1625 3500 
L 1625 3150 
Q 1625 2866 1622 2436 
Q 1619 2006 1619 1863 
Q 1619 1441 1641 1255 
Q 1663 1069 1716 984 
Q 1784 875 1895 815 
Q 2006 756 2150 756 
Q 2500 756 2700 1025 
Q 2900 1294 2900 1772 
L 2900 3500 
L 4019 3500 
L 4019 0 
L 2900 0 
L 2900 506 
Q 2647 200 2364 54 
Q 2081 -91 1741 -91 
Q 1134 -91 817 281 
Q 500 653 500 1363 
z
" transform="scale(0.015625)"/>
      <path id="DejaVuSans-Bold-6c" d="M 538 4863 
L 1656 4863 
L 1656 0 
L 538 0 
L 538 4863 
z
" transform="scale(0.015625)"/>
      <path id="DejaVuSans-Bold-74" d="M 1759 4494 
L 1759 3500 
L 2913 3500 
L 2913 2700 
L 1759 2700 
L 1759 1216 
Q 1759 972 1856 886 
Q 1953 800 2241 800 
L 2816 800 
L 2816 0 
L 1856 0 
Q 1194 0 917 276 
Q 641 553 641 1216 
L 641 2700 
L 84 2700 
L 84 3500 
L 641 3500 
L 641 4494 
L 1759 4494 
z
" transform="scale(0.015625)"/>
      <path id="DejaVuSans-Bold-3a" d="M 716 3500 
L 1844 3500 
L 1844 2291 
L 716 2291 
L 716 3500 
z
M 716 1209 
L 1844 1209 
L 1844 0 
L 716 0 
L 716 1209 
z
" transform="scale(0.015625)"/>
      <path id="DejaVuSans-Bold-20" transform="scale(0.015625)"/>
      <path id="DejaVuSans-Bold-22" d="M 2725 4666 
L 2725 2931 
L 1984 2931 
L 1984 4666 
L 2725 4666 
z
M 1350 4666 
L 1350 2931 
L 609 2931 
L 609 4666 
L 1350 4666 
z
" transform="scale(0.015625)"/>
     </defs>
     <use xlink:href="#DejaVuSans-Bold-52"/>
     <use xlink:href="#DejaVuSans-Bold-65" transform="translate(77.001953 0)"/>
     <use xlink:href="#DejaVuSans-Bold-73" transform="translate(144.824219 0)"/>
     <use xlink:href="#DejaVuSans-Bold-75" transform="translate(204.345703 0)"/>
     <use xlink:href="#DejaVuSans-Bold-6c" transform="translate(275.537109 0)"/>
     <use xlink:href="#DejaVuSans-Bold-74" transform="translate(309.814453 0)"/>
     <use xlink:href="#DejaVuSans-Bold-3a" transform="translate(357.617188 0)"/>
     <use xlink:href="#DejaVuSans-Bold-20" transform="translate(397.607422 0)"/>
     <use xlink:href="#DejaVuSans-Bold-22" transform="translate(432.421875 0)"/>
     <use xlink:href="#DejaVuSans-Bold-61" transform="translate(484.521484 0)"/>
     <use xlink:href="#DejaVuSans-Bold-33" transform="translate(552.001953 0)"/>
     <use xlink:href="#DejaVuSans-Bold-62" transform="translate(621.582031 0)"/>
     <use xlink:href="#DejaVuSans-Bold-32" transform="translate(693.164062 0)"/>
     <use xlink:href="#DejaVuSans-Bold-63" transform="translate(762.744141 0)"/>
     <use xlink:href="#DejaVuSans-Bold-31" transform="translate(822.021484 0)"/>
     <use xlink:href="#DejaVuSans-Bold-62" transform="translate(891.601562 0)"/>
     <use xlink:href="#DejaVuSans-Bold-33" transform="translate(963.183594 0)"/>
     <use xlink:href="#DejaVuSans-Bold-22" transform="translate(1032.763672 0)"/>
    </g>
   </g>
   <g id="text_16">
    <!-- String Compression — "aaabbcbbb" -&gt; "a3b2c1b3" -->
    <g transform="translate(104.458125 16.318125) scale(0.12 -0.12)">
     <defs>
      <path id="DejaVuSans-53" d="M 3425 4513 
L 3425 3897 
Q 3066 4069 2747 4153 
Q 2428 4238 2131 4238 
Q 1616 4238 1336 4038 
Q 1056 3838 1056 3469 
Q 1056 3159 1242 3001 
Q 1428 2844 1947 2747 
L 2328 2669 
Q 3034 2534 3370 2195 
Q 3706 1856 3706 1288 
Q 3706 609 3251 259 
Q 2797 -91 1919 -91 
Q 1588 -91 1214 -16 
Q 841 59 441 206 
L 441 856 
Q 825 641 1194 531 
Q 1563 422 1919 422 
Q 2459 422 2753 634 
Q 3047 847 3047 1241 
Q 3047 1584 2836 1778 
Q 2625 1972 2144 2069 
L 1759 2144 
Q 1053 2284 737 2584 
Q 422 2884 422 3419 
Q 422 4038 858 4394 
Q 1294 4750 2059 4750 
Q 2388 4750 2728 4690 
Q 3069 4631 3425 4513 
z
" transform="scale(0.015625)"/>
      <path id="DejaVuSans-74" d="M 1172 4494 
L 1172 3500 
L 2356 3500 
L 2356 3053 
L 1172 3053 
L 1172 1153 
Q 1172 725 1289 603 
Q 1406 481 1766 481 
L 2356 481 
L 2356 0 
L 1766 0 
Q 1100 0 847 248 
Q 594 497 594 1153 
L 594 3053 
L 172 3053 
L 172 3500 
L 594 3500 
L 594 4494 
L 1172 4494 
z
" transform="scale(0.015625)"/>
      <path id="DejaVuSans-72" d="M 2631 2963 
Q 2534 3019 2420 3045 
Q 2306 3072 2169 3072 
Q 1681 3072 1420 2755 
Q 1159 2438 1159 1844 
L 1159 0 
L 581 0 
L 581 3500 
L 1159 3500 
L 1159 2956 
Q 1341 3275 1631 3429 
Q 1922 3584 2338 3584 
Q 2397 3584 2469 3576 
Q 2541 3569 2628 3553 
L 2631 2963 
z
" transform="scale(0.015625)"/>
      <path id="DejaVuSans-69" d="M 603 3500 
L 1178 3500 
L 1178 0 
L 603 0 
L 603 3500 
z
M 603 4863 
L 1178 4863 
L 1178 4134 
L 603 4134 
L 603 4863 
z
" transform="scale(0.015625)"/>
      <path id="DejaVuSans-6e" d="M 3513 2113 
L 3513 0 
L 2938 0 
L 2938 2094 
Q 2938 2591 2744 2837 
Q 2550 3084 2163 3084 
Q 1697 3084 1428 2787 
Q 1159 2491 1159 1978 
L 1159 0 
L 581 0 
L 581 3500 
L 1159 3500 
L 1159 2956 
Q 1366 3272 1645 3428 
Q 1925 3584 2291 3584 
Q 2894 3584 3203 3211 
Q 3513 2838 3513 2113 
z
" transform="scale(0.015625)"/>
      <path id="DejaVuSans-67" d="M 2906 1791 
Q 2906 2416 2648 2759 
Q 2391 3103 1925 3103 
Q 1463 3103 1205 2759 
Q 947 2416 947 1791 
Q 947 1169 1205 825 
Q 1463 481 1925 481 
Q 2391 481 2648 825 
Q 2906 1169 2906 1791 
z
M 3481 434 
Q 3481 -459 3084 -895 
Q 2688 -1331 1869 -1331 
Q 1566 -1331 1297 -1286 
Q 1028 -1241 775 -1147 
L 775 -588 
Q 1028 -725 1275 -790 
Q 1522 -856 1778 -856 
Q 2344 -856 2625 -561 
Q 2906 -266 2906 331 
L 2906 616 
Q 2728 306 2450 153 
Q 2172 0 1784 0 
Q 1141 0 747 490 
Q 353 981 353 1791 
Q 353 2603 747 3093 
Q 1141 3584 1784 3584 
Q 2172 3584 2450 3431 
Q 2728 3278 2906 2969 
L 2906 3500 
L 3481 3500 
L 3481 434 
z
" transform="scale(0.015625)"/>
      <path id="DejaVuSans-20" transform="scale(0.015625)"/>
      <path id="DejaVuSans-43" d="M 4122 4306 
L 4122 3641 
Q 3803 3938 3442 4084 
Q 3081 4231 2675 4231 
Q 1875 4231 1450 3742 
Q 1025 3253 1025 2328 
Q 1025 1406 1450 917 
Q 1875 428 2675 428 
Q 3081 428 3442 575 
Q 3803 722 4122 1019 
L 4122 359 
Q 3791 134 3420 21 
Q 3050 -91 2638 -91 
Q 1578 -91 968 557 
Q 359 1206 359 2328 
Q 359 3453 968 4101 
Q 1578 4750 2638 4750 
Q 3056 4750 3426 4639 
Q 3797 4528 4122 4306 
z
" transform="scale(0.015625)"/>
      <path id="DejaVuSans-6f" d="M 1959 3097 
Q 1497 3097 1228 2736 
Q 959 2375 959 1747 
Q 959 1119 1226 758 
Q 1494 397 1959 397 
Q 2419 397 2687 759 
Q 2956 1122 2956 1747 
Q 2956 2369 2687 2733 
Q 2419 3097 1959 3097 
z
M 1959 3584 
Q 2709 3584 3137 3096 
Q 3566 2609 3566 1747 
Q 3566 888 3137 398 
Q 2709 -91 1959 -91 
Q 1206 -91 779 398 
Q 353 888 353 1747 
Q 353 2609 779 3096 
Q 1206 3584 1959 3584 
z
" transform="scale(0.015625)"/>
      <path id="DejaVuSans-6d" d="M 3328 2828 
Q 3544 3216 3844 3400 
Q 4144 3584 4550 3584 
Q 5097 3584 5394 3201 
Q 5691 2819 5691 2113 
L 5691 0 
L 5113 0 
L 5113 2094 
Q 5113 2597 4934 2840 
Q 4756 3084 4391 3084 
Q 3944 3084 3684 2787 
Q 3425 2491 3425 1978 
L 3425 0 
L 2847 0 
L 2847 2094 
Q 2847 2600 2669 2842 
Q 2491 3084 2119 3084 
Q 1678 3084 1418 2786 
Q 1159 2488 1159 1978 
L 1159 0 
L 581 0 
L 581 3500 
L 1159 3500 
L 1159 2956 
Q 1356 3278 1631 3431 
Q 1906 3584 2284 3584 
Q 2666 3584 2933 3390 
Q 3200 3197 3328 2828 
z
" transform="scale(0.015625)"/>
      <path id="DejaVuSans-70" d="M 1159 525 
L 1159 -1331 
L 581 -1331 
L 581 3500 
L 1159 3500 
L 1159 2969 
Q 1341 3281 1617 3432 
Q 1894 3584 2278 3584 
Q 2916 3584 3314 3078 
Q 3713 2572 3713 1747 
Q 3713 922 3314 415 
Q 2916 -91 2278 -91 
Q 1894 -91 1617 61 
Q 1341 213 1159 525 
z
M 3116 1747 
Q 3116 2381 2855 2742 
Q 2594 3103 2138 3103 
Q 1681 3103 1420 2742 
Q 1159 2381 1159 1747 
Q 1159 1113 1420 752 
Q 1681 391 2138 391 
Q 2594 391 2855 752 
Q 3116 1113 3116 1747 
z
" transform="scale(0.015625)"/>
      <path id="DejaVuSans-65" d="M 3597 1894 
L 3597 1613 
L 953 1613 
Q 991 1019 1311 708 
Q 1631 397 2203 397 
Q 2534 397 2845 478 
Q 3156 559 3463 722 
L 3463 178 
Q 3153 47 2828 -22 
Q 2503 -91 2169 -91 
Q 1331 -91 842 396 
Q 353 884 353 1716 
Q 353 2575 817 3079 
Q 1281 3584 2069 3584 
Q 2775 3584 3186 3129 
Q 3597 2675 3597 1894 
z
M 3022 2063 
Q 3016 2534 2758 2815 
Q 2500 3097 2075 3097 
Q 1594 3097 1305 2825 
Q 1016 2553 972 2059 
L 3022 2063 
z
" transform="scale(0.015625)"/>
      <path id="DejaVuSans-73" d="M 2834 3397 
L 2834 2853 
Q 2591 2978 2328 3040 
Q 2066 3103 1784 3103 
Q 1356 3103 1142 2972 
Q 928 2841 928 2578 
Q 928 2378 1081 2264 
Q 1234 2150 1697 2047 
L 1894 2003 
Q 2506 1872 2764 1633 
Q 3022 1394 3022 966 
Q 3022 478 2636 193 
Q 2250 -91 1575 -91 
Q 1294 -91 989 -36 
Q 684 19 347 128 
L 347 722 
Q 666 556 975 473 
Q 1284 391 1588 391 
Q 1994 391 2212 530 
Q 2431 669 2431 922 
Q 2431 1156 2273 1281 
Q 2116 1406 1581 1522 
L 1381 1569 
Q 847 1681 609 1914 
Q 372 2147 372 2553 
Q 372 3047 722 3315 
Q 1072 3584 1716 3584 
Q 2034 3584 2315 3537 
Q 2597 3491 2834 3397 
z
" transform="scale(0.015625)"/>
      <path id="DejaVuSans-2014" d="M 313 1978 
L 6088 1978 
L 6088 1528 
L 313 1528 
L 313 1978 
z
" transform="scale(0.015625)"/>
      <path id="DejaVuSans-22" d="M 1147 4666 
L 1147 2931 
L 616 2931 
L 616 4666 
L 1147 4666 
z
M 2328 4666 
L 2328 2931 
L 1797 2931 
L 1797 4666 
L 2328 4666 
z
" transform="scale(0.015625)"/>
      <path id="DejaVuSans-61" d="M 2194 1759 
Q 1497 1759 1228 1600 
Q 959 1441 959 1056 
Q 959 750 1161 570 
Q 1363 391 1709 391 
Q 2188 391 2477 730 
Q 2766 1069 2766 1631 
L 2766 1759 
L 2194 1759 
z
M 3341 1997 
L 3341 0 
L 2766 0 
L 2766 531 
Q 2569 213 2275 61 
Q 1981 -91 1556 -91 
Q 1019 -91 701 211 
Q 384 513 384 1019 
Q 384 1609 779 1909 
Q 1175 2209 1959 2209 
L 2766 2209 
L 2766 2266 
Q 2766 2663 2505 2880 
Q 2244 3097 1772 3097 
Q 1472 3097 1187 3025 
Q 903 2953 641 2809 
L 641 3341 
Q 956 3463 1253 3523 
Q 1550 3584 1831 3584 
Q 2591 3584 2966 3190 
Q 3341 2797 3341 1997 
z
" transform="scale(0.015625)"/>
      <path id="DejaVuSans-62" d="M 3116 1747 
Q 3116 2381 2855 2742 
Q 2594 3103 2138 3103 
Q 1681 3103 1420 2742 
Q 1159 2381 1159 1747 
Q 1159 1113 1420 752 
Q 1681 391 2138 391 
Q 2594 391 2855 752 
Q 3116 1113 3116 1747 
z
M 1159 2969 
Q 1341 3281 1617 3432 
Q 1894 3584 2278 3584 
Q 2916 3584 3314 3078 
Q 3713 2572 3713 1747 
Q 3713 922 3314 415 
Q 2916 -91 2278 -91 
Q 1894 -91 1617 61 
Q 1341 213 1159 525 
L 1159 0 
L 581 0 
L 581 4863 
L 1159 4863 
L 1159 2969 
z
" transform="scale(0.015625)"/>
      <path id="DejaVuSans-63" d="M 3122 3366 
L 3122 2828 
Q 2878 2963 2633 3030 
Q 2388 3097 2138 3097 
Q 1578 3097 1268 2742 
Q 959 2388 959 1747 
Q 959 1106 1268 751 
Q 1578 397 2138 397 
Q 2388 397 2633 464 
Q 2878 531 3122 666 
L 3122 134 
Q 2881 22 2623 -34 
Q 2366 -91 2075 -91 
Q 1284 -91 818 406 
Q 353 903 353 1747 
Q 353 2603 823 3093 
Q 1294 3584 2113 3584 
Q 2378 3584 2631 3529 
Q 2884 3475 3122 3366 
z
" transform="scale(0.015625)"/>
      <path id="DejaVuSans-2d" d="M 313 2009 
L 1997 2009 
L 1997 1497 
L 313 1497 
L 313 2009 
z
" transform="scale(0.015625)"/>
      <path id="DejaVuSans-3e" d="M 678 3150 
L 678 3719 
L 4684 2266 
L 4684 1747 
L 678 294 
L 678 863 
L 3897 2003 
L 678 3150 
z
" transform="scale(0.015625)"/>
      <path id="DejaVuSans-33" d="M 2597 2516 
Q 3050 2419 3304 2112 
Q 3559 1806 3559 1356 
Q 3559 666 3084 287 
Q 2609 -91 1734 -91 
Q 1441 -91 1130 -33 
Q 819 25 488 141 
L 488 750 
Q 750 597 1062 519 
Q 1375 441 1716 441 
Q 2309 441 2620 675 
Q 2931 909 2931 1356 
Q 2931 1769 2642 2001 
Q 2353 2234 1838 2234 
L 1294 2234 
L 1294 2753 
L 1863 2753 
Q 2328 2753 2575 2939 
Q 2822 3125 2822 3475 
Q 2822 3834 2567 4026 
Q 2313 4219 1838 4219 
Q 1578 4219 1281 4162 
Q 984 4106 628 3988 
L 628 4550 
Q 988 4650 1302 4700 
Q 1616 4750 1894 4750 
Q 2613 4750 3031 4423 
Q 3450 4097 3450 3541 
Q 3450 3153 3228 2886 
Q 3006 2619 2597 2516 
z
" transform="scale(0.015625)"/>
      <path id="DejaVuSans-32" d="M 1228 531 
L 3431 531 
L 3431 0 
L 469 0 
L 469 531 
Q 828 903 1448 1529 
Q 2069 2156 2228 2338 
Q 2531 2678 2651 2914 
Q 2772 3150 2772 3378 
Q 2772 3750 2511 3984 
Q 2250 4219 1831 4219 
Q 1534 4219 1204 4116 
Q 875 4013 500 3803 
L 500 4441 
Q 881 4594 1212 4672 
Q 1544 4750 1819 4750 
Q 2544 4750 2975 4387 
Q 3406 4025 3406 3419 
Q 3406 3131 3298 2873 
Q 3191 2616 2906 2266 
Q 2828 2175 2409 1742 
Q 1991 1309 1228 531 
z
" transform="scale(0.015625)"/>
      <path id="DejaVuSans-31" d="M 794 531 
L 1825 531 
L 1825 4091 
L 703 3866 
L 703 4441 
L 1819 4666 
L 2450 4666 
L 2450 531 
L 3481 531 
L 3481 0 
L 794 0 
L 794 531 
z
" transform="scale(0.015625)"/>
     </defs>
     <use xlink:href="#DejaVuSans-53"/>
     <use xlink:href="#DejaVuSans-74" transform="translate(63.476562 0)"/>
     <use xlink:href="#DejaVuSans-72" transform="translate(102.685547 0)"/>
     <use xlink:href="#DejaVuSans-69" transform="translate(143.798828 0)"/>
     <use xlink:href="#DejaVuSans-6e" transform="translate(171.582031 0)"/>
     <use xlink:href="#DejaVuSans-67" transform="translate(234.960938 0)"/>
     <use xlink:href="#DejaVuSans-20" transform="translate(298.4375 0)"/>
     <use xlink:href="#DejaVuSans-43" transform="translate(330.224609 0)"/>
     <use xlink:href="#DejaVuSans-6f" transform="translate(400.048828 0)"/>
     <use xlink:href="#DejaVuSans-6d" transform="translate(461.230469 0)"/>
     <use xlink:href="#DejaVuSans-70" transform="translate(558.642578 0)"/>
     <use xlink:href="#DejaVuSans-72" transform="translate(622.119141 0)"/>
     <use xlink:href="#DejaVuSans-65" transform="translate(660.982422 0)"/>
     <use xlink:href="#DejaVuSans-73" transform="translate(722.505859 0)"/>
     <use xlink:href="#DejaVuSans-73" transform="translate(774.605469 0)"/>
     <use xlink:href="#DejaVuSans-69" transform="translate(826.705078 0)"/>
     <use xlink:href="#DejaVuSans-6f" transform="translate(854.488281 0)"/>
     <use xlink:href="#DejaVuSans-6e" transform="translate(915.669922 0)"/>
     <use xlink:href="#DejaVuSans-20" transform="translate(979.048828 0)"/>
     <use xlink:href="#DejaVuSans-2014" transform="translate(1010.835938 0)"/>
     <use xlink:href="#DejaVuSans-20" transform="translate(1110.835938 0)"/>
     <use xlink:href="#DejaVuSans-22" transform="translate(1142.623047 0)"/>
     <use xlink:href="#DejaVuSans-61" transform="translate(1188.619141 0)"/>
     <use xlink:href="#DejaVuSans-61" transform="translate(1249.898438 0)"/>
     <use xlink:href="#DejaVuSans-61" transform="translate(1311.177734 0)"/>
     <use xlink:href="#DejaVuSans-62" transform="translate(1372.457031 0)"/>
     <use xlink:href="#DejaVuSans-62" transform="translate(1435.933594 0)"/>
     <use xlink:href="#DejaVuSans-63" transform="translate(1499.410156 0)"/>
     <use xlink:href="#DejaVuSans-62" transform="translate(1554.390625 0)"/>
     <use xlink:href="#DejaVuSans-62" transform="translate(1617.867188 0)"/>
     <use xlink:href="#DejaVuSans-62" transform="translate(1681.34375 0)"/>
     <use xlink:href="#DejaVuSans-22" transform="translate(1744.820312 0)"/>
     <use xlink:href="#DejaVuSans-20" transform="translate(1790.816406 0)"/>
     <use xlink:href="#DejaVuSans-2d" transform="translate(1822.603516 0)"/>
     <use xlink:href="#DejaVuSans-3e" transform="translate(1858.6875 0)"/>
     <use xlink:href="#DejaVuSans-20" transform="translate(1942.476562 0)"/>
     <use xlink:href="#DejaVuSans-22" transform="translate(1974.263672 0)"/>
     <use xlink:href="#DejaVuSans-61" transform="translate(2020.259766 0)"/>
     <use xlink:href="#DejaVuSans-33" transform="translate(2081.539062 0)"/>
     <use xlink:href="#DejaVuSans-62" transform="translate(2145.162109 0)"/>
     <use xlink:href="#DejaVuSans-32" transform="translate(2208.638672 0)"/>
     <use xlink:href="#DejaVuSans-63" transform="translate(2272.261719 0)"/>
     <use xlink:href="#DejaVuSans-31" transform="translate(2327.242188 0)"/>
     <use xlink:href="#DejaVuSans-62" transform="translate(2390.865234 0)"/>
     <use xlink:href="#DejaVuSans-33" transform="translate(2454.341797 0)"/>
     <use xlink:href="#DejaVuSans-22" transform="translate(2517.964844 0)"/>
    </g>
   </g>
  </g>
 </g>
 <defs>
  <clipPath id="pad9542479a">
   <rect x="7.2" y="30.318125" width="502.2" height="194.04"/>
  </clipPath>
 </defs>
</svg>
