<?xml version="1.0" encoding="utf-8" standalone="no"?>
<!DOCTYPE svg PUBLIC "-//W3C//DTD SVG 1.1//EN"
  "http://www.w3.org/Graphics/SVG/1.1/DTD/svg11.dtd">
<svg xmlns:xlink="http://www.w3.org/1999/xlink" width="460.8pt" height="284.998125pt" viewBox="0 0 460.8 284.998125" xmlns="http://www.w3.org/2000/svg" version="1.1">
 <metadata>
  <rdf:RDF xmlns:dc="http://purl.org/dc/elements/1.1/" xmlns:cc="http://creativecommons.org/ns#" xmlns:rdf="http://www.w3.org/1999/02/22-rdf-syntax-ns#">
   <cc:Work>
    <dc:type rdf:resource="http://purl.org/dc/dcmitype/StillImage"/>
    <dc:date>2026-07-04T08:30:03.496694</dc:date>
    <dc:format>image/svg+xml</dc:format>
    <dc:creator>
     <cc:Agent>
      <dc:title>Matplotlib v3.10.8, https://matplotlib.org/</dc:title>
     </cc:Agent>
    </dc:creator>
   </cc:Work>
  </rdf:RDF>
 </metadata>
 <defs>
  <style type="text/css">*{stroke-linejoin: round; stroke-linecap: butt}</style>
 </defs>
 <g id="figure_1">
  <g id="patch_1">
   <path d="M 0 284.998125 
L 460.8 284.998125 
L 460.8 0 
L 0 0 
z
" style="fill: #fafaf9"/>
  </g>
  <g id="axes_1">
   <g id="patch_2">
    <path d="M 98.597021 141.923661 
Q 156.001386 121.872641 211.716954 102.411508 
" style="fill: none; stroke: #555555; stroke-width: 1.6; stroke-linecap: round"/>
    <path d="M 207.281176 101.842403 
L 211.716954 102.411508 
L 208.600204 105.618667 
" style="fill: none; stroke: #555555; stroke-width: 1.6; stroke-linecap: round"/>
   </g>
   <g id="patch_3">
    <path d="M 98.597021 153.797589 
Q 156.001386 173.848609 211.716954 193.309742 
" style="fill: none; stroke: #555555; stroke-width: 1.6; stroke-linecap: round"/>
    <path d="M 208.600204 190.102583 
L 211.716954 193.309742 
L 207.281176 193.878847 
" style="fill: none; stroke: #555555; stroke-width: 1.6; stroke-linecap: round"/>
   </g>
   <g id="patch_4">
    <path d="M 247.397021 101.822589 
Q 304.801386 121.873609 360.516954 141.334742 
" style="fill: none; stroke: #555555; stroke-width: 1.6; stroke-linecap: round"/>
    <path d="M 357.400204 138.127583 
L 360.516954 141.334742 
L 356.081176 141.903847 
" style="fill: none; stroke: #555555; stroke-width: 1.6; stroke-linecap: round"/>
   </g>
   <g id="patch_5">
    <path d="M 247.397021 193.898661 
Q 304.801386 173.847641 360.516954 154.386508 
" style="fill: none; stroke: #555555; stroke-width: 1.6; stroke-linecap: round"/>
    <path d="M 356.081176 153.817403 
L 360.516954 154.386508 
L 357.400204 157.593667 
" style="fill: none; stroke: #555555; stroke-width: 1.6; stroke-linecap: round"/>
   </g>
   <g id="patch_6">
    <path d="M 81.6 168.650625 
C 89.492444 168.650625 97.062697 166.460059 102.643498 162.561375 
C 108.224299 158.662691 111.36 153.374197 111.36 147.860625 
C 111.36 142.347053 108.224299 137.058559 102.643498 133.159875 
C 97.062697 129.261191 89.492444 127.070625 81.6 127.070625 
C 73.707556 127.070625 66.137303 129.261191 60.556502 133.159875 
C 54.975701 137.058559 51.84 142.347053 51.84 147.860625 
C 51.84 153.374197 54.975701 158.662691 60.556502 162.561375 
C 66.137303 166.460059 73.707556 168.650625 81.6 168.650625 
z
" clip-path="url(#p0dcb79feb8)" style="fill: #d6eaf8; stroke: #666666; stroke-width: 1.3; stroke-linejoin: miter"/>
   </g>
   <g id="patch_7">
    <path d="M 230.4 116.675625 
C 238.292444 116.675625 245.862697 114.485059 251.443498 110.586375 
C 257.024299 106.687691 260.16 101.399197 260.16 95.885625 
C 260.16 90.372053 257.024299 85.083559 251.443498 81.184875 
C 245.862697 77.286191 238.292444 75.095625 230.4 75.095625 
C 222.507556 75.095625 214.937303 77.286191 209.356502 81.184875 
C 203.775701 85.083559 200.64 90.372053 200.64 95.885625 
C 200.64 101.399197 203.775701 106.687691 209.356502 110.586375 
C 214.937303 114.485059 222.507556 116.675625 230.4 116.675625 
z
" clip-path="url(#p0dcb79feb8)" style="fill: #d6eaf8; stroke: #666666; stroke-width: 1.3; stroke-linejoin: miter"/>
   </g>
   <g id="patch_8">
    <path d="M 230.4 220.625625 
C 238.292444 220.625625 245.862697 218.435059 251.443498 214.536375 
C 257.024299 210.637691 260.16 205.349197 260.16 199.835625 
C 260.16 194.322053 257.024299 189.033559 251.443498 185.134875 
C 245.862697 181.236191 238.292444 179.045625 230.4 179.045625 
C 222.507556 179.045625 214.937303 181.236191 209.356502 185.134875 
C 203.775701 189.033559 200.64 194.322053 200.64 199.835625 
C 200.64 205.349197 203.775701 210.637691 209.356502 214.536375 
C 214.937303 218.435059 222.507556 220.625625 230.4 220.625625 
z
" clip-path="url(#p0dcb79feb8)" style="fill: #d6eaf8; stroke: #666666; stroke-width: 1.3; stroke-linejoin: miter"/>
   </g>
   <g id="patch_9">
    <path d="M 379.2 168.650625 
C 387.092444 168.650625 394.662697 166.460059 400.243498 162.561375 
C 405.824299 158.662691 408.96 153.374197 408.96 147.860625 
C 408.96 142.347053 405.824299 137.058559 400.243498 133.159875 
C 394.662697 129.261191 387.092444 127.070625 379.2 127.070625 
C 371.307556 127.070625 363.737303 129.261191 358.156502 133.159875 
C 352.575701 137.058559 349.44 142.347053 349.44 147.860625 
C 349.44 153.374197 352.575701 158.662691 358.156502 162.561375 
C 363.737303 166.460059 371.307556 168.650625 379.2 168.650625 
z
" clip-path="url(#p0dcb79feb8)" style="fill: #d6eaf8; stroke: #666666; stroke-width: 1.3; stroke-linejoin: miter"/>
   </g>
   <g id="text_1">
    <!-- Edge direction = prerequisite -&gt; dependent course -->
    <g style="fill: #555555" transform="translate(114.939844 49.108125) scale(0.09 -0.09)">
     <defs>
      <path id="DejaVuSans-Oblique-45" d="M 1081 4666 
L 4031 4666 
L 3928 4134 
L 1606 4134 
L 1338 2753 
L 3566 2753 
L 3463 2222 
L 1234 2222 
L 909 531 
L 3284 531 
L 3181 0 
L 172 0 
L 1081 4666 
z
" transform="scale(0.015625)"/>
      <path id="DejaVuSans-Oblique-64" d="M 2675 525 
Q 2444 222 2128 65 
Q 1813 -91 1428 -91 
Q 903 -91 598 267 
Q 294 625 294 1247 
Q 294 1766 478 2236 
Q 663 2706 1013 3078 
Q 1244 3325 1534 3454 
Q 1825 3584 2144 3584 
Q 2481 3584 2739 3421 
Q 2997 3259 3138 2956 
L 3513 4863 
L 4091 4863 
L 3144 0 
L 2566 0 
L 2675 525 
z
M 891 1350 
Q 891 897 1095 644 
Q 1300 391 1663 391 
Q 1931 391 2161 520 
Q 2391 650 2566 903 
Q 2750 1166 2856 1509 
Q 2963 1853 2963 2188 
Q 2963 2622 2758 2865 
Q 2553 3109 2194 3109 
Q 1922 3109 1687 2981 
Q 1453 2853 1288 2613 
Q 1106 2353 998 2009 
Q 891 1666 891 1350 
z
" transform="scale(0.015625)"/>
      <path id="DejaVuSans-Oblique-67" d="M 3816 3500 
L 3219 434 
Q 3047 -456 2561 -893 
Q 2075 -1331 1253 -1331 
Q 950 -1331 690 -1286 
Q 431 -1241 206 -1147 
L 313 -588 
Q 525 -725 762 -790 
Q 1000 -856 1269 -856 
Q 1816 -856 2167 -557 
Q 2519 -259 2631 300 
L 2681 563 
Q 2441 288 2122 144 
Q 1803 0 1434 0 
Q 903 0 598 351 
Q 294 703 294 1319 
Q 294 1803 478 2267 
Q 663 2731 997 3091 
Q 1219 3328 1514 3456 
Q 1809 3584 2131 3584 
Q 2484 3584 2746 3420 
Q 3009 3256 3138 2956 
L 3238 3500 
L 3816 3500 
z
M 2950 2216 
Q 2950 2641 2750 2872 
Q 2550 3103 2181 3103 
Q 1953 3103 1747 3012 
Q 1541 2922 1394 2759 
Q 1156 2491 1023 2127 
Q 891 1763 891 1375 
Q 891 944 1092 712 
Q 1294 481 1672 481 
Q 2219 481 2584 976 
Q 2950 1472 2950 2216 
z
" transform="scale(0.015625)"/>
      <path id="DejaVuSans-Oblique-65" d="M 3078 2063 
Q 3088 2113 3092 2166 
Q 3097 2219 3097 2272 
Q 3097 2653 2873 2875 
Q 2650 3097 2266 3097 
Q 1838 3097 1509 2826 
Q 1181 2556 1013 2059 
L 3078 2063 
z
M 3578 1613 
L 903 1613 
Q 884 1494 878 1425 
Q 872 1356 872 1306 
Q 872 872 1139 634 
Q 1406 397 1894 397 
Q 2269 397 2603 481 
Q 2938 566 3225 728 
L 3116 159 
Q 2806 34 2476 -28 
Q 2147 -91 1806 -91 
Q 1078 -91 686 257 
Q 294 606 294 1247 
Q 294 1794 489 2264 
Q 684 2734 1063 3103 
Q 1306 3334 1642 3459 
Q 1978 3584 2356 3584 
Q 2950 3584 3301 3228 
Q 3653 2872 3653 2272 
Q 3653 2128 3634 1964 
Q 3616 1800 3578 1613 
z
" transform="scale(0.015625)"/>
      <path id="DejaVuSans-Oblique-20" transform="scale(0.015625)"/>
      <path id="DejaVuSans-Oblique-69" d="M 1172 4863 
L 1747 4863 
L 1606 4134 
L 1031 4134 
L 1172 4863 
z
M 909 3500 
L 1484 3500 
L 800 0 
L 225 0 
L 909 3500 
z
" transform="scale(0.015625)"/>
      <path id="DejaVuSans-Oblique-72" d="M 2853 2969 
Q 2766 3016 2653 3041 
Q 2541 3066 2413 3066 
Q 1953 3066 1609 2717 
Q 1266 2369 1153 1784 
L 800 0 
L 225 0 
L 909 3500 
L 1484 3500 
L 1375 2956 
Q 1603 3259 1920 3421 
Q 2238 3584 2597 3584 
Q 2691 3584 2781 3573 
Q 2872 3563 2963 3538 
L 2853 2969 
z
" transform="scale(0.015625)"/>
      <path id="DejaVuSans-Oblique-63" d="M 3431 3366 
L 3316 2797 
Q 3109 2947 2876 3022 
Q 2644 3097 2394 3097 
Q 2119 3097 1870 3000 
Q 1622 2903 1453 2725 
Q 1184 2453 1037 2087 
Q 891 1722 891 1331 
Q 891 859 1127 628 
Q 1363 397 1844 397 
Q 2081 397 2348 469 
Q 2616 541 2906 684 
L 2797 116 
Q 2547 13 2283 -39 
Q 2019 -91 1741 -91 
Q 1044 -91 669 257 
Q 294 606 294 1253 
Q 294 1797 489 2255 
Q 684 2713 1069 3078 
Q 1331 3328 1684 3456 
Q 2038 3584 2456 3584 
Q 2700 3584 2940 3529 
Q 3181 3475 3431 3366 
z
" transform="scale(0.015625)"/>
      <path id="DejaVuSans-Oblique-74" d="M 2706 3500 
L 2619 3053 
L 1472 3053 
L 1100 1153 
Q 1081 1047 1072 975 
Q 1063 903 1063 863 
Q 1063 663 1183 572 
Q 1303 481 1569 481 
L 2150 481 
L 2053 0 
L 1503 0 
Q 991 0 739 200 
Q 488 400 488 806 
Q 488 878 497 964 
Q 506 1050 525 1153 
L 897 3053 
L 409 3053 
L 500 3500 
L 978 3500 
L 1172 4494 
L 1747 4494 
L 1556 3500 
L 2706 3500 
z
" transform="scale(0.015625)"/>
      <path id="DejaVuSans-Oblique-6f" d="M 1625 -91 
Q 1009 -91 651 289 
Q 294 669 294 1325 
Q 294 1706 417 2101 
Q 541 2497 738 2766 
Q 1047 3184 1428 3384 
Q 1809 3584 2291 3584 
Q 2888 3584 3255 3212 
Q 3622 2841 3622 2241 
Q 3622 1825 3500 1412 
Q 3378 1000 3181 728 
Q 2875 309 2494 109 
Q 2113 -91 1625 -91 
z
M 891 1344 
Q 891 869 1089 633 
Q 1288 397 1691 397 
Q 2269 397 2648 901 
Q 3028 1406 3028 2181 
Q 3028 2634 2825 2865 
Q 2622 3097 2228 3097 
Q 1903 3097 1650 2945 
Q 1397 2794 1197 2484 
Q 1050 2253 970 1956 
Q 891 1659 891 1344 
z
" transform="scale(0.015625)"/>
      <path id="DejaVuSans-Oblique-6e" d="M 3566 2113 
L 3156 0 
L 2578 0 
L 2988 2091 
Q 3016 2238 3031 2350 
Q 3047 2463 3047 2528 
Q 3047 2791 2881 2937 
Q 2716 3084 2419 3084 
Q 1956 3084 1622 2776 
Q 1288 2469 1184 1941 
L 800 0 
L 225 0 
L 903 3500 
L 1478 3500 
L 1363 2950 
Q 1603 3253 1940 3418 
Q 2278 3584 2650 3584 
Q 3113 3584 3367 3334 
Q 3622 3084 3622 2631 
Q 3622 2519 3608 2391 
Q 3594 2263 3566 2113 
z
" transform="scale(0.015625)"/>
      <path id="DejaVuSans-Oblique-3d" d="M 678 2906 
L 4684 2906 
L 4684 2381 
L 678 2381 
L 678 2906 
z
M 678 1631 
L 4684 1631 
L 4684 1100 
L 678 1100 
L 678 1631 
z
" transform="scale(0.015625)"/>
      <path id="DejaVuSans-Oblique-70" d="M 3175 2156 
Q 3175 2616 2975 2859 
Q 2775 3103 2400 3103 
Q 2144 3103 1911 2972 
Q 1678 2841 1497 2591 
Q 1319 2344 1212 1994 
Q 1106 1644 1106 1300 
Q 1106 863 1306 627 
Q 1506 391 1875 391 
Q 2147 391 2380 519 
Q 2613 647 2778 891 
Q 2956 1147 3065 1494 
Q 3175 1841 3175 2156 
z
M 1394 2969 
Q 1625 3272 1939 3428 
Q 2253 3584 2638 3584 
Q 3175 3584 3472 3232 
Q 3769 2881 3769 2247 
Q 3769 1728 3584 1258 
Q 3400 788 3053 416 
Q 2822 169 2531 39 
Q 2241 -91 1919 -91 
Q 1547 -91 1294 64 
Q 1041 219 916 525 
L 556 -1331 
L -19 -1331 
L 922 3500 
L 1497 3500 
L 1394 2969 
z
" transform="scale(0.015625)"/>
      <path id="DejaVuSans-Oblique-71" d="M 2669 525 
Q 2438 222 2123 65 
Q 1809 -91 1428 -91 
Q 897 -91 595 267 
Q 294 625 294 1253 
Q 294 1759 480 2231 
Q 666 2703 1013 3078 
Q 1238 3322 1530 3453 
Q 1822 3584 2144 3584 
Q 2531 3584 2781 3431 
Q 3031 3278 3144 2969 
L 3244 3494 
L 3822 3494 
L 2888 -1319 
L 2309 -1319 
L 2669 525 
z
M 891 1338 
Q 891 875 1084 633 
Q 1278 391 1644 391 
Q 2188 391 2572 911 
Q 2956 1431 2956 2175 
Q 2956 2625 2757 2864 
Q 2559 3103 2188 3103 
Q 1916 3103 1684 2976 
Q 1453 2850 1281 2606 
Q 1100 2350 995 2006 
Q 891 1663 891 1338 
z
" transform="scale(0.015625)"/>
      <path id="DejaVuSans-Oblique-75" d="M 428 1388 
L 838 3500 
L 1416 3500 
L 1006 1409 
Q 975 1256 961 1147 
Q 947 1038 947 966 
Q 947 700 1109 554 
Q 1272 409 1569 409 
Q 2031 409 2368 721 
Q 2706 1034 2809 1563 
L 3194 3500 
L 3769 3500 
L 3091 0 
L 2516 0 
L 2631 550 
Q 2388 244 2052 76 
Q 1716 -91 1338 -91 
Q 878 -91 622 161 
Q 366 413 366 863 
Q 366 956 381 1097 
Q 397 1238 428 1388 
z
" transform="scale(0.015625)"/>
      <path id="DejaVuSans-Oblique-73" d="M 3200 3397 
L 3091 2853 
Q 2863 2978 2609 3040 
Q 2356 3103 2088 3103 
Q 1634 3103 1373 2948 
Q 1113 2794 1113 2528 
Q 1113 2219 1719 2053 
Q 1766 2041 1788 2034 
L 1972 1978 
Q 2547 1819 2739 1644 
Q 2931 1469 2931 1166 
Q 2931 609 2489 259 
Q 2047 -91 1331 -91 
Q 1053 -91 747 -37 
Q 441 16 72 128 
L 184 722 
Q 500 559 806 475 
Q 1113 391 1394 391 
Q 1816 391 2080 572 
Q 2344 753 2344 1031 
Q 2344 1331 1650 1516 
L 1591 1531 
L 1394 1581 
Q 956 1697 753 1886 
Q 550 2075 550 2369 
Q 550 2928 970 3256 
Q 1391 3584 2113 3584 
Q 2397 3584 2667 3537 
Q 2938 3491 3200 3397 
z
" transform="scale(0.015625)"/>
      <path id="DejaVuSans-Oblique-2d" d="M 391 2009 
L 2075 2009 
L 1978 1497 
L 288 1497 
L 391 2009 
z
" transform="scale(0.015625)"/>
      <path id="DejaVuSans-Oblique-3e" d="M 678 3150 
L 678 3719 
L 4684 2266 
L 4684 1747 
L 678 294 
L 678 863 
L 3897 2003 
L 678 3150 
z
" transform="scale(0.015625)"/>
     </defs>
     <use xlink:href="#DejaVuSans-Oblique-45"/>
     <use xlink:href="#DejaVuSans-Oblique-64" transform="translate(63.183594 0)"/>
     <use xlink:href="#DejaVuSans-Oblique-67" transform="translate(126.660156 0)"/>
     <use xlink:href="#DejaVuSans-Oblique-65" transform="translate(190.136719 0)"/>
     <use xlink:href="#DejaVuSans-Oblique-20" transform="translate(251.660156 0)"/>
     <use xlink:href="#DejaVuSans-Oblique-64" transform="translate(283.447266 0)"/>
     <use xlink:href="#DejaVuSans-Oblique-69" transform="translate(346.923828 0)"/>
     <use xlink:href="#DejaVuSans-Oblique-72" transform="translate(374.707031 0)"/>
     <use xlink:href="#DejaVuSans-Oblique-65" transform="translate(415.820312 0)"/>
     <use xlink:href="#DejaVuSans-Oblique-63" transform="translate(477.34375 0)"/>
     <use xlink:href="#DejaVuSans-Oblique-74" transform="translate(532.324219 0)"/>
     <use xlink:href="#DejaVuSans-Oblique-69" transform="translate(571.533203 0)"/>
     <use xlink:href="#DejaVuSans-Oblique-6f" transform="translate(599.316406 0)"/>
     <use xlink:href="#DejaVuSans-Oblique-6e" transform="translate(660.498047 0)"/>
     <use xlink:href="#DejaVuSans-Oblique-20" transform="translate(723.876953 0)"/>
     <use xlink:href="#DejaVuSans-Oblique-3d" transform="translate(755.664062 0)"/>
     <use xlink:href="#DejaVuSans-Oblique-20" transform="translate(839.453125 0)"/>
     <use xlink:href="#DejaVuSans-Oblique-70" transform="translate(871.240234 0)"/>
     <use xlink:href="#DejaVuSans-Oblique-72" transform="translate(934.716797 0)"/>
     <use xlink:href="#DejaVuSans-Oblique-65" transform="translate(975.830078 0)"/>
     <use xlink:href="#DejaVuSans-Oblique-72" transform="translate(1037.353516 0)"/>
     <use xlink:href="#DejaVuSans-Oblique-65" transform="translate(1078.466797 0)"/>
     <use xlink:href="#DejaVuSans-Oblique-71" transform="translate(1139.990234 0)"/>
     <use xlink:href="#DejaVuSans-Oblique-75" transform="translate(1203.466797 0)"/>
     <use xlink:href="#DejaVuSans-Oblique-69" transform="translate(1266.845703 0)"/>
     <use xlink:href="#DejaVuSans-Oblique-73" transform="translate(1294.628906 0)"/>
     <use xlink:href="#DejaVuSans-Oblique-69" transform="translate(1346.728516 0)"/>
     <use xlink:href="#DejaVuSans-Oblique-74" transform="translate(1374.511719 0)"/>
     <use xlink:href="#DejaVuSans-Oblique-65" transform="translate(1413.720703 0)"/>
     <use xlink:href="#DejaVuSans-Oblique-20" transform="translate(1475.244141 0)"/>
     <use xlink:href="#DejaVuSans-Oblique-2d" transform="translate(1507.03125 0)"/>
     <use xlink:href="#DejaVuSans-Oblique-3e" transform="translate(1543.115234 0)"/>
     <use xlink:href="#DejaVuSans-Oblique-20" transform="translate(1626.904297 0)"/>
     <use xlink:href="#DejaVuSans-Oblique-64" transform="translate(1658.691406 0)"/>
     <use xlink:href="#DejaVuSans-Oblique-65" transform="translate(1722.167969 0)"/>
     <use xlink:href="#DejaVuSans-Oblique-70" transform="translate(1783.691406 0)"/>
     <use xlink:href="#DejaVuSans-Oblique-65" transform="translate(1847.167969 0)"/>
     <use xlink:href="#DejaVuSans-Oblique-6e" transform="translate(1908.691406 0)"/>
     <use xlink:href="#DejaVuSans-Oblique-64" transform="translate(1972.070312 0)"/>
     <use xlink:href="#DejaVuSans-Oblique-65" transform="translate(2035.546875 0)"/>
     <use xlink:href="#DejaVuSans-Oblique-6e" transform="translate(2097.070312 0)"/>
     <use xlink:href="#DejaVuSans-Oblique-74" transform="translate(2160.449219 0)"/>
     <use xlink:href="#DejaVuSans-Oblique-20" transform="translate(2199.658203 0)"/>
     <use xlink:href="#DejaVuSans-Oblique-63" transform="translate(2231.445312 0)"/>
     <use xlink:href="#DejaVuSans-Oblique-6f" transform="translate(2286.425781 0)"/>
     <use xlink:href="#DejaVuSans-Oblique-75" transform="translate(2347.607422 0)"/>
     <use xlink:href="#DejaVuSans-Oblique-72" transform="translate(2410.986328 0)"/>
     <use xlink:href="#DejaVuSans-Oblique-73" transform="translate(2452.099609 0)"/>
     <use xlink:href="#DejaVuSans-Oblique-65" transform="translate(2504.199219 0)"/>
    </g>
   </g>
   <g id="text_2">
    <g id="patch_10">
     <path d="M 33.791406 252.770938 
L 427.008594 252.770938 
Q 431.008594 252.770938 431.008594 248.770938 
L 431.008594 239.014688 
Q 431.008594 235.014688 427.008594 235.014688 
L 33.791406 235.014688 
Q 29.791406 235.014688 29.791406 239.014688 
L 29.791406 248.770938 
Q 29.791406 252.770938 33.791406 252.770938 
z
" style="fill: #d5f5e3; stroke: #27ae60; stroke-linejoin: miter"/>
    </g>
    <!-- No cycle -&gt; topological sort processes all 4 nodes -&gt; canFinish = True -->
    <g transform="translate(33.791406 246.613125) scale(0.1 -0.1)">
     <defs>
      <path id="DejaVuSans-Bold-4e" d="M 588 4666 
L 1931 4666 
L 3628 1466 
L 3628 4666 
L 4769 4666 
L 4769 0 
L 3425 0 
L 1728 3200 
L 1728 0 
L 588 0 
L 588 4666 
z
" transform="scale(0.015625)"/>
      <path id="DejaVuSans-Bold-6f" d="M 2203 2784 
Q 1831 2784 1636 2517 
Q 1441 2250 1441 1747 
Q 1441 1244 1636 976 
Q 1831 709 2203 709 
Q 2569 709 2762 976 
Q 2956 1244 2956 1747 
Q 2956 2250 2762 2517 
Q 2569 2784 2203 2784 
z
M 2203 3584 
Q 3106 3584 3614 3096 
Q 4122 2609 4122 1747 
Q 4122 884 3614 396 
Q 3106 -91 2203 -91 
Q 1297 -91 786 396 
Q 275 884 275 1747 
Q 275 2609 786 3096 
Q 1297 3584 2203 3584 
z
" transform="scale(0.015625)"/>
      <path id="DejaVuSans-Bold-20" transform="scale(0.015625)"/>
      <path id="DejaVuSans-Bold-63" d="M 3366 3391 
L 3366 2478 
Q 3138 2634 2908 2709 
Q 2678 2784 2431 2784 
Q 1963 2784 1702 2511 
Q 1441 2238 1441 1747 
Q 1441 1256 1702 982 
Q 1963 709 2431 709 
Q 2694 709 2930 787 
Q 3166 866 3366 1019 
L 3366 103 
Q 3103 6 2833 -42 
Q 2563 -91 2291 -91 
Q 1344 -91 809 395 
Q 275 881 275 1747 
Q 275 2613 809 3098 
Q 1344 3584 2291 3584 
Q 2566 3584 2833 3536 
Q 3100 3488 3366 3391 
z
" transform="scale(0.015625)"/>
      <path id="DejaVuSans-Bold-79" d="M 78 3500 
L 1197 3500 
L 2138 1125 
L 2938 3500 
L 4056 3500 
L 2584 -331 
Q 2363 -916 2067 -1148 
Q 1772 -1381 1288 -1381 
L 641 -1381 
L 641 -647 
L 991 -647 
Q 1275 -647 1404 -556 
Q 1534 -466 1606 -231 
L 1638 -134 
L 78 3500 
z
" transform="scale(0.015625)"/>
      <path id="DejaVuSans-Bold-6c" d="M 538 4863 
L 1656 4863 
L 1656 0 
L 538 0 
L 538 4863 
z
" transform="scale(0.015625)"/>
      <path id="DejaVuSans-Bold-65" d="M 4031 1759 
L 4031 1441 
L 1416 1441 
Q 1456 1047 1700 850 
Q 1944 653 2381 653 
Q 2734 653 3104 758 
Q 3475 863 3866 1075 
L 3866 213 
Q 3469 63 3072 -14 
Q 2675 -91 2278 -91 
Q 1328 -91 801 392 
Q 275 875 275 1747 
Q 275 2603 792 3093 
Q 1309 3584 2216 3584 
Q 3041 3584 3536 3087 
Q 4031 2591 4031 1759 
z
M 2881 2131 
Q 2881 2450 2695 2645 
Q 2509 2841 2209 2841 
Q 1884 2841 1681 2658 
Q 1478 2475 1428 2131 
L 2881 2131 
z
" transform="scale(0.015625)"/>
      <path id="DejaVuSans-Bold-2d" d="M 347 2297 
L 2309 2297 
L 2309 1388 
L 347 1388 
L 347 2297 
z
" transform="scale(0.015625)"/>
      <path id="DejaVuSans-Bold-3e" d="M 678 3041 
L 678 3822 
L 4684 2375 
L 4684 1638 
L 678 191 
L 678 972 
L 3694 2003 
L 678 3041 
z
" transform="scale(0.015625)"/>
      <path id="DejaVuSans-Bold-74" d="M 1759 4494 
L 1759 3500 
L 2913 3500 
L 2913 2700 
L 1759 2700 
L 1759 1216 
Q 1759 972 1856 886 
Q 1953 800 2241 800 
L 2816 800 
L 2816 0 
L 1856 0 
Q 1194 0 917 276 
Q 641 553 641 1216 
L 641 2700 
L 84 2700 
L 84 3500 
L 641 3500 
L 641 4494 
L 1759 4494 
z
" transform="scale(0.015625)"/>
      <path id="DejaVuSans-Bold-70" d="M 1656 506 
L 1656 -1331 
L 538 -1331 
L 538 3500 
L 1656 3500 
L 1656 2988 
Q 1888 3294 2169 3439 
Q 2450 3584 2816 3584 
Q 3463 3584 3878 3070 
Q 4294 2556 4294 1747 
Q 4294 938 3878 423 
Q 3463 -91 2816 -91 
Q 2450 -91 2169 54 
Q 1888 200 1656 506 
z
M 2400 2772 
Q 2041 2772 1848 2508 
Q 1656 2244 1656 1747 
Q 1656 1250 1848 986 
Q 2041 722 2400 722 
Q 2759 722 2948 984 
Q 3138 1247 3138 1747 
Q 3138 2247 2948 2509 
Q 2759 2772 2400 2772 
z
" transform="scale(0.015625)"/>
      <path id="DejaVuSans-Bold-67" d="M 2919 594 
Q 2688 288 2409 144 
Q 2131 0 1766 0 
Q 1125 0 706 504 
Q 288 1009 288 1791 
Q 288 2575 706 3076 
Q 1125 3578 1766 3578 
Q 2131 3578 2409 3434 
Q 2688 3291 2919 2981 
L 2919 3500 
L 4044 3500 
L 4044 353 
Q 4044 -491 3511 -936 
Q 2978 -1381 1966 -1381 
Q 1638 -1381 1331 -1331 
Q 1025 -1281 716 -1178 
L 716 -306 
Q 1009 -475 1290 -558 
Q 1572 -641 1856 -641 
Q 2406 -641 2662 -400 
Q 2919 -159 2919 353 
L 2919 594 
z
M 2181 2772 
Q 1834 2772 1640 2515 
Q 1447 2259 1447 1791 
Q 1447 1309 1634 1061 
Q 1822 813 2181 813 
Q 2531 813 2725 1069 
Q 2919 1325 2919 1791 
Q 2919 2259 2725 2515 
Q 2531 2772 2181 2772 
z
" transform="scale(0.015625)"/>
      <path id="DejaVuSans-Bold-69" d="M 538 3500 
L 1656 3500 
L 1656 0 
L 538 0 
L 538 3500 
z
M 538 4863 
L 1656 4863 
L 1656 3950 
L 538 3950 
L 538 4863 
z
" transform="scale(0.015625)"/>
      <path id="DejaVuSans-Bold-61" d="M 2106 1575 
Q 1756 1575 1579 1456 
Q 1403 1338 1403 1106 
Q 1403 894 1545 773 
Q 1688 653 1941 653 
Q 2256 653 2472 879 
Q 2688 1106 2688 1447 
L 2688 1575 
L 2106 1575 
z
M 3816 1997 
L 3816 0 
L 2688 0 
L 2688 519 
Q 2463 200 2181 54 
Q 1900 -91 1497 -91 
Q 953 -91 614 226 
Q 275 544 275 1050 
Q 275 1666 698 1953 
Q 1122 2241 2028 2241 
L 2688 2241 
L 2688 2328 
Q 2688 2594 2478 2717 
Q 2269 2841 1825 2841 
Q 1466 2841 1156 2769 
Q 847 2697 581 2553 
L 581 3406 
Q 941 3494 1303 3539 
Q 1666 3584 2028 3584 
Q 2975 3584 3395 3211 
Q 3816 2838 3816 1997 
z
" transform="scale(0.015625)"/>
      <path id="DejaVuSans-Bold-73" d="M 3272 3391 
L 3272 2541 
Q 2913 2691 2578 2766 
Q 2244 2841 1947 2841 
Q 1628 2841 1473 2761 
Q 1319 2681 1319 2516 
Q 1319 2381 1436 2309 
Q 1553 2238 1856 2203 
L 2053 2175 
Q 2913 2066 3209 1816 
Q 3506 1566 3506 1031 
Q 3506 472 3093 190 
Q 2681 -91 1863 -91 
Q 1516 -91 1145 -36 
Q 775 19 384 128 
L 384 978 
Q 719 816 1070 734 
Q 1422 653 1784 653 
Q 2113 653 2278 743 
Q 2444 834 2444 1013 
Q 2444 1163 2330 1236 
Q 2216 1309 1875 1350 
L 1678 1375 
Q 931 1469 631 1722 
Q 331 1975 331 2491 
Q 331 3047 712 3315 
Q 1094 3584 1881 3584 
Q 2191 3584 2531 3537 
Q 2872 3491 3272 3391 
z
" transform="scale(0.015625)"/>
      <path id="DejaVuSans-Bold-72" d="M 3138 2547 
Q 2991 2616 2845 2648 
Q 2700 2681 2553 2681 
Q 2122 2681 1889 2404 
Q 1656 2128 1656 1613 
L 1656 0 
L 538 0 
L 538 3500 
L 1656 3500 
L 1656 2925 
Q 1872 3269 2151 3426 
Q 2431 3584 2822 3584 
Q 2878 3584 2943 3579 
Q 3009 3575 3134 3559 
L 3138 2547 
z
" transform="scale(0.015625)"/>
      <path id="DejaVuSans-Bold-34" d="M 2356 3675 
L 1038 1722 
L 2356 1722 
L 2356 3675 
z
M 2156 4666 
L 3494 4666 
L 3494 1722 
L 4159 1722 
L 4159 850 
L 3494 850 
L 3494 0 
L 2356 0 
L 2356 850 
L 288 850 
L 288 1881 
L 2156 4666 
z
" transform="scale(0.015625)"/>
      <path id="DejaVuSans-Bold-6e" d="M 4056 2131 
L 4056 0 
L 2931 0 
L 2931 347 
L 2931 1631 
Q 2931 2084 2911 2256 
Q 2891 2428 2841 2509 
Q 2775 2619 2662 2680 
Q 2550 2741 2406 2741 
Q 2056 2741 1856 2470 
Q 1656 2200 1656 1722 
L 1656 0 
L 538 0 
L 538 3500 
L 1656 3500 
L 1656 2988 
Q 1909 3294 2193 3439 
Q 2478 3584 2822 3584 
Q 3428 3584 3742 3212 
Q 4056 2841 4056 2131 
z
" transform="scale(0.015625)"/>
      <path id="DejaVuSans-Bold-64" d="M 2919 2988 
L 2919 4863 
L 4044 4863 
L 4044 0 
L 2919 0 
L 2919 506 
Q 2688 197 2409 53 
Q 2131 -91 1766 -91 
Q 1119 -91 703 423 
Q 288 938 288 1747 
Q 288 2556 703 3070 
Q 1119 3584 1766 3584 
Q 2128 3584 2408 3439 
Q 2688 3294 2919 2988 
z
M 2181 722 
Q 2541 722 2730 984 
Q 2919 1247 2919 1747 
Q 2919 2247 2730 2509 
Q 2541 2772 2181 2772 
Q 1825 2772 1636 2509 
Q 1447 2247 1447 1747 
Q 1447 1247 1636 984 
Q 1825 722 2181 722 
z
" transform="scale(0.015625)"/>
      <path id="DejaVuSans-Bold-46" d="M 588 4666 
L 3834 4666 
L 3834 3756 
L 1791 3756 
L 1791 2888 
L 3713 2888 
L 3713 1978 
L 1791 1978 
L 1791 0 
L 588 0 
L 588 4666 
z
" transform="scale(0.015625)"/>
      <path id="DejaVuSans-Bold-68" d="M 4056 2131 
L 4056 0 
L 2931 0 
L 2931 347 
L 2931 1625 
Q 2931 2084 2911 2256 
Q 2891 2428 2841 2509 
Q 2775 2619 2662 2680 
Q 2550 2741 2406 2741 
Q 2056 2741 1856 2470 
Q 1656 2200 1656 1722 
L 1656 0 
L 538 0 
L 538 4863 
L 1656 4863 
L 1656 2988 
Q 1909 3294 2193 3439 
Q 2478 3584 2822 3584 
Q 3428 3584 3742 3212 
Q 4056 2841 4056 2131 
z
" transform="scale(0.015625)"/>
      <path id="DejaVuSans-Bold-3d" d="M 678 3084 
L 4684 3084 
L 4684 2350 
L 678 2350 
L 678 3084 
z
M 678 1663 
L 4684 1663 
L 4684 922 
L 678 922 
L 678 1663 
z
" transform="scale(0.015625)"/>
      <path id="DejaVuSans-Bold-54" d="M 31 4666 
L 4331 4666 
L 4331 3756 
L 2784 3756 
L 2784 0 
L 1581 0 
L 1581 3756 
L 31 3756 
L 31 4666 
z
" transform="scale(0.015625)"/>
      <path id="DejaVuSans-Bold-75" d="M 500 1363 
L 500 3500 
L 1625 3500 
L 1625 3150 
Q 1625 2866 1622 2436 
Q 1619 2006 1619 1863 
Q 1619 1441 1641 1255 
Q 1663 1069 1716 984 
Q 1784 875 1895 815 
Q 2006 756 2150 756 
Q 2500 756 2700 1025 
Q 2900 1294 2900 1772 
L 2900 3500 
L 4019 3500 
L 4019 0 
L 2900 0 
L 2900 506 
Q 2647 200 2364 54 
Q 2081 -91 1741 -91 
Q 1134 -91 817 281 
Q 500 653 500 1363 
z
" transform="scale(0.015625)"/>
     </defs>
     <use xlink:href="#DejaVuSans-Bold-4e"/>
     <use xlink:href="#DejaVuSans-Bold-6f" transform="translate(83.691406 0)"/>
     <use xlink:href="#DejaVuSans-Bold-20" transform="translate(152.392578 0)"/>
     <use xlink:href="#DejaVuSans-Bold-63" transform="translate(187.207031 0)"/>
     <use xlink:href="#DejaVuSans-Bold-79" transform="translate(246.484375 0)"/>
     <use xlink:href="#DejaVuSans-Bold-63" transform="translate(311.669922 0)"/>
     <use xlink:href="#DejaVuSans-Bold-6c" transform="translate(370.947266 0)"/>
     <use xlink:href="#DejaVuSans-Bold-65" transform="translate(405.224609 0)"/>
     <use xlink:href="#DejaVuSans-Bold-20" transform="translate(473.046875 0)"/>
     <use xlink:href="#DejaVuSans-Bold-2d" transform="translate(507.861328 0)"/>
     <use xlink:href="#DejaVuSans-Bold-3e" transform="translate(549.365234 0)"/>
     <use xlink:href="#DejaVuSans-Bold-20" transform="translate(633.154297 0)"/>
     <use xlink:href="#DejaVuSans-Bold-74" transform="translate(667.96875 0)"/>
     <use xlink:href="#DejaVuSans-Bold-6f" transform="translate(715.771484 0)"/>
     <use xlink:href="#DejaVuSans-Bold-70" transform="translate(784.472656 0)"/>
     <use xlink:href="#DejaVuSans-Bold-6f" transform="translate(856.054688 0)"/>
     <use xlink:href="#DejaVuSans-Bold-6c" transform="translate(924.755859 0)"/>
     <use xlink:href="#DejaVuSans-Bold-6f" transform="translate(959.033203 0)"/>
     <use xlink:href="#DejaVuSans-Bold-67" transform="translate(1027.734375 0)"/>
     <use xlink:href="#DejaVuSans-Bold-69" transform="translate(1099.316406 0)"/>
     <use xlink:href="#DejaVuSans-Bold-63" transform="translate(1133.59375 0)"/>
     <use xlink:href="#DejaVuSans-Bold-61" transform="translate(1192.871094 0)"/>
     <use xlink:href="#DejaVuSans-Bold-6c" transform="translate(1260.351562 0)"/>
     <use xlink:href="#DejaVuSans-Bold-20" transform="translate(1294.628906 0)"/>
     <use xlink:href="#DejaVuSans-Bold-73" transform="translate(1329.443359 0)"/>
     <use xlink:href="#DejaVuSans-Bold-6f" transform="translate(1388.964844 0)"/>
     <use xlink:href="#DejaVuSans-Bold-72" transform="translate(1457.666016 0)"/>
     <use xlink:href="#DejaVuSans-Bold-74" transform="translate(1506.982422 0)"/>
     <use xlink:href="#DejaVuSans-Bold-20" transform="translate(1554.785156 0)"/>
     <use xlink:href="#DejaVuSans-Bold-70" transform="translate(1589.599609 0)"/>
     <use xlink:href="#DejaVuSans-Bold-72" transform="translate(1661.181641 0)"/>
     <use xlink:href="#DejaVuSans-Bold-6f" transform="translate(1710.498047 0)"/>
     <use xlink:href="#DejaVuSans-Bold-63" transform="translate(1779.199219 0)"/>
     <use xlink:href="#DejaVuSans-Bold-65" transform="translate(1838.476562 0)"/>
     <use xlink:href="#DejaVuSans-Bold-73" transform="translate(1906.298828 0)"/>
     <use xlink:href="#DejaVuSans-Bold-73" transform="translate(1965.820312 0)"/>
     <use xlink:href="#DejaVuSans-Bold-65" transform="translate(2025.341797 0)"/>
     <use xlink:href="#DejaVuSans-Bold-73" transform="translate(2093.164062 0)"/>
     <use xlink:href="#DejaVuSans-Bold-20" transform="translate(2152.685547 0)"/>
     <use xlink:href="#DejaVuSans-Bold-61" transform="translate(2187.5 0)"/>
     <use xlink:href="#DejaVuSans-Bold-6c" transform="translate(2254.980469 0)"/>
     <use xlink:href="#DejaVuSans-Bold-6c" transform="translate(2289.257812 0)"/>
     <use xlink:href="#DejaVuSans-Bold-20" transform="translate(2323.535156 0)"/>
     <use xlink:href="#DejaVuSans-Bold-34" transform="translate(2358.349609 0)"/>
     <use xlink:href="#DejaVuSans-Bold-20" transform="translate(2427.929688 0)"/>
     <use xlink:href="#DejaVuSans-Bold-6e" transform="translate(2462.744141 0)"/>
     <use xlink:href="#DejaVuSans-Bold-6f" transform="translate(2533.935547 0)"/>
     <use xlink:href="#DejaVuSans-Bold-64" transform="translate(2602.636719 0)"/>
     <use xlink:href="#DejaVuSans-Bold-65" transform="translate(2674.21875 0)"/>
     <use xlink:href="#DejaVuSans-Bold-73" transform="translate(2742.041016 0)"/>
     <use xlink:href="#DejaVuSans-Bold-20" transform="translate(2801.5625 0)"/>
     <use xlink:href="#DejaVuSans-Bold-2d" transform="translate(2836.376953 0)"/>
     <use xlink:href="#DejaVuSans-Bold-3e" transform="translate(2877.880859 0)"/>
     <use xlink:href="#DejaVuSans-Bold-20" transform="translate(2961.669922 0)"/>
     <use xlink:href="#DejaVuSans-Bold-63" transform="translate(2996.484375 0)"/>
     <use xlink:href="#DejaVuSans-Bold-61" transform="translate(3055.761719 0)"/>
     <use xlink:href="#DejaVuSans-Bold-6e" transform="translate(3123.242188 0)"/>
     <use xlink:href="#DejaVuSans-Bold-46" transform="translate(3194.433594 0)"/>
     <use xlink:href="#DejaVuSans-Bold-69" transform="translate(3262.744141 0)"/>
     <use xlink:href="#DejaVuSans-Bold-6e" transform="translate(3297.021484 0)"/>
     <use xlink:href="#DejaVuSans-Bold-69" transform="translate(3368.212891 0)"/>
     <use xlink:href="#DejaVuSans-Bold-73" transform="translate(3402.490234 0)"/>
     <use xlink:href="#DejaVuSans-Bold-68" transform="translate(3462.011719 0)"/>
     <use xlink:href="#DejaVuSans-Bold-20" transform="translate(3533.203125 0)"/>
     <use xlink:href="#DejaVuSans-Bold-3d" transform="translate(3568.017578 0)"/>
     <use xlink:href="#DejaVuSans-Bold-20" transform="translate(3651.806641 0)"/>
     <use xlink:href="#DejaVuSans-Bold-54" transform="translate(3686.621094 0)"/>
     <use xlink:href="#DejaVuSans-Bold-72" transform="translate(3743.833984 0)"/>
     <use xlink:href="#DejaVuSans-Bold-75" transform="translate(3793.150391 0)"/>
     <use xlink:href="#DejaVuSans-Bold-65" transform="translate(3864.341797 0)"/>
    </g>
   </g>
   <g id="text_3">
    <!-- Course Schedule — Topological Sort (Kahn's Algorithm) -->
    <g transform="translate(64.934062 16.318125) scale(0.12 -0.12)">
     <defs>
      <path id="DejaVuSans-43" d="M 4122 4306 
L 4122 3641 
Q 3803 3938 3442 4084 
Q 3081 4231 2675 4231 
Q 1875 4231 1450 3742 
Q 1025 3253 1025 2328 
Q 1025 1406 1450 917 
Q 1875 428 2675 428 
Q 3081 428 3442 575 
Q 3803 722 4122 1019 
L 4122 359 
Q 3791 134 3420 21 
Q 3050 -91 2638 -91 
Q 1578 -91 968 557 
Q 359 1206 359 2328 
Q 359 3453 968 4101 
Q 1578 4750 2638 4750 
Q 3056 4750 3426 4639 
Q 3797 4528 4122 4306 
z
" transform="scale(0.015625)"/>
      <path id="DejaVuSans-6f" d="M 1959 3097 
Q 1497 3097 1228 2736 
Q 959 2375 959 1747 
Q 959 1119 1226 758 
Q 1494 397 1959 397 
Q 2419 397 2687 759 
Q 2956 1122 2956 1747 
Q 2956 2369 2687 2733 
Q 2419 3097 1959 3097 
z
M 1959 3584 
Q 2709 3584 3137 3096 
Q 3566 2609 3566 1747 
Q 3566 888 3137 398 
Q 2709 -91 1959 -91 
Q 1206 -91 779 398 
Q 353 888 353 1747 
Q 353 2609 779 3096 
Q 1206 3584 1959 3584 
z
" transform="scale(0.015625)"/>
      <path id="DejaVuSans-75" d="M 544 1381 
L 544 3500 
L 1119 3500 
L 1119 1403 
Q 1119 906 1312 657 
Q 1506 409 1894 409 
Q 2359 409 2629 706 
Q 2900 1003 2900 1516 
L 2900 3500 
L 3475 3500 
L 3475 0 
L 2900 0 
L 2900 538 
Q 2691 219 2414 64 
Q 2138 -91 1772 -91 
Q 1169 -91 856 284 
Q 544 659 544 1381 
z
M 1991 3584 
L 1991 3584 
z
" transform="scale(0.015625)"/>
      <path id="DejaVuSans-72" d="M 2631 2963 
Q 2534 3019 2420 3045 
Q 2306 3072 2169 3072 
Q 1681 3072 1420 2755 
Q 1159 2438 1159 1844 
L 1159 0 
L 581 0 
L 581 3500 
L 1159 3500 
L 1159 2956 
Q 1341 3275 1631 3429 
Q 1922 3584 2338 3584 
Q 2397 3584 2469 3576 
Q 2541 3569 2628 3553 
L 2631 2963 
z
" transform="scale(0.015625)"/>
      <path id="DejaVuSans-73" d="M 2834 3397 
L 2834 2853 
Q 2591 2978 2328 3040 
Q 2066 3103 1784 3103 
Q 1356 3103 1142 2972 
Q 928 2841 928 2578 
Q 928 2378 1081 2264 
Q 1234 2150 1697 2047 
L 1894 2003 
Q 2506 1872 2764 1633 
Q 3022 1394 3022 966 
Q 3022 478 2636 193 
Q 2250 -91 1575 -91 
Q 1294 -91 989 -36 
Q 684 19 347 128 
L 347 722 
Q 666 556 975 473 
Q 1284 391 1588 391 
Q 1994 391 2212 530 
Q 2431 669 2431 922 
Q 2431 1156 2273 1281 
Q 2116 1406 1581 1522 
L 1381 1569 
Q 847 1681 609 1914 
Q 372 2147 372 2553 
Q 372 3047 722 3315 
Q 1072 3584 1716 3584 
Q 2034 3584 2315 3537 
Q 2597 3491 2834 3397 
z
" transform="scale(0.015625)"/>
      <path id="DejaVuSans-65" d="M 3597 1894 
L 3597 1613 
L 953 1613 
Q 991 1019 1311 708 
Q 1631 397 2203 397 
Q 2534 397 2845 478 
Q 3156 559 3463 722 
L 3463 178 
Q 3153 47 2828 -22 
Q 2503 -91 2169 -91 
Q 1331 -91 842 396 
Q 353 884 353 1716 
Q 353 2575 817 3079 
Q 1281 3584 2069 3584 
Q 2775 3584 3186 3129 
Q 3597 2675 3597 1894 
z
M 3022 2063 
Q 3016 2534 2758 2815 
Q 2500 3097 2075 3097 
Q 1594 3097 1305 2825 
Q 1016 2553 972 2059 
L 3022 2063 
z
" transform="scale(0.015625)"/>
      <path id="DejaVuSans-20" transform="scale(0.015625)"/>
      <path id="DejaVuSans-53" d="M 3425 4513 
L 3425 3897 
Q 3066 4069 2747 4153 
Q 2428 4238 2131 4238 
Q 1616 4238 1336 4038 
Q 1056 3838 1056 3469 
Q 1056 3159 1242 3001 
Q 1428 2844 1947 2747 
L 2328 2669 
Q 3034 2534 3370 2195 
Q 3706 1856 3706 1288 
Q 3706 609 3251 259 
Q 2797 -91 1919 -91 
Q 1588 -91 1214 -16 
Q 841 59 441 206 
L 441 856 
Q 825 641 1194 531 
Q 1563 422 1919 422 
Q 2459 422 2753 634 
Q 3047 847 3047 1241 
Q 3047 1584 2836 1778 
Q 2625 1972 2144 2069 
L 1759 2144 
Q 1053 2284 737 2584 
Q 422 2884 422 3419 
Q 422 4038 858 4394 
Q 1294 4750 2059 4750 
Q 2388 4750 2728 4690 
Q 3069 4631 3425 4513 
z
" transform="scale(0.015625)"/>
      <path id="DejaVuSans-63" d="M 3122 3366 
L 3122 2828 
Q 2878 2963 2633 3030 
Q 2388 3097 2138 3097 
Q 1578 3097 1268 2742 
Q 959 2388 959 1747 
Q 959 1106 1268 751 
Q 1578 397 2138 397 
Q 2388 397 2633 464 
Q 2878 531 3122 666 
L 3122 134 
Q 2881 22 2623 -34 
Q 2366 -91 2075 -91 
Q 1284 -91 818 406 
Q 353 903 353 1747 
Q 353 2603 823 3093 
Q 1294 3584 2113 3584 
Q 2378 3584 2631 3529 
Q 2884 3475 3122 3366 
z
" transform="scale(0.015625)"/>
      <path id="DejaVuSans-68" d="M 3513 2113 
L 3513 0 
L 2938 0 
L 2938 2094 
Q 2938 2591 2744 2837 
Q 2550 3084 2163 3084 
Q 1697 3084 1428 2787 
Q 1159 2491 1159 1978 
L 1159 0 
L 581 0 
L 581 4863 
L 1159 4863 
L 1159 2956 
Q 1366 3272 1645 3428 
Q 1925 3584 2291 3584 
Q 2894 3584 3203 3211 
Q 3513 2838 3513 2113 
z
" transform="scale(0.015625)"/>
      <path id="DejaVuSans-64" d="M 2906 2969 
L 2906 4863 
L 3481 4863 
L 3481 0 
L 2906 0 
L 2906 525 
Q 2725 213 2448 61 
Q 2172 -91 1784 -91 
Q 1150 -91 751 415 
Q 353 922 353 1747 
Q 353 2572 751 3078 
Q 1150 3584 1784 3584 
Q 2172 3584 2448 3432 
Q 2725 3281 2906 2969 
z
M 947 1747 
Q 947 1113 1208 752 
Q 1469 391 1925 391 
Q 2381 391 2643 752 
Q 2906 1113 2906 1747 
Q 2906 2381 2643 2742 
Q 2381 3103 1925 3103 
Q 1469 3103 1208 2742 
Q 947 2381 947 1747 
z
" transform="scale(0.015625)"/>
      <path id="DejaVuSans-6c" d="M 603 4863 
L 1178 4863 
L 1178 0 
L 603 0 
L 603 4863 
z
" transform="scale(0.015625)"/>
      <path id="DejaVuSans-2014" d="M 313 1978 
L 6088 1978 
L 6088 1528 
L 313 1528 
L 313 1978 
z
" transform="scale(0.015625)"/>
      <path id="DejaVuSans-54" d="M -19 4666 
L 3928 4666 
L 3928 4134 
L 2272 4134 
L 2272 0 
L 1638 0 
L 1638 4134 
L -19 4134 
L -19 4666 
z
" transform="scale(0.015625)"/>
      <path id="DejaVuSans-70" d="M 1159 525 
L 1159 -1331 
L 581 -1331 
L 581 3500 
L 1159 3500 
L 1159 2969 
Q 1341 3281 1617 3432 
Q 1894 3584 2278 3584 
Q 2916 3584 3314 3078 
Q 3713 2572 3713 1747 
Q 3713 922 3314 415 
Q 2916 -91 2278 -91 
Q 1894 -91 1617 61 
Q 1341 213 1159 525 
z
M 3116 1747 
Q 3116 2381 2855 2742 
Q 2594 3103 2138 3103 
Q 1681 3103 1420 2742 
Q 1159 2381 1159 1747 
Q 1159 1113 1420 752 
Q 1681 391 2138 391 
Q 2594 391 2855 752 
Q 3116 1113 3116 1747 
z
" transform="scale(0.015625)"/>
      <path id="DejaVuSans-67" d="M 2906 1791 
Q 2906 2416 2648 2759 
Q 2391 3103 1925 3103 
Q 1463 3103 1205 2759 
Q 947 2416 947 1791 
Q 947 1169 1205 825 
Q 1463 481 1925 481 
Q 2391 481 2648 825 
Q 2906 1169 2906 1791 
z
M 3481 434 
Q 3481 -459 3084 -895 
Q 2688 -1331 1869 -1331 
Q 1566 -1331 1297 -1286 
Q 1028 -1241 775 -1147 
L 775 -588 
Q 1028 -725 1275 -790 
Q 1522 -856 1778 -856 
Q 2344 -856 2625 -561 
Q 2906 -266 2906 331 
L 2906 616 
Q 2728 306 2450 153 
Q 2172 0 1784 0 
Q 1141 0 747 490 
Q 353 981 353 1791 
Q 353 2603 747 3093 
Q 1141 3584 1784 3584 
Q 2172 3584 2450 3431 
Q 2728 3278 2906 2969 
L 2906 3500 
L 3481 3500 
L 3481 434 
z
" transform="scale(0.015625)"/>
      <path id="DejaVuSans-69" d="M 603 3500 
L 1178 3500 
L 1178 0 
L 603 0 
L 603 3500 
z
M 603 4863 
L 1178 4863 
L 1178 4134 
L 603 4134 
L 603 4863 
z
" transform="scale(0.015625)"/>
      <path id="DejaVuSans-61" d="M 2194 1759 
Q 1497 1759 1228 1600 
Q 959 1441 959 1056 
Q 959 750 1161 570 
Q 1363 391 1709 391 
Q 2188 391 2477 730 
Q 2766 1069 2766 1631 
L 2766 1759 
L 2194 1759 
z
M 3341 1997 
L 3341 0 
L 2766 0 
L 2766 531 
Q 2569 213 2275 61 
Q 1981 -91 1556 -91 
Q 1019 -91 701 211 
Q 384 513 384 1019 
Q 384 1609 779 1909 
Q 1175 2209 1959 2209 
L 2766 2209 
L 2766 2266 
Q 2766 2663 2505 2880 
Q 2244 3097 1772 3097 
Q 1472 3097 1187 3025 
Q 903 2953 641 2809 
L 641 3341 
Q 956 3463 1253 3523 
Q 1550 3584 1831 3584 
Q 2591 3584 2966 3190 
Q 3341 2797 3341 1997 
z
" transform="scale(0.015625)"/>
      <path id="DejaVuSans-74" d="M 1172 4494 
L 1172 3500 
L 2356 3500 
L 2356 3053 
L 1172 3053 
L 1172 1153 
Q 1172 725 1289 603 
Q 1406 481 1766 481 
L 2356 481 
L 2356 0 
L 1766 0 
Q 1100 0 847 248 
Q 594 497 594 1153 
L 594 3053 
L 172 3053 
L 172 3500 
L 594 3500 
L 594 4494 
L 1172 4494 
z
" transform="scale(0.015625)"/>
      <path id="DejaVuSans-28" d="M 1984 4856 
Q 1566 4138 1362 3434 
Q 1159 2731 1159 2009 
Q 1159 1288 1364 580 
Q 1569 -128 1984 -844 
L 1484 -844 
Q 1016 -109 783 600 
Q 550 1309 550 2009 
Q 550 2706 781 3412 
Q 1013 4119 1484 4856 
L 1984 4856 
z
" transform="scale(0.015625)"/>
      <path id="DejaVuSans-4b" d="M 628 4666 
L 1259 4666 
L 1259 2694 
L 3353 4666 
L 4166 4666 
L 1850 2491 
L 4331 0 
L 3500 0 
L 1259 2247 
L 1259 0 
L 628 0 
L 628 4666 
z
" transform="scale(0.015625)"/>
      <path id="DejaVuSans-6e" d="M 3513 2113 
L 3513 0 
L 2938 0 
L 2938 2094 
Q 2938 2591 2744 2837 
Q 2550 3084 2163 3084 
Q 1697 3084 1428 2787 
Q 1159 2491 1159 1978 
L 1159 0 
L 581 0 
L 581 3500 
L 1159 3500 
L 1159 2956 
Q 1366 3272 1645 3428 
Q 1925 3584 2291 3584 
Q 2894 3584 3203 3211 
Q 3513 2838 3513 2113 
z
" transform="scale(0.015625)"/>
      <path id="DejaVuSans-27" d="M 1147 4666 
L 1147 2931 
L 616 2931 
L 616 4666 
L 1147 4666 
z
" transform="scale(0.015625)"/>
      <path id="DejaVuSans-41" d="M 2188 4044 
L 1331 1722 
L 3047 1722 
L 2188 4044 
z
M 1831 4666 
L 2547 4666 
L 4325 0 
L 3669 0 
L 3244 1197 
L 1141 1197 
L 716 0 
L 50 0 
L 1831 4666 
z
" transform="scale(0.015625)"/>
      <path id="DejaVuSans-6d" d="M 3328 2828 
Q 3544 3216 3844 3400 
Q 4144 3584 4550 3584 
Q 5097 3584 5394 3201 
Q 5691 2819 5691 2113 
L 5691 0 
L 5113 0 
L 5113 2094 
Q 5113 2597 4934 2840 
Q 4756 3084 4391 3084 
Q 3944 3084 3684 2787 
Q 3425 2491 3425 1978 
L 3425 0 
L 2847 0 
L 2847 2094 
Q 2847 2600 2669 2842 
Q 2491 3084 2119 3084 
Q 1678 3084 1418 2786 
Q 1159 2488 1159 1978 
L 1159 0 
L 581 0 
L 581 3500 
L 1159 3500 
L 1159 2956 
Q 1356 3278 1631 3431 
Q 1906 3584 2284 3584 
Q 2666 3584 2933 3390 
Q 3200 3197 3328 2828 
z
" transform="scale(0.015625)"/>
      <path id="DejaVuSans-29" d="M 513 4856 
L 1013 4856 
Q 1481 4119 1714 3412 
Q 1947 2706 1947 2009 
Q 1947 1309 1714 600 
Q 1481 -109 1013 -844 
L 513 -844 
Q 928 -128 1133 580 
Q 1338 1288 1338 2009 
Q 1338 2731 1133 3434 
Q 928 4138 513 4856 
z
" transform="scale(0.015625)"/>
     </defs>
     <use xlink:href="#DejaVuSans-43"/>
     <use xlink:href="#DejaVuSans-6f" transform="translate(69.824219 0)"/>
     <use xlink:href="#DejaVuSans-75" transform="translate(131.005859 0)"/>
     <use xlink:href="#DejaVuSans-72" transform="translate(194.384766 0)"/>
     <use xlink:href="#DejaVuSans-73" transform="translate(235.498047 0)"/>
     <use xlink:href="#DejaVuSans-65" transform="translate(287.597656 0)"/>
     <use xlink:href="#DejaVuSans-20" transform="translate(349.121094 0)"/>
     <use xlink:href="#DejaVuSans-53" transform="translate(380.908203 0)"/>
     <use xlink:href="#DejaVuSans-63" transform="translate(444.384766 0)"/>
     <use xlink:href="#DejaVuSans-68" transform="translate(499.365234 0)"/>
     <use xlink:href="#DejaVuSans-65" transform="translate(562.744141 0)"/>
     <use xlink:href="#DejaVuSans-64" transform="translate(624.267578 0)"/>
     <use xlink:href="#DejaVuSans-75" transform="translate(687.744141 0)"/>
     <use xlink:href="#DejaVuSans-6c" transform="translate(751.123047 0)"/>
     <use xlink:href="#DejaVuSans-65" transform="translate(778.90625 0)"/>
     <use xlink:href="#DejaVuSans-20" transform="translate(840.429688 0)"/>
     <use xlink:href="#DejaVuSans-2014" transform="translate(872.216797 0)"/>
     <use xlink:href="#DejaVuSans-20" transform="translate(972.216797 0)"/>
     <use xlink:href="#DejaVuSans-54" transform="translate(1004.003906 0)"/>
     <use xlink:href="#DejaVuSans-6f" transform="translate(1048.087891 0)"/>
     <use xlink:href="#DejaVuSans-70" transform="translate(1109.269531 0)"/>
     <use xlink:href="#DejaVuSans-6f" transform="translate(1172.746094 0)"/>
     <use xlink:href="#DejaVuSans-6c" transform="translate(1233.927734 0)"/>
     <use xlink:href="#DejaVuSans-6f" transform="translate(1261.710938 0)"/>
     <use xlink:href="#DejaVuSans-67" transform="translate(1322.892578 0)"/>
     <use xlink:href="#DejaVuSans-69" transform="translate(1386.369141 0)"/>
     <use xlink:href="#DejaVuSans-63" transform="translate(1414.152344 0)"/>
     <use xlink:href="#DejaVuSans-61" transform="translate(1469.132812 0)"/>
     <use xlink:href="#DejaVuSans-6c" transform="translate(1530.412109 0)"/>
     <use xlink:href="#DejaVuSans-20" transform="translate(1558.195312 0)"/>
     <use xlink:href="#DejaVuSans-53" transform="translate(1589.982422 0)"/>
     <use xlink:href="#DejaVuSans-6f" transform="translate(1653.458984 0)"/>
     <use xlink:href="#DejaVuSans-72" transform="translate(1714.640625 0)"/>
     <use xlink:href="#DejaVuSans-74" transform="translate(1755.753906 0)"/>
     <use xlink:href="#DejaVuSans-20" transform="translate(1794.962891 0)"/>
     <use xlink:href="#DejaVuSans-28" transform="translate(1826.75 0)"/>
     <use xlink:href="#DejaVuSans-4b" transform="translate(1865.763672 0)"/>
     <use xlink:href="#DejaVuSans-61" transform="translate(1929.589844 0)"/>
     <use xlink:href="#DejaVuSans-68" transform="translate(1990.869141 0)"/>
     <use xlink:href="#DejaVuSans-6e" transform="translate(2054.248047 0)"/>
     <use xlink:href="#DejaVuSans-27" transform="translate(2117.626953 0)"/>
     <use xlink:href="#DejaVuSans-73" transform="translate(2145.117188 0)"/>
     <use xlink:href="#DejaVuSans-20" transform="translate(2197.216797 0)"/>
     <use xlink:href="#DejaVuSans-41" transform="translate(2229.003906 0)"/>
     <use xlink:href="#DejaVuSans-6c" transform="translate(2297.412109 0)"/>
     <use xlink:href="#DejaVuSans-67" transform="translate(2325.195312 0)"/>
     <use xlink:href="#DejaVuSans-6f" transform="translate(2388.671875 0)"/>
     <use xlink:href="#DejaVuSans-72" transform="translate(2449.853516 0)"/>
     <use xlink:href="#DejaVuSans-69" transform="translate(2490.966797 0)"/>
     <use xlink:href="#DejaVuSans-74" transform="translate(2518.75 0)"/>
     <use xlink:href="#DejaVuSans-68" transform="translate(2557.958984 0)"/>
     <use xlink:href="#DejaVuSans-6d" transform="translate(2621.337891 0)"/>
     <use xlink:href="#DejaVuSans-29" transform="translate(2718.75 0)"/>
    </g>
   </g>
   <g id="text_4">
    <!-- 0 -->
    <g transform="translate(77.077422 151.447812) scale(0.13 -0.13)">
     <defs>
      <path id="DejaVuSans-Bold-30" d="M 2944 2338 
Q 2944 3213 2780 3570 
Q 2616 3928 2228 3928 
Q 1841 3928 1675 3570 
Q 1509 3213 1509 2338 
Q 1509 1453 1675 1090 
Q 1841 728 2228 728 
Q 2613 728 2778 1090 
Q 2944 1453 2944 2338 
z
M 4147 2328 
Q 4147 1169 3647 539 
Q 3147 -91 2228 -91 
Q 1306 -91 806 539 
Q 306 1169 306 2328 
Q 306 3491 806 4120 
Q 1306 4750 2228 4750 
Q 3147 4750 3647 4120 
Q 4147 3491 4147 2328 
z
" transform="scale(0.015625)"/>
     </defs>
     <use xlink:href="#DejaVuSans-Bold-30"/>
    </g>
   </g>
   <g id="text_5">
    <!-- 1 -->
    <g transform="translate(225.877422 99.472813) scale(0.13 -0.13)">
     <defs>
      <path id="DejaVuSans-Bold-31" d="M 750 831 
L 1813 831 
L 1813 3847 
L 722 3622 
L 722 4441 
L 1806 4666 
L 2950 4666 
L 2950 831 
L 4013 831 
L 4013 0 
L 750 0 
L 750 831 
z
" transform="scale(0.015625)"/>
     </defs>
     <use xlink:href="#DejaVuSans-Bold-31"/>
    </g>
   </g>
   <g id="text_6">
    <!-- 2 -->
    <g transform="translate(225.877422 203.422813) scale(0.13 -0.13)">
     <defs>
      <path id="DejaVuSans-Bold-32" d="M 1844 884 
L 3897 884 
L 3897 0 
L 506 0 
L 506 884 
L 2209 2388 
Q 2438 2594 2547 2791 
Q 2656 2988 2656 3200 
Q 2656 3528 2436 3728 
Q 2216 3928 1850 3928 
Q 1569 3928 1234 3808 
Q 900 3688 519 3450 
L 519 4475 
Q 925 4609 1322 4679 
Q 1719 4750 2100 4750 
Q 2938 4750 3402 4381 
Q 3866 4013 3866 3353 
Q 3866 2972 3669 2642 
Q 3472 2313 2841 1759 
L 1844 884 
z
" transform="scale(0.015625)"/>
     </defs>
     <use xlink:href="#DejaVuSans-Bold-32"/>
    </g>
   </g>
   <g id="text_7">
    <!-- 3 -->
    <g transform="translate(374.677422 151.447812) scale(0.13 -0.13)">
     <defs>
      <path id="DejaVuSans-Bold-33" d="M 2981 2516 
Q 3453 2394 3698 2092 
Q 3944 1791 3944 1325 
Q 3944 631 3412 270 
Q 2881 -91 1863 -91 
Q 1503 -91 1142 -33 
Q 781 25 428 141 
L 428 1069 
Q 766 900 1098 814 
Q 1431 728 1753 728 
Q 2231 728 2486 893 
Q 2741 1059 2741 1369 
Q 2741 1688 2480 1852 
Q 2219 2016 1709 2016 
L 1228 2016 
L 1228 2791 
L 1734 2791 
Q 2188 2791 2409 2933 
Q 2631 3075 2631 3366 
Q 2631 3634 2415 3781 
Q 2200 3928 1806 3928 
Q 1516 3928 1219 3862 
Q 922 3797 628 3669 
L 628 4550 
Q 984 4650 1334 4700 
Q 1684 4750 2022 4750 
Q 2931 4750 3382 4451 
Q 3834 4153 3834 3553 
Q 3834 3144 3618 2883 
Q 3403 2622 2981 2516 
z
" transform="scale(0.015625)"/>
     </defs>
     <use xlink:href="#DejaVuSans-Bold-33"/>
    </g>
   </g>
  </g>
 </g>
 <defs>
  <clipPath id="p0dcb79feb8">
   <rect x="7.2" y="28.318125" width="446.4" height="249.48"/>
  </clipPath>
 </defs>
</svg>
