<?xml version="1.0" encoding="utf-8" standalone="no"?>
<!DOCTYPE svg PUBLIC "-//W3C//DTD SVG 1.1//EN"
  "http://www.w3.org/Graphics/SVG/1.1/DTD/svg11.dtd">
<svg xmlns:xlink="http://www.w3.org/1999/xlink" width="516.6pt" height="268.366125pt" viewBox="0 0 516.6 268.366125" xmlns="http://www.w3.org/2000/svg" version="1.1">
 <metadata>
  <rdf:RDF xmlns:dc="http://purl.org/dc/elements/1.1/" xmlns:cc="http://creativecommons.org/ns#" xmlns:rdf="http://www.w3.org/1999/02/22-rdf-syntax-ns#">
   <cc:Work>
    <dc:type rdf:resource="http://purl.org/dc/dcmitype/StillImage"/>
    <dc:date>2026-07-04T08:30:03.818300</dc:date>
    <dc:format>image/svg+xml</dc:format>
    <dc:creator>
     <cc:Agent>
      <dc:title>Matplotlib v3.10.8, https://matplotlib.org/</dc:title>
     </cc:Agent>
    </dc:creator>
   </cc:Work>
  </rdf:RDF>
 </metadata>
 <defs>
  <style type="text/css">*{stroke-linejoin: round; stroke-linecap: butt}</style>
 </defs>
 <g id="figure_1">
  <g id="patch_1">
   <path d="M 0 268.366125 
L 516.6 268.366125 
L 516.6 0 
L 0 0 
z
" style="fill: #fafaf9"/>
  </g>
  <g id="axes_1">
   <g id="patch_2">
    <path d="M 20.076923 67.965217 
L 90.9 67.965217 
Q 92.831538 67.965217 92.831538 66.07726 
L 92.831538 39.645866 
Q 92.831538 37.757909 90.9 37.757909 
L 20.076923 37.757909 
Q 18.145385 37.757909 18.145385 39.645866 
L 18.145385 66.07726 
Q 18.145385 67.965217 20.076923 67.965217 
z
" clip-path="url(#p584585287d)" style="fill: #f4f4f4; stroke: #999999; stroke-linejoin: miter"/>
   </g>
   <g id="patch_3">
    <path d="M 148.846154 67.965217 
L 219.669231 67.965217 
Q 221.600769 67.965217 221.600769 66.07726 
L 221.600769 39.645866 
Q 221.600769 37.757909 219.669231 37.757909 
L 148.846154 37.757909 
Q 146.914615 37.757909 146.914615 39.645866 
L 146.914615 66.07726 
Q 146.914615 67.965217 148.846154 67.965217 
z
" clip-path="url(#p584585287d)" style="fill: #d6eaf8; stroke: #999999; stroke-linejoin: miter"/>
   </g>
   <g id="patch_4">
    <path d="M 20.076923 102.577757 
L 90.9 102.577757 
Q 92.831538 102.577757 92.831538 100.689801 
L 92.831538 74.258406 
Q 92.831538 72.370449 90.9 72.370449 
L 20.076923 72.370449 
Q 18.145385 72.370449 18.145385 74.258406 
L 18.145385 100.689801 
Q 18.145385 102.577757 20.076923 102.577757 
z
" clip-path="url(#p584585287d)" style="fill: #f4f4f4; stroke: #999999; stroke-linejoin: miter"/>
   </g>
   <g id="patch_5">
    <path d="M 148.846154 102.577757 
L 219.669231 102.577757 
Q 221.600769 102.577757 221.600769 100.689801 
L 221.600769 74.258406 
Q 221.600769 72.370449 219.669231 72.370449 
L 148.846154 72.370449 
Q 146.914615 72.370449 146.914615 74.258406 
L 146.914615 100.689801 
Q 146.914615 102.577757 148.846154 102.577757 
z
" clip-path="url(#p584585287d)" style="fill: #d6eaf8; stroke: #999999; stroke-linejoin: miter"/>
   </g>
   <g id="patch_6">
    <path d="M 20.076923 137.190298 
L 90.9 137.190298 
Q 92.831538 137.190298 92.831538 135.302341 
L 92.831538 108.870947 
Q 92.831538 106.98299 90.9 106.98299 
L 20.076923 106.98299 
Q 18.145385 106.98299 18.145385 108.870947 
L 18.145385 135.302341 
Q 18.145385 137.190298 20.076923 137.190298 
z
" clip-path="url(#p584585287d)" style="fill: #f4f4f4; stroke: #999999; stroke-linejoin: miter"/>
   </g>
   <g id="patch_7">
    <path d="M 148.846154 137.190298 
L 219.669231 137.190298 
Q 221.600769 137.190298 221.600769 135.302341 
L 221.600769 108.870947 
Q 221.600769 106.98299 219.669231 106.98299 
L 148.846154 106.98299 
Q 146.914615 106.98299 146.914615 108.870947 
L 146.914615 135.302341 
Q 146.914615 137.190298 148.846154 137.190298 
z
" clip-path="url(#p584585287d)" style="fill: #fadbd8; stroke: #999999; stroke-linejoin: miter"/>
   </g>
   <g id="patch_8">
    <path d="M 20.076923 171.802839 
L 90.9 171.802839 
Q 92.831538 171.802839 92.831538 169.914882 
L 92.831538 143.483487 
Q 92.831538 141.59553 90.9 141.59553 
L 20.076923 141.59553 
Q 18.145385 141.59553 18.145385 143.483487 
L 18.145385 169.914882 
Q 18.145385 171.802839 20.076923 171.802839 
z
" clip-path="url(#p584585287d)" style="fill: #f4f4f4; stroke: #999999; stroke-linejoin: miter"/>
   </g>
   <g id="patch_9">
    <path d="M 148.846154 171.802839 
L 219.669231 171.802839 
Q 221.600769 171.802839 221.600769 169.914882 
L 221.600769 143.483487 
Q 221.600769 141.59553 219.669231 141.59553 
L 148.846154 141.59553 
Q 146.914615 141.59553 146.914615 143.483487 
L 146.914615 169.914882 
Q 146.914615 171.802839 148.846154 171.802839 
z
" clip-path="url(#p584585287d)" style="fill: #d6eaf8; stroke: #999999; stroke-linejoin: miter"/>
   </g>
   <g id="patch_10">
    <path d="M 20.076923 206.415379 
L 90.9 206.415379 
Q 92.831538 206.415379 92.831538 204.527422 
L 92.831538 178.096028 
Q 92.831538 176.208071 90.9 176.208071 
L 20.076923 176.208071 
Q 18.145385 176.208071 18.145385 178.096028 
L 18.145385 204.527422 
Q 18.145385 206.415379 20.076923 206.415379 
z
" clip-path="url(#p584585287d)" style="fill: #f4f4f4; stroke: #999999; stroke-linejoin: miter"/>
   </g>
   <g id="patch_11">
    <path d="M 148.846154 206.415379 
L 219.669231 206.415379 
Q 221.600769 206.415379 221.600769 204.527422 
L 221.600769 178.096028 
Q 221.600769 176.208071 219.669231 176.208071 
L 148.846154 176.208071 
Q 146.914615 176.208071 146.914615 178.096028 
L 146.914615 204.527422 
Q 146.914615 206.415379 148.846154 206.415379 
z
" clip-path="url(#p584585287d)" style="fill: #fadbd8; stroke: #999999; stroke-linejoin: miter"/>
   </g>
   <g id="patch_12">
    <path d="M 20.076923 241.02792 
L 90.9 241.02792 
Q 92.831538 241.02792 92.831538 239.139963 
L 92.831538 212.708568 
Q 92.831538 210.820611 90.9 210.820611 
L 20.076923 210.820611 
Q 18.145385 210.820611 18.145385 212.708568 
L 18.145385 239.139963 
Q 18.145385 241.02792 20.076923 241.02792 
z
" clip-path="url(#p584585287d)" style="fill: #f4f4f4; stroke: #999999; stroke-linejoin: miter"/>
   </g>
   <g id="patch_13">
    <path d="M 148.846154 241.02792 
L 219.669231 241.02792 
Q 221.600769 241.02792 221.600769 239.139963 
L 221.600769 212.708568 
Q 221.600769 210.820611 219.669231 210.820611 
L 148.846154 210.820611 
Q 146.914615 210.820611 146.914615 212.708568 
L 146.914615 239.139963 
Q 146.914615 241.02792 148.846154 241.02792 
z
" clip-path="url(#p584585287d)" style="fill: #fff3cd; stroke: #999999; stroke-linejoin: miter"/>
   </g>
   <g id="patch_14">
    <path d="M 309.807692 100.689801 
L 490.084615 100.689801 
Q 493.303846 100.689801 493.303846 97.543206 
L 493.303846 53.490882 
Q 493.303846 50.344287 490.084615 50.344287 
L 309.807692 50.344287 
Q 306.588462 50.344287 306.588462 53.490882 
L 306.588462 97.543206 
Q 306.588462 100.689801 309.807692 100.689801 
z
" clip-path="url(#p584585287d)" style="fill: #d6eaf8; stroke: #666666; stroke-width: 1.3; stroke-linejoin: miter"/>
   </g>
   <g id="patch_15">
    <path d="M 309.807692 163.621693 
L 490.084615 163.621693 
Q 493.303846 163.621693 493.303846 160.475098 
L 493.303846 116.422774 
Q 493.303846 113.276179 490.084615 113.276179 
L 309.807692 113.276179 
Q 306.588462 113.276179 306.588462 116.422774 
L 306.588462 160.475098 
Q 306.588462 163.621693 309.807692 163.621693 
z
" clip-path="url(#p584585287d)" style="fill: #fadbd8; stroke: #666666; stroke-width: 1.3; stroke-linejoin: miter"/>
   </g>
   <g id="patch_16">
    <path d="M 309.807692 226.553584 
L 490.084615 226.553584 
Q 493.303846 226.553584 493.303846 223.40699 
L 493.303846 179.354666 
Q 493.303846 176.208071 490.084615 176.208071 
L 309.807692 176.208071 
Q 306.588462 176.208071 306.588462 179.354666 
L 306.588462 223.40699 
Q 306.588462 226.553584 309.807692 226.553584 
z
" clip-path="url(#p584585287d)" style="fill: #fff3cd; stroke: #666666; stroke-width: 1.3; stroke-linejoin: miter"/>
   </g>
   <g id="text_1">
    <!-- eat -->
    <g transform="translate(46.332993 55.620938) scale(0.1 -0.1)">
     <defs>
      <path id="DejaVuSans-Bold-65" d="M 4031 1759 
L 4031 1441 
L 1416 1441 
Q 1456 1047 1700 850 
Q 1944 653 2381 653 
Q 2734 653 3104 758 
Q 3475 863 3866 1075 
L 3866 213 
Q 3469 63 3072 -14 
Q 2675 -91 2278 -91 
Q 1328 -91 801 392 
Q 275 875 275 1747 
Q 275 2603 792 3093 
Q 1309 3584 2216 3584 
Q 3041 3584 3536 3087 
Q 4031 2591 4031 1759 
z
M 2881 2131 
Q 2881 2450 2695 2645 
Q 2509 2841 2209 2841 
Q 1884 2841 1681 2658 
Q 1478 2475 1428 2131 
L 2881 2131 
z
" transform="scale(0.015625)"/>
      <path id="DejaVuSans-Bold-61" d="M 2106 1575 
Q 1756 1575 1579 1456 
Q 1403 1338 1403 1106 
Q 1403 894 1545 773 
Q 1688 653 1941 653 
Q 2256 653 2472 879 
Q 2688 1106 2688 1447 
L 2688 1575 
L 2106 1575 
z
M 3816 1997 
L 3816 0 
L 2688 0 
L 2688 519 
Q 2463 200 2181 54 
Q 1900 -91 1497 -91 
Q 953 -91 614 226 
Q 275 544 275 1050 
Q 275 1666 698 1953 
Q 1122 2241 2028 2241 
L 2688 2241 
L 2688 2328 
Q 2688 2594 2478 2717 
Q 2269 2841 1825 2841 
Q 1466 2841 1156 2769 
Q 847 2697 581 2553 
L 581 3406 
Q 941 3494 1303 3539 
Q 1666 3584 2028 3584 
Q 2975 3584 3395 3211 
Q 3816 2838 3816 1997 
z
" transform="scale(0.015625)"/>
      <path id="DejaVuSans-Bold-74" d="M 1759 4494 
L 1759 3500 
L 2913 3500 
L 2913 2700 
L 1759 2700 
L 1759 1216 
Q 1759 972 1856 886 
Q 1953 800 2241 800 
L 2816 800 
L 2816 0 
L 1856 0 
Q 1194 0 917 276 
Q 641 553 641 1216 
L 641 2700 
L 84 2700 
L 84 3500 
L 641 3500 
L 641 4494 
L 1759 4494 
z
" transform="scale(0.015625)"/>
     </defs>
     <use xlink:href="#DejaVuSans-Bold-65"/>
     <use xlink:href="#DejaVuSans-Bold-61" transform="translate(67.822266 0)"/>
     <use xlink:href="#DejaVuSans-Bold-74" transform="translate(135.302734 0)"/>
    </g>
   </g>
   <g id="patch_17">
    <path d="M 99.338299 52.861563 
Q 119.872757 52.861563 139.289182 52.861563 
" style="fill: none; stroke: #999999; stroke-linecap: round"/>
    <path d="M 135.289182 50.861563 
L 139.289182 52.861563 
L 135.289182 54.861563 
" style="fill: none; stroke: #999999; stroke-linecap: round"/>
   </g>
   <g id="text_2">
    <!-- aet -->
    <g transform="translate(176.13027 55.368907) scale(0.09 -0.09)">
     <defs>
      <path id="DejaVuSansMono-61" d="M 2194 1759 
L 2003 1759 
Q 1500 1759 1245 1582 
Q 991 1406 991 1056 
Q 991 741 1181 566 
Q 1372 391 1709 391 
Q 2184 391 2456 720 
Q 2728 1050 2731 1631 
L 2731 1759 
L 2194 1759 
z
M 3309 1997 
L 3309 0 
L 2731 0 
L 2731 519 
Q 2547 206 2267 57 
Q 1988 -91 1588 -91 
Q 1053 -91 734 211 
Q 416 513 416 1019 
Q 416 1603 808 1906 
Q 1200 2209 1959 2209 
L 2731 2209 
L 2731 2300 
Q 2728 2719 2518 2908 
Q 2309 3097 1850 3097 
Q 1556 3097 1256 3012 
Q 956 2928 672 2766 
L 672 3341 
Q 991 3463 1283 3523 
Q 1575 3584 1850 3584 
Q 2284 3584 2592 3456 
Q 2900 3328 3091 3072 
Q 3209 2916 3259 2686 
Q 3309 2456 3309 1997 
z
" transform="scale(0.015625)"/>
      <path id="DejaVuSansMono-65" d="M 3475 1894 
L 3475 1613 
L 984 1613 
L 984 1594 
Q 984 1022 1282 709 
Q 1581 397 2125 397 
Q 2400 397 2700 484 
Q 3000 572 3341 750 
L 3341 178 
Q 3013 44 2708 -23 
Q 2403 -91 2119 -91 
Q 1303 -91 843 398 
Q 384 888 384 1747 
Q 384 2584 834 3084 
Q 1284 3584 2034 3584 
Q 2703 3584 3089 3131 
Q 3475 2678 3475 1894 
z
M 2900 2063 
Q 2888 2569 2661 2833 
Q 2434 3097 2009 3097 
Q 1594 3097 1325 2822 
Q 1056 2547 1006 2059 
L 2900 2063 
z
" transform="scale(0.015625)"/>
      <path id="DejaVuSansMono-74" d="M 1919 4494 
L 1919 3500 
L 3225 3500 
L 3225 3053 
L 1919 3053 
L 1919 1153 
Q 1919 766 2066 612 
Q 2213 459 2578 459 
L 3225 459 
L 3225 0 
L 2522 0 
Q 1875 0 1609 259 
Q 1344 519 1344 1153 
L 1344 3053 
L 409 3053 
L 409 3500 
L 1344 3500 
L 1344 4494 
L 1919 4494 
z
" transform="scale(0.015625)"/>
     </defs>
     <use xlink:href="#DejaVuSansMono-61"/>
     <use xlink:href="#DejaVuSansMono-65" transform="translate(60.205078 0)"/>
     <use xlink:href="#DejaVuSansMono-74" transform="translate(120.410156 0)"/>
    </g>
   </g>
   <g id="text_3">
    <!-- tea -->
    <g transform="translate(46.332993 90.233478) scale(0.1 -0.1)">
     <use xlink:href="#DejaVuSans-Bold-74"/>
     <use xlink:href="#DejaVuSans-Bold-65" transform="translate(47.802734 0)"/>
     <use xlink:href="#DejaVuSans-Bold-61" transform="translate(115.625 0)"/>
    </g>
   </g>
   <g id="patch_18">
    <path d="M 99.338299 87.474103 
Q 119.872757 87.474103 139.289182 87.474103 
" style="fill: none; stroke: #999999; stroke-linecap: round"/>
    <path d="M 135.289182 85.474103 
L 139.289182 87.474103 
L 135.289182 89.474103 
" style="fill: none; stroke: #999999; stroke-linecap: round"/>
   </g>
   <g id="text_4">
    <!-- aet -->
    <g transform="translate(176.13027 89.981447) scale(0.09 -0.09)">
     <use xlink:href="#DejaVuSansMono-61"/>
     <use xlink:href="#DejaVuSansMono-65" transform="translate(60.205078 0)"/>
     <use xlink:href="#DejaVuSansMono-74" transform="translate(120.410156 0)"/>
    </g>
   </g>
   <g id="text_5">
    <!-- tan -->
    <g transform="translate(46.165024 124.846019) scale(0.1 -0.1)">
     <defs>
      <path id="DejaVuSans-Bold-6e" d="M 4056 2131 
L 4056 0 
L 2931 0 
L 2931 347 
L 2931 1631 
Q 2931 2084 2911 2256 
Q 2891 2428 2841 2509 
Q 2775 2619 2662 2680 
Q 2550 2741 2406 2741 
Q 2056 2741 1856 2470 
Q 1656 2200 1656 1722 
L 1656 0 
L 538 0 
L 538 3500 
L 1656 3500 
L 1656 2988 
Q 1909 3294 2193 3439 
Q 2478 3584 2822 3584 
Q 3428 3584 3742 3212 
Q 4056 2841 4056 2131 
z
" transform="scale(0.015625)"/>
     </defs>
     <use xlink:href="#DejaVuSans-Bold-74"/>
     <use xlink:href="#DejaVuSans-Bold-61" transform="translate(47.802734 0)"/>
     <use xlink:href="#DejaVuSans-Bold-6e" transform="translate(115.283203 0)"/>
    </g>
   </g>
   <g id="patch_19">
    <path d="M 99.338299 122.086644 
Q 119.872757 122.086644 139.289182 122.086644 
" style="fill: none; stroke: #999999; stroke-linecap: round"/>
    <path d="M 135.289182 120.086644 
L 139.289182 122.086644 
L 135.289182 124.086644 
" style="fill: none; stroke: #999999; stroke-linecap: round"/>
   </g>
   <g id="text_6">
    <!-- ant -->
    <g transform="translate(176.13027 124.593988) scale(0.09 -0.09)">
     <defs>
      <path id="DejaVuSansMono-6e" d="M 3284 2169 
L 3284 0 
L 2706 0 
L 2706 2169 
Q 2706 2641 2540 2862 
Q 2375 3084 2022 3084 
Q 1619 3084 1401 2798 
Q 1184 2513 1184 1978 
L 1184 0 
L 609 0 
L 609 3500 
L 1184 3500 
L 1184 2975 
Q 1338 3275 1600 3429 
Q 1863 3584 2222 3584 
Q 2756 3584 3020 3232 
Q 3284 2881 3284 2169 
z
" transform="scale(0.015625)"/>
     </defs>
     <use xlink:href="#DejaVuSansMono-61"/>
     <use xlink:href="#DejaVuSansMono-6e" transform="translate(60.205078 0)"/>
     <use xlink:href="#DejaVuSansMono-74" transform="translate(120.410156 0)"/>
    </g>
   </g>
   <g id="text_7">
    <!-- ate -->
    <g transform="translate(46.332993 159.458559) scale(0.1 -0.1)">
     <use xlink:href="#DejaVuSans-Bold-61"/>
     <use xlink:href="#DejaVuSans-Bold-74" transform="translate(67.480469 0)"/>
     <use xlink:href="#DejaVuSans-Bold-65" transform="translate(115.283203 0)"/>
    </g>
   </g>
   <g id="patch_20">
    <path d="M 99.338299 156.699184 
Q 119.872757 156.699184 139.289182 156.699184 
" style="fill: none; stroke: #999999; stroke-linecap: round"/>
    <path d="M 135.289182 154.699184 
L 139.289182 156.699184 
L 135.289182 158.699184 
" style="fill: none; stroke: #999999; stroke-linecap: round"/>
   </g>
   <g id="text_8">
    <!-- aet -->
    <g transform="translate(176.13027 159.206528) scale(0.09 -0.09)">
     <use xlink:href="#DejaVuSansMono-61"/>
     <use xlink:href="#DejaVuSansMono-65" transform="translate(60.205078 0)"/>
     <use xlink:href="#DejaVuSansMono-74" transform="translate(120.410156 0)"/>
    </g>
   </g>
   <g id="text_9">
    <!-- nat -->
    <g transform="translate(46.165024 194.0711) scale(0.1 -0.1)">
     <use xlink:href="#DejaVuSans-Bold-6e"/>
     <use xlink:href="#DejaVuSans-Bold-61" transform="translate(71.191406 0)"/>
     <use xlink:href="#DejaVuSans-Bold-74" transform="translate(138.671875 0)"/>
    </g>
   </g>
   <g id="patch_21">
    <path d="M 99.338299 191.311725 
Q 119.872757 191.311725 139.289182 191.311725 
" style="fill: none; stroke: #999999; stroke-linecap: round"/>
    <path d="M 135.289182 189.311725 
L 139.289182 191.311725 
L 135.289182 193.311725 
" style="fill: none; stroke: #999999; stroke-linecap: round"/>
   </g>
   <g id="text_10">
    <!-- ant -->
    <g transform="translate(176.13027 193.819069) scale(0.09 -0.09)">
     <use xlink:href="#DejaVuSansMono-61"/>
     <use xlink:href="#DejaVuSansMono-6e" transform="translate(60.205078 0)"/>
     <use xlink:href="#DejaVuSansMono-74" transform="translate(120.410156 0)"/>
    </g>
   </g>
   <g id="text_11">
    <!-- bat -->
    <g transform="translate(46.145493 228.683641) scale(0.1 -0.1)">
     <defs>
      <path id="DejaVuSans-Bold-62" d="M 2400 722 
Q 2759 722 2948 984 
Q 3138 1247 3138 1747 
Q 3138 2247 2948 2509 
Q 2759 2772 2400 2772 
Q 2041 2772 1848 2508 
Q 1656 2244 1656 1747 
Q 1656 1250 1848 986 
Q 2041 722 2400 722 
z
M 1656 2988 
Q 1888 3294 2169 3439 
Q 2450 3584 2816 3584 
Q 3463 3584 3878 3070 
Q 4294 2556 4294 1747 
Q 4294 938 3878 423 
Q 3463 -91 2816 -91 
Q 2450 -91 2169 54 
Q 1888 200 1656 506 
L 1656 0 
L 538 0 
L 538 4863 
L 1656 4863 
L 1656 2988 
z
" transform="scale(0.015625)"/>
     </defs>
     <use xlink:href="#DejaVuSans-Bold-62"/>
     <use xlink:href="#DejaVuSans-Bold-61" transform="translate(71.582031 0)"/>
     <use xlink:href="#DejaVuSans-Bold-74" transform="translate(139.0625 0)"/>
    </g>
   </g>
   <g id="patch_22">
    <path d="M 99.338299 225.924266 
Q 119.872757 225.924266 139.289182 225.924266 
" style="fill: none; stroke: #999999; stroke-linecap: round"/>
    <path d="M 135.289182 223.924266 
L 139.289182 225.924266 
L 135.289182 227.924266 
" style="fill: none; stroke: #999999; stroke-linecap: round"/>
   </g>
   <g id="text_12">
    <!-- abt -->
    <g transform="translate(176.13027 228.431609) scale(0.09 -0.09)">
     <defs>
      <path id="DejaVuSansMono-62" d="M 2869 1747 
Q 2869 2416 2656 2756 
Q 2444 3097 2028 3097 
Q 1609 3097 1393 2755 
Q 1178 2413 1178 1747 
Q 1178 1084 1393 740 
Q 1609 397 2028 397 
Q 2444 397 2656 737 
Q 2869 1078 2869 1747 
z
M 1178 3053 
Q 1316 3309 1558 3446 
Q 1800 3584 2119 3584 
Q 2750 3584 3112 3098 
Q 3475 2613 3475 1759 
Q 3475 894 3111 401 
Q 2747 -91 2113 -91 
Q 1800 -91 1561 45 
Q 1322 181 1178 441 
L 1178 0 
L 603 0 
L 603 4863 
L 1178 4863 
L 1178 3053 
z
" transform="scale(0.015625)"/>
     </defs>
     <use xlink:href="#DejaVuSansMono-61"/>
     <use xlink:href="#DejaVuSansMono-62" transform="translate(60.205078 0)"/>
     <use xlink:href="#DejaVuSansMono-74" transform="translate(120.410156 0)"/>
    </g>
   </g>
   <g id="text_13">
    <!-- key="aet"  -&gt;  ['eat', 'tea', 'ate'] -->
    <g transform="translate(323.189865 78.13845) scale(0.095 -0.095)">
     <defs>
      <path id="DejaVuSans-6b" d="M 581 4863 
L 1159 4863 
L 1159 1991 
L 2875 3500 
L 3609 3500 
L 1753 1863 
L 3688 0 
L 2938 0 
L 1159 1709 
L 1159 0 
L 581 0 
L 581 4863 
z
" transform="scale(0.015625)"/>
      <path id="DejaVuSans-65" d="M 3597 1894 
L 3597 1613 
L 953 1613 
Q 991 1019 1311 708 
Q 1631 397 2203 397 
Q 2534 397 2845 478 
Q 3156 559 3463 722 
L 3463 178 
Q 3153 47 2828 -22 
Q 2503 -91 2169 -91 
Q 1331 -91 842 396 
Q 353 884 353 1716 
Q 353 2575 817 3079 
Q 1281 3584 2069 3584 
Q 2775 3584 3186 3129 
Q 3597 2675 3597 1894 
z
M 3022 2063 
Q 3016 2534 2758 2815 
Q 2500 3097 2075 3097 
Q 1594 3097 1305 2825 
Q 1016 2553 972 2059 
L 3022 2063 
z
" transform="scale(0.015625)"/>
      <path id="DejaVuSans-79" d="M 2059 -325 
Q 1816 -950 1584 -1140 
Q 1353 -1331 966 -1331 
L 506 -1331 
L 506 -850 
L 844 -850 
Q 1081 -850 1212 -737 
Q 1344 -625 1503 -206 
L 1606 56 
L 191 3500 
L 800 3500 
L 1894 763 
L 2988 3500 
L 3597 3500 
L 2059 -325 
z
" transform="scale(0.015625)"/>
      <path id="DejaVuSans-3d" d="M 678 2906 
L 4684 2906 
L 4684 2381 
L 678 2381 
L 678 2906 
z
M 678 1631 
L 4684 1631 
L 4684 1100 
L 678 1100 
L 678 1631 
z
" transform="scale(0.015625)"/>
      <path id="DejaVuSans-22" d="M 1147 4666 
L 1147 2931 
L 616 2931 
L 616 4666 
L 1147 4666 
z
M 2328 4666 
L 2328 2931 
L 1797 2931 
L 1797 4666 
L 2328 4666 
z
" transform="scale(0.015625)"/>
      <path id="DejaVuSans-61" d="M 2194 1759 
Q 1497 1759 1228 1600 
Q 959 1441 959 1056 
Q 959 750 1161 570 
Q 1363 391 1709 391 
Q 2188 391 2477 730 
Q 2766 1069 2766 1631 
L 2766 1759 
L 2194 1759 
z
M 3341 1997 
L 3341 0 
L 2766 0 
L 2766 531 
Q 2569 213 2275 61 
Q 1981 -91 1556 -91 
Q 1019 -91 701 211 
Q 384 513 384 1019 
Q 384 1609 779 1909 
Q 1175 2209 1959 2209 
L 2766 2209 
L 2766 2266 
Q 2766 2663 2505 2880 
Q 2244 3097 1772 3097 
Q 1472 3097 1187 3025 
Q 903 2953 641 2809 
L 641 3341 
Q 956 3463 1253 3523 
Q 1550 3584 1831 3584 
Q 2591 3584 2966 3190 
Q 3341 2797 3341 1997 
z
" transform="scale(0.015625)"/>
      <path id="DejaVuSans-74" d="M 1172 4494 
L 1172 3500 
L 2356 3500 
L 2356 3053 
L 1172 3053 
L 1172 1153 
Q 1172 725 1289 603 
Q 1406 481 1766 481 
L 2356 481 
L 2356 0 
L 1766 0 
Q 1100 0 847 248 
Q 594 497 594 1153 
L 594 3053 
L 172 3053 
L 172 3500 
L 594 3500 
L 594 4494 
L 1172 4494 
z
" transform="scale(0.015625)"/>
      <path id="DejaVuSans-20" transform="scale(0.015625)"/>
      <path id="DejaVuSans-2d" d="M 313 2009 
L 1997 2009 
L 1997 1497 
L 313 1497 
L 313 2009 
z
" transform="scale(0.015625)"/>
      <path id="DejaVuSans-3e" d="M 678 3150 
L 678 3719 
L 4684 2266 
L 4684 1747 
L 678 294 
L 678 863 
L 3897 2003 
L 678 3150 
z
" transform="scale(0.015625)"/>
      <path id="DejaVuSans-5b" d="M 550 4863 
L 1875 4863 
L 1875 4416 
L 1125 4416 
L 1125 -397 
L 1875 -397 
L 1875 -844 
L 550 -844 
L 550 4863 
z
" transform="scale(0.015625)"/>
      <path id="DejaVuSans-27" d="M 1147 4666 
L 1147 2931 
L 616 2931 
L 616 4666 
L 1147 4666 
z
" transform="scale(0.015625)"/>
      <path id="DejaVuSans-2c" d="M 750 794 
L 1409 794 
L 1409 256 
L 897 -744 
L 494 -744 
L 750 256 
L 750 794 
z
" transform="scale(0.015625)"/>
      <path id="DejaVuSans-5d" d="M 1947 4863 
L 1947 -844 
L 622 -844 
L 622 -397 
L 1369 -397 
L 1369 4416 
L 622 4416 
L 622 4863 
L 1947 4863 
z
" transform="scale(0.015625)"/>
     </defs>
     <use xlink:href="#DejaVuSans-6b"/>
     <use xlink:href="#DejaVuSans-65" transform="translate(54.285156 0)"/>
     <use xlink:href="#DejaVuSans-79" transform="translate(115.808594 0)"/>
     <use xlink:href="#DejaVuSans-3d" transform="translate(174.988281 0)"/>
     <use xlink:href="#DejaVuSans-22" transform="translate(258.777344 0)"/>
     <use xlink:href="#DejaVuSans-61" transform="translate(304.773438 0)"/>
     <use xlink:href="#DejaVuSans-65" transform="translate(366.052734 0)"/>
     <use xlink:href="#DejaVuSans-74" transform="translate(427.576172 0)"/>
     <use xlink:href="#DejaVuSans-22" transform="translate(466.785156 0)"/>
     <use xlink:href="#DejaVuSans-20" transform="translate(512.78125 0)"/>
     <use xlink:href="#DejaVuSans-20" transform="translate(544.568359 0)"/>
     <use xlink:href="#DejaVuSans-2d" transform="translate(576.355469 0)"/>
     <use xlink:href="#DejaVuSans-3e" transform="translate(612.439453 0)"/>
     <use xlink:href="#DejaVuSans-20" transform="translate(696.228516 0)"/>
     <use xlink:href="#DejaVuSans-20" transform="translate(728.015625 0)"/>
     <use xlink:href="#DejaVuSans-5b" transform="translate(759.802734 0)"/>
     <use xlink:href="#DejaVuSans-27" transform="translate(798.816406 0)"/>
     <use xlink:href="#DejaVuSans-65" transform="translate(826.306641 0)"/>
     <use xlink:href="#DejaVuSans-61" transform="translate(887.830078 0)"/>
     <use xlink:href="#DejaVuSans-74" transform="translate(949.109375 0)"/>
     <use xlink:href="#DejaVuSans-27" transform="translate(988.318359 0)"/>
     <use xlink:href="#DejaVuSans-2c" transform="translate(1015.808594 0)"/>
     <use xlink:href="#DejaVuSans-20" transform="translate(1047.595703 0)"/>
     <use xlink:href="#DejaVuSans-27" transform="translate(1079.382812 0)"/>
     <use xlink:href="#DejaVuSans-74" transform="translate(1106.873047 0)"/>
     <use xlink:href="#DejaVuSans-65" transform="translate(1146.082031 0)"/>
     <use xlink:href="#DejaVuSans-61" transform="translate(1207.605469 0)"/>
     <use xlink:href="#DejaVuSans-27" transform="translate(1268.884766 0)"/>
     <use xlink:href="#DejaVuSans-2c" transform="translate(1296.375 0)"/>
     <use xlink:href="#DejaVuSans-20" transform="translate(1328.162109 0)"/>
     <use xlink:href="#DejaVuSans-27" transform="translate(1359.949219 0)"/>
     <use xlink:href="#DejaVuSans-61" transform="translate(1387.439453 0)"/>
     <use xlink:href="#DejaVuSans-74" transform="translate(1448.71875 0)"/>
     <use xlink:href="#DejaVuSans-65" transform="translate(1487.927734 0)"/>
     <use xlink:href="#DejaVuSans-27" transform="translate(1549.451172 0)"/>
     <use xlink:href="#DejaVuSans-5d" transform="translate(1576.941406 0)"/>
    </g>
   </g>
   <g id="text_14">
    <!-- key="ant"  -&gt;  ['tan', 'nat'] -->
    <g transform="translate(336.253107 141.070342) scale(0.095 -0.095)">
     <defs>
      <path id="DejaVuSans-6e" d="M 3513 2113 
L 3513 0 
L 2938 0 
L 2938 2094 
Q 2938 2591 2744 2837 
Q 2550 3084 2163 3084 
Q 1697 3084 1428 2787 
Q 1159 2491 1159 1978 
L 1159 0 
L 581 0 
L 581 3500 
L 1159 3500 
L 1159 2956 
Q 1366 3272 1645 3428 
Q 1925 3584 2291 3584 
Q 2894 3584 3203 3211 
Q 3513 2838 3513 2113 
z
" transform="scale(0.015625)"/>
     </defs>
     <use xlink:href="#DejaVuSans-6b"/>
     <use xlink:href="#DejaVuSans-65" transform="translate(54.285156 0)"/>
     <use xlink:href="#DejaVuSans-79" transform="translate(115.808594 0)"/>
     <use xlink:href="#DejaVuSans-3d" transform="translate(174.988281 0)"/>
     <use xlink:href="#DejaVuSans-22" transform="translate(258.777344 0)"/>
     <use xlink:href="#DejaVuSans-61" transform="translate(304.773438 0)"/>
     <use xlink:href="#DejaVuSans-6e" transform="translate(366.052734 0)"/>
     <use xlink:href="#DejaVuSans-74" transform="translate(429.431641 0)"/>
     <use xlink:href="#DejaVuSans-22" transform="translate(468.640625 0)"/>
     <use xlink:href="#DejaVuSans-20" transform="translate(514.636719 0)"/>
     <use xlink:href="#DejaVuSans-20" transform="translate(546.423828 0)"/>
     <use xlink:href="#DejaVuSans-2d" transform="translate(578.210938 0)"/>
     <use xlink:href="#DejaVuSans-3e" transform="translate(614.294922 0)"/>
     <use xlink:href="#DejaVuSans-20" transform="translate(698.083984 0)"/>
     <use xlink:href="#DejaVuSans-20" transform="translate(729.871094 0)"/>
     <use xlink:href="#DejaVuSans-5b" transform="translate(761.658203 0)"/>
     <use xlink:href="#DejaVuSans-27" transform="translate(800.671875 0)"/>
     <use xlink:href="#DejaVuSans-74" transform="translate(828.162109 0)"/>
     <use xlink:href="#DejaVuSans-61" transform="translate(867.371094 0)"/>
     <use xlink:href="#DejaVuSans-6e" transform="translate(928.650391 0)"/>
     <use xlink:href="#DejaVuSans-27" transform="translate(992.029297 0)"/>
     <use xlink:href="#DejaVuSans-2c" transform="translate(1019.519531 0)"/>
     <use xlink:href="#DejaVuSans-20" transform="translate(1051.306641 0)"/>
     <use xlink:href="#DejaVuSans-27" transform="translate(1083.09375 0)"/>
     <use xlink:href="#DejaVuSans-6e" transform="translate(1110.583984 0)"/>
     <use xlink:href="#DejaVuSans-61" transform="translate(1173.962891 0)"/>
     <use xlink:href="#DejaVuSans-74" transform="translate(1235.242188 0)"/>
     <use xlink:href="#DejaVuSans-27" transform="translate(1274.451172 0)"/>
     <use xlink:href="#DejaVuSans-5d" transform="translate(1301.941406 0)"/>
    </g>
   </g>
   <g id="text_15">
    <!-- key="abt"  -&gt;  ['bat'] -->
    <g transform="translate(349.656271 204.002234) scale(0.095 -0.095)">
     <defs>
      <path id="DejaVuSans-62" d="M 3116 1747 
Q 3116 2381 2855 2742 
Q 2594 3103 2138 3103 
Q 1681 3103 1420 2742 
Q 1159 2381 1159 1747 
Q 1159 1113 1420 752 
Q 1681 391 2138 391 
Q 2594 391 2855 752 
Q 3116 1113 3116 1747 
z
M 1159 2969 
Q 1341 3281 1617 3432 
Q 1894 3584 2278 3584 
Q 2916 3584 3314 3078 
Q 3713 2572 3713 1747 
Q 3713 922 3314 415 
Q 2916 -91 2278 -91 
Q 1894 -91 1617 61 
Q 1341 213 1159 525 
L 1159 0 
L 581 0 
L 581 4863 
L 1159 4863 
L 1159 2969 
z
" transform="scale(0.015625)"/>
     </defs>
     <use xlink:href="#DejaVuSans-6b"/>
     <use xlink:href="#DejaVuSans-65" transform="translate(54.285156 0)"/>
     <use xlink:href="#DejaVuSans-79" transform="translate(115.808594 0)"/>
     <use xlink:href="#DejaVuSans-3d" transform="translate(174.988281 0)"/>
     <use xlink:href="#DejaVuSans-22" transform="translate(258.777344 0)"/>
     <use xlink:href="#DejaVuSans-61" transform="translate(304.773438 0)"/>
     <use xlink:href="#DejaVuSans-62" transform="translate(366.052734 0)"/>
     <use xlink:href="#DejaVuSans-74" transform="translate(429.529297 0)"/>
     <use xlink:href="#DejaVuSans-22" transform="translate(468.738281 0)"/>
     <use xlink:href="#DejaVuSans-20" transform="translate(514.734375 0)"/>
     <use xlink:href="#DejaVuSans-20" transform="translate(546.521484 0)"/>
     <use xlink:href="#DejaVuSans-2d" transform="translate(578.308594 0)"/>
     <use xlink:href="#DejaVuSans-3e" transform="translate(614.392578 0)"/>
     <use xlink:href="#DejaVuSans-20" transform="translate(698.181641 0)"/>
     <use xlink:href="#DejaVuSans-20" transform="translate(729.96875 0)"/>
     <use xlink:href="#DejaVuSans-5b" transform="translate(761.755859 0)"/>
     <use xlink:href="#DejaVuSans-27" transform="translate(800.769531 0)"/>
     <use xlink:href="#DejaVuSans-62" transform="translate(828.259766 0)"/>
     <use xlink:href="#DejaVuSans-61" transform="translate(891.736328 0)"/>
     <use xlink:href="#DejaVuSans-74" transform="translate(953.015625 0)"/>
     <use xlink:href="#DejaVuSans-27" transform="translate(992.224609 0)"/>
     <use xlink:href="#DejaVuSans-5d" transform="translate(1019.714844 0)"/>
    </g>
   </g>
   <g id="text_16">
    <!-- Group Anagrams — sorted string as HashMap key -->
    <g transform="translate(108.760313 16.318125) scale(0.12 -0.12)">
     <defs>
      <path id="DejaVuSans-47" d="M 3809 666 
L 3809 1919 
L 2778 1919 
L 2778 2438 
L 4434 2438 
L 4434 434 
Q 4069 175 3628 42 
Q 3188 -91 2688 -91 
Q 1594 -91 976 548 
Q 359 1188 359 2328 
Q 359 3472 976 4111 
Q 1594 4750 2688 4750 
Q 3144 4750 3555 4637 
Q 3966 4525 4313 4306 
L 4313 3634 
Q 3963 3931 3569 4081 
Q 3175 4231 2741 4231 
Q 1884 4231 1454 3753 
Q 1025 3275 1025 2328 
Q 1025 1384 1454 906 
Q 1884 428 2741 428 
Q 3075 428 3337 486 
Q 3600 544 3809 666 
z
" transform="scale(0.015625)"/>
      <path id="DejaVuSans-72" d="M 2631 2963 
Q 2534 3019 2420 3045 
Q 2306 3072 2169 3072 
Q 1681 3072 1420 2755 
Q 1159 2438 1159 1844 
L 1159 0 
L 581 0 
L 581 3500 
L 1159 3500 
L 1159 2956 
Q 1341 3275 1631 3429 
Q 1922 3584 2338 3584 
Q 2397 3584 2469 3576 
Q 2541 3569 2628 3553 
L 2631 2963 
z
" transform="scale(0.015625)"/>
      <path id="DejaVuSans-6f" d="M 1959 3097 
Q 1497 3097 1228 2736 
Q 959 2375 959 1747 
Q 959 1119 1226 758 
Q 1494 397 1959 397 
Q 2419 397 2687 759 
Q 2956 1122 2956 1747 
Q 2956 2369 2687 2733 
Q 2419 3097 1959 3097 
z
M 1959 3584 
Q 2709 3584 3137 3096 
Q 3566 2609 3566 1747 
Q 3566 888 3137 398 
Q 2709 -91 1959 -91 
Q 1206 -91 779 398 
Q 353 888 353 1747 
Q 353 2609 779 3096 
Q 1206 3584 1959 3584 
z
" transform="scale(0.015625)"/>
      <path id="DejaVuSans-75" d="M 544 1381 
L 544 3500 
L 1119 3500 
L 1119 1403 
Q 1119 906 1312 657 
Q 1506 409 1894 409 
Q 2359 409 2629 706 
Q 2900 1003 2900 1516 
L 2900 3500 
L 3475 3500 
L 3475 0 
L 2900 0 
L 2900 538 
Q 2691 219 2414 64 
Q 2138 -91 1772 -91 
Q 1169 -91 856 284 
Q 544 659 544 1381 
z
M 1991 3584 
L 1991 3584 
z
" transform="scale(0.015625)"/>
      <path id="DejaVuSans-70" d="M 1159 525 
L 1159 -1331 
L 581 -1331 
L 581 3500 
L 1159 3500 
L 1159 2969 
Q 1341 3281 1617 3432 
Q 1894 3584 2278 3584 
Q 2916 3584 3314 3078 
Q 3713 2572 3713 1747 
Q 3713 922 3314 415 
Q 2916 -91 2278 -91 
Q 1894 -91 1617 61 
Q 1341 213 1159 525 
z
M 3116 1747 
Q 3116 2381 2855 2742 
Q 2594 3103 2138 3103 
Q 1681 3103 1420 2742 
Q 1159 2381 1159 1747 
Q 1159 1113 1420 752 
Q 1681 391 2138 391 
Q 2594 391 2855 752 
Q 3116 1113 3116 1747 
z
" transform="scale(0.015625)"/>
      <path id="DejaVuSans-41" d="M 2188 4044 
L 1331 1722 
L 3047 1722 
L 2188 4044 
z
M 1831 4666 
L 2547 4666 
L 4325 0 
L 3669 0 
L 3244 1197 
L 1141 1197 
L 716 0 
L 50 0 
L 1831 4666 
z
" transform="scale(0.015625)"/>
      <path id="DejaVuSans-67" d="M 2906 1791 
Q 2906 2416 2648 2759 
Q 2391 3103 1925 3103 
Q 1463 3103 1205 2759 
Q 947 2416 947 1791 
Q 947 1169 1205 825 
Q 1463 481 1925 481 
Q 2391 481 2648 825 
Q 2906 1169 2906 1791 
z
M 3481 434 
Q 3481 -459 3084 -895 
Q 2688 -1331 1869 -1331 
Q 1566 -1331 1297 -1286 
Q 1028 -1241 775 -1147 
L 775 -588 
Q 1028 -725 1275 -790 
Q 1522 -856 1778 -856 
Q 2344 -856 2625 -561 
Q 2906 -266 2906 331 
L 2906 616 
Q 2728 306 2450 153 
Q 2172 0 1784 0 
Q 1141 0 747 490 
Q 353 981 353 1791 
Q 353 2603 747 3093 
Q 1141 3584 1784 3584 
Q 2172 3584 2450 3431 
Q 2728 3278 2906 2969 
L 2906 3500 
L 3481 3500 
L 3481 434 
z
" transform="scale(0.015625)"/>
      <path id="DejaVuSans-6d" d="M 3328 2828 
Q 3544 3216 3844 3400 
Q 4144 3584 4550 3584 
Q 5097 3584 5394 3201 
Q 5691 2819 5691 2113 
L 5691 0 
L 5113 0 
L 5113 2094 
Q 5113 2597 4934 2840 
Q 4756 3084 4391 3084 
Q 3944 3084 3684 2787 
Q 3425 2491 3425 1978 
L 3425 0 
L 2847 0 
L 2847 2094 
Q 2847 2600 2669 2842 
Q 2491 3084 2119 3084 
Q 1678 3084 1418 2786 
Q 1159 2488 1159 1978 
L 1159 0 
L 581 0 
L 581 3500 
L 1159 3500 
L 1159 2956 
Q 1356 3278 1631 3431 
Q 1906 3584 2284 3584 
Q 2666 3584 2933 3390 
Q 3200 3197 3328 2828 
z
" transform="scale(0.015625)"/>
      <path id="DejaVuSans-73" d="M 2834 3397 
L 2834 2853 
Q 2591 2978 2328 3040 
Q 2066 3103 1784 3103 
Q 1356 3103 1142 2972 
Q 928 2841 928 2578 
Q 928 2378 1081 2264 
Q 1234 2150 1697 2047 
L 1894 2003 
Q 2506 1872 2764 1633 
Q 3022 1394 3022 966 
Q 3022 478 2636 193 
Q 2250 -91 1575 -91 
Q 1294 -91 989 -36 
Q 684 19 347 128 
L 347 722 
Q 666 556 975 473 
Q 1284 391 1588 391 
Q 1994 391 2212 530 
Q 2431 669 2431 922 
Q 2431 1156 2273 1281 
Q 2116 1406 1581 1522 
L 1381 1569 
Q 847 1681 609 1914 
Q 372 2147 372 2553 
Q 372 3047 722 3315 
Q 1072 3584 1716 3584 
Q 2034 3584 2315 3537 
Q 2597 3491 2834 3397 
z
" transform="scale(0.015625)"/>
      <path id="DejaVuSans-2014" d="M 313 1978 
L 6088 1978 
L 6088 1528 
L 313 1528 
L 313 1978 
z
" transform="scale(0.015625)"/>
      <path id="DejaVuSans-64" d="M 2906 2969 
L 2906 4863 
L 3481 4863 
L 3481 0 
L 2906 0 
L 2906 525 
Q 2725 213 2448 61 
Q 2172 -91 1784 -91 
Q 1150 -91 751 415 
Q 353 922 353 1747 
Q 353 2572 751 3078 
Q 1150 3584 1784 3584 
Q 2172 3584 2448 3432 
Q 2725 3281 2906 2969 
z
M 947 1747 
Q 947 1113 1208 752 
Q 1469 391 1925 391 
Q 2381 391 2643 752 
Q 2906 1113 2906 1747 
Q 2906 2381 2643 2742 
Q 2381 3103 1925 3103 
Q 1469 3103 1208 2742 
Q 947 2381 947 1747 
z
" transform="scale(0.015625)"/>
      <path id="DejaVuSans-69" d="M 603 3500 
L 1178 3500 
L 1178 0 
L 603 0 
L 603 3500 
z
M 603 4863 
L 1178 4863 
L 1178 4134 
L 603 4134 
L 603 4863 
z
" transform="scale(0.015625)"/>
      <path id="DejaVuSans-48" d="M 628 4666 
L 1259 4666 
L 1259 2753 
L 3553 2753 
L 3553 4666 
L 4184 4666 
L 4184 0 
L 3553 0 
L 3553 2222 
L 1259 2222 
L 1259 0 
L 628 0 
L 628 4666 
z
" transform="scale(0.015625)"/>
      <path id="DejaVuSans-68" d="M 3513 2113 
L 3513 0 
L 2938 0 
L 2938 2094 
Q 2938 2591 2744 2837 
Q 2550 3084 2163 3084 
Q 1697 3084 1428 2787 
Q 1159 2491 1159 1978 
L 1159 0 
L 581 0 
L 581 4863 
L 1159 4863 
L 1159 2956 
Q 1366 3272 1645 3428 
Q 1925 3584 2291 3584 
Q 2894 3584 3203 3211 
Q 3513 2838 3513 2113 
z
" transform="scale(0.015625)"/>
      <path id="DejaVuSans-4d" d="M 628 4666 
L 1569 4666 
L 2759 1491 
L 3956 4666 
L 4897 4666 
L 4897 0 
L 4281 0 
L 4281 4097 
L 3078 897 
L 2444 897 
L 1241 4097 
L 1241 0 
L 628 0 
L 628 4666 
z
" transform="scale(0.015625)"/>
     </defs>
     <use xlink:href="#DejaVuSans-47"/>
     <use xlink:href="#DejaVuSans-72" transform="translate(77.490234 0)"/>
     <use xlink:href="#DejaVuSans-6f" transform="translate(116.353516 0)"/>
     <use xlink:href="#DejaVuSans-75" transform="translate(177.535156 0)"/>
     <use xlink:href="#DejaVuSans-70" transform="translate(240.914062 0)"/>
     <use xlink:href="#DejaVuSans-20" transform="translate(304.390625 0)"/>
     <use xlink:href="#DejaVuSans-41" transform="translate(336.177734 0)"/>
     <use xlink:href="#DejaVuSans-6e" transform="translate(404.585938 0)"/>
     <use xlink:href="#DejaVuSans-61" transform="translate(467.964844 0)"/>
     <use xlink:href="#DejaVuSans-67" transform="translate(529.244141 0)"/>
     <use xlink:href="#DejaVuSans-72" transform="translate(592.720703 0)"/>
     <use xlink:href="#DejaVuSans-61" transform="translate(633.833984 0)"/>
     <use xlink:href="#DejaVuSans-6d" transform="translate(695.113281 0)"/>
     <use xlink:href="#DejaVuSans-73" transform="translate(792.525391 0)"/>
     <use xlink:href="#DejaVuSans-20" transform="translate(844.625 0)"/>
     <use xlink:href="#DejaVuSans-2014" transform="translate(876.412109 0)"/>
     <use xlink:href="#DejaVuSans-20" transform="translate(976.412109 0)"/>
     <use xlink:href="#DejaVuSans-73" transform="translate(1008.199219 0)"/>
     <use xlink:href="#DejaVuSans-6f" transform="translate(1060.298828 0)"/>
     <use xlink:href="#DejaVuSans-72" transform="translate(1121.480469 0)"/>
     <use xlink:href="#DejaVuSans-74" transform="translate(1162.59375 0)"/>
     <use xlink:href="#DejaVuSans-65" transform="translate(1201.802734 0)"/>
     <use xlink:href="#DejaVuSans-64" transform="translate(1263.326172 0)"/>
     <use xlink:href="#DejaVuSans-20" transform="translate(1326.802734 0)"/>
     <use xlink:href="#DejaVuSans-73" transform="translate(1358.589844 0)"/>
     <use xlink:href="#DejaVuSans-74" transform="translate(1410.689453 0)"/>
     <use xlink:href="#DejaVuSans-72" transform="translate(1449.898438 0)"/>
     <use xlink:href="#DejaVuSans-69" transform="translate(1491.011719 0)"/>
     <use xlink:href="#DejaVuSans-6e" transform="translate(1518.794922 0)"/>
     <use xlink:href="#DejaVuSans-67" transform="translate(1582.173828 0)"/>
     <use xlink:href="#DejaVuSans-20" transform="translate(1645.650391 0)"/>
     <use xlink:href="#DejaVuSans-61" transform="translate(1677.4375 0)"/>
     <use xlink:href="#DejaVuSans-73" transform="translate(1738.716797 0)"/>
     <use xlink:href="#DejaVuSans-20" transform="translate(1790.816406 0)"/>
     <use xlink:href="#DejaVuSans-48" transform="translate(1822.603516 0)"/>
     <use xlink:href="#DejaVuSans-61" transform="translate(1897.798828 0)"/>
     <use xlink:href="#DejaVuSans-73" transform="translate(1959.078125 0)"/>
     <use xlink:href="#DejaVuSans-68" transform="translate(2011.177734 0)"/>
     <use xlink:href="#DejaVuSans-4d" transform="translate(2074.556641 0)"/>
     <use xlink:href="#DejaVuSans-61" transform="translate(2160.835938 0)"/>
     <use xlink:href="#DejaVuSans-70" transform="translate(2222.115234 0)"/>
     <use xlink:href="#DejaVuSans-20" transform="translate(2285.591797 0)"/>
     <use xlink:href="#DejaVuSans-6b" transform="translate(2317.378906 0)"/>
     <use xlink:href="#DejaVuSans-65" transform="translate(2371.664062 0)"/>
     <use xlink:href="#DejaVuSans-79" transform="translate(2433.1875 0)"/>
    </g>
   </g>
  </g>
 </g>
 <defs>
  <clipPath id="p584585287d">
   <rect x="7.2" y="28.318125" width="502.2" height="232.848"/>
  </clipPath>
 </defs>
</svg>
