<?xml version="1.0" encoding="UTF-8"?>
<svg xmlns="http://www.w3.org/2000/svg" width="700" height="200" viewBox="0 0 700 200" role="img">
<title>6-week study plan timeline</title>
<desc>Week 1 Domain 1 Kinesis Glue Lambda, Week 2 Domain 1 continued and Domain 2, Week 3 Domain 2 continued and Domain 3, Week 4 Domain 4 Security, Week 5 New v1.1 topics, Week 6 Practice exams</desc>
<defs>
  <style>
    .sp-th{font-family:-apple-system,sans-serif;font-size:12px;font-weight:700;fill:#1E2433;}
    .sp-ts{font-family:-apple-system,sans-serif;font-size:10px;fill:#5A6478;}
  </style>
</defs>
<rect x="0" y="0" width="700" height="200" fill="#FFFFFF"/>

<rect x="8" y="30" width="106" height="74" rx="8" fill="#E6F1FB" stroke="#185FA5" stroke-width="0.5"/>
<text class="sp-th" x="61" y="50" text-anchor="middle">Week 1</text>
<text class="sp-ts" x="61" y="68" text-anchor="middle">P1: Kinesis</text>
<text class="sp-ts" x="61" y="82" text-anchor="middle">Glue · Lambda</text>

<rect x="120" y="30" width="106" height="74" rx="8" fill="#E6F1FB" stroke="#185FA5" stroke-width="0.5"/>
<text class="sp-th" x="173" y="50" text-anchor="middle">Week 2</text>
<text class="sp-ts" x="173" y="68" text-anchor="middle">P1 cont. + P2</text>
<text class="sp-ts" x="173" y="82" text-anchor="middle">Redshift · DDB</text>

<rect x="232" y="30" width="106" height="74" rx="8" fill="#E1F5EE" stroke="#0F6E56" stroke-width="0.5"/>
<text class="sp-th" x="285" y="50" text-anchor="middle">Week 3</text>
<text class="sp-ts" x="285" y="68" text-anchor="middle">P2 cont. + P3</text>
<text class="sp-ts" x="285" y="82" text-anchor="middle">Athena · CW</text>

<rect x="344" y="30" width="106" height="74" rx="8" fill="#FAEEDA" stroke="#854F0B" stroke-width="0.5"/>
<text class="sp-th" x="397" y="50" text-anchor="middle">Week 4</text>
<text class="sp-ts" x="397" y="68" text-anchor="middle">P4: IAM · KMS</text>
<text class="sp-ts" x="397" y="82" text-anchor="middle">Macie · Trail</text>

<rect x="456" y="30" width="106" height="74" rx="8" fill="#F5F3FF" stroke="#534AB7" stroke-width="0.5"/>
<text class="sp-th" x="509" y="50" text-anchor="middle">Week 5</text>
<text class="sp-ts" x="509" y="68" text-anchor="middle">v1.1 New:</text>
<text class="sp-ts" x="509" y="82" text-anchor="middle">Bedrock · Iceberg</text>

<rect x="568" y="30" width="124" height="74" rx="8" fill="#ECFDF5" stroke="#059669" stroke-width="0.5"/>
<text class="sp-th" x="630" y="50" text-anchor="middle">Week 6</text>
<text class="sp-ts" x="630" y="68" text-anchor="middle">Practice exams</text>
<text class="sp-ts" x="630" y="82" text-anchor="middle">+ weak spots</text>

<text class="sp-ts" x="350" y="130" text-anchor="middle">Domain 1 deserves the most time — if studying part-time, stretch Weeks 1-2 into 3 weeks</text>
</svg>
